<svg width="28" height="28" viewBox="0 0 28 28" fill="none" xmlns="http://www.w3.org/2000/svg">
<path d="M25.523 4.51092C23.9037 2.89168 21.7373 2 19.422 2C17.4288 2 15.546 2.66106 14.0275 3.87808C12.4872 2.66106 10.602 2 8.62827 2C6.3023 2 4.13011 2.89206 2.51092 4.51092C0.89168 6.12984 0 8.29666 0 10.6115C0 12.9267 0.89168 15.0932 2.51092 16.7121L13.2879 27.4891C13.4843 27.6858 13.7421 27.7842 14 27.7842C14.2572 27.7842 14.5143 27.6861 14.7111 27.4904L25.4968 16.7376C27.1113 15.0868 28 12.9173 28 10.6283C28 8.31816 27.1231 6.14865 25.523 4.51092ZM24.0656 15.3198L14.001 25.3535L3.93509 15.2879C2.69659 14.0491 2.01436 12.3882 2.01436 10.6115C2.01436 8.83484 2.69659 7.17398 3.93509 5.93515C5.17393 4.69664 6.84053 4.01441 8.62827 4.01441C10.3875 4.01441 12.0574 4.69965 13.3295 5.94319C13.7237 6.32895 14.3559 6.32556 14.7457 5.93515C15.9845 4.69664 17.645 4.01441 19.422 4.01441C21.1991 4.01441 22.8596 4.69664 24.0901 5.92705C25.3124 7.17765 25.9856 8.84726 25.9856 10.6283C25.9856 12.3879 25.3007 14.0574 24.0656 15.3198Z" fill="#EF9A41"/>
</svg>
