<svg width="13" height="15" viewBox="0 0 13 15" fill="none" xmlns="http://www.w3.org/2000/svg">
<path d="M3.93333 1V0H2.93333V1H3.93333ZM2.93333 14V15H4.93333V14H2.93333ZM1 10.7059H0V12.7059H1V10.7059ZM1 7.64706H0V9.64706H1V7.64706ZM2.93333 1V11.7059H4.93333V1H2.93333ZM2.93333 11.7059V14H4.93333V11.7059H2.93333ZM10.5333 11.7059C10.5333 10.7059 10.5333 10.7059 10.5333 10.7059C10.5332 10.7059 10.5332 10.7059 10.5331 10.7059C10.533 10.7059 10.5329 10.7059 10.5327 10.7059C10.5326 10.7059 10.5324 10.7059 10.5323 10.7059C10.5321 10.7059 10.5319 10.7059 10.5317 10.7059C10.5315 10.7059 10.5312 10.7059 10.531 10.7059C10.5307 10.7059 10.5304 10.7059 10.5301 10.7059C10.5298 10.7059 10.5295 10.7059 10.5291 10.7059C10.5288 10.7059 10.5284 10.7059 10.528 10.7059C10.5276 10.7059 10.5272 10.7059 10.5267 10.7059C10.5263 10.7059 10.5258 10.7059 10.5254 10.7059C10.5249 10.7059 10.5244 10.7059 10.5239 10.7059C10.5233 10.7059 10.5228 10.7059 10.5222 10.7059C10.5217 10.7059 10.5211 10.7059 10.5205 10.7059C10.5199 10.7059 10.5192 10.7059 10.5186 10.7059C10.5179 10.7059 10.5172 10.7059 10.5166 10.7059C10.5159 10.7059 10.5151 10.7059 10.5144 10.7059C10.5137 10.7059 10.5129 10.7059 10.5121 10.7059C10.5114 10.7059 10.5106 10.7059 10.5097 10.7059C10.5089 10.7059 10.5081 10.7059 10.5072 10.7059C10.5063 10.7059 10.5055 10.7059 10.5046 10.7059C10.5036 10.7059 10.5027 10.7059 10.5018 10.7059C10.5008 10.7059 10.4999 10.7059 10.4989 10.7059C10.4979 10.7059 10.4969 10.7059 10.4958 10.7059C10.4948 10.7059 10.4938 10.7059 10.4927 10.7059C10.4916 10.7059 10.4905 10.7059 10.4894 10.7059C10.4883 10.7059 10.4872 10.7059 10.486 10.7059C10.4849 10.7059 10.4837 10.7059 10.4825 10.7059C10.4813 10.7059 10.4801 10.7059 10.4788 10.7059C10.4776 10.7059 10.4764 10.7059 10.4751 10.7059C10.4738 10.7059 10.4725 10.7059 10.4712 10.7059C10.4699 10.7059 10.4685 10.7059 10.4672 10.7059C10.4658 10.7059 10.4644 10.7059 10.463 10.7059C10.4616 10.7059 10.4602 10.7059 10.4588 10.7059C10.4573 10.7059 10.4559 10.7059 10.4544 10.7059C10.4529 10.7059 10.4514 10.7059 10.4499 10.7059C10.4484 10.7059 10.4468 10.7059 10.4453 10.7059C10.4437 10.7059 10.4421 10.7059 10.4405 10.7059C10.4389 10.7059 10.4373 10.7059 10.4357 10.7059C10.434 10.7059 10.4324 10.7059 10.4307 10.7059C10.429 10.7059 10.4273 10.7059 10.4256 10.7059C10.4239 10.7059 10.4222 10.7059 10.4204 10.7059C10.4186 10.7059 10.4169 10.7059 10.4151 10.7059C10.4133 10.7059 10.4115 10.7059 10.4096 10.7059C10.4078 10.7059 10.4059 10.7059 10.404 10.7059C10.4022 10.7059 10.4003 10.7059 10.3984 10.7059C10.3964 10.7059 10.3945 10.7059 10.3926 10.7059C10.3906 10.7059 10.3886 10.7059 10.3866 10.7059C10.3846 10.7059 10.3826 10.7059 10.3806 10.7059C10.3786 10.7059 10.3765 10.7059 10.3745 10.7059C10.3724 10.7059 10.3703 10.7059 10.3682 10.7059C10.3661 10.7059 10.364 10.7059 10.3618 10.7059C10.3597 10.7059 10.3575 10.7059 10.3553 10.7059C10.3531 10.7059 10.3509 10.7059 10.3487 10.7059C10.3465 10.7059 10.3442 10.7059 10.342 10.7059C10.3397 10.7059 10.3374 10.7059 10.3351 10.7059C10.3328 10.7059 10.3305 10.7059 10.3282 10.7059C10.3259 10.7059 10.3235 10.7059 10.3211 10.7059C10.3188 10.7059 10.3164 10.7059 10.314 10.7059C10.3115 10.7059 10.3091 10.7059 10.3067 10.7059C10.3042 10.7059 10.3018 10.7059 10.2993 10.7059C10.2968 10.7059 10.2943 10.7059 10.2918 10.7059C10.2892 10.7059 10.2867 10.7059 10.2841 10.7059C10.2816 10.7059 10.279 10.7059 10.2764 10.7059C10.2738 10.7059 10.2712 10.7059 10.2686 10.7059C10.2659 10.7059 10.2633 10.7059 10.2606 10.7059C10.2579 10.7059 10.2552 10.7059 10.2525 10.7059C10.2498 10.7059 10.2471 10.7059 10.2444 10.7059C10.2416 10.7059 10.2389 10.7059 10.2361 10.7059C10.2333 10.7059 10.2305 10.7059 10.2277 10.7059C10.2249 10.7059 10.222 10.7059 10.2192 10.7059C10.2163 10.7059 10.2135 10.7059 10.2106 10.7059C10.2077 10.7059 10.2048 10.7059 10.2019 10.7059C10.199 10.7059 10.196 10.7059 10.1931 10.7059C10.1901 10.7059 10.1871 10.7059 10.1841 10.7059C10.1811 10.7059 10.1781 10.7059 10.1751 10.7059C10.1721 10.7059 10.169 10.7059 10.166 10.7059C10.1629 10.7059 10.1598 10.7059 10.1567 10.7059C10.1536 10.7059 10.1505 10.7059 10.1474 10.7059C10.1442 10.7059 10.1411 10.7059 10.1379 10.7059C10.1347 10.7059 10.1315 10.7059 10.1283 10.7059C10.1251 10.7059 10.1219 10.7059 10.1187 10.7059C10.1154 10.7059 10.1122 10.7059 10.1089 10.7059C10.1056 10.7059 10.1023 10.7059 10.099 10.7059C10.0957 10.7059 10.0924 10.7059 10.0891 10.7059C10.0857 10.7059 10.0823 10.7059 10.079 10.7059C10.0756 10.7059 10.0722 10.7059 10.0688 10.7059C10.0654 10.7059 10.0619 10.7059 10.0585 10.7059C10.0551 10.7059 10.0516 10.7059 10.0481 10.7059C10.0446 10.7059 10.0411 10.7059 10.0376 10.7059C10.0341 10.7059 10.0306 10.7059 10.027 10.7059C10.0235 10.7059 10.0199 10.7059 10.0163 10.7059C10.0128 10.7059 10.0092 10.7059 10.0056 10.7059C10.0019 10.7059 9.99831 10.7059 9.99467 10.7059C9.99102 10.7059 9.98736 10.7059 9.98368 10.7059C9.97999 10.7059 9.9763 10.7059 9.97258 10.7059C9.96887 10.7059 9.96514 10.7059 9.9614 10.7059C9.95765 10.7059 9.95389 10.7059 9.95011 10.7059C9.94633 10.7059 9.94253 10.7059 9.93872 10.7059C9.93491 10.7059 9.93108 10.7059 9.92724 10.7059C9.92339 10.7059 9.91953 10.7059 9.91565 10.7059C9.91178 10.7059 9.90788 10.7059 9.90397 10.7059C9.90006 10.7059 9.89614 10.7059 9.8922 10.7059C9.88826 10.7059 9.8843 10.7059 9.88032 10.7059C9.87635 10.7059 9.87236 10.7059 9.86835 10.7059C9.86435 10.7059 9.86033 10.7059 9.85629 10.7059C9.85225 10.7059 9.8482 10.7059 9.84413 10.7059C9.84006 10.7059 9.83597 10.7059 9.83187 10.7059C9.82777 10.7059 9.82365 10.7059 9.81952 10.7059C9.81539 10.7059 9.81124 10.7059 9.80708 10.7059C9.80291 10.7059 9.79873 10.7059 9.79454 10.7059C9.79034 10.7059 9.78613 10.7059 9.7819 10.7059C9.77768 10.7059 9.77343 10.7059 9.76918 10.7059C9.76492 10.7059 9.76064 10.7059 9.75636 10.7059C9.75207 10.7059 9.74776 10.7059 9.74344 10.7059C9.73912 10.7059 9.73479 10.7059 9.73044 10.7059C9.72609 10.7059 9.72172 10.7059 9.71734 10.7059C9.71296 10.7059 9.70856 10.7059 9.70415 10.7059C9.69974 10.7059 9.69531 10.7059 9.69087 10.7059C9.68643 10.7059 9.68197 10.7059 9.6775 10.7059C9.67303 10.7059 9.66854 10.7059 9.66404 10.7059C9.65954 10.7059 9.65502 10.7059 9.65049 10.7059C9.64595 10.7059 9.64141 10.7059 9.63684 10.7059C9.63228 10.7059 9.6277 10.7059 9.62311 10.7059C9.61852 10.7059 9.61391 10.7059 9.60929 10.7059C9.60467 10.7059 9.60003 10.7059 9.59538 10.7059C9.59073 10.7059 9.58606 10.7059 9.58138 10.7059C9.5767 10.7059 9.57201 10.7059 9.5673 10.7059C9.56259 10.7059 9.55786 10.7059 9.55312 10.7059C9.54838 10.7059 9.54363 10.7059 9.53886 10.7059C9.53409 10.7059 9.52931 10.7059 9.52451 10.7059C9.51972 10.7059 9.5149 10.7059 9.51008 10.7059C9.50525 10.7059 9.50041 10.7059 9.49556 10.7059C9.4907 10.7059 9.48583 10.7059 9.48095 10.7059C9.47606 10.7059 9.47117 10.7059 9.46625 10.7059C9.46134 10.7059 9.45642 10.7059 9.45148 10.7059C9.44654 10.7059 9.44158 10.7059 9.43661 10.7059C9.43164 10.7059 9.42666 10.7059 9.42166 10.7059C9.41667 10.7059 9.41166 10.7059 9.40663 10.7059C9.40161 10.7059 9.39657 10.7059 9.39151 10.7059C9.38646 10.7059 9.38139 10.7059 9.37631 10.7059C9.37123 10.7059 9.36614 10.7059 9.36103 10.7059C9.35592 10.7059 9.3508 10.7059 9.34566 10.7059C9.34053 10.7059 9.33538 10.7059 9.33022 10.7059C9.32505 10.7059 9.31988 10.7059 9.31468 10.7059C9.30949 10.7059 9.30429 10.7059 9.29907 10.7059C9.29385 10.7059 9.28862 10.7059 9.28338 10.7059C9.27813 10.7059 9.27287 10.7059 9.2676 10.7059C9.26233 10.7059 9.25705 10.7059 9.25175 10.7059C9.24645 10.7059 9.24114 10.7059 9.23581 10.7059C9.23049 10.7059 9.22515 10.7059 9.2198 10.7059C9.21444 10.7059 9.20908 10.7059 9.2037 10.7059C9.19832 10.7059 9.19293 10.7059 9.18752 10.7059C9.18212 10.7059 9.1767 10.7059 9.17127 10.7059C9.16584 10.7059 9.16039 10.7059 9.15494 10.7059C9.14948 10.7059 9.14401 10.7059 9.13853 10.7059C9.13304 10.7059 9.12755 10.7059 9.12204 10.7059C9.11653 10.7059 9.111 10.7059 9.10547 10.7059C9.09993 10.7059 9.09439 10.7059 9.08883 10.7059C9.08327 10.7059 9.07769 10.7059 9.07211 10.7059C9.06652 10.7059 9.06092 10.7059 9.05531 10.7059C9.0497 10.7059 9.04407 10.7059 9.03843 10.7059C9.0328 10.7059 9.02715 10.7059 9.02149 10.7059C9.01582 10.7059 9.01015 10.7059 9.00446 10.7059C8.99877 10.7059 8.99307 10.7059 8.98736 10.7059C8.98165 10.7059 8.97592 10.7059 8.97019 10.7059C8.96445 10.7059 8.9587 10.7059 8.95294 10.7059C8.94718 10.7059 8.9414 10.7059 8.93562 10.7059C8.92983 10.7059 8.92403 10.7059 8.91822 10.7059C8.91241 10.7059 8.90658 10.7059 8.90075 10.7059C8.89491 10.7059 8.88907 10.7059 8.88321 10.7059C8.87735 10.7059 8.87147 10.7059 8.86559 10.7059C8.85971 10.7059 8.85381 10.7059 8.8479 10.7059C8.842 10.7059 8.83608 10.7059 8.83014 10.7059C8.82421 10.7059 8.81827 10.7059 8.81231 10.7059C8.80636 10.7059 8.80039 10.7059 8.79441 10.7059C8.78843 10.7059 8.78244 10.7059 8.77644 10.7059C8.77043 10.7059 8.76442 10.7059 8.75839 10.7059C8.75237 10.7059 8.74633 10.7059 8.74028 10.7059C8.73423 10.7059 8.72817 10.7059 8.7221 10.7059C8.71602 10.7059 8.70994 10.7059 8.70384 10.7059C8.69775 10.7059 8.69164 10.7059 8.68552 10.7059C8.6794 10.7059 8.67327 10.7059 8.66713 10.7059C8.66099 10.7059 8.65484 10.7059 8.64867 10.7059C8.64251 10.7059 8.63633 10.7059 8.63014 10.7059C8.62396 10.7059 8.61776 10.7059 8.61155 10.7059C8.60534 10.7059 8.59912 10.7059 8.59289 10.7059C8.58665 10.7059 8.58041 10.7059 8.57416 10.7059C8.5679 10.7059 8.56164 10.7059 8.55536 10.7059C8.54908 10.7059 8.5428 10.7059 8.5365 10.7059C8.5302 10.7059 8.52389 10.7059 8.51757 10.7059C8.51125 10.7059 8.50492 10.7059 8.49858 10.7059C8.49224 10.7059 8.48588 10.7059 8.47952 10.7059C8.47316 10.7059 8.46678 10.7059 8.46039 10.7059C8.45401 10.7059 8.44761 10.7059 8.44121 10.7059C8.4348 10.7059 8.42838 10.7059 8.42195 10.7059C8.41553 10.7059 8.40909 10.7059 8.40264 10.7059C8.39619 10.7059 8.38973 10.7059 8.38326 10.7059C8.37679 10.7059 8.37031 10.7059 8.36382 10.7059C8.35733 10.7059 8.35082 10.7059 8.34431 10.7059C8.3378 10.7059 8.33128 10.7059 8.32474 10.7059C8.31821 10.7059 8.31167 10.7059 8.30511 10.7059C8.29856 10.7059 8.292 10.7059 8.28542 10.7059C8.27885 10.7059 8.27226 10.7059 8.26567 10.7059C8.25908 10.7059 8.25247 10.7059 8.24586 10.7059C8.23924 10.7059 8.23262 10.7059 8.22598 10.7059C8.21935 10.7059 8.2127 10.7059 8.20605 10.7059C8.19939 10.7059 8.19273 10.7059 8.18605 10.7059C8.17938 10.7059 8.17269 10.7059 8.166 10.7059C8.1593 10.7059 8.1526 10.7059 8.14589 10.7059C8.13917 10.7059 8.13245 10.7059 8.12571 10.7059C8.11898 10.7059 8.11224 10.7059 8.10548 10.7059C8.09873 10.7059 8.09197 10.7059 8.08519 10.7059C8.07842 10.7059 8.07164 10.7059 8.06485 10.7059C8.05806 10.7059 8.05126 10.7059 8.04444 10.7059C8.03763 10.7059 8.03081 10.7059 8.02398 10.7059C8.01715 10.7059 8.01031 10.7059 8.00347 10.7059C7.99662 10.7059 7.98976 10.7059 7.98289 10.7059C7.97602 10.7059 7.96915 10.7059 7.96226 10.7059C7.95538 10.7059 7.94848 10.7059 7.94158 10.7059C7.93467 10.7059 7.92776 10.7059 7.92084 10.7059C7.91391 10.7059 7.90698 10.7059 7.90004 10.7059C7.8931 10.7059 7.88615 10.7059 7.87919 10.7059C7.87223 10.7059 7.86526 10.7059 7.85828 10.7059C7.85131 10.7059 7.84432 10.7059 7.83732 10.7059C7.83033 10.7059 7.82333 10.7059 7.81631 10.7059C7.8093 10.7059 7.80228 10.7059 7.79525 10.7059C7.78822 10.7059 7.78118 10.7059 7.77413 10.7059C7.76708 10.7059 7.76002 10.7059 7.75296 10.7059C7.74589 10.7059 7.73882 10.7059 7.73173 10.7059C7.72465 10.7059 7.71756 10.7059 7.71046 10.7059C7.70336 10.7059 7.69625 10.7059 7.68913 10.7059C7.68202 10.7059 7.67489 10.7059 7.66776 10.7059C7.66062 10.7059 7.65348 10.7059 7.64633 10.7059C7.63918 10.7059 7.63202 10.7059 7.62485 10.7059C7.61768 10.7059 7.61051 10.7059 7.60332 10.7059C7.59614 10.7059 7.58894 10.7059 7.58174 10.7059C7.57454 10.7059 7.56733 10.7059 7.56012 10.7059C7.5529 10.7059 7.54567 10.7059 7.53844 10.7059C7.53121 10.7059 7.52396 10.7059 7.51671 10.7059C7.50946 10.7059 7.50221 10.7059 7.49494 10.7059C7.48768 10.7059 7.4804 10.7059 7.47312 10.7059C7.46584 10.7059 7.45855 10.7059 7.45125 10.7059C7.44395 10.7059 7.43665 10.7059 7.42934 10.7059C7.42202 10.7059 7.4147 10.7059 7.40737 10.7059C7.40004 10.7059 7.39271 10.7059 7.38536 10.7059C7.37802 10.7059 7.37067 10.7059 7.36331 10.7059C7.35595 10.7059 7.34858 10.7059 7.34121 10.7059C7.33383 10.7059 7.32645 10.7059 7.31906 10.7059C7.31167 10.7059 7.30427 10.7059 7.29687 10.7059C7.28946 10.7059 7.28205 10.7059 7.27463 10.7059C7.26721 10.7059 7.25979 10.7059 7.25235 10.7059C7.24492 10.7059 7.23748 10.7059 7.23003 10.7059C7.22258 10.7059 7.21512 10.7059 7.20766 10.7059C7.20019 10.7059 7.19272 10.7059 7.18525 10.7059C7.17777 10.7059 7.17028 10.7059 7.16279 10.7059C7.1553 10.7059 7.1478 10.7059 7.14029 10.7059C7.13279 10.7059 7.12527 10.7059 7.11775 10.7059C7.11023 10.7059 7.10271 10.7059 7.09517 10.7059C7.08764 10.7059 7.0801 10.7059 7.07255 10.7059C7.065 10.7059 7.05745 10.7059 7.04989 10.7059C7.04232 10.7059 7.03476 10.7059 7.02718 10.7059C7.01961 10.7059 7.01202 10.7059 7.00444 10.7059C6.99685 10.7059 6.98925 10.7059 6.98165 10.7059C6.97405 10.7059 6.96644 10.7059 6.95882 10.7059C6.95121 10.7059 6.94359 10.7059 6.93596 10.7059C6.92833 10.7059 6.9207 10.7059 6.91305 10.7059C6.90541 10.7059 6.89777 10.7059 6.89011 10.7059C6.88246 10.7059 6.8748 10.7059 6.86713 10.7059C6.85946 10.7059 6.85179 10.7059 6.84411 10.7059C6.83643 10.7059 6.82875 10.7059 6.82106 10.7059C6.81336 10.7059 6.80567 10.7059 6.79796 10.7059C6.79026 10.7059 6.78255 10.7059 6.77483 10.7059C6.76711 10.7059 6.75939 10.7059 6.75166 10.7059C6.74393 10.7059 6.7362 10.7059 6.72846 10.7059C6.72072 10.7059 6.71297 10.7059 6.70522 10.7059C6.69747 10.7059 6.68971 10.7059 6.68194 10.7059C6.67418 10.7059 6.66641 10.7059 6.65863 10.7059C6.65086 10.7059 6.64308 10.7059 6.63529 10.7059C6.6275 10.7059 6.61971 10.7059 6.61191 10.7059C6.60411 10.7059 6.5963 10.7059 6.58849 10.7059C6.58068 10.7059 6.57287 10.7059 6.56505 10.7059C6.55723 10.7059 6.5494 10.7059 6.54157 10.7059C6.53373 10.7059 6.52589 10.7059 6.51805 10.7059C6.51021 10.7059 6.50236 10.7059 6.4945 10.7059C6.48665 10.7059 6.47879 10.7059 6.47092 10.7059C6.46306 10.7059 6.45519 10.7059 6.44731 10.7059C6.43944 10.7059 6.43156 10.7059 6.42367 10.7059C6.41578 10.7059 6.40789 10.7059 6.4 10.7059C6.3921 10.7059 6.3842 10.7059 6.37629 10.7059C6.36838 10.7059 6.36047 10.7059 6.35256 10.7059C6.34464 10.7059 6.33672 10.7059 6.32879 10.7059C6.32086 10.7059 6.31293 10.7059 6.30499 10.7059C6.29706 10.7059 6.28911 10.7059 6.28117 10.7059C6.27322 10.7059 6.26527 10.7059 6.25731 10.7059C6.24936 10.7059 6.24139 10.7059 6.23343 10.7059C6.22546 10.7059 6.21749 10.7059 6.20952 10.7059C6.20154 10.7059 6.19356 10.7059 6.18558 10.7059C6.17759 10.7059 6.1696 10.7059 6.16161 10.7059C6.15361 10.7059 6.14562 10.7059 6.13761 10.7059C6.12961 10.7059 6.1216 10.7059 6.11359 10.7059C6.10558 10.7059 6.09756 10.7059 6.08954 10.7059C6.08152 10.7059 6.0735 10.7059 6.06547 10.7059C6.05744 10.7059 6.0494 10.7059 6.04136 10.7059C6.03333 10.7059 6.02528 10.7059 6.01724 10.7059C6.00919 10.7059 6.00114 10.7059 5.99308 10.7059C5.98503 10.7059 5.97697 10.7059 5.96891 10.7059C5.96084 10.7059 5.95278 10.7059 5.94471 10.7059C5.93663 10.7059 5.92856 10.7059 5.92048 10.7059C5.9124 10.7059 5.90432 10.7059 5.89623 10.7059C5.88814 10.7059 5.88005 10.7059 5.87195 10.7059C5.86386 10.7059 5.85576 10.7059 5.84766 10.7059C5.83956 10.7059 5.83145 10.7059 5.82334 10.7059C5.81523 10.7059 5.80711 10.7059 5.799 10.7059C5.79088 10.7059 5.78276 10.7059 5.77463 10.7059C5.76651 10.7059 5.75838 10.7059 5.75025 10.7059C5.74211 10.7059 5.73398 10.7059 5.72584 10.7059C5.7177 10.7059 5.70956 10.7059 5.70141 10.7059C5.69326 10.7059 5.68511 10.7059 5.67696 10.7059C5.66881 10.7059 5.66065 10.7059 5.65249 10.7059C5.64433 10.7059 5.63617 10.7059 5.628 10.7059C5.61983 10.7059 5.61166 10.7059 5.60349 10.7059C5.59532 10.7059 5.58714 10.7059 5.57896 10.7059C5.57078 10.7059 5.5626 10.7059 5.55441 10.7059C5.54623 10.7059 5.53804 10.7059 5.52985 10.7059C5.52166 10.7059 5.51346 10.7059 5.50526 10.7059C5.49707 10.7059 5.48886 10.7059 5.48066 10.7059C5.47246 10.7059 5.46425 10.7059 5.45604 10.7059C5.44783 10.7059 5.43962 10.7059 5.4314 10.7059C5.42319 10.7059 5.41497 10.7059 5.40675 10.7059C5.39853 10.7059 5.39031 10.7059 5.38208 10.7059C5.37385 10.7059 5.36562 10.7059 5.35739 10.7059C5.34916 10.7059 5.34093 10.7059 5.33269 10.7059C5.32445 10.7059 5.31621 10.7059 5.30797 10.7059C5.29973 10.7059 5.29149 10.7059 5.28324 10.7059C5.27499 10.7059 5.26674 10.7059 5.25849 10.7059C5.25024 10.7059 5.24199 10.7059 5.23373 10.7059C5.22547 10.7059 5.21722 10.7059 5.20895 10.7059C5.20069 10.7059 5.19243 10.7059 5.18416 10.7059C5.1759 10.7059 5.16763 10.7059 5.15936 10.7059C5.15109 10.7059 5.14282 10.7059 5.13455 10.7059C5.12627 10.7059 5.118 10.7059 5.10972 10.7059C5.10144 10.7059 5.09316 10.7059 5.08488 10.7059C5.07659 10.7059 5.06831 10.7059 5.06002 10.7059C5.05174 10.7059 5.04345 10.7059 5.03516 10.7059C5.02687 10.7059 5.01858 10.7059 5.01028 10.7059C5.00199 10.7059 4.9937 10.7059 4.9854 10.7059C4.9771 10.7059 4.9688 10.7059 4.9605 10.7059C4.9522 10.7059 4.9439 10.7059 4.9356 10.7059C4.92729 10.7059 4.91899 10.7059 4.91068 10.7059C4.90237 10.7059 4.89406 10.7059 4.88575 10.7059C4.87744 10.7059 4.86913 10.7059 4.86082 10.7059C4.8525 10.7059 4.84419 10.7059 4.83587 10.7059C4.82756 10.7059 4.81924 10.7059 4.81092 10.7059C4.8026 10.7059 4.79428 10.7059 4.78596 10.7059C4.77764 10.7059 4.76932 10.7059 4.76099 10.7059C4.75267 10.7059 4.74435 10.7059 4.73602 10.7059C4.72769 10.7059 4.71937 10.7059 4.71104 10.7059C4.70271 10.7059 4.69438 10.7059 4.68605 10.7059C4.67772 10.7059 4.66939 10.7059 4.66105 10.7059C4.65272 10.7059 4.64439 10.7059 4.63605 10.7059C4.62772 10.7059 4.61938 10.7059 4.61105 10.7059C4.60271 10.7059 4.59437 10.7059 4.58604 10.7059C4.5777 10.7059 4.56936 10.7059 4.56102 10.7059C4.55268 10.7059 4.54434 10.7059 4.536 10.7059C4.52766 10.7059 4.51932 10.7059 4.51097 10.7059C4.50263 10.7059 4.49429 10.7059 4.48594 10.7059C4.4776 10.7059 4.46926 10.7059 4.46091 10.7059C4.45257 10.7059 4.44422 10.7059 4.43588 10.7059C4.42753 10.7059 4.41919 10.7059 4.41084 10.7059C4.40249 10.7059 4.39415 10.7059 4.3858 10.7059C4.37745 10.7059 4.36911 10.7059 4.36076 10.7059C4.35241 10.7059 4.34406 10.7059 4.33571 10.7059C4.32737 10.7059 4.31902 10.7059 4.31067 10.7059C4.30232 10.7059 4.29397 10.7059 4.28562 10.7059C4.27727 10.7059 4.26892 10.7059 4.26058 10.7059C4.25223 10.7059 4.24388 10.7059 4.23553 10.7059C4.22718 10.7059 4.21883 10.7059 4.21048 10.7059C4.20213 10.7059 4.19378 10.7059 4.18544 10.7059C4.17709 10.7059 4.16874 10.7059 4.16039 10.7059C4.15204 10.7059 4.14369 10.7059 4.13535 10.7059C4.127 10.7059 4.11865 10.7059 4.1103 10.7059C4.10196 10.7059 4.09361 10.7059 4.08526 10.7059C4.07692 10.7059 4.06857 10.7059 4.06022 10.7059C4.05188 10.7059 4.04353 10.7059 4.03519 10.7059C4.02684 10.7059 4.0185 10.7059 4.01015 10.7059C4.00181 10.7059 3.99347 10.7059 3.98512 10.7059C3.97678 10.7059 3.96844 10.7059 3.9601 10.7059C3.95176 10.7059 3.94342 10.7059 3.93508 10.7059C3.92674 10.7059 3.9184 10.7059 3.91006 10.7059C3.90172 10.7059 3.89338 10.7059 3.88504 10.7059C3.87671 10.7059 3.86837 10.7059 3.86004 10.7059C3.8517 10.7059 3.84337 10.7059 3.83503 10.7059C3.8267 10.7059 3.81837 10.7059 3.81004 10.7059C3.80171 10.7059 3.79338 10.7059 3.78505 10.7059C3.77672 10.7059 3.76839 10.7059 3.76006 10.7059C3.75173 10.7059 3.74341 10.7059 3.73508 10.7059C3.72676 10.7059 3.71844 10.7059 3.71011 10.7059C3.70179 10.7059 3.69347 10.7059 3.68515 10.7059C3.67683 10.7059 3.66851 10.7059 3.6602 10.7059C3.65188 10.7059 3.64356 10.7059 3.63525 10.7059C3.62693 10.7059 3.61862 10.7059 3.61031 10.7059C3.602 10.7059 3.59369 10.7059 3.58538 10.7059C3.57707 10.7059 3.56877 10.7059 3.56046 10.7059C3.55216 10.7059 3.54385 10.7059 3.53555 10.7059C3.52725 10.7059 3.51895 10.7059 3.51065 10.7059C3.50235 10.7059 3.49406 10.7059 3.48576 10.7059C3.47747 10.7059 3.46917 10.7059 3.46088 10.7059C3.45259 10.7059 3.4443 10.7059 3.43601 10.7059C3.42773 10.7059 3.41944 10.7059 3.41116 10.7059C3.40287 10.7059 3.39459 10.7059 3.38631 10.7059C3.37803 10.7059 3.36975 10.7059 3.36148 10.7059C3.3532 10.7059 3.34493 10.7059 3.33666 10.7059C3.32839 10.7059 3.32012 10.7059 3.31185 10.7059C3.30358 10.7059 3.29532 10.7059 3.28706 10.7059C3.27879 10.7059 3.27053 10.7059 3.26228 10.7059C3.25402 10.7059 3.24576 10.7059 3.23751 10.7059C3.22926 10.7059 3.221 10.7059 3.21276 10.7059C3.20451 10.7059 3.19626 10.7059 3.18802 10.7059C3.17977 10.7059 3.17153 10.7059 3.16329 10.7059C3.15506 10.7059 3.14682 10.7059 3.13859 10.7059C3.13035 10.7059 3.12212 10.7059 3.11389 10.7059C3.10567 10.7059 3.09744 10.7059 3.08922 10.7059C3.081 10.7059 3.07278 10.7059 3.06456 10.7059C3.05634 10.7059 3.04813 10.7059 3.03991 10.7059C3.0317 10.7059 3.02349 10.7059 3.01529 10.7059C3.00708 10.7059 2.99888 10.7059 2.99068 10.7059C2.98248 10.7059 2.97428 10.7059 2.96609 10.7059C2.95789 10.7059 2.9497 10.7059 2.94152 10.7059C2.93333 10.7059 2.92514 10.7059 2.91696 10.7059C2.90878 10.7059 2.9006 10.7059 2.89243 10.7059C2.88425 10.7059 2.87608 10.7059 2.86791 10.7059C2.85974 10.7059 2.85157 10.7059 2.84341 10.7059C2.83525 10.7059 2.82709 10.7059 2.81894 10.7059C2.81078 10.7059 2.80263 10.7059 2.79448 10.7059C2.78633 10.7059 2.77818 10.7059 2.77004 10.7059C2.7619 10.7059 2.75376 10.7059 2.74563 10.7059C2.73749 10.7059 2.72936 10.7059 2.72123 10.7059C2.71311 10.7059 2.70498 10.7059 2.69686 10.7059C2.68874 10.7059 2.68062 10.7059 2.67251 10.7059C2.6644 10.7059 2.65629 10.7059 2.64818 10.7059C2.64008 10.7059 2.63198 10.7059 2.62388 10.7059C2.61578 10.7059 2.60769 10.7059 2.5996 10.7059C2.59151 10.7059 2.58342 10.7059 2.57534 10.7059C2.56725 10.7059 2.55918 10.7059 2.5511 10.7059C2.54303 10.7059 2.53496 10.7059 2.52689 10.7059C2.51882 10.7059 2.51076 10.7059 2.5027 10.7059C2.49465 10.7059 2.48659 10.7059 2.47854 10.7059C2.47049 10.7059 2.46245 10.7059 2.45441 10.7059C2.44637 10.7059 2.43833 10.7059 2.4303 10.7059C2.42226 10.7059 2.41424 10.7059 2.40621 10.7059C2.39819 10.7059 2.39017 10.7059 2.38215 10.7059C2.37414 10.7059 2.36613 10.7059 2.35812 10.7059C2.35011 10.7059 2.34211 10.7059 2.33412 10.7059C2.32612 10.7059 2.31813 10.7059 2.31014 10.7059C2.30215 10.7059 2.29417 10.7059 2.28619 10.7059C2.27821 10.7059 2.27023 10.7059 2.26226 10.7059C2.2543 10.7059 2.24633 10.7059 2.23837 10.7059C2.23041 10.7059 2.22246 10.7059 2.21451 10.7059C2.20656 10.7059 2.19861 10.7059 2.19067 10.7059C2.18273 10.7059 2.17479 10.7059 2.16686 10.7059C2.15893 10.7059 2.15101 10.7059 2.14309 10.7059C2.13517 10.7059 2.12725 10.7059 2.11934 10.7059C2.11143 10.7059 2.10352 10.7059 2.09562 10.7059C2.08772 10.7059 2.07983 10.7059 2.07194 10.7059C2.06405 10.7059 2.05616 10.7059 2.04828 10.7059C2.0404 10.7059 2.03253 10.7059 2.02466 10.7059C2.01679 10.7059 2.00893 10.7059 2.00107 10.7059C1.99321 10.7059 1.98536 10.7059 1.97751 10.7059C1.96966 10.7059 1.96182 10.7059 1.95399 10.7059C1.94615 10.7059 1.93832 10.7059 1.93049 10.7059C1.92267 10.7059 1.91485 10.7059 1.90703 10.7059C1.89922 10.7059 1.89141 10.7059 1.88361 10.7059C1.8758 10.7059 1.86801 10.7059 1.86021 10.7059C1.85242 10.7059 1.84464 10.7059 1.83686 10.7059C1.82908 10.7059 1.8213 10.7059 1.81353 10.7059C1.80576 10.7059 1.798 10.7059 1.79025 10.7059C1.78249 10.7059 1.77474 10.7059 1.76699 10.7059C1.75925 10.7059 1.75151 10.7059 1.74378 10.7059C1.73604 10.7059 1.72832 10.7059 1.7206 10.7059C1.71287 10.7059 1.70516 10.7059 1.69745 10.7059C1.68974 10.7059 1.68204 10.7059 1.67434 10.7059C1.66665 10.7059 1.65896 10.7059 1.65127 10.7059C1.64359 10.7059 1.63591 10.7059 1.62824 10.7059C1.62057 10.7059 1.6129 10.7059 1.60525 10.7059C1.59759 10.7059 1.58994 10.7059 1.58229 10.7059C1.57464 10.7059 1.567 10.7059 1.55937 10.7059C1.55174 10.7059 1.54411 10.7059 1.53649 10.7059C1.52887 10.7059 1.52126 10.7059 1.51365 10.7059C1.50605 10.7059 1.49845 10.7059 1.49085 10.7059C1.48326 10.7059 1.47567 10.7059 1.46809 10.7059C1.46051 10.7059 1.45294 10.7059 1.44537 10.7059C1.43781 10.7059 1.43025 10.7059 1.42269 10.7059C1.41514 10.7059 1.4076 10.7059 1.40006 10.7059C1.39252 10.7059 1.38499 10.7059 1.37746 10.7059C1.36993 10.7059 1.36242 10.7059 1.35491 10.7059C1.34739 10.7059 1.33989 10.7059 1.33239 10.7059C1.3249 10.7059 1.31741 10.7059 1.30992 10.7059C1.30244 10.7059 1.29496 10.7059 1.2875 10.7059C1.28003 10.7059 1.27257 10.7059 1.26511 10.7059C1.25766 10.7059 1.25021 10.7059 1.24277 10.7059C1.23533 10.7059 1.2279 10.7059 1.22047 10.7059C1.21305 10.7059 1.20563 10.7059 1.19822 10.7059C1.19081 10.7059 1.18341 10.7059 1.17601 10.7059C1.16862 10.7059 1.16123 10.7059 1.15385 10.7059C1.14647 10.7059 1.1391 10.7059 1.13173 10.7059C1.12437 10.7059 1.11701 10.7059 1.10966 10.7059C1.10231 10.7059 1.09497 10.7059 1.08764 10.7059C1.0803 10.7059 1.07298 10.7059 1.06566 10.7059C1.05834 10.7059 1.05103 10.7059 1.04372 10.7059C1.03642 10.7059 1.02913 10.7059 1.02184 10.7059C1.01455 10.7059 1.00727 10.7059 1 10.7059V12.7059C1.00727 12.7059 1.01455 12.7059 1.02184 12.7059C1.02913 12.7059 1.03642 12.7059 1.04372 12.7059C1.05103 12.7059 1.05834 12.7059 1.06566 12.7059C1.07298 12.7059 1.0803 12.7059 1.08764 12.7059C1.09497 12.7059 1.10231 12.7059 1.10966 12.7059C1.11701 12.7059 1.12437 12.7059 1.13173 12.7059C1.1391 12.7059 1.14647 12.7059 1.15385 12.7059C1.16123 12.7059 1.16862 12.7059 1.17601 12.7059C1.18341 12.7059 1.19081 12.7059 1.19822 12.7059C1.20563 12.7059 1.21305 12.7059 1.22047 12.7059C1.2279 12.7059 1.23533 12.7059 1.24277 12.7059C1.25021 12.7059 1.25766 12.7059 1.26511 12.7059C1.27257 12.7059 1.28003 12.7059 1.2875 12.7059C1.29496 12.7059 1.30244 12.7059 1.30992 12.7059C1.31741 12.7059 1.3249 12.7059 1.33239 12.7059C1.33989 12.7059 1.34739 12.7059 1.35491 12.7059C1.36242 12.7059 1.36993 12.7059 1.37746 12.7059C1.38499 12.7059 1.39252 12.7059 1.40006 12.7059C1.4076 12.7059 1.41514 12.7059 1.42269 12.7059C1.43025 12.7059 1.43781 12.7059 1.44537 12.7059C1.45294 12.7059 1.46051 12.7059 1.46809 12.7059C1.47567 12.7059 1.48326 12.7059 1.49085 12.7059C1.49845 12.7059 1.50605 12.7059 1.51365 12.7059C1.52126 12.7059 1.52887 12.7059 1.53649 12.7059C1.54411 12.7059 1.55174 12.7059 1.55937 12.7059C1.567 12.7059 1.57464 12.7059 1.58229 12.7059C1.58994 12.7059 1.59759 12.7059 1.60525 12.7059C1.6129 12.7059 1.62057 12.7059 1.62824 12.7059C1.63591 12.7059 1.64359 12.7059 1.65127 12.7059C1.65896 12.7059 1.66665 12.7059 1.67434 12.7059C1.68204 12.7059 1.68974 12.7059 1.69745 12.7059C1.70516 12.7059 1.71287 12.7059 1.7206 12.7059C1.72832 12.7059 1.73604 12.7059 1.74378 12.7059C1.75151 12.7059 1.75925 12.7059 1.76699 12.7059C1.77474 12.7059 1.78249 12.7059 1.79025 12.7059C1.798 12.7059 1.80576 12.7059 1.81353 12.7059C1.8213 12.7059 1.82908 12.7059 1.83686 12.7059C1.84464 12.7059 1.85242 12.7059 1.86021 12.7059C1.86801 12.7059 1.8758 12.7059 1.88361 12.7059C1.89141 12.7059 1.89922 12.7059 1.90703 12.7059C1.91485 12.7059 1.92267 12.7059 1.93049 12.7059C1.93832 12.7059 1.94615 12.7059 1.95399 12.7059C1.96182 12.7059 1.96966 12.7059 1.97751 12.7059C1.98536 12.7059 1.99321 12.7059 2.00107 12.7059C2.00893 12.7059 2.01679 12.7059 2.02466 12.7059C2.03253 12.7059 2.0404 12.7059 2.04828 12.7059C2.05616 12.7059 2.06405 12.7059 2.07194 12.7059C2.07983 12.7059 2.08772 12.7059 2.09562 12.7059C2.10352 12.7059 2.11143 12.7059 2.11934 12.7059C2.12725 12.7059 2.13517 12.7059 2.14309 12.7059C2.15101 12.7059 2.15893 12.7059 2.16686 12.7059C2.17479 12.7059 2.18273 12.7059 2.19067 12.7059C2.19861 12.7059 2.20656 12.7059 2.21451 12.7059C2.22246 12.7059 2.23041 12.7059 2.23837 12.7059C2.24633 12.7059 2.2543 12.7059 2.26226 12.7059C2.27023 12.7059 2.27821 12.7059 2.28619 12.7059C2.29417 12.7059 2.30215 12.7059 2.31014 12.7059C2.31813 12.7059 2.32612 12.7059 2.33412 12.7059C2.34211 12.7059 2.35011 12.7059 2.35812 12.7059C2.36613 12.7059 2.37414 12.7059 2.38215 12.7059C2.39017 12.7059 2.39819 12.7059 2.40621 12.7059C2.41424 12.7059 2.42226 12.7059 2.4303 12.7059C2.43833 12.7059 2.44637 12.7059 2.45441 12.7059C2.46245 12.7059 2.47049 12.7059 2.47854 12.7059C2.48659 12.7059 2.49465 12.7059 2.5027 12.7059C2.51076 12.7059 2.51882 12.7059 2.52689 12.7059C2.53496 12.7059 2.54303 12.7059 2.5511 12.7059C2.55918 12.7059 2.56725 12.7059 2.57534 12.7059C2.58342 12.7059 2.59151 12.7059 2.5996 12.7059C2.60769 12.7059 2.61578 12.7059 2.62388 12.7059C2.63198 12.7059 2.64008 12.7059 2.64818 12.7059C2.65629 12.7059 2.6644 12.7059 2.67251 12.7059C2.68062 12.7059 2.68874 12.7059 2.69686 12.7059C2.70498 12.7059 2.71311 12.7059 2.72123 12.7059C2.72936 12.7059 2.73749 12.7059 2.74563 12.7059C2.75376 12.7059 2.7619 12.7059 2.77004 12.7059C2.77818 12.7059 2.78633 12.7059 2.79448 12.7059C2.80263 12.7059 2.81078 12.7059 2.81894 12.7059C2.82709 12.7059 2.83525 12.7059 2.84341 12.7059C2.85157 12.7059 2.85974 12.7059 2.86791 12.7059C2.87608 12.7059 2.88425 12.7059 2.89243 12.7059C2.9006 12.7059 2.90878 12.7059 2.91696 12.7059C2.92514 12.7059 2.93333 12.7059 2.94152 12.7059C2.9497 12.7059 2.95789 12.7059 2.96609 12.7059C2.97428 12.7059 2.98248 12.7059 2.99068 12.7059C2.99888 12.7059 3.00708 12.7059 3.01529 12.7059C3.02349 12.7059 3.0317 12.7059 3.03991 12.7059C3.04813 12.7059 3.05634 12.7059 3.06456 12.7059C3.07278 12.7059 3.081 12.7059 3.08922 12.7059C3.09744 12.7059 3.10567 12.7059 3.11389 12.7059C3.12212 12.7059 3.13035 12.7059 3.13859 12.7059C3.14682 12.7059 3.15506 12.7059 3.16329 12.7059C3.17153 12.7059 3.17977 12.7059 3.18802 12.7059C3.19626 12.7059 3.20451 12.7059 3.21276 12.7059C3.221 12.7059 3.22926 12.7059 3.23751 12.7059C3.24576 12.7059 3.25402 12.7059 3.26228 12.7059C3.27053 12.7059 3.27879 12.7059 3.28706 12.7059C3.29532 12.7059 3.30358 12.7059 3.31185 12.7059C3.32012 12.7059 3.32839 12.7059 3.33666 12.7059C3.34493 12.7059 3.3532 12.7059 3.36148 12.7059C3.36975 12.7059 3.37803 12.7059 3.38631 12.7059C3.39459 12.7059 3.40287 12.7059 3.41116 12.7059C3.41944 12.7059 3.42773 12.7059 3.43601 12.7059C3.4443 12.7059 3.45259 12.7059 3.46088 12.7059C3.46917 12.7059 3.47747 12.7059 3.48576 12.7059C3.49406 12.7059 3.50235 12.7059 3.51065 12.7059C3.51895 12.7059 3.52725 12.7059 3.53555 12.7059C3.54385 12.7059 3.55216 12.7059 3.56046 12.7059C3.56877 12.7059 3.57707 12.7059 3.58538 12.7059C3.59369 12.7059 3.602 12.7059 3.61031 12.7059C3.61862 12.7059 3.62693 12.7059 3.63525 12.7059C3.64356 12.7059 3.65188 12.7059 3.6602 12.7059C3.66851 12.7059 3.67683 12.7059 3.68515 12.7059C3.69347 12.7059 3.70179 12.7059 3.71011 12.7059C3.71844 12.7059 3.72676 12.7059 3.73508 12.7059C3.74341 12.7059 3.75173 12.7059 3.76006 12.7059C3.76839 12.7059 3.77672 12.7059 3.78505 12.7059C3.79338 12.7059 3.80171 12.7059 3.81004 12.7059C3.81837 12.7059 3.8267 12.7059 3.83503 12.7059C3.84337 12.7059 3.8517 12.7059 3.86004 12.7059C3.86837 12.7059 3.87671 12.7059 3.88504 12.7059C3.89338 12.7059 3.90172 12.7059 3.91006 12.7059C3.9184 12.7059 3.92674 12.7059 3.93508 12.7059C3.94342 12.7059 3.95176 12.7059 3.9601 12.7059C3.96844 12.7059 3.97678 12.7059 3.98512 12.7059C3.99347 12.7059 4.00181 12.7059 4.01015 12.7059C4.0185 12.7059 4.02684 12.7059 4.03519 12.7059C4.04353 12.7059 4.05188 12.7059 4.06022 12.7059C4.06857 12.7059 4.07692 12.7059 4.08526 12.7059C4.09361 12.7059 4.10196 12.7059 4.1103 12.7059C4.11865 12.7059 4.127 12.7059 4.13535 12.7059C4.14369 12.7059 4.15204 12.7059 4.16039 12.7059C4.16874 12.7059 4.17709 12.7059 4.18544 12.7059C4.19378 12.7059 4.20213 12.7059 4.21048 12.7059C4.21883 12.7059 4.22718 12.7059 4.23553 12.7059C4.24388 12.7059 4.25223 12.7059 4.26058 12.7059C4.26892 12.7059 4.27727 12.7059 4.28562 12.7059C4.29397 12.7059 4.30232 12.7059 4.31067 12.7059C4.31902 12.7059 4.32737 12.7059 4.33571 12.7059C4.34406 12.7059 4.35241 12.7059 4.36076 12.7059C4.36911 12.7059 4.37745 12.7059 4.3858 12.7059C4.39415 12.7059 4.40249 12.7059 4.41084 12.7059C4.41919 12.7059 4.42753 12.7059 4.43588 12.7059C4.44422 12.7059 4.45257 12.7059 4.46091 12.7059C4.46926 12.7059 4.4776 12.7059 4.48594 12.7059C4.49429 12.7059 4.50263 12.7059 4.51097 12.7059C4.51932 12.7059 4.52766 12.7059 4.536 12.7059C4.54434 12.7059 4.55268 12.7059 4.56102 12.7059C4.56936 12.7059 4.5777 12.7059 4.58604 12.7059C4.59437 12.7059 4.60271 12.7059 4.61105 12.7059C4.61938 12.7059 4.62772 12.7059 4.63605 12.7059C4.64439 12.7059 4.65272 12.7059 4.66105 12.7059C4.66939 12.7059 4.67772 12.7059 4.68605 12.7059C4.69438 12.7059 4.70271 12.7059 4.71104 12.7059C4.71937 12.7059 4.72769 12.7059 4.73602 12.7059C4.74435 12.7059 4.75267 12.7059 4.76099 12.7059C4.76932 12.7059 4.77764 12.7059 4.78596 12.7059C4.79428 12.7059 4.8026 12.7059 4.81092 12.7059C4.81924 12.7059 4.82756 12.7059 4.83587 12.7059C4.84419 12.7059 4.8525 12.7059 4.86082 12.7059C4.86913 12.7059 4.87744 12.7059 4.88575 12.7059C4.89406 12.7059 4.90237 12.7059 4.91068 12.7059C4.91899 12.7059 4.92729 12.7059 4.9356 12.7059C4.9439 12.7059 4.9522 12.7059 4.9605 12.7059C4.9688 12.7059 4.9771 12.7059 4.9854 12.7059C4.9937 12.7059 5.00199 12.7059 5.01028 12.7059C5.01858 12.7059 5.02687 12.7059 5.03516 12.7059C5.04345 12.7059 5.05174 12.7059 5.06002 12.7059C5.06831 12.7059 5.07659 12.7059 5.08488 12.7059C5.09316 12.7059 5.10144 12.7059 5.10972 12.7059C5.118 12.7059 5.12627 12.7059 5.13455 12.7059C5.14282 12.7059 5.15109 12.7059 5.15936 12.7059C5.16763 12.7059 5.1759 12.7059 5.18416 12.7059C5.19243 12.7059 5.20069 12.7059 5.20895 12.7059C5.21722 12.7059 5.22547 12.7059 5.23373 12.7059C5.24199 12.7059 5.25024 12.7059 5.25849 12.7059C5.26674 12.7059 5.27499 12.7059 5.28324 12.7059C5.29149 12.7059 5.29973 12.7059 5.30797 12.7059C5.31621 12.7059 5.32445 12.7059 5.33269 12.7059C5.34093 12.7059 5.34916 12.7059 5.35739 12.7059C5.36562 12.7059 5.37385 12.7059 5.38208 12.7059C5.39031 12.7059 5.39853 12.7059 5.40675 12.7059C5.41497 12.7059 5.42319 12.7059 5.4314 12.7059C5.43962 12.7059 5.44783 12.7059 5.45604 12.7059C5.46425 12.7059 5.47246 12.7059 5.48066 12.7059C5.48886 12.7059 5.49707 12.7059 5.50526 12.7059C5.51346 12.7059 5.52166 12.7059 5.52985 12.7059C5.53804 12.7059 5.54623 12.7059 5.55441 12.7059C5.5626 12.7059 5.57078 12.7059 5.57896 12.7059C5.58714 12.7059 5.59532 12.7059 5.60349 12.7059C5.61166 12.7059 5.61983 12.7059 5.628 12.7059C5.63617 12.7059 5.64433 12.7059 5.65249 12.7059C5.66065 12.7059 5.66881 12.7059 5.67696 12.7059C5.68511 12.7059 5.69326 12.7059 5.70141 12.7059C5.70956 12.7059 5.7177 12.7059 5.72584 12.7059C5.73398 12.7059 5.74211 12.7059 5.75025 12.7059C5.75838 12.7059 5.76651 12.7059 5.77463 12.7059C5.78276 12.7059 5.79088 12.7059 5.799 12.7059C5.80711 12.7059 5.81523 12.7059 5.82334 12.7059C5.83145 12.7059 5.83956 12.7059 5.84766 12.7059C5.85576 12.7059 5.86386 12.7059 5.87195 12.7059C5.88005 12.7059 5.88814 12.7059 5.89623 12.7059C5.90432 12.7059 5.9124 12.7059 5.92048 12.7059C5.92856 12.7059 5.93663 12.7059 5.94471 12.7059C5.95278 12.7059 5.96084 12.7059 5.96891 12.7059C5.97697 12.7059 5.98503 12.7059 5.99308 12.7059C6.00114 12.7059 6.00919 12.7059 6.01724 12.7059C6.02528 12.7059 6.03333 12.7059 6.04136 12.7059C6.0494 12.7059 6.05744 12.7059 6.06547 12.7059C6.0735 12.7059 6.08152 12.7059 6.08954 12.7059C6.09756 12.7059 6.10558 12.7059 6.11359 12.7059C6.1216 12.7059 6.12961 12.7059 6.13761 12.7059C6.14562 12.7059 6.15361 12.7059 6.16161 12.7059C6.1696 12.7059 6.17759 12.7059 6.18558 12.7059C6.19356 12.7059 6.20154 12.7059 6.20952 12.7059C6.21749 12.7059 6.22546 12.7059 6.23343 12.7059C6.24139 12.7059 6.24936 12.7059 6.25731 12.7059C6.26527 12.7059 6.27322 12.7059 6.28117 12.7059C6.28911 12.7059 6.29706 12.7059 6.30499 12.7059C6.31293 12.7059 6.32086 12.7059 6.32879 12.7059C6.33672 12.7059 6.34464 12.7059 6.35256 12.7059C6.36047 12.7059 6.36838 12.7059 6.37629 12.7059C6.3842 12.7059 6.3921 12.7059 6.4 12.7059C6.40789 12.7059 6.41578 12.7059 6.42367 12.7059C6.43156 12.7059 6.43944 12.7059 6.44731 12.7059C6.45519 12.7059 6.46306 12.7059 6.47092 12.7059C6.47879 12.7059 6.48665 12.7059 6.4945 12.7059C6.50236 12.7059 6.51021 12.7059 6.51805 12.7059C6.52589 12.7059 6.53373 12.7059 6.54157 12.7059C6.5494 12.7059 6.55723 12.7059 6.56505 12.7059C6.57287 12.7059 6.58068 12.7059 6.58849 12.7059C6.5963 12.7059 6.60411 12.7059 6.61191 12.7059C6.61971 12.7059 6.6275 12.7059 6.63529 12.7059C6.64308 12.7059 6.65086 12.7059 6.65863 12.7059C6.66641 12.7059 6.67418 12.7059 6.68194 12.7059C6.68971 12.7059 6.69747 12.7059 6.70522 12.7059C6.71297 12.7059 6.72072 12.7059 6.72846 12.7059C6.7362 12.7059 6.74393 12.7059 6.75166 12.7059C6.75939 12.7059 6.76711 12.7059 6.77483 12.7059C6.78255 12.7059 6.79026 12.7059 6.79796 12.7059C6.80567 12.7059 6.81336 12.7059 6.82106 12.7059C6.82875 12.7059 6.83643 12.7059 6.84411 12.7059C6.85179 12.7059 6.85946 12.7059 6.86713 12.7059C6.8748 12.7059 6.88246 12.7059 6.89011 12.7059C6.89777 12.7059 6.90541 12.7059 6.91305 12.7059C6.9207 12.7059 6.92833 12.7059 6.93596 12.7059C6.94359 12.7059 6.95121 12.7059 6.95882 12.7059C6.96644 12.7059 6.97405 12.7059 6.98165 12.7059C6.98925 12.7059 6.99685 12.7059 7.00444 12.7059C7.01202 12.7059 7.01961 12.7059 7.02718 12.7059C7.03476 12.7059 7.04232 12.7059 7.04989 12.7059C7.05745 12.7059 7.065 12.7059 7.07255 12.7059C7.0801 12.7059 7.08764 12.7059 7.09517 12.7059C7.10271 12.7059 7.11023 12.7059 7.11775 12.7059C7.12527 12.7059 7.13279 12.7059 7.14029 12.7059C7.1478 12.7059 7.1553 12.7059 7.16279 12.7059C7.17028 12.7059 7.17777 12.7059 7.18525 12.7059C7.19272 12.7059 7.20019 12.7059 7.20766 12.7059C7.21512 12.7059 7.22258 12.7059 7.23003 12.7059C7.23748 12.7059 7.24492 12.7059 7.25235 12.7059C7.25979 12.7059 7.26721 12.7059 7.27463 12.7059C7.28205 12.7059 7.28946 12.7059 7.29687 12.7059C7.30427 12.7059 7.31167 12.7059 7.31906 12.7059C7.32645 12.7059 7.33383 12.7059 7.34121 12.7059C7.34858 12.7059 7.35595 12.7059 7.36331 12.7059C7.37067 12.7059 7.37802 12.7059 7.38536 12.7059C7.39271 12.7059 7.40004 12.7059 7.40737 12.7059C7.4147 12.7059 7.42202 12.7059 7.42934 12.7059C7.43665 12.7059 7.44395 12.7059 7.45125 12.7059C7.45855 12.7059 7.46584 12.7059 7.47312 12.7059C7.4804 12.7059 7.48768 12.7059 7.49494 12.7059C7.50221 12.7059 7.50946 12.7059 7.51671 12.7059C7.52396 12.7059 7.53121 12.7059 7.53844 12.7059C7.54567 12.7059 7.5529 12.7059 7.56012 12.7059C7.56733 12.7059 7.57454 12.7059 7.58174 12.7059C7.58894 12.7059 7.59614 12.7059 7.60332 12.7059C7.61051 12.7059 7.61768 12.7059 7.62485 12.7059C7.63202 12.7059 7.63918 12.7059 7.64633 12.7059C7.65348 12.7059 7.66062 12.7059 7.66776 12.7059C7.67489 12.7059 7.68202 12.7059 7.68913 12.7059C7.69625 12.7059 7.70336 12.7059 7.71046 12.7059C7.71756 12.7059 7.72465 12.7059 7.73173 12.7059C7.73882 12.7059 7.74589 12.7059 7.75296 12.7059C7.76002 12.7059 7.76708 12.7059 7.77413 12.7059C7.78118 12.7059 7.78822 12.7059 7.79525 12.7059C7.80228 12.7059 7.8093 12.7059 7.81631 12.7059C7.82333 12.7059 7.83033 12.7059 7.83732 12.7059C7.84432 12.7059 7.85131 12.7059 7.85828 12.7059C7.86526 12.7059 7.87223 12.7059 7.87919 12.7059C7.88615 12.7059 7.8931 12.7059 7.90004 12.7059C7.90698 12.7059 7.91391 12.7059 7.92084 12.7059C7.92776 12.7059 7.93467 12.7059 7.94158 12.7059C7.94848 12.7059 7.95538 12.7059 7.96226 12.7059C7.96915 12.7059 7.97602 12.7059 7.98289 12.7059C7.98976 12.7059 7.99662 12.7059 8.00347 12.7059C8.01031 12.7059 8.01715 12.7059 8.02398 12.7059C8.03081 12.7059 8.03763 12.7059 8.04444 12.7059C8.05126 12.7059 8.05806 12.7059 8.06485 12.7059C8.07164 12.7059 8.07842 12.7059 8.08519 12.7059C8.09197 12.7059 8.09873 12.7059 8.10548 12.7059C8.11224 12.7059 8.11898 12.7059 8.12571 12.7059C8.13245 12.7059 8.13917 12.7059 8.14589 12.7059C8.1526 12.7059 8.1593 12.7059 8.166 12.7059C8.17269 12.7059 8.17938 12.7059 8.18605 12.7059C8.19273 12.7059 8.19939 12.7059 8.20605 12.7059C8.2127 12.7059 8.21935 12.7059 8.22598 12.7059C8.23262 12.7059 8.23924 12.7059 8.24586 12.7059C8.25247 12.7059 8.25908 12.7059 8.26567 12.7059C8.27226 12.7059 8.27885 12.7059 8.28542 12.7059C8.292 12.7059 8.29856 12.7059 8.30511 12.7059C8.31167 12.7059 8.31821 12.7059 8.32474 12.7059C8.33128 12.7059 8.3378 12.7059 8.34431 12.7059C8.35082 12.7059 8.35733 12.7059 8.36382 12.7059C8.37031 12.7059 8.37679 12.7059 8.38326 12.7059C8.38973 12.7059 8.39619 12.7059 8.40264 12.7059C8.40909 12.7059 8.41553 12.7059 8.42195 12.7059C8.42838 12.7059 8.4348 12.7059 8.44121 12.7059C8.44761 12.7059 8.45401 12.7059 8.46039 12.7059C8.46678 12.7059 8.47316 12.7059 8.47952 12.7059C8.48588 12.7059 8.49224 12.7059 8.49858 12.7059C8.50492 12.7059 8.51125 12.7059 8.51757 12.7059C8.52389 12.7059 8.5302 12.7059 8.5365 12.7059C8.5428 12.7059 8.54908 12.7059 8.55536 12.7059C8.56164 12.7059 8.5679 12.7059 8.57416 12.7059C8.58041 12.7059 8.58665 12.7059 8.59289 12.7059C8.59912 12.7059 8.60534 12.7059 8.61155 12.7059C8.61776 12.7059 8.62396 12.7059 8.63014 12.7059C8.63633 12.7059 8.64251 12.7059 8.64867 12.7059C8.65484 12.7059 8.66099 12.7059 8.66713 12.7059C8.67327 12.7059 8.6794 12.7059 8.68552 12.7059C8.69164 12.7059 8.69775 12.7059 8.70384 12.7059C8.70994 12.7059 8.71602 12.7059 8.7221 12.7059C8.72817 12.7059 8.73423 12.7059 8.74028 12.7059C8.74633 12.7059 8.75237 12.7059 8.75839 12.7059C8.76442 12.7059 8.77043 12.7059 8.77644 12.7059C8.78244 12.7059 8.78843 12.7059 8.79441 12.7059C8.80039 12.7059 8.80636 12.7059 8.81231 12.7059C8.81827 12.7059 8.82421 12.7059 8.83014 12.7059C8.83608 12.7059 8.842 12.7059 8.8479 12.7059C8.85381 12.7059 8.85971 12.7059 8.86559 12.7059C8.87147 12.7059 8.87735 12.7059 8.88321 12.7059C8.88907 12.7059 8.89491 12.7059 8.90075 12.7059C8.90658 12.7059 8.91241 12.7059 8.91822 12.7059C8.92403 12.7059 8.92983 12.7059 8.93562 12.7059C8.9414 12.7059 8.94718 12.7059 8.95294 12.7059C8.9587 12.7059 8.96445 12.7059 8.97019 12.7059C8.97592 12.7059 8.98165 12.7059 8.98736 12.7059C8.99307 12.7059 8.99877 12.7059 9.00446 12.7059C9.01015 12.7059 9.01582 12.7059 9.02149 12.7059C9.02715 12.7059 9.0328 12.7059 9.03843 12.7059C9.04407 12.7059 9.0497 12.7059 9.05531 12.7059C9.06092 12.7059 9.06652 12.7059 9.07211 12.7059C9.07769 12.7059 9.08327 12.7059 9.08883 12.7059C9.09439 12.7059 9.09993 12.7059 9.10547 12.7059C9.111 12.7059 9.11653 12.7059 9.12204 12.7059C9.12755 12.7059 9.13304 12.7059 9.13853 12.7059C9.14401 12.7059 9.14948 12.7059 9.15494 12.7059C9.16039 12.7059 9.16584 12.7059 9.17127 12.7059C9.1767 12.7059 9.18212 12.7059 9.18752 12.7059C9.19293 12.7059 9.19832 12.7059 9.2037 12.7059C9.20908 12.7059 9.21444 12.7059 9.2198 12.7059C9.22515 12.7059 9.23049 12.7059 9.23581 12.7059C9.24114 12.7059 9.24645 12.7059 9.25175 12.7059C9.25705 12.7059 9.26233 12.7059 9.2676 12.7059C9.27287 12.7059 9.27813 12.7059 9.28338 12.7059C9.28862 12.7059 9.29385 12.7059 9.29907 12.7059C9.30429 12.7059 9.30949 12.7059 9.31468 12.7059C9.31988 12.7059 9.32505 12.7059 9.33022 12.7059C9.33538 12.7059 9.34053 12.7059 9.34566 12.7059C9.3508 12.7059 9.35592 12.7059 9.36103 12.7059C9.36614 12.7059 9.37123 12.7059 9.37631 12.7059C9.38139 12.7059 9.38646 12.7059 9.39151 12.7059C9.39657 12.7059 9.40161 12.7059 9.40663 12.7059C9.41166 12.7059 9.41667 12.7059 9.42166 12.7059C9.42666 12.7059 9.43164 12.7059 9.43661 12.7059C9.44158 12.7059 9.44654 12.7059 9.45148 12.7059C9.45642 12.7059 9.46134 12.7059 9.46625 12.7059C9.47117 12.7059 9.47606 12.7059 9.48095 12.7059C9.48583 12.7059 9.4907 12.7059 9.49556 12.7059C9.50041 12.7059 9.50525 12.7059 9.51008 12.7059C9.5149 12.7059 9.51972 12.7059 9.52451 12.7059C9.52931 12.7059 9.53409 12.7059 9.53886 12.7059C9.54363 12.7059 9.54838 12.7059 9.55312 12.7059C9.55786 12.7059 9.56259 12.7059 9.5673 12.7059C9.57201 12.7059 9.5767 12.7059 9.58138 12.7059C9.58606 12.7059 9.59073 12.7059 9.59538 12.7059C9.60003 12.7059 9.60467 12.7059 9.60929 12.7059C9.61391 12.7059 9.61852 12.7059 9.62311 12.7059C9.6277 12.7059 9.63228 12.7059 9.63684 12.7059C9.64141 12.7059 9.64595 12.7059 9.65049 12.7059C9.65502 12.7059 9.65954 12.7059 9.66404 12.7059C9.66854 12.7059 9.67303 12.7059 9.6775 12.7059C9.68197 12.7059 9.68643 12.7059 9.69087 12.7059C9.69531 12.7059 9.69974 12.7059 9.70415 12.7059C9.70856 12.7059 9.71296 12.7059 9.71734 12.7059C9.72172 12.7059 9.72609 12.7059 9.73044 12.7059C9.73479 12.7059 9.73912 12.7059 9.74344 12.7059C9.74776 12.7059 9.75207 12.7059 9.75636 12.7059C9.76064 12.7059 9.76492 12.7059 9.76918 12.7059C9.77343 12.7059 9.77768 12.7059 9.7819 12.7059C9.78613 12.7059 9.79034 12.7059 9.79454 12.7059C9.79873 12.7059 9.80291 12.7059 9.80708 12.7059C9.81124 12.7059 9.81539 12.7059 9.81952 12.7059C9.82365 12.7059 9.82777 12.7059 9.83187 12.7059C9.83597 12.7059 9.84006 12.7059 9.84413 12.7059C9.8482 12.7059 9.85225 12.7059 9.85629 12.7059C9.86033 12.7059 9.86435 12.7059 9.86835 12.7059C9.87236 12.7059 9.87635 12.7059 9.88032 12.7059C9.8843 12.7059 9.88826 12.7059 9.8922 12.7059C9.89614 12.7059 9.90006 12.7059 9.90397 12.7059C9.90788 12.7059 9.91178 12.7059 9.91565 12.7059C9.91953 12.7059 9.92339 12.7059 9.92724 12.7059C9.93108 12.7059 9.93491 12.7059 9.93872 12.7059C9.94253 12.7059 9.94633 12.7059 9.95011 12.7059C9.95389 12.7059 9.95765 12.7059 9.9614 12.7059C9.96514 12.7059 9.96887 12.7059 9.97258 12.7059C9.9763 12.7059 9.97999 12.7059 9.98368 12.7059C9.98736 12.7059 9.99102 12.7059 9.99467 12.7059C9.99831 12.7059 10.0019 12.7059 10.0056 12.7059C10.0092 12.7059 10.0128 12.7059 10.0163 12.7059C10.0199 12.7059 10.0235 12.7059 10.027 12.7059C10.0306 12.7059 10.0341 12.7059 10.0376 12.7059C10.0411 12.7059 10.0446 12.7059 10.0481 12.7059C10.0516 12.7059 10.0551 12.7059 10.0585 12.7059C10.0619 12.7059 10.0654 12.7059 10.0688 12.7059C10.0722 12.7059 10.0756 12.7059 10.079 12.7059C10.0823 12.7059 10.0857 12.7059 10.0891 12.7059C10.0924 12.7059 10.0957 12.7059 10.099 12.7059C10.1023 12.7059 10.1056 12.7059 10.1089 12.7059C10.1122 12.7059 10.1154 12.7059 10.1187 12.7059C10.1219 12.7059 10.1251 12.7059 10.1283 12.7059C10.1315 12.7059 10.1347 12.7059 10.1379 12.7059C10.1411 12.7059 10.1442 12.7059 10.1474 12.7059C10.1505 12.7059 10.1536 12.7059 10.1567 12.7059C10.1598 12.7059 10.1629 12.7059 10.166 12.7059C10.169 12.7059 10.1721 12.7059 10.1751 12.7059C10.1781 12.7059 10.1811 12.7059 10.1841 12.7059C10.1871 12.7059 10.1901 12.7059 10.1931 12.7059C10.196 12.7059 10.199 12.7059 10.2019 12.7059C10.2048 12.7059 10.2077 12.7059 10.2106 12.7059C10.2135 12.7059 10.2163 12.7059 10.2192 12.7059C10.222 12.7059 10.2249 12.7059 10.2277 12.7059C10.2305 12.7059 10.2333 12.7059 10.2361 12.7059C10.2389 12.7059 10.2416 12.7059 10.2444 12.7059C10.2471 12.7059 10.2498 12.7059 10.2525 12.7059C10.2552 12.7059 10.2579 12.7059 10.2606 12.7059C10.2633 12.7059 10.2659 12.7059 10.2686 12.7059C10.2712 12.7059 10.2738 12.7059 10.2764 12.7059C10.279 12.7059 10.2816 12.7059 10.2841 12.7059C10.2867 12.7059 10.2892 12.7059 10.2918 12.7059C10.2943 12.7059 10.2968 12.7059 10.2993 12.7059C10.3018 12.7059 10.3042 12.7059 10.3067 12.7059C10.3091 12.7059 10.3115 12.7059 10.314 12.7059C10.3164 12.7059 10.3188 12.7059 10.3211 12.7059C10.3235 12.7059 10.3259 12.7059 10.3282 12.7059C10.3305 12.7059 10.3328 12.7059 10.3351 12.7059C10.3374 12.7059 10.3397 12.7059 10.342 12.7059C10.3442 12.7059 10.3465 12.7059 10.3487 12.7059C10.3509 12.7059 10.3531 12.7059 10.3553 12.7059C10.3575 12.7059 10.3597 12.7059 10.3618 12.7059C10.364 12.7059 10.3661 12.7059 10.3682 12.7059C10.3703 12.7059 10.3724 12.7059 10.3745 12.7059C10.3765 12.7059 10.3786 12.7059 10.3806 12.7059C10.3826 12.7059 10.3846 12.7059 10.3866 12.7059C10.3886 12.7059 10.3906 12.7059 10.3926 12.7059C10.3945 12.7059 10.3964 12.7059 10.3984 12.7059C10.4003 12.7059 10.4022 12.7059 10.404 12.7059C10.4059 12.7059 10.4078 12.7059 10.4096 12.7059C10.4115 12.7059 10.4133 12.7059 10.4151 12.7059C10.4169 12.7059 10.4186 12.7059 10.4204 12.7059C10.4222 12.7059 10.4239 12.7059 10.4256 12.7059C10.4273 12.7059 10.429 12.7059 10.4307 12.7059C10.4324 12.7059 10.434 12.7059 10.4357 12.7059C10.4373 12.7059 10.4389 12.7059 10.4405 12.7059C10.4421 12.7059 10.4437 12.7059 10.4453 12.7059C10.4468 12.7059 10.4484 12.7059 10.4499 12.7059C10.4514 12.7059 10.4529 12.7059 10.4544 12.7059C10.4559 12.7059 10.4573 12.7059 10.4588 12.7059C10.4602 12.7059 10.4616 12.7059 10.463 12.7059C10.4644 12.7059 10.4658 12.7059 10.4672 12.7059C10.4685 12.7059 10.4699 12.7059 10.4712 12.7059C10.4725 12.7059 10.4738 12.7059 10.4751 12.7059C10.4764 12.7059 10.4776 12.7059 10.4788 12.7059C10.4801 12.7059 10.4813 12.7059 10.4825 12.7059C10.4837 12.7059 10.4849 12.7059 10.486 12.7059C10.4872 12.7059 10.4883 12.7059 10.4894 12.7059C10.4905 12.7059 10.4916 12.7059 10.4927 12.7059C10.4938 12.7059 10.4948 12.7059 10.4958 12.7059C10.4969 12.7059 10.4979 12.7059 10.4989 12.7059C10.4999 12.7059 10.5008 12.7059 10.5018 12.7059C10.5027 12.7059 10.5036 12.7059 10.5046 12.7059C10.5055 12.7059 10.5063 12.7059 10.5072 12.7059C10.5081 12.7059 10.5089 12.7059 10.5097 12.7059C10.5106 12.7059 10.5114 12.7059 10.5121 12.7059C10.5129 12.7059 10.5137 12.7059 10.5144 12.7059C10.5151 12.7059 10.5159 12.7059 10.5166 12.7059C10.5172 12.7059 10.5179 12.7059 10.5186 12.7059C10.5192 12.7059 10.5199 12.7059 10.5205 12.7059C10.5211 12.7059 10.5217 12.7059 10.5222 12.7059C10.5228 12.7059 10.5233 12.7059 10.5239 12.7059C10.5244 12.7059 10.5249 12.7059 10.5254 12.7059C10.5258 12.7059 10.5263 12.7059 10.5267 12.7059C10.5272 12.7059 10.5276 12.7059 10.528 12.7059C10.5284 12.7059 10.5288 12.7059 10.5291 12.7059C10.5295 12.7059 10.5298 12.7059 10.5301 12.7059C10.5304 12.7059 10.5307 12.7059 10.531 12.7059C10.5312 12.7059 10.5315 12.7059 10.5317 12.7059C10.5319 12.7059 10.5321 12.7059 10.5323 12.7059C10.5324 12.7059 10.5326 12.7059 10.5327 12.7059C10.5329 12.7059 10.533 12.7059 10.5331 12.7059C10.5332 12.7059 10.5332 12.7059 10.5333 12.7059C10.5333 12.7059 10.5333 12.7059 10.5333 11.7059ZM1 9.64706C1.00541 9.64706 1.01082 9.64706 1.01622 9.64706C1.02163 9.64706 1.02703 9.64706 1.03244 9.64706C1.03784 9.64706 1.04324 9.64706 1.04864 9.64706C1.05404 9.64706 1.05944 9.64706 1.06483 9.64706C1.07023 9.64706 1.07563 9.64706 1.08102 9.64706C1.08641 9.64706 1.0918 9.64706 1.09719 9.64706C1.10258 9.64706 1.10797 9.64706 1.11336 9.64706C1.11874 9.64706 1.12413 9.64706 1.12951 9.64706C1.1349 9.64706 1.14028 9.64706 1.14566 9.64706C1.15104 9.64706 1.15642 9.64706 1.16179 9.64706C1.16717 9.64706 1.17254 9.64706 1.17792 9.64706C1.18329 9.64706 1.18866 9.64706 1.19403 9.64706C1.1994 9.64706 1.20477 9.64706 1.21014 9.64706C1.2155 9.64706 1.22087 9.64706 1.22623 9.64706C1.23159 9.64706 1.23696 9.64706 1.24232 9.64706C1.24768 9.64706 1.25303 9.64706 1.25839 9.64706C1.26375 9.64706 1.2691 9.64706 1.27446 9.64706C1.27981 9.64706 1.28516 9.64706 1.29051 9.64706C1.29586 9.64706 1.30121 9.64706 1.30656 9.64706C1.3119 9.64706 1.31725 9.64706 1.32259 9.64706C1.32793 9.64706 1.33328 9.64706 1.33862 9.64706C1.34396 9.64706 1.34929 9.64706 1.35463 9.64706C1.35997 9.64706 1.3653 9.64706 1.37063 9.64706C1.37597 9.64706 1.3813 9.64706 1.38663 9.64706C1.39196 9.64706 1.39729 9.64706 1.40261 9.64706C1.40794 9.64706 1.41326 9.64706 1.41859 9.64706C1.42391 9.64706 1.42923 9.64706 1.43455 9.64706C1.43987 9.64706 1.44519 9.64706 1.45051 9.64706C1.45582 9.64706 1.46114 9.64706 1.46645 9.64706C1.47176 9.64706 1.47707 9.64706 1.48238 9.64706C1.48769 9.64706 1.493 9.64706 1.49831 9.64706C1.50361 9.64706 1.50892 9.64706 1.51422 9.64706C1.51952 9.64706 1.52482 9.64706 1.53012 9.64706C1.53542 9.64706 1.54072 9.64706 1.54601 9.64706C1.55131 9.64706 1.5566 9.64706 1.56189 9.64706C1.56719 9.64706 1.57248 9.64706 1.57777 9.64706C1.58306 9.64706 1.58834 9.64706 1.59363 9.64706C1.59891 9.64706 1.6042 9.64706 1.60948 9.64706C1.61476 9.64706 1.62004 9.64706 1.62532 9.64706C1.6306 9.64706 1.63587 9.64706 1.64115 9.64706C1.64642 9.64706 1.6517 9.64706 1.65697 9.64706C1.66224 9.64706 1.66751 9.64706 1.67278 9.64706C1.67805 9.64706 1.68331 9.64706 1.68858 9.64706C1.69384 9.64706 1.69911 9.64706 1.70437 9.64706C1.70963 9.64706 1.71489 9.64706 1.72014 9.64706C1.7254 9.64706 1.73066 9.64706 1.73591 9.64706C1.74117 9.64706 1.74642 9.64706 1.75167 9.64706C1.75692 9.64706 1.76217 9.64706 1.76742 9.64706C1.77266 9.64706 1.77791 9.64706 1.78315 9.64706C1.7884 9.64706 1.79364 9.64706 1.79888 9.64706C1.80412 9.64706 1.80936 9.64706 1.81459 9.64706C1.81983 9.64706 1.82506 9.64706 1.8303 9.64706C1.83553 9.64706 1.84076 9.64706 1.84599 9.64706C1.85122 9.64706 1.85645 9.64706 1.86168 9.64706C1.8669 9.64706 1.87213 9.64706 1.87735 9.64706C1.88257 9.64706 1.88779 9.64706 1.89301 9.64706C1.89823 9.64706 1.90345 9.64706 1.90866 9.64706C1.91388 9.64706 1.91909 9.64706 1.9243 9.64706C1.92951 9.64706 1.93472 9.64706 1.93993 9.64706C1.94514 9.64706 1.95035 9.64706 1.95555 9.64706C1.96076 9.64706 1.96596 9.64706 1.97116 9.64706C1.97636 9.64706 1.98156 9.64706 1.98676 9.64706C1.99196 9.64706 1.99715 9.64706 2.00235 9.64706C2.00754 9.64706 2.01273 9.64706 2.01792 9.64706C2.02311 9.64706 2.0283 9.64706 2.03349 9.64706C2.03868 9.64706 2.04386 9.64706 2.04904 9.64706C2.05423 9.64706 2.05941 9.64706 2.06459 9.64706C2.06977 9.64706 2.07495 9.64706 2.08012 9.64706C2.0853 9.64706 2.09047 9.64706 2.09564 9.64706C2.10082 9.64706 2.10599 9.64706 2.11116 9.64706C2.11633 9.64706 2.12149 9.64706 2.12666 9.64706C2.13182 9.64706 2.13699 9.64706 2.14215 9.64706C2.14731 9.64706 2.15247 9.64706 2.15763 9.64706C2.16278 9.64706 2.16794 9.64706 2.17309 9.64706C2.17825 9.64706 2.1834 9.64706 2.18855 9.64706C2.1937 9.64706 2.19885 9.64706 2.204 9.64706C2.20915 9.64706 2.21429 9.64706 2.21943 9.64706C2.22458 9.64706 2.22972 9.64706 2.23486 9.64706C2.24 9.64706 2.24514 9.64706 2.25027 9.64706C2.25541 9.64706 2.26054 9.64706 2.26568 9.64706C2.27081 9.64706 2.27594 9.64706 2.28107 9.64706C2.2862 9.64706 2.29132 9.64706 2.29645 9.64706C2.30157 9.64706 2.3067 9.64706 2.31182 9.64706C2.31694 9.64706 2.32206 9.64706 2.32718 9.64706C2.33229 9.64706 2.33741 9.64706 2.34252 9.64706C2.34764 9.64706 2.35275 9.64706 2.35786 9.64706C2.36297 9.64706 2.36808 9.64706 2.37318 9.64706C2.37829 9.64706 2.3834 9.64706 2.3885 9.64706C2.3936 9.64706 2.3987 9.64706 2.4038 9.64706C2.4089 9.64706 2.414 9.64706 2.41909 9.64706C2.42419 9.64706 2.42928 9.64706 2.43437 9.64706C2.43947 9.64706 2.44456 9.64706 2.44964 9.64706C2.45473 9.64706 2.45982 9.64706 2.4649 9.64706C2.46999 9.64706 2.47507 9.64706 2.48015 9.64706C2.48523 9.64706 2.49031 9.64706 2.49538 9.64706C2.50046 9.64706 2.50554 9.64706 2.51061 9.64706C2.51568 9.64706 2.52075 9.64706 2.52582 9.64706C2.53089 9.64706 2.53596 9.64706 2.54102 9.64706C2.54609 9.64706 2.55115 9.64706 2.55622 9.64706C2.56128 9.64706 2.56634 9.64706 2.5714 9.64706C2.57645 9.64706 2.58151 9.64706 2.58656 9.64706C2.59162 9.64706 2.59667 9.64706 2.60172 9.64706C2.60677 9.64706 2.61182 9.64706 2.61687 9.64706C2.62191 9.64706 2.62696 9.64706 2.632 9.64706C2.63704 9.64706 2.64208 9.64706 2.64712 9.64706C2.65216 9.64706 2.6572 9.64706 2.66223 9.64706C2.66727 9.64706 2.6723 9.64706 2.67733 9.64706C2.68237 9.64706 2.68739 9.64706 2.69242 9.64706C2.69745 9.64706 2.70248 9.64706 2.7075 9.64706C2.71252 9.64706 2.71755 9.64706 2.72257 9.64706C2.72759 9.64706 2.7326 9.64706 2.73762 9.64706C2.74264 9.64706 2.74765 9.64706 2.75266 9.64706C2.75767 9.64706 2.76268 9.64706 2.76769 9.64706C2.7727 9.64706 2.77771 9.64706 2.78271 9.64706C2.78772 9.64706 2.79272 9.64706 2.79772 9.64706C2.80272 9.64706 2.80772 9.64706 2.81272 9.64706C2.81771 9.64706 2.82271 9.64706 2.8277 9.64706C2.8327 9.64706 2.83769 9.64706 2.84268 9.64706C2.84767 9.64706 2.85265 9.64706 2.85764 9.64706C2.86262 9.64706 2.86761 9.64706 2.87259 9.64706C2.87757 9.64706 2.88255 9.64706 2.88753 9.64706C2.8925 9.64706 2.89748 9.64706 2.90245 9.64706C2.90743 9.64706 2.9124 9.64706 2.91737 9.64706C2.92234 9.64706 2.92731 9.64706 2.93227 9.64706C2.93724 9.64706 2.9422 9.64706 2.94716 9.64706C2.95213 9.64706 2.95709 9.64706 2.96205 9.64706C2.967 9.64706 2.97196 9.64706 2.97691 9.64706C2.98187 9.64706 2.98682 9.64706 2.99177 9.64706C2.99672 9.64706 3.00167 9.64706 3.00662 9.64706C3.01156 9.64706 3.01651 9.64706 3.02145 9.64706C3.02639 9.64706 3.03133 9.64706 3.03627 9.64706C3.04121 9.64706 3.04615 9.64706 3.05108 9.64706C3.05601 9.64706 3.06095 9.64706 3.06588 9.64706C3.07081 9.64706 3.07574 9.64706 3.08066 9.64706C3.08559 9.64706 3.09052 9.64706 3.09544 9.64706C3.10036 9.64706 3.10528 9.64706 3.1102 9.64706C3.11512 9.64706 3.12004 9.64706 3.12495 9.64706C3.12987 9.64706 3.13478 9.64706 3.13969 9.64706C3.1446 9.64706 3.14951 9.64706 3.15442 9.64706C3.15932 9.64706 3.16423 9.64706 3.16913 9.64706C3.17403 9.64706 3.17894 9.64706 3.18383 9.64706C3.18873 9.64706 3.19363 9.64706 3.19852 9.64706C3.20342 9.64706 3.20831 9.64706 3.2132 9.64706C3.21809 9.64706 3.22298 9.64706 3.22787 9.64706C3.23276 9.64706 3.23764 9.64706 3.24253 9.64706C3.24741 9.64706 3.25229 9.64706 3.25717 9.64706C3.26205 9.64706 3.26692 9.64706 3.2718 9.64706C3.27667 9.64706 3.28155 9.64706 3.28642 9.64706C3.29129 9.64706 3.29616 9.64706 3.30103 9.64706C3.30589 9.64706 3.31076 9.64706 3.31562 9.64706C3.32048 9.64706 3.32534 9.64706 3.3302 9.64706C3.33506 9.64706 3.33992 9.64706 3.34477 9.64706C3.34963 9.64706 3.35448 9.64706 3.35933 9.64706C3.36418 9.64706 3.36903 9.64706 3.37388 9.64706C3.37873 9.64706 3.38357 9.64706 3.38841 9.64706C3.39325 9.64706 3.3981 9.64706 3.40293 9.64706C3.40777 9.64706 3.41261 9.64706 3.41744 9.64706C3.42228 9.64706 3.42711 9.64706 3.43194 9.64706C3.43677 9.64706 3.4416 9.64706 3.44643 9.64706C3.45125 9.64706 3.45608 9.64706 3.4609 9.64706C3.46572 9.64706 3.47054 9.64706 3.47536 9.64706C3.48018 9.64706 3.485 9.64706 3.48981 9.64706C3.49462 9.64706 3.49944 9.64706 3.50425 9.64706C3.50906 9.64706 3.51386 9.64706 3.51867 9.64706C3.52348 9.64706 3.52828 9.64706 3.53308 9.64706C3.53788 9.64706 3.54268 9.64706 3.54748 9.64706C3.55228 9.64706 3.55708 9.64706 3.56187 9.64706C3.56666 9.64706 3.57145 9.64706 3.57624 9.64706C3.58103 9.64706 3.58582 9.64706 3.59061 9.64706C3.59539 9.64706 3.60017 9.64706 3.60496 9.64706C3.60974 9.64706 3.61452 9.64706 3.61929 9.64706C3.62407 9.64706 3.62885 9.64706 3.63362 9.64706C3.63839 9.64706 3.64316 9.64706 3.64793 9.64706C3.6527 9.64706 3.65747 9.64706 3.66223 9.64706C3.667 9.64706 3.67176 9.64706 3.67652 9.64706C3.68128 9.64706 3.68604 9.64706 3.6908 9.64706C3.69555 9.64706 3.70031 9.64706 3.70506 9.64706C3.70981 9.64706 3.71456 9.64706 3.71931 9.64706C3.72406 9.64706 3.7288 9.64706 3.73355 9.64706C3.73829 9.64706 3.74303 9.64706 3.74777 9.64706C3.75251 9.64706 3.75725 9.64706 3.76198 9.64706C3.76672 9.64706 3.77145 9.64706 3.77619 9.64706C3.78092 9.64706 3.78565 9.64706 3.79037 9.64706C3.7951 9.64706 3.79982 9.64706 3.80455 9.64706C3.80927 9.64706 3.81399 9.64706 3.81871 9.64706C3.82343 9.64706 3.82815 9.64706 3.83286 9.64706C3.83757 9.64706 3.84229 9.64706 3.847 9.64706C3.85171 9.64706 3.85642 9.64706 3.86112 9.64706C3.86583 9.64706 3.87053 9.64706 3.87523 9.64706C3.87994 9.64706 3.88464 9.64706 3.88933 9.64706C3.89403 9.64706 3.89873 9.64706 3.90342 9.64706C3.90811 9.64706 3.9128 9.64706 3.91749 9.64706C3.92218 9.64706 3.92687 9.64706 3.93155 9.64706C3.93624 9.64706 3.94092 9.64706 3.9456 9.64706C3.95028 9.64706 3.95496 9.64706 3.95964 9.64706C3.96431 9.64706 3.96899 9.64706 3.97366 9.64706C3.97833 9.64706 3.983 9.64706 3.98767 9.64706C3.99234 9.64706 3.997 9.64706 4.00167 9.64706C4.00633 9.64706 4.01099 9.64706 4.01565 9.64706C4.02031 9.64706 4.02497 9.64706 4.02962 9.64706C4.03428 9.64706 4.03893 9.64706 4.04358 9.64706C4.04823 9.64706 4.05288 9.64706 4.05753 9.64706C4.06217 9.64706 4.06682 9.64706 4.07146 9.64706C4.0761 9.64706 4.08074 9.64706 4.08538 9.64706C4.09002 9.64706 4.09465 9.64706 4.09929 9.64706C4.10392 9.64706 4.10855 9.64706 4.11318 9.64706C4.11781 9.64706 4.12244 9.64706 4.12706 9.64706C4.13169 9.64706 4.13631 9.64706 4.14093 9.64706C4.14555 9.64706 4.15017 9.64706 4.15478 9.64706C4.1594 9.64706 4.16401 9.64706 4.16863 9.64706C4.17324 9.64706 4.17785 9.64706 4.18246 9.64706C4.18706 9.64706 4.19167 9.64706 4.19627 9.64706C4.20087 9.64706 4.20548 9.64706 4.21007 9.64706C4.21467 9.64706 4.21927 9.64706 4.22386 9.64706C4.22846 9.64706 4.23305 9.64706 4.23764 9.64706C4.24223 9.64706 4.24682 9.64706 4.25141 9.64706C4.25599 9.64706 4.26057 9.64706 4.26516 9.64706C4.26974 9.64706 4.27432 9.64706 4.27889 9.64706C4.28347 9.64706 4.28805 9.64706 4.29262 9.64706C4.29719 9.64706 4.30176 9.64706 4.30633 9.64706C4.3109 9.64706 4.31546 9.64706 4.32003 9.64706C4.32459 9.64706 4.32915 9.64706 4.33371 9.64706C4.33827 9.64706 4.34283 9.64706 4.34738 9.64706C4.35194 9.64706 4.35649 9.64706 4.36104 9.64706C4.36559 9.64706 4.37014 9.64706 4.37469 9.64706C4.37923 9.64706 4.38378 9.64706 4.38832 9.64706C4.39286 9.64706 4.3974 9.64706 4.40194 9.64706C4.40648 9.64706 4.41101 9.64706 4.41554 9.64706C4.42008 9.64706 4.42461 9.64706 4.42914 9.64706C4.43366 9.64706 4.43819 9.64706 4.44271 9.64706C4.44724 9.64706 4.45176 9.64706 4.45628 9.64706C4.4608 9.64706 4.46532 9.64706 4.46983 9.64706C4.47435 9.64706 4.47886 9.64706 4.48337 9.64706C4.48788 9.64706 4.49239 9.64706 4.4969 9.64706C4.5014 9.64706 4.50591 9.64706 4.51041 9.64706C4.51491 9.64706 4.51941 9.64706 4.52391 9.64706C4.5284 9.64706 4.5329 9.64706 4.53739 9.64706C4.54188 9.64706 4.54638 9.64706 4.55086 9.64706C4.55535 9.64706 4.55984 9.64706 4.56432 9.64706C4.56881 9.64706 4.57329 9.64706 4.57777 9.64706C4.58225 9.64706 4.58672 9.64706 4.5912 9.64706C4.59567 9.64706 4.60015 9.64706 4.60462 9.64706C4.60909 9.64706 4.61355 9.64706 4.61802 9.64706C4.62249 9.64706 4.62695 9.64706 4.63141 9.64706C4.63587 9.64706 4.64033 9.64706 4.64479 9.64706C4.64925 9.64706 4.6537 9.64706 4.65815 9.64706C4.66261 9.64706 4.66706 9.64706 4.6715 9.64706C4.67595 9.64706 4.6804 9.64706 4.68484 9.64706C4.68928 9.64706 4.69372 9.64706 4.69816 9.64706C4.7026 9.64706 4.70704 9.64706 4.71147 9.64706C4.71591 9.64706 4.72034 9.64706 4.72477 9.64706C4.7292 9.64706 4.73362 9.64706 4.73805 9.64706C4.74247 9.64706 4.7469 9.64706 4.75132 9.64706C4.75574 9.64706 4.76016 9.64706 4.76457 9.64706C4.76899 9.64706 4.7734 9.64706 4.77781 9.64706C4.78223 9.64706 4.78663 9.64706 4.79104 9.64706C4.79545 9.64706 4.79985 9.64706 4.80426 9.64706C4.80866 9.64706 4.81306 9.64706 4.81745 9.64706C4.82185 9.64706 4.82625 9.64706 4.83064 9.64706C4.83503 9.64706 4.83942 9.64706 4.84381 9.64706C4.8482 9.64706 4.85259 9.64706 4.85697 9.64706C4.86136 9.64706 4.86574 9.64706 4.87012 9.64706C4.8745 9.64706 4.87887 9.64706 4.88325 9.64706C4.88762 9.64706 4.89199 9.64706 4.89636 9.64706C4.90073 9.64706 4.9051 9.64706 4.90947 9.64706C4.91383 9.64706 4.9182 9.64706 4.92256 9.64706C4.92692 9.64706 4.93128 9.64706 4.93563 9.64706C4.93999 9.64706 4.94434 9.64706 4.94869 9.64706C4.95305 9.64706 4.9574 9.64706 4.96174 9.64706C4.96609 9.64706 4.97043 9.64706 4.97478 9.64706C4.97912 9.64706 4.98346 9.64706 4.9878 9.64706C4.99213 9.64706 4.99647 9.64706 5.0008 9.64706C5.00513 9.64706 5.00947 9.64706 5.01379 9.64706C5.01812 9.64706 5.02245 9.64706 5.02677 9.64706C5.0311 9.64706 5.03542 9.64706 5.03974 9.64706C5.04405 9.64706 5.04837 9.64706 5.05269 9.64706C5.057 9.64706 5.06131 9.64706 5.06562 9.64706C5.06993 9.64706 5.07424 9.64706 5.07854 9.64706C5.08285 9.64706 5.08715 9.64706 5.09145 9.64706C5.09575 9.64706 5.10005 9.64706 5.10434 9.64706C5.10864 9.64706 5.11293 9.64706 5.11722 9.64706C5.12151 9.64706 5.1258 9.64706 5.13009 9.64706C5.13438 9.64706 5.13866 9.64706 5.14294 9.64706C5.14722 9.64706 5.1515 9.64706 5.15578 9.64706C5.16005 9.64706 5.16433 9.64706 5.1686 9.64706C5.17287 9.64706 5.17714 9.64706 5.18141 9.64706C5.18568 9.64706 5.18994 9.64706 5.1942 9.64706C5.19847 9.64706 5.20273 9.64706 5.20698 9.64706C5.21124 9.64706 5.2155 9.64706 5.21975 9.64706C5.224 9.64706 5.22825 9.64706 5.2325 9.64706C5.23675 9.64706 5.241 9.64706 5.24524 9.64706C5.24948 9.64706 5.25373 9.64706 5.25796 9.64706C5.2622 9.64706 5.26644 9.64706 5.27067 9.64706C5.27491 9.64706 5.27914 9.64706 5.28337 9.64706C5.2876 9.64706 5.29182 9.64706 5.29605 9.64706C5.30027 9.64706 5.3045 9.64706 5.30872 9.64706C5.31293 9.64706 5.31715 9.64706 5.32137 9.64706C5.32558 9.64706 5.32979 9.64706 5.334 9.64706C5.33821 9.64706 5.34242 9.64706 5.34663 9.64706C5.35083 9.64706 5.35504 9.64706 5.35924 9.64706C5.36344 9.64706 5.36764 9.64706 5.37183 9.64706C5.37603 9.64706 5.38022 9.64706 5.38441 9.64706C5.3886 9.64706 5.39279 9.64706 5.39698 9.64706C5.40116 9.64706 5.40535 9.64706 5.40953 9.64706C5.41371 9.64706 5.41789 9.64706 5.42206 9.64706C5.42624 9.64706 5.43041 9.64706 5.43459 9.64706C5.43876 9.64706 5.44293 9.64706 5.44709 9.64706C5.45126 9.64706 5.45542 9.64706 5.45959 9.64706C5.46375 9.64706 5.46791 9.64706 5.47207 9.64706C5.47622 9.64706 5.48038 9.64706 5.48453 9.64706C5.48868 9.64706 5.49283 9.64706 5.49698 9.64706C5.50113 9.64706 5.50527 9.64706 5.50941 9.64706C5.51356 9.64706 5.5177 9.64706 5.52183 9.64706C5.52597 9.64706 5.53011 9.64706 5.53424 9.64706C5.53837 9.64706 5.5425 9.64706 5.54663 9.64706C5.55076 9.64706 5.55488 9.64706 5.55901 9.64706C5.56313 9.64706 5.56725 9.64706 5.57137 9.64706C5.57549 9.64706 5.5796 9.64706 5.58372 9.64706C5.58783 9.64706 5.59194 9.64706 5.59605 9.64706C5.60016 9.64706 5.60426 9.64706 5.60837 9.64706C5.61247 9.64706 5.61657 9.64706 5.62067 9.64706C5.62477 9.64706 5.62886 9.64706 5.63296 9.64706C5.63705 9.64706 5.64114 9.64706 5.64523 9.64706C5.64932 9.64706 5.65341 9.64706 5.65749 9.64706C5.66157 9.64706 5.66566 9.64706 5.66973 9.64706C5.67381 9.64706 5.67789 9.64706 5.68196 9.64706C5.68604 9.64706 5.69011 9.64706 5.69418 9.64706C5.69825 9.64706 5.70231 9.64706 5.70638 9.64706C5.71044 9.64706 5.7145 9.64706 5.71856 9.64706C5.72262 9.64706 5.72668 9.64706 5.73073 9.64706C5.73479 9.64706 5.73884 9.64706 5.74289 9.64706C5.74694 9.64706 5.75098 9.64706 5.75503 9.64706C5.75907 9.64706 5.76311 9.64706 5.76715 9.64706C5.77119 9.64706 5.77523 9.64706 5.77926 9.64706C5.7833 9.64706 5.78733 9.64706 5.79136 9.64706C5.79539 9.64706 5.79941 9.64706 5.80344 9.64706C5.80746 9.64706 5.81148 9.64706 5.8155 9.64706C5.81952 9.64706 5.82354 9.64706 5.82755 9.64706C5.83157 9.64706 5.83558 9.64706 5.83959 9.64706C5.8436 9.64706 5.84761 9.64706 5.85161 9.64706C5.85561 9.64706 5.85962 9.64706 5.86362 9.64706C5.86762 9.64706 5.87161 9.64706 5.87561 9.64706C5.8796 9.64706 5.88359 9.64706 5.88758 9.64706C5.89157 9.64706 5.89556 9.64706 5.89954 9.64706C5.90353 9.64706 5.90751 9.64706 5.91149 9.64706C5.91547 9.64706 5.91944 9.64706 5.92342 9.64706C5.92739 9.64706 5.93136 9.64706 5.93533 9.64706C5.9393 9.64706 5.94327 9.64706 5.94723 9.64706C5.9512 9.64706 5.95516 9.64706 5.95912 9.64706C5.96308 9.64706 5.96703 9.64706 5.97099 9.64706C5.97494 9.64706 5.97889 9.64706 5.98284 9.64706C5.98679 9.64706 5.99074 9.64706 5.99468 9.64706C5.99862 9.64706 6.00256 9.64706 6.0065 9.64706C6.01044 9.64706 6.01438 9.64706 6.01831 9.64706C6.02225 9.64706 6.02618 9.64706 6.03011 9.64706C6.03403 9.64706 6.03796 9.64706 6.04188 9.64706C6.04581 9.64706 6.04973 9.64706 6.05365 9.64706C6.05757 9.64706 6.06148 9.64706 6.06539 9.64706C6.06931 9.64706 6.07322 9.64706 6.07713 9.64706C6.08104 9.64706 6.08494 9.64706 6.08884 9.64706C6.09275 9.64706 6.09665 9.64706 6.10055 9.64706C6.10444 9.64706 6.10834 9.64706 6.11223 9.64706C6.11613 9.64706 6.12002 9.64706 6.1239 9.64706C6.12779 9.64706 6.13168 9.64706 6.13556 9.64706C6.13944 9.64706 6.14332 9.64706 6.1472 9.64706C6.15108 9.64706 6.15495 9.64706 6.15882 9.64706C6.1627 9.64706 6.16657 9.64706 6.17043 9.64706C6.1743 9.64706 6.17817 9.64706 6.18203 9.64706C6.18589 9.64706 6.18975 9.64706 6.19361 9.64706C6.19746 9.64706 6.20132 9.64706 6.20517 9.64706C6.20902 9.64706 6.21287 9.64706 6.21672 9.64706C6.22056 9.64706 6.22441 9.64706 6.22825 9.64706C6.23209 9.64706 6.23593 9.64706 6.23977 9.64706C6.2436 9.64706 6.24744 9.64706 6.25127 9.64706C6.2551 9.64706 6.25893 9.64706 6.26275 9.64706C6.26658 9.64706 6.2704 9.64706 6.27422 9.64706C6.27804 9.64706 6.28186 9.64706 6.28568 9.64706C6.28949 9.64706 6.2933 9.64706 6.29711 9.64706C6.30093 9.64706 6.30473 9.64706 6.30854 9.64706C6.31234 9.64706 6.31615 9.64706 6.31995 9.64706C6.32375 9.64706 6.32754 9.64706 6.33134 9.64706C6.33513 9.64706 6.33892 9.64706 6.34271 9.64706C6.3465 9.64706 6.35029 9.64706 6.35407 9.64706C6.35786 9.64706 6.36164 9.64706 6.36542 9.64706C6.3692 9.64706 6.37297 9.64706 6.37675 9.64706C6.38052 9.64706 6.38429 9.64706 6.38806 9.64706C6.39183 9.64706 6.3956 9.64706 6.39936 9.64706C6.40312 9.64706 6.40688 9.64706 6.41064 9.64706C6.4144 9.64706 6.41815 9.64706 6.42191 9.64706C6.42566 9.64706 6.42941 9.64706 6.43316 9.64706C6.4369 9.64706 6.44065 9.64706 6.44439 9.64706C6.44813 9.64706 6.45187 9.64706 6.45561 9.64706C6.45935 9.64706 6.46308 9.64706 6.46681 9.64706C6.47055 9.64706 6.47427 9.64706 6.478 9.64706C6.48173 9.64706 6.48545 9.64706 6.48917 9.64706C6.49289 9.64706 6.49661 9.64706 6.50033 9.64706C6.50404 9.64706 6.50776 9.64706 6.51147 9.64706C6.51518 9.64706 6.51889 9.64706 6.52259 9.64706C6.5263 9.64706 6.53 9.64706 6.5337 9.64706C6.5374 9.64706 6.5411 9.64706 6.54479 9.64706C6.54848 9.64706 6.55218 9.64706 6.55587 9.64706C6.55956 9.64706 6.56324 9.64706 6.56693 9.64706C6.57061 9.64706 6.57429 9.64706 6.57797 9.64706C6.58165 9.64706 6.58532 9.64706 6.589 9.64706C6.59267 9.64706 6.59634 9.64706 6.60001 9.64706C6.60368 9.64706 6.60734 9.64706 6.611 9.64706C6.61467 9.64706 6.61833 9.64706 6.62198 9.64706C6.62564 9.64706 6.6293 9.64706 6.63295 9.64706C6.6366 9.64706 6.64025 9.64706 6.6439 9.64706C6.64754 9.64706 6.65119 9.64706 6.65483 9.64706C6.65847 9.64706 6.66211 9.64706 6.66574 9.64706C6.66938 9.64706 6.67301 9.64706 6.67664 9.64706C6.68027 9.64706 6.6839 9.64706 6.68753 9.64706C6.69115 9.64706 6.69477 9.64706 6.69839 9.64706C6.70201 9.64706 6.70563 9.64706 6.70924 9.64706C6.71286 9.64706 6.71647 9.64706 6.72008 9.64706C6.72369 9.64706 6.72729 9.64706 6.7309 9.64706C6.7345 9.64706 6.7381 9.64706 6.7417 9.64706C6.7453 9.64706 6.74889 9.64706 6.75248 9.64706C6.75608 9.64706 6.75967 9.64706 6.76325 9.64706C6.76684 9.64706 6.77043 9.64706 6.77401 9.64706C6.77759 9.64706 6.78117 9.64706 6.78474 9.64706C6.78832 9.64706 6.79189 9.64706 6.79547 9.64706C6.79904 9.64706 6.80261 9.64706 6.80617 9.64706C6.80974 9.64706 6.8133 9.64706 6.81686 9.64706C6.82042 9.64706 6.82398 9.64706 6.82753 9.64706C6.83109 9.64706 6.83464 9.64706 6.83819 9.64706C6.84174 9.64706 6.84528 9.64706 6.84883 9.64706C6.85237 9.64706 6.85591 9.64706 6.85945 9.64706C6.86299 9.64706 6.86652 9.64706 6.87006 9.64706C6.87359 9.64706 6.87712 9.64706 6.88065 9.64706C6.88417 9.64706 6.8877 9.64706 6.89122 9.64706C6.89474 9.64706 6.89826 9.64706 6.90178 9.64706C6.90529 9.64706 6.90881 9.64706 6.91232 9.64706C6.91583 9.64706 6.91934 9.64706 6.92284 9.64706C6.92635 9.64706 6.92985 9.64706 6.93335 9.64706C6.93685 9.64706 6.94035 9.64706 6.94384 9.64706C6.94733 9.64706 6.95083 9.64706 6.95431 9.64706C6.9578 9.64706 6.96129 9.64706 6.96477 9.64706C6.96826 9.64706 6.97174 9.64706 6.97521 9.64706C6.97869 9.64706 6.98217 9.64706 6.98564 9.64706C6.98911 9.64706 6.99258 9.64706 6.99605 9.64706C6.99951 9.64706 7.00298 9.64706 7.00644 9.64706C7.0099 9.64706 7.01336 9.64706 7.01682 9.64706C7.02027 9.64706 7.02372 9.64706 7.02717 9.64706C7.03062 9.64706 7.03407 9.64706 7.03752 9.64706C7.04096 9.64706 7.0444 9.64706 7.04784 9.64706C7.05128 9.64706 7.05472 9.64706 7.05815 9.64706C7.06158 9.64706 7.06501 9.64706 7.06844 9.64706C7.07187 9.64706 7.07529 9.64706 7.07872 9.64706C7.08214 9.64706 7.08556 9.64706 7.08898 9.64706C7.09239 9.64706 7.09581 9.64706 7.09922 9.64706C7.10263 9.64706 7.10604 9.64706 7.10944 9.64706C7.11285 9.64706 7.11625 9.64706 7.11965 9.64706C7.12305 9.64706 7.12645 9.64706 7.12984 9.64706C7.13324 9.64706 7.13663 9.64706 7.14002 9.64706C7.14341 9.64706 7.14679 9.64706 7.15017 9.64706C7.15356 9.64706 7.15694 9.64706 7.16032 9.64706C7.16369 9.64706 7.16707 9.64706 7.17044 9.64706C7.17381 9.64706 7.17718 9.64706 7.18055 9.64706C7.18391 9.64706 7.18728 9.64706 7.19064 9.64706C7.194 9.64706 7.19736 9.64706 7.20071 9.64706C7.20407 9.64706 7.20742 9.64706 7.21077 9.64706C7.21412 9.64706 7.21746 9.64706 7.22081 9.64706C7.22415 9.64706 7.22749 9.64706 7.23083 9.64706C7.23417 9.64706 7.2375 9.64706 7.24084 9.64706C7.24417 9.64706 7.2475 9.64706 7.25083 9.64706C7.25415 9.64706 7.25748 9.64706 7.2608 9.64706C7.26412 9.64706 7.26744 9.64706 7.27075 9.64706C7.27407 9.64706 7.27738 9.64706 7.28069 9.64706C7.284 9.64706 7.28731 9.64706 7.29061 9.64706C7.29391 9.64706 7.29722 9.64706 7.30051 9.64706C7.30381 9.64706 7.30711 9.64706 7.3104 9.64706C7.31369 9.64706 7.31698 9.64706 7.32027 9.64706C7.32356 9.64706 7.32684 9.64706 7.33012 9.64706C7.3334 9.64706 7.33668 9.64706 7.33996 9.64706C7.34323 9.64706 7.34651 9.64706 7.34978 9.64706C7.35305 9.64706 7.35631 9.64706 7.35958 9.64706C7.36284 9.64706 7.3661 9.64706 7.36936 9.64706C7.37262 9.64706 7.37588 9.64706 7.37913 9.64706C7.38238 9.64706 7.38563 9.64706 7.38888 9.64706C7.39213 9.64706 7.39537 9.64706 7.39861 9.64706C7.40185 9.64706 7.40509 9.64706 7.40833 9.64706C7.41156 9.64706 7.41479 9.64706 7.41802 9.64706C7.42125 9.64706 7.42448 9.64706 7.42771 9.64706C7.43093 9.64706 7.43415 9.64706 7.43737 9.64706C7.44059 9.64706 7.4438 9.64706 7.44701 9.64706C7.45023 9.64706 7.45344 9.64706 7.45664 9.64706C7.45985 9.64706 7.46305 9.64706 7.46626 9.64706C7.46946 9.64706 7.47265 9.64706 7.47585 9.64706C7.47904 9.64706 7.48224 9.64706 7.48543 9.64706C7.48862 9.64706 7.4918 9.64706 7.49499 9.64706C7.49817 9.64706 7.50135 9.64706 7.50453 9.64706C7.50771 9.64706 7.51088 9.64706 7.51405 9.64706C7.51723 9.64706 7.52039 9.64706 7.52356 9.64706C7.52673 9.64706 7.52989 9.64706 7.53305 9.64706C7.53621 9.64706 7.53937 9.64706 7.54252 9.64706C7.54568 9.64706 7.54883 9.64706 7.55198 9.64706C7.55513 9.64706 7.55827 9.64706 7.56142 9.64706C7.56456 9.64706 7.5677 9.64706 7.57084 9.64706C7.57397 9.64706 7.57711 9.64706 7.58024 9.64706C7.58337 9.64706 7.5865 9.64706 7.58962 9.64706C7.59275 9.64706 7.59587 9.64706 7.59899 9.64706C7.60211 9.64706 7.60523 9.64706 7.60834 9.64706C7.61146 9.64706 7.61457 9.64706 7.61767 9.64706C7.62078 9.64706 7.62389 9.64706 7.62699 9.64706C7.63009 9.64706 7.63319 9.64706 7.63629 9.64706C7.63938 9.64706 7.64248 9.64706 7.64557 9.64706C7.64866 9.64706 7.65174 9.64706 7.65483 9.64706C7.65791 9.64706 7.661 9.64706 7.66407 9.64706C7.66715 9.64706 7.67023 9.64706 7.6733 9.64706C7.67637 9.64706 7.67944 9.64706 7.68251 9.64706V7.64706C7.67944 7.64706 7.67637 7.64706 7.6733 7.64706C7.67023 7.64706 7.66715 7.64706 7.66407 7.64706C7.661 7.64706 7.65791 7.64706 7.65483 7.64706C7.65174 7.64706 7.64866 7.64706 7.64557 7.64706C7.64248 7.64706 7.63938 7.64706 7.63629 7.64706C7.63319 7.64706 7.63009 7.64706 7.62699 7.64706C7.62389 7.64706 7.62078 7.64706 7.61767 7.64706C7.61457 7.64706 7.61146 7.64706 7.60834 7.64706C7.60523 7.64706 7.60211 7.64706 7.59899 7.64706C7.59587 7.64706 7.59275 7.64706 7.58962 7.64706C7.5865 7.64706 7.58337 7.64706 7.58024 7.64706C7.57711 7.64706 7.57397 7.64706 7.57084 7.64706C7.5677 7.64706 7.56456 7.64706 7.56142 7.64706C7.55827 7.64706 7.55513 7.64706 7.55198 7.64706C7.54883 7.64706 7.54568 7.64706 7.54252 7.64706C7.53937 7.64706 7.53621 7.64706 7.53305 7.64706C7.52989 7.64706 7.52673 7.64706 7.52356 7.64706C7.52039 7.64706 7.51723 7.64706 7.51405 7.64706C7.51088 7.64706 7.50771 7.64706 7.50453 7.64706C7.50135 7.64706 7.49817 7.64706 7.49499 7.64706C7.4918 7.64706 7.48862 7.64706 7.48543 7.64706C7.48224 7.64706 7.47904 7.64706 7.47585 7.64706C7.47265 7.64706 7.46946 7.64706 7.46626 7.64706C7.46305 7.64706 7.45985 7.64706 7.45664 7.64706C7.45344 7.64706 7.45023 7.64706 7.44701 7.64706C7.4438 7.64706 7.44059 7.64706 7.43737 7.64706C7.43415 7.64706 7.43093 7.64706 7.42771 7.64706C7.42448 7.64706 7.42125 7.64706 7.41802 7.64706C7.41479 7.64706 7.41156 7.64706 7.40833 7.64706C7.40509 7.64706 7.40185 7.64706 7.39861 7.64706C7.39537 7.64706 7.39213 7.64706 7.38888 7.64706C7.38563 7.64706 7.38238 7.64706 7.37913 7.64706C7.37588 7.64706 7.37262 7.64706 7.36936 7.64706C7.3661 7.64706 7.36284 7.64706 7.35958 7.64706C7.35631 7.64706 7.35305 7.64706 7.34978 7.64706C7.34651 7.64706 7.34323 7.64706 7.33996 7.64706C7.33668 7.64706 7.3334 7.64706 7.33012 7.64706C7.32684 7.64706 7.32356 7.64706 7.32027 7.64706C7.31698 7.64706 7.31369 7.64706 7.3104 7.64706C7.30711 7.64706 7.30381 7.64706 7.30051 7.64706C7.29722 7.64706 7.29391 7.64706 7.29061 7.64706C7.28731 7.64706 7.284 7.64706 7.28069 7.64706C7.27738 7.64706 7.27407 7.64706 7.27075 7.64706C7.26744 7.64706 7.26412 7.64706 7.2608 7.64706C7.25748 7.64706 7.25415 7.64706 7.25083 7.64706C7.2475 7.64706 7.24417 7.64706 7.24084 7.64706C7.2375 7.64706 7.23417 7.64706 7.23083 7.64706C7.22749 7.64706 7.22415 7.64706 7.22081 7.64706C7.21746 7.64706 7.21412 7.64706 7.21077 7.64706C7.20742 7.64706 7.20407 7.64706 7.20071 7.64706C7.19736 7.64706 7.194 7.64706 7.19064 7.64706C7.18728 7.64706 7.18391 7.64706 7.18055 7.64706C7.17718 7.64706 7.17381 7.64706 7.17044 7.64706C7.16707 7.64706 7.16369 7.64706 7.16032 7.64706C7.15694 7.64706 7.15356 7.64706 7.15017 7.64706C7.14679 7.64706 7.14341 7.64706 7.14002 7.64706C7.13663 7.64706 7.13324 7.64706 7.12984 7.64706C7.12645 7.64706 7.12305 7.64706 7.11965 7.64706C7.11625 7.64706 7.11285 7.64706 7.10944 7.64706C7.10604 7.64706 7.10263 7.64706 7.09922 7.64706C7.09581 7.64706 7.09239 7.64706 7.08898 7.64706C7.08556 7.64706 7.08214 7.64706 7.07872 7.64706C7.07529 7.64706 7.07187 7.64706 7.06844 7.64706C7.06501 7.64706 7.06158 7.64706 7.05815 7.64706C7.05472 7.64706 7.05128 7.64706 7.04784 7.64706C7.0444 7.64706 7.04096 7.64706 7.03752 7.64706C7.03407 7.64706 7.03062 7.64706 7.02717 7.64706C7.02372 7.64706 7.02027 7.64706 7.01682 7.64706C7.01336 7.64706 7.0099 7.64706 7.00644 7.64706C7.00298 7.64706 6.99951 7.64706 6.99605 7.64706C6.99258 7.64706 6.98911 7.64706 6.98564 7.64706C6.98217 7.64706 6.97869 7.64706 6.97521 7.64706C6.97174 7.64706 6.96826 7.64706 6.96477 7.64706C6.96129 7.64706 6.9578 7.64706 6.95431 7.64706C6.95083 7.64706 6.94733 7.64706 6.94384 7.64706C6.94035 7.64706 6.93685 7.64706 6.93335 7.64706C6.92985 7.64706 6.92635 7.64706 6.92284 7.64706C6.91934 7.64706 6.91583 7.64706 6.91232 7.64706C6.90881 7.64706 6.90529 7.64706 6.90178 7.64706C6.89826 7.64706 6.89474 7.64706 6.89122 7.64706C6.8877 7.64706 6.88417 7.64706 6.88065 7.64706C6.87712 7.64706 6.87359 7.64706 6.87006 7.64706C6.86652 7.64706 6.86299 7.64706 6.85945 7.64706C6.85591 7.64706 6.85237 7.64706 6.84883 7.64706C6.84528 7.64706 6.84174 7.64706 6.83819 7.64706C6.83464 7.64706 6.83109 7.64706 6.82753 7.64706C6.82398 7.64706 6.82042 7.64706 6.81686 7.64706C6.8133 7.64706 6.80974 7.64706 6.80617 7.64706C6.80261 7.64706 6.79904 7.64706 6.79547 7.64706C6.79189 7.64706 6.78832 7.64706 6.78474 7.64706C6.78117 7.64706 6.77759 7.64706 6.77401 7.64706C6.77043 7.64706 6.76684 7.64706 6.76325 7.64706C6.75967 7.64706 6.75608 7.64706 6.75248 7.64706C6.74889 7.64706 6.7453 7.64706 6.7417 7.64706C6.7381 7.64706 6.7345 7.64706 6.7309 7.64706C6.72729 7.64706 6.72369 7.64706 6.72008 7.64706C6.71647 7.64706 6.71286 7.64706 6.70924 7.64706C6.70563 7.64706 6.70201 7.64706 6.69839 7.64706C6.69477 7.64706 6.69115 7.64706 6.68753 7.64706C6.6839 7.64706 6.68027 7.64706 6.67664 7.64706C6.67301 7.64706 6.66938 7.64706 6.66574 7.64706C6.66211 7.64706 6.65847 7.64706 6.65483 7.64706C6.65119 7.64706 6.64754 7.64706 6.6439 7.64706C6.64025 7.64706 6.6366 7.64706 6.63295 7.64706C6.6293 7.64706 6.62564 7.64706 6.62198 7.64706C6.61833 7.64706 6.61467 7.64706 6.611 7.64706C6.60734 7.64706 6.60368 7.64706 6.60001 7.64706C6.59634 7.64706 6.59267 7.64706 6.589 7.64706C6.58532 7.64706 6.58165 7.64706 6.57797 7.64706C6.57429 7.64706 6.57061 7.64706 6.56693 7.64706C6.56324 7.64706 6.55956 7.64706 6.55587 7.64706C6.55218 7.64706 6.54848 7.64706 6.54479 7.64706C6.5411 7.64706 6.5374 7.64706 6.5337 7.64706C6.53 7.64706 6.5263 7.64706 6.52259 7.64706C6.51889 7.64706 6.51518 7.64706 6.51147 7.64706C6.50776 7.64706 6.50404 7.64706 6.50033 7.64706C6.49661 7.64706 6.49289 7.64706 6.48917 7.64706C6.48545 7.64706 6.48173 7.64706 6.478 7.64706C6.47427 7.64706 6.47055 7.64706 6.46681 7.64706C6.46308 7.64706 6.45935 7.64706 6.45561 7.64706C6.45187 7.64706 6.44813 7.64706 6.44439 7.64706C6.44065 7.64706 6.4369 7.64706 6.43316 7.64706C6.42941 7.64706 6.42566 7.64706 6.42191 7.64706C6.41815 7.64706 6.4144 7.64706 6.41064 7.64706C6.40688 7.64706 6.40312 7.64706 6.39936 7.64706C6.3956 7.64706 6.39183 7.64706 6.38806 7.64706C6.38429 7.64706 6.38052 7.64706 6.37675 7.64706C6.37297 7.64706 6.3692 7.64706 6.36542 7.64706C6.36164 7.64706 6.35786 7.64706 6.35407 7.64706C6.35029 7.64706 6.3465 7.64706 6.34271 7.64706C6.33892 7.64706 6.33513 7.64706 6.33134 7.64706C6.32754 7.64706 6.32375 7.64706 6.31995 7.64706C6.31615 7.64706 6.31234 7.64706 6.30854 7.64706C6.30473 7.64706 6.30093 7.64706 6.29711 7.64706C6.2933 7.64706 6.28949 7.64706 6.28568 7.64706C6.28186 7.64706 6.27804 7.64706 6.27422 7.64706C6.2704 7.64706 6.26658 7.64706 6.26275 7.64706C6.25893 7.64706 6.2551 7.64706 6.25127 7.64706C6.24744 7.64706 6.2436 7.64706 6.23977 7.64706C6.23593 7.64706 6.23209 7.64706 6.22825 7.64706C6.22441 7.64706 6.22056 7.64706 6.21672 7.64706C6.21287 7.64706 6.20902 7.64706 6.20517 7.64706C6.20132 7.64706 6.19746 7.64706 6.19361 7.64706C6.18975 7.64706 6.18589 7.64706 6.18203 7.64706C6.17817 7.64706 6.1743 7.64706 6.17043 7.64706C6.16657 7.64706 6.1627 7.64706 6.15882 7.64706C6.15495 7.64706 6.15108 7.64706 6.1472 7.64706C6.14332 7.64706 6.13944 7.64706 6.13556 7.64706C6.13168 7.64706 6.12779 7.64706 6.1239 7.64706C6.12002 7.64706 6.11613 7.64706 6.11223 7.64706C6.10834 7.64706 6.10444 7.64706 6.10055 7.64706C6.09665 7.64706 6.09275 7.64706 6.08884 7.64706C6.08494 7.64706 6.08104 7.64706 6.07713 7.64706C6.07322 7.64706 6.06931 7.64706 6.06539 7.64706C6.06148 7.64706 6.05757 7.64706 6.05365 7.64706C6.04973 7.64706 6.04581 7.64706 6.04188 7.64706C6.03796 7.64706 6.03403 7.64706 6.03011 7.64706C6.02618 7.64706 6.02225 7.64706 6.01831 7.64706C6.01438 7.64706 6.01044 7.64706 6.0065 7.64706C6.00256 7.64706 5.99862 7.64706 5.99468 7.64706C5.99074 7.64706 5.98679 7.64706 5.98284 7.64706C5.97889 7.64706 5.97494 7.64706 5.97099 7.64706C5.96703 7.64706 5.96308 7.64706 5.95912 7.64706C5.95516 7.64706 5.9512 7.64706 5.94723 7.64706C5.94327 7.64706 5.9393 7.64706 5.93533 7.64706C5.93136 7.64706 5.92739 7.64706 5.92342 7.64706C5.91944 7.64706 5.91547 7.64706 5.91149 7.64706C5.90751 7.64706 5.90353 7.64706 5.89954 7.64706C5.89556 7.64706 5.89157 7.64706 5.88758 7.64706C5.88359 7.64706 5.8796 7.64706 5.87561 7.64706C5.87161 7.64706 5.86762 7.64706 5.86362 7.64706C5.85962 7.64706 5.85561 7.64706 5.85161 7.64706C5.84761 7.64706 5.8436 7.64706 5.83959 7.64706C5.83558 7.64706 5.83157 7.64706 5.82755 7.64706C5.82354 7.64706 5.81952 7.64706 5.8155 7.64706C5.81148 7.64706 5.80746 7.64706 5.80344 7.64706C5.79941 7.64706 5.79539 7.64706 5.79136 7.64706C5.78733 7.64706 5.7833 7.64706 5.77926 7.64706C5.77523 7.64706 5.77119 7.64706 5.76715 7.64706C5.76311 7.64706 5.75907 7.64706 5.75503 7.64706C5.75098 7.64706 5.74694 7.64706 5.74289 7.64706C5.73884 7.64706 5.73479 7.64706 5.73073 7.64706C5.72668 7.64706 5.72262 7.64706 5.71856 7.64706C5.7145 7.64706 5.71044 7.64706 5.70638 7.64706C5.70231 7.64706 5.69825 7.64706 5.69418 7.64706C5.69011 7.64706 5.68604 7.64706 5.68196 7.64706C5.67789 7.64706 5.67381 7.64706 5.66973 7.64706C5.66566 7.64706 5.66157 7.64706 5.65749 7.64706C5.65341 7.64706 5.64932 7.64706 5.64523 7.64706C5.64114 7.64706 5.63705 7.64706 5.63296 7.64706C5.62886 7.64706 5.62477 7.64706 5.62067 7.64706C5.61657 7.64706 5.61247 7.64706 5.60837 7.64706C5.60426 7.64706 5.60016 7.64706 5.59605 7.64706C5.59194 7.64706 5.58783 7.64706 5.58372 7.64706C5.5796 7.64706 5.57549 7.64706 5.57137 7.64706C5.56725 7.64706 5.56313 7.64706 5.55901 7.64706C5.55488 7.64706 5.55076 7.64706 5.54663 7.64706C5.5425 7.64706 5.53837 7.64706 5.53424 7.64706C5.53011 7.64706 5.52597 7.64706 5.52183 7.64706C5.5177 7.64706 5.51356 7.64706 5.50941 7.64706C5.50527 7.64706 5.50113 7.64706 5.49698 7.64706C5.49283 7.64706 5.48868 7.64706 5.48453 7.64706C5.48038 7.64706 5.47622 7.64706 5.47207 7.64706C5.46791 7.64706 5.46375 7.64706 5.45959 7.64706C5.45542 7.64706 5.45126 7.64706 5.44709 7.64706C5.44293 7.64706 5.43876 7.64706 5.43459 7.64706C5.43041 7.64706 5.42624 7.64706 5.42206 7.64706C5.41789 7.64706 5.41371 7.64706 5.40953 7.64706C5.40535 7.64706 5.40116 7.64706 5.39698 7.64706C5.39279 7.64706 5.3886 7.64706 5.38441 7.64706C5.38022 7.64706 5.37603 7.64706 5.37183 7.64706C5.36764 7.64706 5.36344 7.64706 5.35924 7.64706C5.35504 7.64706 5.35083 7.64706 5.34663 7.64706C5.34242 7.64706 5.33821 7.64706 5.334 7.64706C5.32979 7.64706 5.32558 7.64706 5.32137 7.64706C5.31715 7.64706 5.31293 7.64706 5.30872 7.64706C5.3045 7.64706 5.30027 7.64706 5.29605 7.64706C5.29182 7.64706 5.2876 7.64706 5.28337 7.64706C5.27914 7.64706 5.27491 7.64706 5.27067 7.64706C5.26644 7.64706 5.2622 7.64706 5.25796 7.64706C5.25373 7.64706 5.24948 7.64706 5.24524 7.64706C5.241 7.64706 5.23675 7.64706 5.2325 7.64706C5.22825 7.64706 5.224 7.64706 5.21975 7.64706C5.2155 7.64706 5.21124 7.64706 5.20698 7.64706C5.20273 7.64706 5.19847 7.64706 5.1942 7.64706C5.18994 7.64706 5.18568 7.64706 5.18141 7.64706C5.17714 7.64706 5.17287 7.64706 5.1686 7.64706C5.16433 7.64706 5.16005 7.64706 5.15578 7.64706C5.1515 7.64706 5.14722 7.64706 5.14294 7.64706C5.13866 7.64706 5.13438 7.64706 5.13009 7.64706C5.1258 7.64706 5.12151 7.64706 5.11722 7.64706C5.11293 7.64706 5.10864 7.64706 5.10434 7.64706C5.10005 7.64706 5.09575 7.64706 5.09145 7.64706C5.08715 7.64706 5.08285 7.64706 5.07854 7.64706C5.07424 7.64706 5.06993 7.64706 5.06562 7.64706C5.06131 7.64706 5.057 7.64706 5.05269 7.64706C5.04837 7.64706 5.04405 7.64706 5.03974 7.64706C5.03542 7.64706 5.0311 7.64706 5.02677 7.64706C5.02245 7.64706 5.01812 7.64706 5.01379 7.64706C5.00947 7.64706 5.00513 7.64706 5.0008 7.64706C4.99647 7.64706 4.99213 7.64706 4.9878 7.64706C4.98346 7.64706 4.97912 7.64706 4.97478 7.64706C4.97043 7.64706 4.96609 7.64706 4.96174 7.64706C4.9574 7.64706 4.95305 7.64706 4.94869 7.64706C4.94434 7.64706 4.93999 7.64706 4.93563 7.64706C4.93128 7.64706 4.92692 7.64706 4.92256 7.64706C4.9182 7.64706 4.91383 7.64706 4.90947 7.64706C4.9051 7.64706 4.90073 7.64706 4.89636 7.64706C4.89199 7.64706 4.88762 7.64706 4.88325 7.64706C4.87887 7.64706 4.8745 7.64706 4.87012 7.64706C4.86574 7.64706 4.86136 7.64706 4.85697 7.64706C4.85259 7.64706 4.8482 7.64706 4.84381 7.64706C4.83942 7.64706 4.83503 7.64706 4.83064 7.64706C4.82625 7.64706 4.82185 7.64706 4.81745 7.64706C4.81306 7.64706 4.80866 7.64706 4.80426 7.64706C4.79985 7.64706 4.79545 7.64706 4.79104 7.64706C4.78663 7.64706 4.78223 7.64706 4.77781 7.64706C4.7734 7.64706 4.76899 7.64706 4.76457 7.64706C4.76016 7.64706 4.75574 7.64706 4.75132 7.64706C4.7469 7.64706 4.74247 7.64706 4.73805 7.64706C4.73362 7.64706 4.7292 7.64706 4.72477 7.64706C4.72034 7.64706 4.71591 7.64706 4.71147 7.64706C4.70704 7.64706 4.7026 7.64706 4.69816 7.64706C4.69372 7.64706 4.68928 7.64706 4.68484 7.64706C4.6804 7.64706 4.67595 7.64706 4.6715 7.64706C4.66706 7.64706 4.66261 7.64706 4.65815 7.64706C4.6537 7.64706 4.64925 7.64706 4.64479 7.64706C4.64033 7.64706 4.63587 7.64706 4.63141 7.64706C4.62695 7.64706 4.62249 7.64706 4.61802 7.64706C4.61355 7.64706 4.60909 7.64706 4.60462 7.64706C4.60015 7.64706 4.59567 7.64706 4.5912 7.64706C4.58672 7.64706 4.58225 7.64706 4.57777 7.64706C4.57329 7.64706 4.56881 7.64706 4.56432 7.64706C4.55984 7.64706 4.55535 7.64706 4.55086 7.64706C4.54638 7.64706 4.54188 7.64706 4.53739 7.64706C4.5329 7.64706 4.5284 7.64706 4.52391 7.64706C4.51941 7.64706 4.51491 7.64706 4.51041 7.64706C4.50591 7.64706 4.5014 7.64706 4.4969 7.64706C4.49239 7.64706 4.48788 7.64706 4.48337 7.64706C4.47886 7.64706 4.47435 7.64706 4.46983 7.64706C4.46532 7.64706 4.4608 7.64706 4.45628 7.64706C4.45176 7.64706 4.44724 7.64706 4.44271 7.64706C4.43819 7.64706 4.43366 7.64706 4.42914 7.64706C4.42461 7.64706 4.42008 7.64706 4.41554 7.64706C4.41101 7.64706 4.40648 7.64706 4.40194 7.64706C4.3974 7.64706 4.39286 7.64706 4.38832 7.64706C4.38378 7.64706 4.37923 7.64706 4.37469 7.64706C4.37014 7.64706 4.36559 7.64706 4.36104 7.64706C4.35649 7.64706 4.35194 7.64706 4.34738 7.64706C4.34283 7.64706 4.33827 7.64706 4.33371 7.64706C4.32915 7.64706 4.32459 7.64706 4.32003 7.64706C4.31546 7.64706 4.3109 7.64706 4.30633 7.64706C4.30176 7.64706 4.29719 7.64706 4.29262 7.64706C4.28805 7.64706 4.28347 7.64706 4.27889 7.64706C4.27432 7.64706 4.26974 7.64706 4.26516 7.64706C4.26057 7.64706 4.25599 7.64706 4.25141 7.64706C4.24682 7.64706 4.24223 7.64706 4.23764 7.64706C4.23305 7.64706 4.22846 7.64706 4.22386 7.64706C4.21927 7.64706 4.21467 7.64706 4.21007 7.64706C4.20548 7.64706 4.20087 7.64706 4.19627 7.64706C4.19167 7.64706 4.18706 7.64706 4.18246 7.64706C4.17785 7.64706 4.17324 7.64706 4.16863 7.64706C4.16401 7.64706 4.1594 7.64706 4.15478 7.64706C4.15017 7.64706 4.14555 7.64706 4.14093 7.64706C4.13631 7.64706 4.13169 7.64706 4.12706 7.64706C4.12244 7.64706 4.11781 7.64706 4.11318 7.64706C4.10855 7.64706 4.10392 7.64706 4.09929 7.64706C4.09465 7.64706 4.09002 7.64706 4.08538 7.64706C4.08074 7.64706 4.0761 7.64706 4.07146 7.64706C4.06682 7.64706 4.06217 7.64706 4.05753 7.64706C4.05288 7.64706 4.04823 7.64706 4.04358 7.64706C4.03893 7.64706 4.03428 7.64706 4.02962 7.64706C4.02497 7.64706 4.02031 7.64706 4.01565 7.64706C4.01099 7.64706 4.00633 7.64706 4.00167 7.64706C3.997 7.64706 3.99234 7.64706 3.98767 7.64706C3.983 7.64706 3.97833 7.64706 3.97366 7.64706C3.96899 7.64706 3.96431 7.64706 3.95964 7.64706C3.95496 7.64706 3.95028 7.64706 3.9456 7.64706C3.94092 7.64706 3.93624 7.64706 3.93155 7.64706C3.92687 7.64706 3.92218 7.64706 3.91749 7.64706C3.9128 7.64706 3.90811 7.64706 3.90342 7.64706C3.89873 7.64706 3.89403 7.64706 3.88933 7.64706C3.88464 7.64706 3.87994 7.64706 3.87523 7.64706C3.87053 7.64706 3.86583 7.64706 3.86112 7.64706C3.85642 7.64706 3.85171 7.64706 3.847 7.64706C3.84229 7.64706 3.83757 7.64706 3.83286 7.64706C3.82815 7.64706 3.82343 7.64706 3.81871 7.64706C3.81399 7.64706 3.80927 7.64706 3.80455 7.64706C3.79982 7.64706 3.7951 7.64706 3.79037 7.64706C3.78565 7.64706 3.78092 7.64706 3.77619 7.64706C3.77145 7.64706 3.76672 7.64706 3.76198 7.64706C3.75725 7.64706 3.75251 7.64706 3.74777 7.64706C3.74303 7.64706 3.73829 7.64706 3.73355 7.64706C3.7288 7.64706 3.72406 7.64706 3.71931 7.64706C3.71456 7.64706 3.70981 7.64706 3.70506 7.64706C3.70031 7.64706 3.69555 7.64706 3.6908 7.64706C3.68604 7.64706 3.68128 7.64706 3.67652 7.64706C3.67176 7.64706 3.667 7.64706 3.66223 7.64706C3.65747 7.64706 3.6527 7.64706 3.64793 7.64706C3.64316 7.64706 3.63839 7.64706 3.63362 7.64706C3.62885 7.64706 3.62407 7.64706 3.61929 7.64706C3.61452 7.64706 3.60974 7.64706 3.60496 7.64706C3.60017 7.64706 3.59539 7.64706 3.59061 7.64706C3.58582 7.64706 3.58103 7.64706 3.57624 7.64706C3.57145 7.64706 3.56666 7.64706 3.56187 7.64706C3.55708 7.64706 3.55228 7.64706 3.54748 7.64706C3.54268 7.64706 3.53788 7.64706 3.53308 7.64706C3.52828 7.64706 3.52348 7.64706 3.51867 7.64706C3.51386 7.64706 3.50906 7.64706 3.50425 7.64706C3.49944 7.64706 3.49462 7.64706 3.48981 7.64706C3.485 7.64706 3.48018 7.64706 3.47536 7.64706C3.47054 7.64706 3.46572 7.64706 3.4609 7.64706C3.45608 7.64706 3.45125 7.64706 3.44643 7.64706C3.4416 7.64706 3.43677 7.64706 3.43194 7.64706C3.42711 7.64706 3.42228 7.64706 3.41744 7.64706C3.41261 7.64706 3.40777 7.64706 3.40293 7.64706C3.3981 7.64706 3.39325 7.64706 3.38841 7.64706C3.38357 7.64706 3.37873 7.64706 3.37388 7.64706C3.36903 7.64706 3.36418 7.64706 3.35933 7.64706C3.35448 7.64706 3.34963 7.64706 3.34477 7.64706C3.33992 7.64706 3.33506 7.64706 3.3302 7.64706C3.32534 7.64706 3.32048 7.64706 3.31562 7.64706C3.31076 7.64706 3.30589 7.64706 3.30103 7.64706C3.29616 7.64706 3.29129 7.64706 3.28642 7.64706C3.28155 7.64706 3.27667 7.64706 3.2718 7.64706C3.26692 7.64706 3.26205 7.64706 3.25717 7.64706C3.25229 7.64706 3.24741 7.64706 3.24253 7.64706C3.23764 7.64706 3.23276 7.64706 3.22787 7.64706C3.22298 7.64706 3.21809 7.64706 3.2132 7.64706C3.20831 7.64706 3.20342 7.64706 3.19852 7.64706C3.19363 7.64706 3.18873 7.64706 3.18383 7.64706C3.17894 7.64706 3.17403 7.64706 3.16913 7.64706C3.16423 7.64706 3.15932 7.64706 3.15442 7.64706C3.14951 7.64706 3.1446 7.64706 3.13969 7.64706C3.13478 7.64706 3.12987 7.64706 3.12495 7.64706C3.12004 7.64706 3.11512 7.64706 3.1102 7.64706C3.10528 7.64706 3.10036 7.64706 3.09544 7.64706C3.09052 7.64706 3.08559 7.64706 3.08066 7.64706C3.07574 7.64706 3.07081 7.64706 3.06588 7.64706C3.06095 7.64706 3.05601 7.64706 3.05108 7.64706C3.04615 7.64706 3.04121 7.64706 3.03627 7.64706C3.03133 7.64706 3.02639 7.64706 3.02145 7.64706C3.01651 7.64706 3.01156 7.64706 3.00662 7.64706C3.00167 7.64706 2.99672 7.64706 2.99177 7.64706C2.98682 7.64706 2.98187 7.64706 2.97691 7.64706C2.97196 7.64706 2.967 7.64706 2.96205 7.64706C2.95709 7.64706 2.95213 7.64706 2.94716 7.64706C2.9422 7.64706 2.93724 7.64706 2.93227 7.64706C2.92731 7.64706 2.92234 7.64706 2.91737 7.64706C2.9124 7.64706 2.90743 7.64706 2.90245 7.64706C2.89748 7.64706 2.8925 7.64706 2.88753 7.64706C2.88255 7.64706 2.87757 7.64706 2.87259 7.64706C2.86761 7.64706 2.86262 7.64706 2.85764 7.64706C2.85265 7.64706 2.84767 7.64706 2.84268 7.64706C2.83769 7.64706 2.8327 7.64706 2.8277 7.64706C2.82271 7.64706 2.81771 7.64706 2.81272 7.64706C2.80772 7.64706 2.80272 7.64706 2.79772 7.64706C2.79272 7.64706 2.78772 7.64706 2.78271 7.64706C2.77771 7.64706 2.7727 7.64706 2.76769 7.64706C2.76268 7.64706 2.75767 7.64706 2.75266 7.64706C2.74765 7.64706 2.74264 7.64706 2.73762 7.64706C2.7326 7.64706 2.72759 7.64706 2.72257 7.64706C2.71755 7.64706 2.71252 7.64706 2.7075 7.64706C2.70248 7.64706 2.69745 7.64706 2.69242 7.64706C2.68739 7.64706 2.68237 7.64706 2.67733 7.64706C2.6723 7.64706 2.66727 7.64706 2.66223 7.64706C2.6572 7.64706 2.65216 7.64706 2.64712 7.64706C2.64208 7.64706 2.63704 7.64706 2.632 7.64706C2.62696 7.64706 2.62191 7.64706 2.61687 7.64706C2.61182 7.64706 2.60677 7.64706 2.60172 7.64706C2.59667 7.64706 2.59162 7.64706 2.58656 7.64706C2.58151 7.64706 2.57645 7.64706 2.5714 7.64706C2.56634 7.64706 2.56128 7.64706 2.55622 7.64706C2.55115 7.64706 2.54609 7.64706 2.54102 7.64706C2.53596 7.64706 2.53089 7.64706 2.52582 7.64706C2.52075 7.64706 2.51568 7.64706 2.51061 7.64706C2.50554 7.64706 2.50046 7.64706 2.49538 7.64706C2.49031 7.64706 2.48523 7.64706 2.48015 7.64706C2.47507 7.64706 2.46999 7.64706 2.4649 7.64706C2.45982 7.64706 2.45473 7.64706 2.44964 7.64706C2.44456 7.64706 2.43947 7.64706 2.43437 7.64706C2.42928 7.64706 2.42419 7.64706 2.41909 7.64706C2.414 7.64706 2.4089 7.64706 2.4038 7.64706C2.3987 7.64706 2.3936 7.64706 2.3885 7.64706C2.3834 7.64706 2.37829 7.64706 2.37318 7.64706C2.36808 7.64706 2.36297 7.64706 2.35786 7.64706C2.35275 7.64706 2.34764 7.64706 2.34252 7.64706C2.33741 7.64706 2.33229 7.64706 2.32718 7.64706C2.32206 7.64706 2.31694 7.64706 2.31182 7.64706C2.3067 7.64706 2.30157 7.64706 2.29645 7.64706C2.29132 7.64706 2.2862 7.64706 2.28107 7.64706C2.27594 7.64706 2.27081 7.64706 2.26568 7.64706C2.26054 7.64706 2.25541 7.64706 2.25027 7.64706C2.24514 7.64706 2.24 7.64706 2.23486 7.64706C2.22972 7.64706 2.22458 7.64706 2.21943 7.64706C2.21429 7.64706 2.20915 7.64706 2.204 7.64706C2.19885 7.64706 2.1937 7.64706 2.18855 7.64706C2.1834 7.64706 2.17825 7.64706 2.17309 7.64706C2.16794 7.64706 2.16278 7.64706 2.15763 7.64706C2.15247 7.64706 2.14731 7.64706 2.14215 7.64706C2.13699 7.64706 2.13182 7.64706 2.12666 7.64706C2.12149 7.64706 2.11633 7.64706 2.11116 7.64706C2.10599 7.64706 2.10082 7.64706 2.09564 7.64706C2.09047 7.64706 2.0853 7.64706 2.08012 7.64706C2.07495 7.64706 2.06977 7.64706 2.06459 7.64706C2.05941 7.64706 2.05423 7.64706 2.04904 7.64706C2.04386 7.64706 2.03868 7.64706 2.03349 7.64706C2.0283 7.64706 2.02311 7.64706 2.01792 7.64706C2.01273 7.64706 2.00754 7.64706 2.00235 7.64706C1.99715 7.64706 1.99196 7.64706 1.98676 7.64706C1.98156 7.64706 1.97636 7.64706 1.97116 7.64706C1.96596 7.64706 1.96076 7.64706 1.95555 7.64706C1.95035 7.64706 1.94514 7.64706 1.93993 7.64706C1.93472 7.64706 1.92951 7.64706 1.9243 7.64706C1.91909 7.64706 1.91388 7.64706 1.90866 7.64706C1.90345 7.64706 1.89823 7.64706 1.89301 7.64706C1.88779 7.64706 1.88257 7.64706 1.87735 7.64706C1.87213 7.64706 1.8669 7.64706 1.86168 7.64706C1.85645 7.64706 1.85122 7.64706 1.84599 7.64706C1.84076 7.64706 1.83553 7.64706 1.8303 7.64706C1.82506 7.64706 1.81983 7.64706 1.81459 7.64706C1.80936 7.64706 1.80412 7.64706 1.79888 7.64706C1.79364 7.64706 1.7884 7.64706 1.78315 7.64706C1.77791 7.64706 1.77266 7.64706 1.76742 7.64706C1.76217 7.64706 1.75692 7.64706 1.75167 7.64706C1.74642 7.64706 1.74117 7.64706 1.73591 7.64706C1.73066 7.64706 1.7254 7.64706 1.72014 7.64706C1.71489 7.64706 1.70963 7.64706 1.70437 7.64706C1.69911 7.64706 1.69384 7.64706 1.68858 7.64706C1.68331 7.64706 1.67805 7.64706 1.67278 7.64706C1.66751 7.64706 1.66224 7.64706 1.65697 7.64706C1.6517 7.64706 1.64642 7.64706 1.64115 7.64706C1.63587 7.64706 1.6306 7.64706 1.62532 7.64706C1.62004 7.64706 1.61476 7.64706 1.60948 7.64706C1.6042 7.64706 1.59891 7.64706 1.59363 7.64706C1.58834 7.64706 1.58306 7.64706 1.57777 7.64706C1.57248 7.64706 1.56719 7.64706 1.56189 7.64706C1.5566 7.64706 1.55131 7.64706 1.54601 7.64706C1.54072 7.64706 1.53542 7.64706 1.53012 7.64706C1.52482 7.64706 1.51952 7.64706 1.51422 7.64706C1.50892 7.64706 1.50361 7.64706 1.49831 7.64706C1.493 7.64706 1.48769 7.64706 1.48238 7.64706C1.47707 7.64706 1.47176 7.64706 1.46645 7.64706C1.46114 7.64706 1.45582 7.64706 1.45051 7.64706C1.44519 7.64706 1.43987 7.64706 1.43455 7.64706C1.42923 7.64706 1.42391 7.64706 1.41859 7.64706C1.41326 7.64706 1.40794 7.64706 1.40261 7.64706C1.39729 7.64706 1.39196 7.64706 1.38663 7.64706C1.3813 7.64706 1.37597 7.64706 1.37063 7.64706C1.3653 7.64706 1.35997 7.64706 1.35463 7.64706C1.34929 7.64706 1.34396 7.64706 1.33862 7.64706C1.33328 7.64706 1.32793 7.64706 1.32259 7.64706C1.31725 7.64706 1.3119 7.64706 1.30656 7.64706C1.30121 7.64706 1.29586 7.64706 1.29051 7.64706C1.28516 7.64706 1.27981 7.64706 1.27446 7.64706C1.2691 7.64706 1.26375 7.64706 1.25839 7.64706C1.25303 7.64706 1.24768 7.64706 1.24232 7.64706C1.23696 7.64706 1.23159 7.64706 1.22623 7.64706C1.22087 7.64706 1.2155 7.64706 1.21014 7.64706C1.20477 7.64706 1.1994 7.64706 1.19403 7.64706C1.18866 7.64706 1.18329 7.64706 1.17792 7.64706C1.17254 7.64706 1.16717 7.64706 1.16179 7.64706C1.15642 7.64706 1.15104 7.64706 1.14566 7.64706C1.14028 7.64706 1.1349 7.64706 1.12951 7.64706C1.12413 7.64706 1.11874 7.64706 1.11336 7.64706C1.10797 7.64706 1.10258 7.64706 1.09719 7.64706C1.0918 7.64706 1.08641 7.64706 1.08102 7.64706C1.07563 7.64706 1.07023 7.64706 1.06483 7.64706C1.05944 7.64706 1.05404 7.64706 1.04864 7.64706C1.04324 7.64706 1.03784 7.64706 1.03244 7.64706C1.02703 7.64706 1.02163 7.64706 1.01622 7.64706C1.01082 7.64706 1.00541 7.64706 1 7.64706V9.64706ZM13 5.29344V4.82353H11V5.29344H13ZM13 4.82353V3.89312H11V4.82353H13ZM10.5587 0.459924L10.0297 0.276045L9.37302 2.16517L9.90202 2.34905L10.5587 0.459924ZM8.39474 0H3.93333V2H8.39474V0ZM3.93333 12.7059H7.23333V10.7059H3.93333V12.7059ZM7.23333 12.7059H10.5333V10.7059H7.23333V12.7059ZM12.6427 2.32164C12.2239 1.44814 11.4737 0.777979 10.5587 0.459924L9.90202 2.34905C10.3136 2.4921 10.6509 2.7935 10.8393 3.18635L12.6427 2.32164ZM13 3.89312C13 3.34916 12.8779 2.81213 12.6427 2.32164L10.8393 3.18635C10.9451 3.40695 11 3.64847 11 3.89312H13ZM11 5.29344C11 5.71536 10.8369 6.12097 10.5449 6.4255L11.9884 7.80979C12.6376 7.13288 13 6.2313 13 5.29344H11ZM10.0297 0.276045C9.50395 0.093308 8.95131 0 8.39474 0V2C8.72777 2 9.05845 2.05583 9.37302 2.16517L10.0297 0.276045ZM7.68251 9.64706C9.30899 9.64706 10.8631 8.98325 11.9884 7.80979L10.5449 6.4255C9.79634 7.2061 8.76338 7.64706 7.68251 7.64706V9.64706Z" fill="#231F20"/>
</svg>
