<svg width="25" height="25" viewBox="0 0 25 25" fill="none" xmlns="http://www.w3.org/2000/svg">
<g clip-path="url(#clip0)">
<path d="M5.4761 9.16061C3.63227 9.16061 2.13965 10.6532 2.13965 12.4971C2.13965 14.3409 3.63227 15.8335 5.4761 15.8335C7.31993 15.8335 8.81256 14.3409 8.81256 12.4971C8.80671 10.6591 7.31408 9.16647 5.4761 9.16061ZM5.4761 14.6628C4.282 14.6628 3.31033 13.697 3.31033 12.4971C3.31033 11.303 4.27615 10.3313 5.4761 10.3313C6.6702 10.3313 7.64187 11.2971 7.64187 12.4971C7.63602 13.6912 6.6702 14.657 5.4761 14.6628Z" fill="#C5C5C5"/>
<path d="M22.2754 10.0972H10.3637C10.0417 10.0972 9.77832 10.3606 9.77832 10.6825C9.77832 11.0045 10.0417 11.2679 10.3637 11.2679H22.2754C22.5973 11.2679 22.8607 11.0045 22.8607 10.6825C22.8607 10.3606 22.5973 10.0972 22.2754 10.0972Z" fill="#C5C5C5"/>
<path d="M16.779 13.7263H10.3637C10.0417 13.7263 9.77832 13.9897 9.77832 14.3116C9.77832 14.6336 10.0359 14.897 10.3637 14.897H16.779C17.101 14.897 17.3644 14.6336 17.3644 14.3116C17.3644 13.9897 17.101 13.7263 16.779 13.7263Z" fill="#C5C5C5"/>
<path d="M5.4761 0C3.63227 0 2.13965 1.49262 2.13965 3.33645C2.13965 5.18028 3.63227 6.67291 5.4761 6.67291C7.31993 6.67291 8.81256 5.18028 8.81256 3.33645C8.80671 1.49262 7.31408 0 5.4761 0ZM5.4761 5.49637C4.282 5.49637 3.31033 4.53055 3.31033 3.3306C3.31033 2.13065 4.27615 1.16483 5.4761 1.16483C6.6702 1.16483 7.64187 2.13065 7.64187 3.3306C7.63602 4.53055 6.6702 5.49637 5.4761 5.49637Z" fill="#C5C5C5"/>
<path d="M22.2754 0.907288H10.3637C10.0417 0.907288 9.77832 1.17069 9.77832 1.49263C9.77832 1.81457 10.0417 2.07797 10.3637 2.07797H22.2754C22.5973 2.07797 22.8607 1.81457 22.8607 1.49263C22.8607 1.17069 22.5973 0.907288 22.2754 0.907288Z" fill="#C5C5C5"/>
<path d="M16.779 4.59494H10.3637C10.0417 4.59494 9.77832 4.85834 9.77832 5.18028C9.77832 5.50222 10.0359 5.76563 10.3637 5.76563H16.779C17.101 5.76563 17.3644 5.50222 17.3644 5.18028C17.3644 4.85834 17.101 4.59494 16.779 4.59494Z" fill="#C5C5C5"/>
<path d="M5.4761 18.3271C3.63227 18.3271 2.13965 19.8197 2.13965 21.6635C2.13965 23.5074 3.63227 25 5.4761 25C7.31993 25 8.81256 23.5074 8.81256 21.6635C8.80671 19.8197 7.31408 18.3271 5.4761 18.3271ZM5.4761 23.8235C4.282 23.8235 3.31033 22.8576 3.31033 21.6577C3.31033 20.4636 4.27615 19.4919 5.4761 19.4919C6.6702 19.4919 7.64187 20.4577 7.64187 21.6577C7.63602 22.8576 6.6702 23.8235 5.4761 23.8235Z" fill="#C5C5C5"/>
<path d="M22.2754 19.2285H10.3637C10.0417 19.2285 9.77832 19.4919 9.77832 19.8139C9.77832 20.1358 10.0417 20.3992 10.3637 20.3992H22.2754C22.5973 20.3992 22.8607 20.1358 22.8607 19.8139C22.8607 19.4919 22.5973 19.2285 22.2754 19.2285Z" fill="#C5C5C5"/>
<path d="M16.779 22.9162H10.3637C10.0417 22.9162 9.77832 23.1796 9.77832 23.5015C9.77832 23.8234 10.0417 24.0869 10.3637 24.0869H16.779C17.101 24.0869 17.3644 23.8234 17.3644 23.5015C17.3644 23.1796 17.101 22.9162 16.779 22.9162Z" fill="#C5C5C5"/>
</g>
<defs>
<clipPath id="clip0">
<rect width="25" height="25" fill="white"/>
</clipPath>
</defs>
</svg>
