<svg width="25" height="25" viewBox="0 0 25 25" fill="none" xmlns="http://www.w3.org/2000/svg">
<path d="M10.5556 0H0.925926C0.416667 0 0 0.416667 0 0.925926V10.5556C0 11.0648 0.416667 11.4815 0.925926 11.4815H10.5556C11.0648 11.4815 11.4815 11.0648 11.4815 10.5556V0.925926C11.4815 0.416667 11.0648 0 10.5556 0ZM9.62963 9.62963H1.85185V1.85185H9.62963V9.62963Z" fill="#EF9A41"/>
<path d="M24.0741 0H14.4445C13.9352 0 13.5186 0.416667 13.5186 0.925926V10.5556C13.5186 11.0648 13.9352 11.4815 14.4445 11.4815H24.0741C24.5834 11.4815 25 11.0648 25 10.5556V0.925926C25 0.416667 24.5834 0 24.0741 0ZM23.1482 9.62963H15.3704V1.85185H23.1482V9.62963Z" fill="#EF9A41"/>
<path d="M10.5556 13.5185H0.925926C0.416667 13.5185 0 13.9352 0 14.4445V24.0741C0 24.5833 0.416667 25 0.925926 25H10.5556C11.0648 25 11.4815 24.5833 11.4815 24.0741V14.4445C11.4815 13.9352 11.0648 13.5185 10.5556 13.5185ZM9.62963 23.1482H1.85185V15.3704H9.62963V23.1482Z" fill="#EF9A41"/>
<path d="M24.0741 13.5185H14.4445C13.9352 13.5185 13.5186 13.9352 13.5186 14.4445V24.0741C13.5186 24.5833 13.9352 25 14.4445 25H24.0741C24.5834 25 25 24.5833 25 24.0741V14.4445C25 13.9352 24.5834 13.5185 24.0741 13.5185ZM23.1482 23.1482H15.3704V15.3704H23.1482V23.1482Z" fill="#EF9A41"/>
</svg>
