<svg width="568" height="263" viewBox="0 0 568 263" fill="none" xmlns="http://www.w3.org/2000/svg">
<g clip-path="url(#clip0)">
<path opacity="0.5" d="M109.2 115.4C109.2 119 86.6 121.9 58.7 121.9C30.8 121.9 8.20001 119 8.20001 115.4C8.20001 111.8 30.8 108.9 58.7 108.9C86.6 108.9 109.2 111.8 109.2 115.4Z" fill="#C6BDA3"/>
<path opacity="0.5" d="M259.8 115.4C259.8 119 237.2 121.9 209.3 121.9C181.4 121.9 158.8 119 158.8 115.4C158.8 111.8 181.4 108.9 209.3 108.9C237.2 108.9 259.8 111.8 259.8 115.4Z" fill="#C6BDA3"/>
<path opacity="0.5" d="M409.6 115.4C409.6 119 387 121.9 359.1 121.9C331.2 121.9 308.6 119 308.6 115.4C308.6 111.8 331.2 108.9 359.1 108.9C387 108.9 409.6 111.8 409.6 115.4Z" fill="#C6BDA3"/>
<path opacity="0.5" d="M559.4 115.4C559.4 119 536.8 121.9 508.9 121.9C481 121.9 458.4 119 458.4 115.4C458.4 111.8 481 108.9 508.9 108.9C536.9 108.9 559.4 111.8 559.4 115.4Z" fill="#C6BDA3"/>
<path opacity="0.5" d="M110 256C110 259.6 87.4 262.5 59.5 262.5C31.6 262.5 9 259.6 9 256C9 252.4 31.6 249.5 59.5 249.5C87.4 249.5 110 252.4 110 256Z" fill="#C6BDA3"/>
<path opacity="0.5" d="M259.8 256C259.8 259.6 237.2 262.5 209.3 262.5C181.4 262.5 158.8 259.6 158.8 256C158.8 252.4 181.4 249.5 209.3 249.5C237.2 249.5 259.8 252.4 259.8 256Z" fill="#C6BDA3"/>
<path opacity="0.5" d="M409.6 256C409.6 259.6 387 262.5 359.1 262.5C331.2 262.5 308.6 259.6 308.6 256C308.6 252.4 331.2 249.5 359.1 249.5C387 249.5 409.6 252.4 409.6 256Z" fill="#C6BDA3"/>
<path opacity="0.5" d="M559.4 256C559.4 259.6 536.8 262.5 508.9 262.5C481 262.5 458.4 259.6 458.4 256C458.4 252.4 481 249.5 508.9 249.5C536.9 249.5 559.4 252.4 559.4 256Z" fill="#C6BDA3"/>
<path d="M271.8 197.3C271.8 229.7 245.5 256 213.1 256C180.7 256 154.4 229.7 154.4 197.3C154.4 164.9 180.7 138.6 213.1 138.6C245.5 138.5 271.8 164.8 271.8 197.3Z" fill="#EF9A41"/>
<path d="M213 234.4C233.49 234.4 250.1 217.79 250.1 197.3C250.1 176.81 233.49 160.2 213 160.2C192.51 160.2 175.9 176.81 175.9 197.3C175.9 217.79 192.51 234.4 213 234.4Z" fill="#102F41"/>
<path d="M210.1 181.5C210.7 180.6 211.3 179.7 211.9 178.9C212.9 177.6 213.8 176.3 214.8 175.1C222.2 178.5 229.5 179.2 236.1 179.9C239.8 180.3 243.3 180.6 246.5 181.4C248.8 186.2 250.1 191.6 250.1 197.3C250.1 202.1 249.2 206.7 247.5 210.9C239.1 197.9 224.6 188 210.1 181.5Z" fill="#FE4626"/>
<path d="M182.7 194.8C188.1 190.9 194.6 188.6 201.4 191.3C196.3 200.8 192.3 211.4 191 221.8C190.8 223.5 190.7 225.1 190.6 226.8C182.5 220.7 177 211.3 176.1 200.6C178.1 198.5 180.3 196.5 182.7 194.8Z" fill="#FE4626"/>
<path d="M204.5 190.3C205.9 187.9 207.3 185.6 208.8 183.3C208.9 183.3 209 183.4 209 183.4C223.8 190 238.4 200 246.4 213.3C242 222.4 233.9 229.5 224.2 232.5C220.6 217.5 215.6 196.6 204.5 190.3Z" fill="#FE4626"/>
<path d="M203.5 192.3C213.7 198.1 218.6 218.5 222 233.2C219.1 233.9 216.1 234.3 213 234.3C205.6 234.3 198.6 232.1 192.8 228.3C192.8 226.2 193 224.1 193.2 222.1C194.5 212 198.4 201.6 203.5 192.3Z" fill="#FE4626"/>
<path d="M212.7 174C211.8 175.1 210.9 176.3 210.1 177.5C209.4 178.5 208.7 179.5 208 180.5C199.9 177.1 191.9 174.6 184.9 173.2C189.2 168.1 194.9 164.2 201.4 162C202.4 166.1 205.5 170.2 212.7 174Z" fill="#FE4626"/>
<path d="M214.1 172.3C207.4 168.8 204.6 165 203.6 161.5C206.6 160.7 209.7 160.3 213 160.3C216.8 160.3 220.6 160.9 224 162C220.9 164.6 217.5 168.1 214.1 172.3Z" fill="#FE4626"/>
<path d="M216.2 173.3C219.7 169 223.3 165.4 226.4 162.8C234.3 165.9 240.8 171.5 245 178.8C242.3 178.3 239.3 178 236.2 177.7C230 177 223.1 176.3 216.2 173.3Z" fill="#FE4626"/>
<path d="M202.5 189.3C194.7 186 187.4 188.6 181.4 192.9C179.5 194.3 177.6 195.9 176 197.5C176 197.4 176 197.3 176 197.2C176 188.9 178.7 181.3 183.3 175.1C190.3 176.4 198.4 178.8 206.7 182.3C205.3 184.7 203.9 187 202.5 189.3Z" fill="#FE4626"/>
<path d="M117.5 197.3C117.5 229.7 91.2 256 58.8 256C26.3 256 0 229.7 0 197.3C0 164.9 26.3 138.6 58.7 138.6C91.2 138.5 117.5 164.8 117.5 197.3Z" fill="#EF9A41"/>
<path d="M67.8 233.1C71.3 231 73.4 228 74.3 224.1C75 220.7 75 215.4 73.1 211.7C71.4 208.5 70.5 207 70.3 201.5C70 194.2 78.2 184.1 77.8 180.4C77.5 177.4 76.3 175 74.2 173C71.5 170.4 68.4 168.2 65 166.7C61.5 165.1 57.8 164.2 54 164C49.5 163.8 45 164.5 40.8 166.3C36.7 168 33 170.5 29.8 173.7C23.2 180.3 19.3 189.4 18.8 199.2C18.7 201.5 18.8 203.8 19 206C19.7 212.2 21.9 218.1 25.2 223.1C28.5 228.1 33 232 38.1 234.6C40.4 235.7 42.8 236.6 45.3 237.1C46.9 237.4 48.5 237.7 50.1 237.7C56.3 237.9 62.4 236.4 67.8 233.1ZM54.8 221.8C51.8 218.8 51.1 214.6 53.2 212.5C55.3 210.4 59.5 211.1 62.5 214.1C65.5 217.1 66.2 221.3 64.1 223.4C62 225.6 57.8 224.8 54.8 221.8Z" fill="#F9C678"/>
<path d="M34.7 183.3C34.3 179.5 37 176 40.8 175.6C44.6 175.2 48.1 177.9 48.5 181.7C48.9 185.5 46.2 189 42.4 189.4C38.6 189.8 35.1 187.1 34.7 183.3Z" fill="#058486"/>
<path d="M54.1 183.3C53.7 179.5 56.4 176 60.2 175.6C64 175.2 67.5 177.9 67.9 181.7C68.3 185.5 65.6 189 61.8 189.4C58 189.8 54.5 187.1 54.1 183.3Z" fill="#102F41"/>
<path d="M23.9 200.7C23.5 196.9 26.2 193.4 30 193C33.8 192.6 37.3 195.3 37.7 199.1C38.1 202.9 35.4 206.4 31.6 206.8C27.8 207.3 24.3 204.5 23.9 200.7Z" fill="#F05C42"/>
<path d="M31.3 219.3C30.9 215.5 33.6 212 37.4 211.6C41.2 211.2 44.7 213.9 45.1 217.7C45.5 221.5 42.8 225 39 225.4C35.2 225.8 31.7 223.1 31.3 219.3Z" fill="#6DAE7E"/>
<path d="M89.9 182.9L85.5 182.8L85.4 173.8L89.8 173.9L89.9 182.9Z" fill="#102F41"/>
<path d="M89.9 232.7C89.9 234 88.8 235.1 87.6 235.1H87.3C86 235.1 85 234.1 85 232.8L84 183.2C84 181.9 84.5 180.8 85.8 180.8H89.6C90.9 180.8 91.4 181.8 91.4 183.1L89.9 232.7Z" fill="#102F41"/>
<path d="M90.6 159C92 162.5 93.2 167.4 93.2 170.3C93.2 173.4 90.7 175.9 87.6 175.9C84.5 175.9 82 173.4 82 170.3C82 168 82.7 164.5 83.8 161.4C86.2 161.7 89.1 160.9 90.6 159Z" fill="#F7F1E6"/>
<path d="M87.6 154.8C88.5 154.8 89.6 156.6 90.6 159C89.1 160.9 86.2 161.7 83.8 161.4C85 157.8 86.5 154.8 87.6 154.8Z" fill="#058486"/>
<path d="M568 58.7C568 91.1 541.7 117.4 509.3 117.4C476.9 117.4 450.6 91.1 450.6 58.7C450.6 26.3 476.9 -2.09475e-05 509.3 -2.09475e-05C541.7 -0.100021 568 26.2 568 58.7Z" fill="#439539"/>
<path d="M516.7 36.2999C516.6 35.8999 516.4 35.2999 516.3 34.9999C516.3 34.9999 516 33.9999 515.7 33.6999C515.4 33.3999 513.8 33.2999 513.8 33.2999C513.4 33.2999 513 33.2999 513 33.2999C512.9 33.2999 512.5 33.2999 512.2 33.2999C512.2 33.2999 511.1 33.2999 510.7 33.3999C510.3 33.4999 509.7 34.9999 509.7 34.9999C509.6 35.3999 509.4 35.8999 509.3 36.2999L492.6 96.1999C492.5 96.5999 492.7 96.8999 493.1 96.8999H498.7C499.1 96.8999 499.5 96.5999 499.6 96.1999L512.7 43.7999C512.8 43.3999 513 42.9999 513.1 42.6999C513.2 42.4999 513.6 43.3999 513.7 43.7999L526.7 96.1999C526.8 96.5999 527.2 96.8999 527.6 96.8999H533.2C533.6 96.8999 533.8 96.5999 533.7 96.1999L516.7 36.2999Z" fill="#CE9132"/>
<path d="M545.2 80.0999C545.2 82.5999 543.2 84.5999 540.7 84.5999H481.3C478.8 84.5999 476.8 82.5999 476.8 80.0999V34.7C476.8 32.2 478.8 30.2 481.3 30.2H540.7C543.2 30.2 545.2 32.2 545.2 34.7V80.0999Z" fill="#FAAF3D"/>
<path d="M539.1 75.0999C539.1 76.6999 537.8 77.9999 536.3 77.9999H485.3C483.7 77.9999 482.5 76.6999 482.5 75.0999V37.8999C482.5 36.2999 483.8 34.9999 485.3 34.9999H536.3C537.9 34.9999 539.1 36.2999 539.1 37.8999V75.0999Z" fill="#0C5054"/>
<path d="M534.2 75.4999H528.4C527.8 75.4999 526.8 75.7999 526.8 76.3999V76.9999C526.8 77.4999 527.2 77.8999 527.8 77.8999H534.2C534.8 77.8999 535.2 77.4999 535.2 76.9999V76.3999C535.3 75.8999 534.8 75.4999 534.2 75.4999Z" fill="white"/>
<path d="M520.3 75.4999H514.5C513.9 75.4999 512.9 75.7999 512.9 76.3999V76.9999C512.9 77.4999 513.3 77.8999 513.9 77.8999H520.3C520.9 77.8999 521.3 77.4999 521.3 76.9999V76.3999C521.4 75.8999 520.9 75.4999 520.3 75.4999Z" fill="white"/>
<path d="M489.6 62.6999C489.6 62.6999 489.6 62.5999 489.6 62.4999C489.6 62.3999 489.6 62.2999 489.7 62.1999C489.7 62.0999 489.8 61.9999 489.8 61.8999C489.8 61.7999 489.8 61.6999 489.9 61.5999C490 61.1999 490.3 60.7999 490.6 60.3999C490.9 60.0999 491.3 59.6999 491.6 59.3999C491.7 59.2999 491.8 59.1999 491.9 59.0999C492 58.9999 492.2 58.8999 492.3 58.7999C492.4 58.6999 492.5 58.5999 492.6 58.4999C492.7 58.3999 492.8 58.3999 492.8 58.2999L496.8 55.3999C496.8 55.3999 496.9 55.2999 497 55.2999C497.1 55.1999 497.2 55.1999 497.4 55.0999C497.5 54.9999 497.7 54.9999 497.8 54.8999C497.9 54.7999 498 54.7999 498.1 54.6999L498.9 54.2999L501.7 52.2999C501.7 52.2999 501.8 52.1999 501.8 52.0999C501.9 51.9999 501.9 51.8999 501.9 51.8999V51.7999V51.6999C501.9 51.6999 501.8 51.5999 501.7 51.4999C501.6 51.3999 501.5 51.3999 501.4 51.2999H501.2C501.1 51.2999 501 51.2999 500.9 51.2999C500.8 51.2999 500.7 51.2999 500.6 51.2999H500.3H500C499.9 51.2999 499.8 51.2999 499.7 51.2999C499.6 51.2999 499.5 51.2999 499.4 51.2999H499.3C499.3 51.2999 499.2 51.2999 499 51.2999C498.8 51.2999 498.6 51.2999 498.4 51.3999C498.2 51.3999 498 51.3999 497.8 51.4999C497.6 51.4999 497.5 51.4999 497.5 51.4999H497H496.8L495.3 51.0999C495.2 51.0999 495.2 51.0999 495.2 51.0999H495.1C495.1 51.0999 495 51.1999 494.8 51.3999C494.7 51.4999 494.6 51.5999 494.5 51.6999C494.5 51.6999 494.5 51.7999 494.4 51.9999C494.3 52.1999 494.3 52.1999 494.2 52.2999L494.1 52.3999C494 52.4999 493.9 52.4999 493.9 52.5999C493.8 52.6999 493.7 52.7999 493.7 52.7999C493.6 52.8999 493.6 52.8999 493.6 52.8999C493.6 52.8999 493.6 52.9999 493.5 53.0999C493.5 53.1999 493.4 53.2999 493.4 53.3999C493.4 53.4999 493.3 53.5999 493.3 53.6999C493.3 53.7999 493.3 53.7999 493.3 53.8999C493.3 53.8999 493.2 53.9999 493.2 54.0999C493.1 54.1999 493.1 54.1999 493.1 54.2999C493.1 54.2999 493 54.3999 492.9 54.3999C492.8 54.3999 492.7 54.4999 492.6 54.4999H492.5H492.4C492.4 54.4999 492.3 54.4999 492.2 54.3999C492.1 54.3999 492 54.2999 491.9 54.2999C491.8 54.2999 491.7 54.1999 491.6 54.1999C491.5 54.1999 491.4 54.1999 491.4 54.1999C491.4 54.1999 491.3 54.1999 491.1 54.1999C491 54.1999 490.9 54.1999 490.8 54.1999C490.8 54.1999 490.7 54.0999 490.6 53.9999C490.5 53.8999 490.4 53.7999 490.4 53.6999C490.3 53.5999 490.2 53.4999 490.2 53.3999C490.1 53.2999 490.1 53.1999 490.1 53.1999V53.0999C490.1 52.9999 490.1 52.9999 490.1 52.9999C490.1 52.9999 490.1 52.8999 490.1 52.7999C490.1 52.6999 490.1 52.6999 490.1 52.6999C490.1 52.6999 490.1 52.6999 490.2 52.5999C490.2 52.4999 490.3 52.4999 490.4 52.3999C490.5 52.2999 490.5 52.2999 490.6 52.1999C490.7 52.0999 490.7 52.0999 490.7 52.0999C490.7 52.0999 490.8 51.8999 490.9 51.7999C491 51.5999 491.2 51.3999 491.3 51.1999C491.4 50.9999 491.6 50.7999 491.7 50.5999C491.8 50.3999 491.9 50.2999 491.9 50.2999L492.9 49.5999L493.4 49.3999C493.5 49.3999 493.6 49.3999 493.7 49.2999C493.8 49.2999 494 49.1999 494.2 49.1999C494.4 49.1999 494.5 49.0999 494.6 49.0999C494.7 49.0999 494.8 48.9999 494.9 48.9999C494.9 48.9999 495 48.9999 495.1 48.8999C495.2 48.8999 495.4 48.8999 495.5 48.7999C495.6 48.7999 495.8 48.7999 495.9 48.6999C496 48.6999 496.1 48.6999 496.1 48.6999H496.6L497.6 48.4999C497.7 48.4999 497.8 48.4999 497.9 48.4999C498.1 48.4999 498.3 48.4999 498.5 48.4999C498.7 48.4999 498.9 48.4999 499.1 48.4999C499.3 48.4999 499.5 48.4999 499.5 48.4999H499.8H500C500 48.4999 500.1 48.5999 500.3 48.6999C500.4 48.7999 500.5 48.8999 500.6 48.8999H500.7H500.8L502.1 48.4999H502.2H502.3C502.4 48.4999 502.5 48.4999 502.6 48.4999C502.8 48.4999 502.9 48.4999 503.1 48.5999C503.3 48.5999 503.4 48.5999 503.5 48.5999C503.6 48.5999 503.7 48.5999 503.7 48.5999C503.7 48.5999 503.8 48.5999 504 48.6999C504.1 48.6999 504.2 48.7999 504.3 48.7999C504.3 48.7999 504.4 48.8999 504.6 48.9999C504.7 49.0999 504.8 49.1999 504.8 49.1999L505.3 49.6999L505.8 50.0999L506.1 50.4999C506.1 50.5999 506.2 50.6999 506.3 50.7999C506.4 50.8999 506.4 50.9999 506.4 50.9999C506.4 50.9999 506.4 51.0999 506.4 51.2999C506.4 51.4999 506.4 51.5999 506.4 51.6999C506.4 51.7999 506.4 51.8999 506.4 52.0999C506.4 52.2999 506.4 52.2999 506.4 52.3999C506.4 52.4999 506.4 52.5999 506.3 52.6999C506.2 52.8999 506.2 52.9999 506.1 53.0999C506.1 53.0999 506 53.1999 506 53.2999C505.9 53.3999 505.9 53.4999 505.9 53.4999L504.9 54.3999L504.2 55.0999L504.1 55.1999C504 55.1999 504 55.2999 504 55.2999L502.7 55.9999L500.4 57.3999L499.9 57.5999L499.4 57.9999L495.9 60.6999V60.7999C495.9 60.7999 496 60.7999 496.2 60.7999C496.3 60.7999 496.4 60.7999 496.5 60.7999L498.8 60.3999C498.9 60.3999 499 60.3999 499.1 60.3999C499.2 60.3999 499.4 60.3999 499.5 60.2999C499.6 60.2999 499.7 60.2999 499.8 60.2999C499.9 60.2999 500 60.2999 500 60.2999C500.1 60.2999 500.3 60.2999 500.7 60.2999C501.1 60.2999 501.5 60.2999 501.9 60.2999C502.4 60.2999 502.8 60.2999 503.2 60.1999C503.6 60.1999 504 60.1999 504.2 60.0999H504.8H505.2C505.3 60.0999 505.4 60.0999 505.6 60.1999C505.8 60.1999 505.9 60.2999 505.9 60.2999C505.9 60.2999 506 60.3999 506 60.4999C506.1 60.5999 506.1 60.5999 506.1 60.6999C506.1 60.6999 506.1 60.7999 506.1 60.8999C506.1 60.9999 506.1 61.0999 506.1 61.1999C506.1 61.2999 506.1 61.3999 506.1 61.4999C506.1 61.5999 506.1 61.6999 506.1 61.6999C506.1 61.6999 506.1 61.7999 506 61.7999C506 61.8999 506 61.8999 505.9 61.9999C505.9 62.0999 505.8 62.1999 505.8 62.2999C505.8 62.2999 505.7 62.3999 505.6 62.3999C505.5 62.4999 505.3 62.5999 505.1 62.6999C504.9 62.7999 504.8 62.8999 504.7 62.9999C504.7 62.9999 504.6 63.0999 504.5 63.0999C504.4 63.0999 504.3 63.1999 504.2 63.1999C504.1 63.1999 503.8 63.1999 503.4 63.1999C503 63.1999 502.6 63.1999 502.2 63.1999C501.8 63.1999 501.4 63.1999 501 63.2999C500.6 63.2999 500.4 63.2999 500.2 63.3999C500.1 63.3999 500 63.3999 499.9 63.3999C499.7 63.3999 499.5 63.3999 499.4 63.4999C499.2 63.4999 499 63.4999 498.9 63.5999C498.7 63.5999 498.6 63.5999 498.6 63.6999L497.9 63.8999C497.2 63.9999 496.5 64.1999 495.8 64.2999C495.1 64.3999 494.4 64.4999 493.7 64.6999C493.6 64.6999 493.5 64.6999 493.4 64.7999C493.3 64.7999 493.1 64.8999 493 64.8999C492.9 64.8999 492.7 64.9999 492.6 64.9999C492.5 64.9999 492.4 65.0999 492.4 65.0999C492.4 65.0999 492.4 65.0999 492.3 65.1999C492.3 65.1999 492.2 65.2999 492.1 65.2999C492 65.2999 492 65.3999 491.9 65.3999L491.8 65.4999H491.6H491.3C491.2 65.4999 491.1 65.4999 490.9 65.3999C490.7 65.3999 490.6 65.2999 490.6 65.2999C490.6 65.2999 490.5 65.1999 490.3 65.0999C490.2 64.9999 490.1 64.9999 490 64.8999C490 64.8999 489.9 64.7999 489.9 64.6999C489.8 64.5999 489.8 64.4999 489.8 64.4999C489.8 64.3999 489.8 64.2999 489.7 64.1999C489.7 64.0999 489.6 63.8999 489.6 63.7999C489.6 63.5999 489.5 63.4999 489.5 63.3999C489.6 62.7999 489.6 62.6999 489.6 62.6999Z" fill="white"/>
<path d="M511.1 61.5999V61.4999C511.1 61.4999 511.2 61.4999 511.2 61.3999C511.3 61.3999 511.3 61.2999 511.4 61.2999C511.5 61.2999 511.5 61.1999 511.6 61.1999L511.7 61.0999V60.9999C511.7 60.8999 511.7 60.7999 511.7 60.7999C511.7 60.7999 511.7 60.6999 511.7 60.5999C511.7 60.4999 511.7 60.4999 511.7 60.3999C511.7 60.3999 511.7 60.3999 511.6 60.2999C511.6 60.1999 511.5 60.1999 511.4 60.0999C511.3 59.9999 511.3 59.9999 511.2 59.8999C511.1 59.7999 511.1 59.7999 511.1 59.7999L511 59.6999C511 59.5999 510.9 59.4999 510.8 59.4999C510.7 59.3999 510.7 59.2999 510.6 59.2999C510.6 59.1999 510.5 59.1999 510.5 59.1999C510.5 59.1999 510.4 59.1999 510.2 59.1999H509.7C509.5 59.1999 509.4 59.1999 509.2 59.1999C509.1 59.1999 509 59.1999 508.9 59.1999C508.8 59.1999 508.7 59.1999 508.6 59.1999C508.4 59.1999 508.2 59.1999 508.1 59.0999C507.9 59.0999 507.7 59.0999 507.6 58.9999C507.4 58.9999 507.3 58.9999 507.3 58.9999C507.3 58.9999 507.2 58.8999 507.2 58.7999C507.1 58.6999 507.1 58.5999 507.1 58.5999C507.1 58.4999 507 58.3999 506.9 58.1999C506.8 57.9999 506.8 57.8999 506.8 57.7999V57.6999C506.8 57.5999 506.8 57.5999 506.8 57.5999C506.8 57.5999 506.8 57.4999 506.8 57.3999C506.8 57.2999 506.8 57.2999 506.8 57.2999C506.8 57.2999 506.8 57.1999 506.9 57.0999C507 56.9999 507 56.8999 507.1 56.7999C507.1 56.7999 507.2 56.6999 507.2 56.5999C507.3 56.4999 507.3 56.4999 507.3 56.3999C507.3 56.3999 507.4 56.2999 507.5 56.2999C507.6 56.2999 507.7 56.1999 507.8 56.1999L509.3 55.9999C509.4 55.9999 509.6 55.9999 509.8 55.8999C510 55.8999 510.2 55.7999 510.3 55.7999C510.4 55.7999 510.5 55.7999 510.5 55.7999C510.5 55.7999 510.6 55.6999 510.7 55.4999C510.8 55.2999 510.9 55.1999 511 55.0999C511 55.0999 511.1 54.9999 511.1 54.7999C511.2 54.6999 511.2 54.5999 511.2 54.4999V54.3999V54.2999V54.1999C511.2 54.0999 511.1 53.9999 511.1 53.9999C511.1 53.8999 511 53.7999 511 53.7999C511 53.6999 511 53.6999 511 53.6999C511 53.6999 511 53.5999 511.1 53.4999C511.1 53.3999 511.2 53.2999 511.2 53.0999C511.3 52.9999 511.3 52.7999 511.4 52.6999C511.5 52.5999 511.5 52.4999 511.5 52.3999C511.5 52.3999 511.6 52.2999 511.7 52.1999C511.8 52.0999 511.9 52.0999 512 51.9999C512 51.9999 512.1 51.9999 512.2 51.9999C512.3 51.9999 512.5 51.9999 512.5 51.9999C512.6 51.9999 512.7 51.9999 512.9 51.9999C513.1 51.9999 513.2 51.9999 513.2 51.9999C513.3 51.9999 513.3 51.9999 513.5 52.0999C513.6 52.0999 513.7 52.1999 513.7 52.1999C513.8 52.1999 513.8 52.2999 513.9 52.3999C514 52.4999 514.1 52.5999 514.2 52.6999C514.3 52.7999 514.4 52.8999 514.4 52.9999C514.5 53.0999 514.5 53.1999 514.5 53.1999C514.5 53.2999 514.5 53.3999 514.5 53.5999C514.5 53.7999 514.5 53.9999 514.4 54.2999C514.4 54.4999 514.3 54.7999 514.3 54.9999C514.3 55.1999 514.2 55.3999 514.2 55.4999H517.2C517.3 55.4999 517.3 55.5999 517.5 55.6999C517.6 55.7999 517.7 55.8999 517.7 55.9999C517.7 55.9999 517.7 56.0999 517.7 56.1999C517.7 56.2999 517.7 56.3999 517.7 56.3999C517.7 56.4999 517.7 56.5999 517.7 56.6999C517.7 56.7999 517.7 56.8999 517.7 56.8999C517.7 56.8999 517.7 56.9999 517.7 57.0999C517.7 57.1999 517.7 57.2999 517.6 57.3999C517.6 57.4999 517.5 57.5999 517.5 57.6999C517.5 57.7999 517.4 57.7999 517.4 57.8999C517.4 57.8999 517.4 57.8999 517.3 57.9999C517.2 57.9999 517.2 58.0999 517.1 58.0999C517 58.0999 517 58.1999 516.8 58.1999C516.7 58.1999 516.6 58.2999 516.6 58.2999H516.4H516.1H516H515.8C515.7 58.2999 515.5 58.2999 515.3 58.2999C515.1 58.2999 514.8 58.2999 514.5 58.3999C514.2 58.3999 514 58.3999 513.7 58.4999C513.5 58.4999 513.3 58.4999 513.2 58.5999L514 59.0999C514 59.0999 514.1 59.1999 514.1 59.2999C514.2 59.3999 514.2 59.4999 514.2 59.5999C514.2 59.6999 514.3 59.7999 514.4 59.9999C514.5 60.1999 514.5 60.2999 514.5 60.2999V60.3999C514.5 60.4999 514.5 60.5999 514.5 60.6999C514.5 60.7999 514.5 60.8999 514.5 60.9999V61.1999V61.3999C514.5 61.4999 514.5 61.5999 514.5 61.6999C514.5 61.7999 514.5 61.8999 514.5 61.8999V61.9999C514.5 61.9999 514.5 62.0999 514.4 62.1999C514.3 62.2999 514.3 62.2999 514.2 62.3999H513.2H512.2C512.1 62.3999 512 62.3999 511.8 62.2999C511.6 62.2999 511.5 62.1999 511.4 62.1999C511.4 62.1999 511.3 62.1999 511.3 62.0999C511.2 62.0999 511.2 61.9999 511.2 61.9999C511.2 61.9999 511.1 61.8999 511.1 61.7999C511.1 61.6999 511.1 61.6999 511.1 61.5999Z" fill="white"/>
<path d="M518.3 62.6999C518.3 62.6999 518.3 62.5999 518.3 62.4999C518.3 62.3999 518.3 62.2999 518.4 62.1999C518.4 62.0999 518.5 61.9999 518.5 61.8999C518.5 61.7999 518.6 61.6999 518.6 61.5999C518.7 61.1999 519 60.7999 519.3 60.3999C519.6 60.0999 520 59.6999 520.3 59.3999C520.4 59.2999 520.5 59.1999 520.6 59.0999C520.7 58.9999 520.9 58.8999 521 58.7999C521.1 58.6999 521.2 58.5999 521.3 58.4999C521.4 58.3999 521.5 58.3999 521.5 58.2999L525.5 55.3999C525.5 55.3999 525.6 55.2999 525.7 55.2999C525.8 55.1999 525.9 55.1999 526.1 55.0999C526.2 54.9999 526.4 54.9999 526.5 54.8999C526.6 54.7999 526.7 54.7999 526.8 54.6999L527.6 54.2999L530.4 52.2999C530.4 52.2999 530.5 52.1999 530.5 52.0999C530.6 51.9999 530.6 51.8999 530.6 51.8999V51.7999V51.6999C530.6 51.6999 530.5 51.5999 530.4 51.4999C530.3 51.3999 530.2 51.3999 530.1 51.2999H529.9C529.8 51.2999 529.7 51.2999 529.6 51.2999C529.5 51.2999 529.4 51.2999 529.3 51.2999H529.1H528.8C528.7 51.2999 528.6 51.2999 528.5 51.2999C528.4 51.2999 528.3 51.2999 528.2 51.2999H528.1C528.1 51.2999 528 51.2999 527.8 51.2999C527.6 51.2999 527.4 51.2999 527.2 51.3999C527 51.3999 526.8 51.3999 526.6 51.4999C526.4 51.4999 526.3 51.4999 526.3 51.4999H526H525.8L524.3 51.0999C524.2 51.0999 524.2 51.0999 524.2 51.0999H524.1C524.1 51.0999 524 51.1999 523.9 51.3999C523.8 51.4999 523.7 51.5999 523.6 51.6999C523.6 51.6999 523.6 51.7999 523.5 51.9999C523.4 52.1999 523.4 52.1999 523.3 52.2999L523.2 52.3999C523.1 52.4999 523 52.4999 523 52.5999C522.9 52.6999 522.8 52.7999 522.8 52.7999C522.7 52.8999 522.7 52.8999 522.7 52.8999C522.7 52.8999 522.7 52.9999 522.6 53.0999C522.6 53.1999 522.5 53.2999 522.5 53.3999C522.5 53.4999 522.4 53.5999 522.4 53.6999C522.4 53.7999 522.4 53.7999 522.4 53.8999C522.4 53.8999 522.3 53.9999 522.3 54.0999C522.2 54.1999 522.2 54.1999 522.2 54.2999C522.2 54.2999 522.1 54.3999 522 54.3999C521.9 54.3999 521.8 54.4999 521.7 54.4999H521.6H521.5C521.5 54.4999 521.4 54.4999 521.3 54.3999C521.2 54.3999 521.1 54.2999 521 54.2999C520.9 54.2999 520.8 54.1999 520.7 54.1999C520.6 54.1999 520.5 54.1999 520.5 54.1999C520.5 54.1999 520.4 54.1999 520.2 54.1999C520.1 54.1999 520 54.1999 519.9 54.1999C519.9 54.1999 519.8 54.0999 519.7 53.9999C519.6 53.8999 519.5 53.7999 519.5 53.6999C519.4 53.5999 519.3 53.4999 519.3 53.3999C519.2 53.2999 519.2 53.1999 519.2 53.1999V53.0999C519.2 52.9999 519.2 52.9999 519.2 52.9999C519.2 52.9999 519.2 52.8999 519.2 52.7999C519.2 52.6999 519.2 52.6999 519.2 52.6999C519.2 52.6999 519.2 52.6999 519.3 52.5999C519.3 52.4999 519.4 52.4999 519.5 52.3999C519.6 52.2999 519.6 52.2999 519.7 52.1999C519.8 52.0999 519.8 52.0999 519.8 52.0999C519.8 52.0999 519.9 51.8999 520 51.7999C520.1 51.5999 520.3 51.3999 520.4 51.1999C520.5 50.9999 520.7 50.7999 520.8 50.5999C520.9 50.3999 521 50.2999 521 50.2999L522 49.5999L522.5 49.3999C522.6 49.3999 522.7 49.3999 522.8 49.2999C522.9 49.2999 523.1 49.1999 523.3 49.1999C523.5 49.1999 523.6 49.0999 523.7 49.0999C523.8 49.0999 523.9 48.9999 524 48.9999C524 48.9999 524.1 48.9999 524.2 48.8999C524.3 48.8999 524.5 48.8999 524.6 48.7999C524.7 48.7999 524.9 48.7999 525 48.6999C525.1 48.6999 525.2 48.6999 525.2 48.6999H525.7L526.7 48.4999C526.8 48.4999 526.9 48.4999 527 48.4999C527.2 48.4999 527.4 48.4999 527.6 48.4999C527.8 48.4999 528 48.4999 528.2 48.4999C528.4 48.4999 528.6 48.4999 528.6 48.4999H528.9H529.1C529.1 48.4999 529.2 48.5999 529.4 48.6999C529.5 48.7999 529.6 48.8999 529.6 48.8999H529.7H529.8L531 48.4999H531.1H531.2C531.3 48.4999 531.4 48.4999 531.5 48.4999C531.7 48.4999 531.8 48.4999 532 48.5999C532.2 48.5999 532.3 48.5999 532.4 48.5999C532.5 48.5999 532.6 48.5999 532.6 48.5999C532.6 48.5999 532.7 48.5999 532.8 48.6999C532.9 48.6999 533 48.7999 533.1 48.7999C533.1 48.7999 533.2 48.8999 533.4 48.9999C533.5 49.0999 533.6 49.1999 533.7 49.1999L534.2 49.6999L534.7 50.0999L535 50.4999C535 50.5999 535.1 50.6999 535.2 50.7999C535.3 50.8999 535.3 50.9999 535.3 50.9999C535.3 50.9999 535.3 51.0999 535.3 51.2999C535.3 51.4999 535.3 51.5999 535.3 51.6999C535.3 51.7999 535.3 51.8999 535.3 52.0999C535.3 52.2999 535.3 52.2999 535.3 52.3999C535.3 52.4999 535.3 52.5999 535.2 52.6999C535.1 52.8999 535.1 52.9999 535 53.0999C535 53.0999 534.9 53.1999 534.9 53.2999C534.8 53.3999 534.8 53.4999 534.8 53.4999L533.8 54.3999L533 55.0999L532.9 55.1999C532.8 55.1999 532.8 55.2999 532.8 55.2999L531.5 55.9999L529.2 57.3999L528.7 57.5999L528.2 57.9999L524.7 60.6999V60.7999C524.7 60.7999 524.8 60.7999 524.9 60.7999C525 60.7999 525.1 60.7999 525.2 60.7999L527.5 60.3999C527.6 60.3999 527.7 60.3999 527.8 60.3999C527.9 60.3999 528.1 60.3999 528.2 60.2999C528.3 60.2999 528.4 60.2999 528.5 60.2999C528.6 60.2999 528.7 60.2999 528.7 60.2999C528.8 60.2999 529 60.2999 529.4 60.2999C529.8 60.2999 530.2 60.2999 530.6 60.2999C531.1 60.2999 531.5 60.2999 531.9 60.1999C532.3 60.1999 532.7 60.1999 532.9 60.0999H533.5H533.9C534 60.0999 534.1 60.0999 534.3 60.1999C534.5 60.1999 534.6 60.2999 534.6 60.2999C534.6 60.2999 534.7 60.3999 534.7 60.4999C534.8 60.5999 534.8 60.5999 534.8 60.6999C534.8 60.6999 534.8 60.7999 534.8 60.8999C534.8 60.9999 534.8 61.0999 534.8 61.1999C534.8 61.2999 534.8 61.3999 534.8 61.4999C534.8 61.5999 534.8 61.6999 534.8 61.6999C534.8 61.6999 534.8 61.7999 534.7 61.7999C534.7 61.8999 534.7 61.8999 534.6 61.9999C534.6 62.0999 534.5 62.1999 534.5 62.2999C534.5 62.2999 534.4 62.3999 534.3 62.3999C534.2 62.4999 534 62.5999 533.8 62.6999C533.6 62.7999 533.5 62.8999 533.4 62.9999C533.4 62.9999 533.3 63.0999 533.1 63.0999C533 63.0999 532.9 63.1999 532.8 63.1999C532.7 63.1999 532.4 63.1999 532 63.1999C531.6 63.1999 531.2 63.1999 530.8 63.1999C530.4 63.1999 530 63.1999 529.6 63.2999C529.2 63.2999 529 63.2999 528.8 63.3999C528.7 63.3999 528.6 63.3999 528.5 63.3999C528.3 63.3999 528.1 63.3999 528 63.4999C527.8 63.4999 527.6 63.4999 527.5 63.5999C527.3 63.5999 527.2 63.5999 527.2 63.6999L526.4 63.8999C525.7 63.9999 525 64.1999 524.3 64.2999C523.6 64.3999 522.9 64.4999 522.2 64.6999C522.1 64.6999 522 64.6999 521.9 64.7999C521.8 64.7999 521.6 64.8999 521.5 64.8999C521.4 64.8999 521.2 64.9999 521.1 64.9999C521 64.9999 520.9 65.0999 520.9 65.0999C520.9 65.0999 520.8 65.0999 520.8 65.1999C520.8 65.1999 520.7 65.2999 520.6 65.2999C520.5 65.2999 520.5 65.3999 520.4 65.3999L520.3 65.4999H520.1H519.8C519.7 65.4999 519.6 65.4999 519.4 65.3999C519.2 65.3999 519.1 65.2999 519.1 65.2999C519.1 65.2999 519 65.1999 518.9 65.0999C518.8 64.9999 518.7 64.9999 518.6 64.8999C518.6 64.8999 518.5 64.7999 518.5 64.6999C518.4 64.5999 518.4 64.4999 518.4 64.4999C518.4 64.3999 518.4 64.2999 518.3 64.1999C518.3 64.0999 518.2 63.8999 518.2 63.7999C518.2 63.5999 518.1 63.4999 518.1 63.3999C518.3 62.7999 518.3 62.6999 518.3 62.6999Z" fill="white"/>
<path d="M568 197.3C568 229.7 541.7 256 509.3 256C476.9 256 450.6 229.7 450.6 197.3C450.6 164.9 476.9 138.6 509.3 138.6C541.7 138.5 568 164.8 568 197.3Z" fill="#439539"/>
<path d="M503.6 181.1H508.3L508.2 172.9L503.5 173L503.6 181.1Z" fill="#6DAE7E"/>
<path d="M504.8 231.7C504.8 232.9 505.8 233.8 506.9 233.8H507.2C508.4 233.8 509.3 232.8 509.2 231.7V181.4C509.2 180.2 508.7 179.3 507.6 179.3H504.2C503 179.3 502.6 180.3 502.7 181.4L504.8 231.7Z" fill="#058486"/>
<path d="M502.9 159.8C501.7 163 500.7 167.4 500.7 170C500.7 172.8 503 175 505.8 175C508.6 175 510.8 172.7 510.7 169.9C510.7 167.8 509.9 164.7 509 161.9C507 162.1 504.3 161.5 502.9 159.8Z" fill="#F7F1E6"/>
<path d="M505.5 156C504.7 156 503.7 157.6 502.9 159.8C504.3 161.4 506.9 162.1 509.1 161.8C508 158.7 506.6 156 505.5 156Z" fill="#102F41"/>
<path d="M524.3 162.4L526.9 162.6L526 158.1L524.3 162.4Z" fill="#403833"/>
<path d="M521.7 168.9L528.3 169.5L526.9 162.6L524.3 162.4L521.7 168.9Z" fill="#DAC18E"/>
<path d="M516.8 224.7C516.7 225.4 517.3 226.1 518 226.1L522 226.4C522.7 226.5 523.4 225.9 523.4 225.2L523.7 222.2L517.1 221.6L516.8 224.7Z" fill="#F7F1E6"/>
<path d="M517.6 216.7L517.1 221.7L523.7 222.3L524.2 217.3L517.6 216.7Z" fill="#F1E4C4"/>
<path d="M525.2 167.9C526.7 168 528.3 169.5 528.3 169.5L524.2 217.3L517.6 216.7L521.7 168.9C521.7 168.9 523.7 167.8 525.2 167.9Z" fill="#E6A123"/>
<path d="M517.3 219.9L517.2 220.8L523.8 221.4L523.9 220.5L517.3 219.9Z" fill="#B9BBBD"/>
<path d="M517.5 217.8L517.4 218.7L524 219.3L524.1 218.4L517.5 217.8Z" fill="#B9BBBD"/>
<path d="M530.1 207.7C530.1 208.3 530.5 208.8 531.1 208.9L532 209C532.6 209 533.1 208.6 533.2 208L535.3 176.2C535.3 175.6 534.9 175.1 534.3 175L531 174.8C530.4 174.8 529.9 174.2 530 173.6L530.2 171.1C530.2 170.5 529.8 170 529.2 169.9L524.5 169.6C523.9 169.6 523.4 170 523.3 170.6L521.8 193.7C521.8 194.3 522.2 194.8 522.8 194.9L527.5 195.2C528.1 195.2 528.6 194.8 528.7 194.2L529.7 178.9C529.7 178.3 530.3 177.8 530.9 177.9H531.1C531.7 177.9 532.2 178.5 532.1 179.1L530.1 207.7Z" fill="#058486"/>
<path d="M518.5 236.4L521.7 193.7L528.6 194.1L525.4 236.9L518.5 236.4Z" fill="#F7F1E6"/>
<path d="M521.9 196.1C521.3 196.1 520.8 195.5 520.9 194.9L521 193.7C521 193.1 521.6 192.6 522.2 192.7L528.3 193.1C528.9 193.1 529.4 193.7 529.3 194.3L529.2 195.5C529.2 196.1 528.6 196.6 528 196.5L521.9 196.1Z" fill="#102F41"/>
<path d="M518.8 238.2C518.2 238.2 517.7 237.6 517.8 237L517.9 235.8C517.9 235.2 518.5 240.5 519.1 240.5L525.2 235.2C525.8 235.2 526.3 235.8 526.2 236.4L526.1 237.6C526.1 238.2 525.5 238.7 524.9 238.6L518.8 238.2Z" fill="#102F41"/>
<path d="M516.5 190.5C516.5 191.1 516.9 191.6 517.5 191.7L518.4 191.8C519 191.8 519.5 191.4 519.6 190.8L521.5 159C521.5 158.4 521.1 157.9 520.5 157.8L517.2 157.6C516.6 157.6 516.1 157 516.2 156.4L516.3 153.9C516.3 153.3 515.9 152.8 515.3 152.7L510.6 152.4C510 152.4 509.5 152.8 509.4 153.4L508 176.5C508 177.1 508.4 177.6 509 177.7L513.7 178C514.3 178 514.8 177.6 514.9 177L515.8 161.7C515.8 161.1 516.4 160.6 517 160.7H517.2C517.8 160.7 518.3 161.3 518.2 161.9L516.5 190.5Z" fill="#F05C42"/>
<path d="M508.023 176.549L505.184 225.066L512.072 225.469L514.911 176.952L508.023 176.549Z" fill="#F7F1E6"/>
<path d="M508.3 179C507.7 179 507.2 178.4 507.3 177.8L507.4 176.6C507.4 176 508 175.5 508.6 175.6L514.7 176C515.3 176 515.8 176.6 515.7 177.2L515.6 178.4C515.6 179 515 179.5 514.4 179.4L508.3 179Z" fill="#102F41"/>
<path d="M505.5 226.9C504.9 226.9 504.4 226.3 504.5 225.7L504.6 224.5C504.6 223.9 505.2 223.4 505.8 223.5L511.9 223.9C512.5 223.9 513 224.5 512.9 225.1L512.8 226.3C512.8 226.9 512.2 227.4 511.6 227.3L505.5 226.9Z" fill="#102F41"/>
<path d="M504.4 172.9L507 172.8L505.6 168.4L504.4 172.9Z" fill="#403833"/>
<path d="M502.4 179.6H509L507 172.8L504.4 172.9L502.4 179.6Z" fill="#DAC18E"/>
<path d="M502.7 235.6C502.7 236.3 503.3 236.9 504 236.9H508C508.7 236.9 509.3 236.3 509.3 235.6V232.6H502.7V235.6Z" fill="#F7F1E6"/>
<path d="M502.8 227.6L502.7 232.6H509.3L509.4 227.5L502.8 227.6Z" fill="#F1E4C4"/>
<path d="M505.8 178.3C507.3 178.3 509 179.6 509 179.6L509.4 227.6H502.8L502.4 179.6C502.4 179.6 504.2 178.3 505.8 178.3Z" fill="#F05C42"/>
<path d="M502.7 230.7V231.7H509.4V230.7H502.7Z" fill="#B9BBBD"/>
<path d="M502.8 228.7L502.7 229.6H509.4V228.6L502.8 228.7Z" fill="#B9BBBD"/>
<path d="M515.6 169.6L518.3 169.8L517.2 165.2L515.6 169.6Z" fill="#403833"/>
<path d="M513.2 176.2L519.8 176.6L518.3 169.8L515.6 169.6L513.2 176.2Z" fill="#DAC18E"/>
<path d="M509.6 232C509.6 232.7 510.1 233.4 510.8 233.4L514.8 233.7C515.5 233.7 516.2 233.2 516.2 232.5L516.4 229.5L509.8 229.1L509.6 232Z" fill="#F7F1E6"/>
<path d="M510.2 224.1L509.8 229.1L516.4 229.5L516.8 224.5L510.2 224.1Z" fill="#F1E4C4"/>
<path d="M516.7 175.1C518.2 175.2 519.8 176.6 519.8 176.6L516.8 224.5L510.2 224.1L513.2 176.2C513.2 176.2 515.1 175 516.7 175.1Z" fill="#6DAE7E"/>
<path d="M509.9 227.2L509.8 228.2L516.4 228.6L516.5 227.7L509.9 227.2Z" fill="#B9BBBD"/>
<path d="M510.1 225.1L510 226.1L516.6 226.5L516.7 225.6L510.1 225.1Z" fill="#B9BBBD"/>
<path d="M494.4 186.6L499.1 186.5L498.8 178.3L494.1 178.5L494.4 186.6Z" fill="#6DAE7E"/>
<path d="M496.8 237.2C496.9 238.4 497.8 239.3 499 239.2H499.3C500.5 239.2 501.3 238.2 501.3 237L500.1 186.7C500 185.5 499.6 184.6 498.4 184.6L495 184.7C493.8 184.7 493.5 185.7 493.5 186.9L496.8 237.2Z" fill="#102F41"/>
<path d="M493.2 165.3C492.1 168.5 491.2 172.9 491.3 175.5C491.4 178.3 493.8 180.4 496.5 180.3C499.3 180.2 501.4 177.8 501.3 175.1C501.2 173 500.4 169.9 499.4 167.2C497.3 167.6 494.7 166.9 493.2 165.3Z" fill="#F7F1E6"/>
<path d="M495.7 161.5C494.9 161.5 494 163.2 493.2 165.4C494.6 167 497.3 167.6 499.4 167.3C498.2 164.1 496.8 161.4 495.7 161.5Z" fill="#E6A123"/>
<path d="M525.8 198.8C523.6 198.8 517.2 198.8 510.7 198.8C504.2 198.8 497.8 198.8 495.6 198.8C491.5 198.8 492 200.6 492 201.2C492 201.8 494.3 238.6 494.3 238.6H510.7H527.1C527.1 238.6 529.4 201.8 529.4 201.2C529.4 200.6 529.9 198.8 525.8 198.8Z" fill="#E6A123"/>
<path d="M510.7 238.6H494.2V243.5H510.7H527.1V238.6H510.7Z" fill="#102F41"/>
<path d="M417.9 197.7C417.9 230.1 391.6 256.4 359.2 256.4C326.8 256.4 300.5 230.1 300.5 197.7C300.5 165.3 326.8 139 359.2 139C391.6 139 417.9 165.2 417.9 197.7Z" fill="#439539"/>
<path d="M324.4 212.1L340.8 193.5L381.2 193.6L396.1 210.4L324.4 212.1Z" fill="#FAAF3D"/>
<path d="M393.7 232.1V212.5H396.1V210.4H328.5C324.9 210.4 322 213.9 322 218.2V226.3C322 230.6 324.9 234.1 328.5 234.1H396.1V232H393.7V232.1Z" fill="#102F41"/>
<path d="M392.4 232.1V212.5H330.9C327.9 212.5 325.5 215.4 325.5 219V225.7C325.5 229.3 327.9 232.2 330.9 232.2L392.4 232.1Z" fill="#002031"/>
<path d="M332.2 212.5C329.2 212.5 326.8 215.4 326.8 219V225.7C326.8 229.3 329.2 232.2 332.2 232.2H394.4V212.6L332.2 212.5Z" fill="#F7F1E6"/>
<path d="M330.7 190.3L344.1 175.2L377.1 175.3L389.3 189L330.7 190.3Z" fill="#FAAF3D"/>
<path d="M387.3 206.7V190.7H389.3V189H334.1C331.2 189 328.8 191.9 328.8 195.4V202C328.8 205.5 331.2 208.4 334.1 208.4H389.3V206.7H387.3Z" fill="#058486"/>
<path d="M386.3 206.7V190.7H336.1C333.7 190.7 331.7 193.1 331.7 196V201.4C331.7 204.3 333.7 206.7 336.1 206.7H386.3Z" fill="#017071"/>
<path d="M337.1 190.7C334.7 190.7 332.7 193.1 332.7 196V201.4C332.7 204.3 334.7 206.7 337.1 206.7H387.8V190.7H337.1Z" fill="#F7F1E6"/>
<path d="M357.7 183.9C357.7 183.9 357.6 184 357.7 183.9C357.6 184 357.7 184 357.7 183.9L357.6 184.6L358.6 184.1L359.1 185.9L359.7 184.4L360.7 185.5V184.4L362 184.8L361.7 183.9C360.3 182.7 359 183.4 357.7 183.9Z" fill="#102F41"/>
<path d="M370.2 158.4C366.2 157.7 362.8 159.4 361.1 160.4H361.2H361.1C361 160.5 360.8 160.6 360.7 160.7V160.6C360.4 160.8 360.1 161.2 360.1 161.5C359.3 161.9 359.4 160.9 359.1 160.3C359.1 160.4 359.1 160.4 359.1 160.5C357.7 159.6 354.9 158.1 350.8 158.3C345.2 158.6 341.5 162.7 341.6 168.8C341.7 177.3 349.2 184.4 354.4 184.4C355.7 184.4 356.7 184.2 357.5 184C357.5 184 357.5 183.9 357.6 183.9C357.5 183.9 357.4 184 357.4 184C357.5 184 357.6 183.9 357.6 183.9C357.8 183.6 358.1 183.4 358.4 183.4C358.1 183.4 357.8 183.6 357.6 183.9C358.9 183.4 360.2 182.7 361.5 183.8C362.3 184.1 363.6 184.4 365.3 184.4C370.5 184.4 378.1 178.7 378.2 170.3C378.4 164.1 375.9 159.3 370.2 158.4Z" fill="#F05C42"/>
<path d="M360.1 161.4C360.1 161 360.4 160.7 360.7 160.5C360.8 159.3 360.8 157.9 360.9 157.1C360.9 156 362.9 155.4 363.8 154.5C364.4 154 363.8 152.6 363.8 152.6C363.8 152.6 358.9 154.8 359.1 156.8C359.2 157.8 359.2 159.1 359.2 160.2C359.4 160.8 359.4 161.8 360.1 161.4Z" fill="#102F41"/>
<path d="M117.5 58.2C117.5 90.6 91.2 116.9 58.8 116.9C26.3 116.9 0 90.6 0 58.2C0 25.8 26.3 -0.5 58.7 -0.5C91.2 -0.5 117.5 25.8 117.5 58.2Z" fill="#EF9A41"/>
<path d="M57.5977 22.6846L46.0977 22.7161L46.3029 97.5161L57.8029 97.4846L57.5977 22.6846Z" fill="#102F41"/>
<path d="M57.7 22.7H46.2V97.5H57.7V22.7Z" fill="#102F41"/>
<path d="M53.6 28.1C53.8 28.1 53.9 28 53.9 27.8V26.8C53.9 26.6 53.8 26.5 53.6 26.5H45.8C45.6 26.5 45.5 26.6 45.5 26.8V27.8C45.5 28 45.6 28.1 45.8 28.1H53.6Z" fill="white"/>
<path d="M51 32.5C51.2 32.5 51.3 32.4 51.3 32.2V31.6C51.3 31.4 51.2 31.3 51 31.3H45.9C45.7 31.3 45.6 31.4 45.6 31.6V32.2C45.6 32.4 45.7 32.5 45.9 32.5H51Z" fill="white"/>
<path d="M51 36.7C51.2 36.7 51.3 36.6 51.3 36.4V35.8C51.3 35.6 51.2 35.5 51 35.5H45.9C45.7 35.5 45.6 35.6 45.6 35.8V36.4C45.6 36.6 45.7 36.7 45.9 36.7H51Z" fill="white"/>
<path d="M51 40.9C51.2 40.9 51.3 40.8 51.3 40.6V40C51.3 39.8 51.2 39.7 51 39.7H45.9C45.7 39.7 45.6 39.8 45.6 40V40.6C45.6 40.8 45.7 40.9 45.9 40.9H51Z" fill="white"/>
<path d="M51 45.1C51.2 45.1 51.3 45 51.3 44.8V44.2C51.3 44 51.2 43.9 51 43.9H45.9C45.7 43.9 45.6 44 45.6 44.2V44.8C45.6 45 45.7 45.1 45.9 45.1H51Z" fill="white"/>
<path d="M53.7 50.3C53.9 50.3 54 50.2 54 50V49C54 48.8 53.9 48.7 53.7 48.7H45.9C45.7 48.7 45.6 48.8 45.6 49V50C45.6 50.2 45.7 50.3 45.9 50.3H53.7Z" fill="white"/>
<path d="M51.1 54.6C51.3 54.6 51.4 54.5 51.4 54.3V53.7C51.4 53.5 51.3 53.4 51.1 53.4H46C45.8 53.4 45.7 53.5 45.7 53.7V54.3C45.7 54.5 45.8 54.6 46 54.6H51.1Z" fill="white"/>
<path d="M51.1 58.8C51.3 58.8 51.4 58.7 51.4 58.5V57.9C51.4 57.7 51.3 57.6 51.1 57.6H46C45.8 57.6 45.7 57.7 45.7 57.9V58.5C45.7 58.7 45.8 58.8 46 58.8H51.1Z" fill="white"/>
<path d="M51.1 63C51.3 63 51.4 62.9001 51.4 62.7001V62.1C51.4 61.9 51.3 61.8 51.1 61.8H46C45.8 61.8 45.7 61.9 45.7 62.1V62.7001C45.7 62.9001 45.8 63 46 63H51.1Z" fill="white"/>
<path d="M51.1 67.3C51.3 67.3 51.4 67.2 51.4 67V66.4C51.4 66.2 51.3 66.1 51.1 66.1H46C45.8 66.1 45.7 66.2 45.7 66.4V67C45.7 67.2 45.8 67.3 46 67.3H51.1Z" fill="white"/>
<path d="M53.7 72.4C53.9 72.4 54 72.3 54 72.1V71.1C54 70.9 53.9 70.8 53.7 70.8H45.9C45.7 70.8 45.6 70.9 45.6 71.1V72.1C45.6 72.3 45.7 72.4 45.9 72.4H53.7Z" fill="white"/>
<path d="M53.8 94C54 94 54.1 93.9 54.1 93.7V92.7C54.1 92.5 54 92.4 53.8 92.4H46C45.8 92.4 45.7 92.5 45.7 92.7V93.7C45.7 93.9 45.8 94 46 94H53.8Z" fill="white"/>
<path d="M51.1 76.7C51.3 76.7 51.4 76.6 51.4 76.4V75.8C51.4 75.6 51.3 75.5 51.1 75.5H46C45.8 75.5 45.7 75.6 45.7 75.8V76.4C45.7 76.6 45.8 76.7 46 76.7H51.1Z" fill="white"/>
<path d="M51.1 80.9C51.3 80.9 51.4 80.8 51.4 80.6V80C51.4 79.8 51.3 79.7 51.1 79.7H46C45.8 79.7 45.7 79.8 45.7 80V80.6C45.7 80.8 45.8 80.9 46 80.9H51.1Z" fill="white"/>
<path d="M51.1 85.2C51.3 85.2 51.4 85.1 51.4 84.9V84.3C51.4 84.1 51.3 84 51.1 84H46C45.8 84 45.7 84.1 45.7 84.3V84.9C45.7 85.1 45.8 85.2 46 85.2H51.1Z" fill="white"/>
<path d="M51.2 89.4C51.4 89.4 51.5 89.3 51.5 89.1V88.5C51.5 88.3 51.4 88.2 51.2 88.2H46.1C45.9 88.2 45.8 88.3 45.8 88.5V89.1C45.8 89.3 45.9 89.4 46.1 89.4H51.2Z" fill="white"/>
<path d="M75.6 43.6H62.7V97.3H75.6V93.1C87.1 91.5 96 82 96.1 70.5C96.2 58.9 87.3 49.2 75.6 47.5V43.6ZM75.6 82.3V58.4C81.3 59.8 85.5 64.7 85.4 70.5C85.4 76.1 81.2 80.9 75.6 82.3Z" fill="#102F41"/>
<path d="M70.1 49.4C70.3 49.4 70.4 49.3 70.4 49.1V48.1C70.4 47.9 70.3 47.8 70.1 47.8H62.3C62.1 47.8 62 47.9 62 48.1V49.1C62 49.3 62.1 49.4 62.3 49.4H70.1Z" fill="white"/>
<path d="M67.5 53.7C67.7 53.7 67.8 53.6 67.8 53.4V52.8C67.8 52.6 67.7 52.5 67.5 52.5H62.4C62.2 52.5 62.1 52.6 62.1 52.8V53.4C62.1 53.6 62.2 53.7 62.4 53.7H67.5Z" fill="white"/>
<path d="M67.5 57.9C67.7 57.9 67.8 57.8 67.8 57.6V57C67.8 56.8 67.7 56.7 67.5 56.7H62.4C62.2 56.7 62.1 56.8 62.1 57V57.6C62.1 57.8 62.2 57.9 62.4 57.9H67.5Z" fill="white"/>
<path d="M67.5 62.1C67.7 62.1 67.8 62 67.8 61.8V61.2C67.8 61 67.7 60.9 67.5 60.9H62.4C62.2 60.9 62.1 61 62.1 61.2V61.8C62.1 62 62.2 62.1 62.4 62.1H67.5Z" fill="white"/>
<path d="M67.5 66.4C67.7 66.4 67.8 66.3 67.8 66.1V65.5C67.8 65.3 67.7 65.2 67.5 65.2H62.4C62.2 65.2 62.1 65.3 62.1 65.5V66.1C62.1 66.3 62.2 66.4 62.4 66.4H67.5Z" fill="white"/>
<path d="M70.1 71.5C70.3 71.5 70.4 71.4 70.4 71.2V70.2C70.4 70 70.3 69.9 70.1 69.9H62.3C62.1 69.9 62 70 62 70.2V71.2C62 71.4 62.1 71.5 62.3 71.5H70.1Z" fill="white"/>
<path d="M70.2 93.1C70.4 93.1 70.5 93 70.5 92.8V91.8C70.5 91.6 70.4 91.5 70.2 91.5H62.4C62.2 91.5 62.1 91.6 62.1 91.8V92.8C62.1 93 62.2 93.1 62.4 93.1H70.2Z" fill="white"/>
<path d="M67.5 75.8C67.7 75.8 67.8 75.7 67.8 75.5V74.9C67.8 74.7 67.7 74.6 67.5 74.6H62.4C62.2 74.6 62.1 74.7 62.1 74.9V75.5C62.1 75.7 62.2 75.8 62.4 75.8H67.5Z" fill="white"/>
<path d="M67.5 80C67.7 80 67.8 79.9 67.8 79.7V79.1C67.8 78.9 67.7 78.8 67.5 78.8H62.4C62.2 78.8 62.1 78.9 62.1 79.1V79.7C62.1 79.9 62.2 80 62.4 80H67.5Z" fill="white"/>
<path d="M67.6 84.3C67.8 84.3 67.9 84.2 67.9 84V83.4C67.9 83.2 67.8 83.1 67.6 83.1H62.5C62.3 83.1 62.2 83.2 62.2 83.4V84C62.2 84.2 62.3 84.3 62.5 84.3H67.6Z" fill="white"/>
<path d="M67.6 88.5C67.8 88.5 67.9 88.4 67.9 88.2V87.6C67.9 87.4 67.8 87.3 67.6 87.3H62.5C62.3 87.3 62.2 87.4 62.2 87.6V88.2C62.2 88.4 62.3 88.5 62.5 88.5H67.6Z" fill="white"/>
<path d="M34.9 25.3H37.8L36.3 20.4L34.9 25.3Z" fill="#403833"/>
<path d="M32.7 32.8H40.1L37.8 25.3H34.9L32.7 32.8Z" fill="#DAC18E"/>
<path d="M33.1 95.1C33.1 95.9 33.8 96.6 34.6 96.6H39C39.8 96.6 40.5 95.9 40.5 95.1V91.8H33.1V95.1Z" fill="#F7F1E6"/>
<path d="M33.1 86.2V91.8L40.4 91.7L40.5 86.2H33.1Z" fill="#F1E4C4"/>
<path d="M36.5 31.3C38.2 31.3 40.1 32.7001 40.1 32.7001L40.5 86.1H33.1L32.7 32.7001C32.7 32.8001 34.8 31.4 36.5 31.3Z" fill="#F05C42"/>
<path d="M33.1 89.7L33 90.8H40.4L40.5 89.7H33.1Z" fill="#B9BBBD"/>
<path d="M33.1 87.4V88.5L40.5 88.4V87.3L33.1 87.4Z" fill="#B9BBBD"/>
<path d="M87.4 38.4C88.6 38.4 89.5 37.4 89.5 36.3V26.5C89.5 25.3 88.5 24.4 87.4 24.4H75.6V38.4H87.4Z" fill="#F1E4C4"/>
<path d="M64.7 38.4H76.4V24.4H64.7C63.5 24.4 62.6 25.4 62.6 26.5V36.3C62.6 37.4 63.5 38.4 64.7 38.4Z" fill="#F05C42"/>
<path d="M269 58.7C269 91.1 242.7 117.4 210.3 117.4C177.9 117.4 151.6 91.1 151.6 58.7C151.6 26.3 177.9 -2.09475e-05 210.3 -2.09475e-05C242.7 -0.100021 269 26.2 269 58.7Z" fill="#EF9A41"/>
<path d="M231 31.1C219.1 31.1 213.6 32.9 213.6 32.9C212.6 33.2 211 33.2 209.9 32.9C209.9 32.9 203.8 31.1 191.9 31.1C180 31.1 174.5 32.9 174.5 32.9C173.5 33.2 172.7 34.4 172.7 35.4V85.6C172.7 86.7 173.5 87.3 174.6 87.1C174.6 87.1 183.7 85.1 193.2 85.1C202.7 85.1 209.9 84.9 209.9 84.9C210.9 85.2 212.4 85.3 213.4 85C213.4 85 222.7 85 232.3 85C241.9 85 249 86.9 249 86.9C250 87.2 250.8 86.5 250.8 85.5V35.4C250.8 34.3 250 33.2 249 32.9C249 33 242.9 31.1 231 31.1Z" fill="#016F70"/>
<path d="M231 31.1C219.1 31.1 213.6 32.9 213.6 32.9C212.6 33.2 211 33.2 209.9 32.9C209.9 32.9 203.8 31.1 191.9 31.1C180 31.1 174.5 32.9 174.5 32.9C173.5 33.2 172.7 34.4 172.7 35.4V83.6C172.7 84.7 173.5 85.3 174.6 85.1C174.6 85.1 183.7 83.1 193.2 83.1C202.7 83.1 209.9 85 209.9 85C210.9 85.3 212.6 85.3 213.6 85.1C213.6 85.1 222.7 83.1 232.2 83.1C241.8 83.1 248.9 85 248.9 85C249.9 85.3 250.7 84.6 250.7 83.6V35.4C250.7 34.3 249.9 33.2 248.9 32.9C249 33 242.9 31.1 231 31.1Z" fill="#058486"/>
<path d="M228.6 34.5C218.2 34.5 213.4 36.1 213.4 36.1C212.5 36.4 211.1 36.4 210.2 36.1C210.2 36.1 204.9 34.5 194.4 34.5C184 34.5 179.2 36.1 179.2 36.1C178.3 36.4 177.6 37.4 177.6 38.3V80.5C177.6 81.4 178.3 82 179.2 81.8C179.2 81.8 187.1 80.1 195.5 80.1C203.9 80.1 210.1 81.8 210.1 81.8C211 82 212.5 82.1 213.4 81.9C213.4 81.9 221.3 80.2 229.7 80.2C238.1 80.2 244.3 81.9 244.3 81.9C245.2 82.1 245.9 81.6 245.9 80.7V38.3C245.9 37.4 245.2 36.4 244.3 36.1C244.4 36.1 239 34.5 228.6 34.5Z" fill="#C6BDA3"/>
<path d="M228.6 34.5C218.2 34.5 213.4 36.1 213.4 36.1C212.5 36.4 211.1 36.4 210.2 36.1C210.2 36.1 204.9 34.5 194.4 34.5C184 34.5 181.1 35.6 181.1 35.6C180.2 35.9 179.5 36.9 179.5 37.8V80C179.5 80.9 180.2 81.5 181.1 81.3C181.1 81.3 187.1 80 195.5 80C203.9 80 210.1 81.7 210.1 81.7C211 81.9 212.5 82 213.4 81.8C213.4 81.8 221.3 80.1 229.7 80.1C238.1 80.1 244.3 81.8 244.3 81.8C245.2 82 245.9 81.5 245.9 80.6V38.3C245.9 37.4 245.2 36.4 244.3 36.1C244.4 36.1 239 34.5 228.6 34.5Z" fill="#F1E4C4"/>
<path d="M212 36.1H211.5V81.9H212V36.1Z" fill="#C6BDA3"/>
<path d="M213.2 36.1H210.1V59.3H213.2V36.1Z" fill="#F05C42"/>
<path d="M419.2 58.7C419.2 91.1 392.9 117.4 360.5 117.4C328.1 117.4 301.8 91.1 301.8 58.7C301.8 26.3 328.1 -2.09475e-05 360.5 -2.09475e-05C392.9 -0.100021 419.2 26.2 419.2 58.7Z" fill="#439539"/>
<path d="M389.5 76.4C389.5 78.4 388.6 81.5 387.5 83.2C387.5 83.2 385.2 86.8 364.6 86.8C344 86.8 338.4 82.3 338.4 82.3C336.8 81 335.5 78.4 335.5 76.4V59.8C335.5 57.8 337.2 56.1 339.2 56.1H385.8C387.8 56.1 389.5 57.7 389.5 59.8V76.4Z" fill="#052537"/>
<path d="M313.5 50.6C311.6 51.2 311.6 52.3 313.5 53L359.7 69C361.6 69.7 364.7 69.6 366.6 68.9L407.4 53.8C409.3 53.1 409.3 52 407.4 51.3L363.9 36.1C362 35.4 358.9 35.4 357 36L313.5 50.6Z" fill="#102F41"/>
<path d="M393.2 78.9C393.2 80.9 392.4 82.6 391.4 82.6C390.4 82.6 389.6 80.9 389.6 78.9V60.5L393.3 59.1V78.9H393.2Z" fill="#F05C42"/>
<path d="M395.6 83.7C395.6 85.6 394 87.1 391.9 87.1H390.2C388.2 87.1 386.5 85.6 386.5 83.7C386.5 81.8 388.2 80.3 390.2 80.3H391.9C393.9 80.3 395.6 81.8 395.6 83.7Z" fill="#F05C42"/>
</g>
<defs>
<clipPath id="clip0">
<rect width="568" height="262.6" fill="white"/>
</clipPath>
</defs>
</svg>
