<svg width="27" height="21" viewBox="0 0 27 21" fill="none" xmlns="http://www.w3.org/2000/svg">
<path d="M25.6532 20.3041H7.59843C6.8543 20.3041 6.25119 19.701 6.25119 18.9569C6.25119 18.2127 6.8543 17.6096 7.59843 17.6096H25.6528C26.3969 17.6096 27 18.2127 27 18.9569C27 19.701 26.3973 20.3041 25.6532 20.3041Z" fill="white"/>
<path d="M25.6532 11.8473H7.59843C6.8543 11.8473 6.25119 11.2442 6.25119 10.5001C6.25119 9.75595 6.8543 9.15283 7.59843 9.15283H25.6528C26.3969 9.15283 27 9.75595 27 10.5001C27.0005 11.2442 26.3973 11.8473 25.6532 11.8473Z" fill="white"/>
<path d="M25.6532 3.39077H7.59843C6.8543 3.39077 6.25119 2.78765 6.25119 2.04353C6.25119 1.2994 6.8543 0.696289 7.59843 0.696289H25.6528C26.3969 0.696289 27 1.2994 27 2.04353C27 2.78765 26.3973 3.39077 25.6532 3.39077Z" fill="white"/>
<path d="M1.80934 3.95706C2.80861 3.95706 3.61868 3.14699 3.61868 2.14772C3.61868 1.14845 2.80861 0.338379 1.80934 0.338379C0.810069 0.338379 0 1.14845 0 2.14772C0 3.14699 0.810069 3.95706 1.80934 3.95706Z" fill="white"/>
<path d="M1.80934 12.3096C2.80861 12.3096 3.61868 11.4995 3.61868 10.5003C3.61868 9.50099 2.80861 8.69092 1.80934 8.69092C0.810069 8.69092 0 9.50099 0 10.5003C0 11.4995 0.810069 12.3096 1.80934 12.3096Z" fill="white"/>
<path d="M1.80934 20.6619C2.80861 20.6619 3.61868 19.8518 3.61868 18.8526C3.61868 17.8533 2.80861 17.0432 1.80934 17.0432C0.810069 17.0432 0 17.8533 0 18.8526C0 19.8518 0.810069 20.6619 1.80934 20.6619Z" fill="white"/>
</svg>
