<svg width="17" height="18" viewBox="0 0 17 18" fill="none" xmlns="http://www.w3.org/2000/svg">
<path d="M5.46667 2V0.5H3.96667V2H5.46667ZM3.96667 16.5V18H6.96667V16.5H3.96667ZM2 13.1697H0.5V16.1697H2V13.1697ZM2 9.54977H0.5V12.5498H2V9.54977ZM3.96667 2V14.6697H6.96667V2H3.96667ZM3.96667 14.6697V16.5H6.96667V14.6697H3.96667ZM13.2667 14.6697C13.2667 13.1697 13.2666 13.1697 13.2666 13.1697C13.2665 13.1697 13.2665 13.1697 13.2664 13.1697C13.2662 13.1697 13.2661 13.1697 13.266 13.1697C13.2658 13.1697 13.2656 13.1697 13.2654 13.1697C13.2652 13.1697 13.265 13.1697 13.2647 13.1697C13.2645 13.1697 13.2642 13.1697 13.2639 13.1697C13.2635 13.1697 13.2632 13.1697 13.2628 13.1697C13.2625 13.1697 13.2621 13.1697 13.2617 13.1697C13.2613 13.1697 13.2608 13.1697 13.2604 13.1697C13.2599 13.1697 13.2594 13.1697 13.2589 13.1697C13.2584 13.1697 13.2578 13.1697 13.2573 13.1697C13.2567 13.1697 13.2561 13.1697 13.2555 13.1697C13.2549 13.1697 13.2542 13.1697 13.2535 13.1697C13.2529 13.1697 13.2522 13.1697 13.2515 13.1697C13.2507 13.1697 13.25 13.1697 13.2492 13.1697C13.2484 13.1697 13.2477 13.1697 13.2468 13.1697C13.246 13.1697 13.2452 13.1697 13.2443 13.1697C13.2434 13.1697 13.2425 13.1697 13.2416 13.1697C13.2407 13.1697 13.2397 13.1697 13.2388 13.1697C13.2378 13.1697 13.2368 13.1697 13.2358 13.1697C13.2348 13.1697 13.2337 13.1697 13.2327 13.1697C13.2316 13.1697 13.2305 13.1697 13.2294 13.1697C13.2283 13.1697 13.2271 13.1697 13.2259 13.1697C13.2248 13.1697 13.2236 13.1697 13.2224 13.1697C13.2211 13.1697 13.2199 13.1697 13.2186 13.1697C13.2174 13.1697 13.2161 13.1697 13.2148 13.1697C13.2135 13.1697 13.2121 13.1697 13.2107 13.1697C13.2094 13.1697 13.208 13.1697 13.2066 13.1697C13.2052 13.1697 13.2037 13.1697 13.2023 13.1697C13.2008 13.1697 13.1993 13.1697 13.1978 13.1697C13.1963 13.1697 13.1948 13.1697 13.1932 13.1697C13.1917 13.1697 13.1901 13.1697 13.1885 13.1697C13.1869 13.1697 13.1852 13.1697 13.1836 13.1697C13.1819 13.1697 13.1803 13.1697 13.1786 13.1697C13.1769 13.1697 13.1751 13.1697 13.1734 13.1697C13.1716 13.1697 13.1699 13.1697 13.1681 13.1697C13.1663 13.1697 13.1645 13.1697 13.1626 13.1697C13.1608 13.1697 13.1589 13.1697 13.157 13.1697C13.1551 13.1697 13.1532 13.1697 13.1513 13.1697C13.1493 13.1697 13.1474 13.1697 13.1454 13.1697C13.1434 13.1697 13.1414 13.1697 13.1394 13.1697C13.1373 13.1697 13.1353 13.1697 13.1332 13.1697C13.1311 13.1697 13.129 13.1697 13.1269 13.1697C13.1248 13.1697 13.1226 13.1697 13.1205 13.1697C13.1183 13.1697 13.1161 13.1697 13.1139 13.1697C13.1117 13.1697 13.1094 13.1697 13.1072 13.1697C13.1049 13.1697 13.1026 13.1697 13.1003 13.1697C13.098 13.1697 13.0957 13.1697 13.0933 13.1697C13.0909 13.1697 13.0886 13.1697 13.0862 13.1697C13.0838 13.1697 13.0813 13.1697 13.0789 13.1697C13.0765 13.1697 13.074 13.1697 13.0715 13.1697C13.069 13.1697 13.0665 13.1697 13.064 13.1697C13.0614 13.1697 13.0589 13.1697 13.0563 13.1697C13.0537 13.1697 13.0511 13.1697 13.0485 13.1697C13.0458 13.1697 13.0432 13.1697 13.0405 13.1697C13.0378 13.1697 13.0352 13.1697 13.0324 13.1697C13.0297 13.1697 13.027 13.1697 13.0242 13.1697C13.0215 13.1697 13.0187 13.1697 13.0159 13.1697C13.0131 13.1697 13.0102 13.1697 13.0074 13.1697C13.0045 13.1697 13.0017 13.1697 12.9988 13.1697C12.9959 13.1697 12.993 13.1697 12.99 13.1697C12.9871 13.1697 12.9841 13.1697 12.9812 13.1697C12.9782 13.1697 12.9752 13.1697 12.9722 13.1697C12.9691 13.1697 12.9661 13.1697 12.963 13.1697C12.9599 13.1697 12.9569 13.1697 12.9537 13.1697C12.9506 13.1697 12.9475 13.1697 12.9443 13.1697C12.9412 13.1697 12.938 13.1697 12.9348 13.1697C12.9316 13.1697 12.9284 13.1697 12.9252 13.1697C12.9219 13.1697 12.9187 13.1697 12.9154 13.1697C12.9121 13.1697 12.9088 13.1697 12.9055 13.1697C12.9021 13.1697 12.8988 13.1697 12.8954 13.1697C12.892 13.1697 12.8887 13.1697 12.8852 13.1697C12.8818 13.1697 12.8784 13.1697 12.8749 13.1697C12.8715 13.1697 12.868 13.1697 12.8645 13.1697C12.861 13.1697 12.8575 13.1697 12.854 13.1697C12.8504 13.1697 12.8469 13.1697 12.8433 13.1697C12.8397 13.1697 12.8361 13.1697 12.8325 13.1697C12.8289 13.1697 12.8252 13.1697 12.8216 13.1697C12.8179 13.1697 12.8142 13.1697 12.8105 13.1697C12.8068 13.1697 12.8031 13.1697 12.7993 13.1697C12.7956 13.1697 12.7918 13.1697 12.788 13.1697C12.7842 13.1697 12.7804 13.1697 12.7766 13.1697C12.7728 13.1697 12.7689 13.1697 12.7651 13.1697C12.7612 13.1697 12.7573 13.1697 12.7534 13.1697C12.7495 13.1697 12.7456 13.1697 12.7416 13.1697C12.7377 13.1697 12.7337 13.1697 12.7297 13.1697C12.7257 13.1697 12.7217 13.1697 12.7177 13.1697C12.7136 13.1697 12.7096 13.1697 12.7055 13.1697C12.7014 13.1697 12.6973 13.1697 12.6932 13.1697C12.6891 13.1697 12.685 13.1697 12.6808 13.1697C12.6767 13.1697 12.6725 13.1697 12.6683 13.1697C12.6641 13.1697 12.6599 13.1697 12.6557 13.1697C12.6515 13.1697 12.6472 13.1697 12.6429 13.1697C12.6387 13.1697 12.6344 13.1697 12.6301 13.1697C12.6257 13.1697 12.6214 13.1697 12.6171 13.1697C12.6127 13.1697 12.6084 13.1697 12.604 13.1697C12.5996 13.1697 12.5952 13.1697 12.5907 13.1697C12.5863 13.1697 12.5819 13.1697 12.5774 13.1697C12.5729 13.1697 12.5684 13.1697 12.5639 13.1697C12.5594 13.1697 12.5549 13.1697 12.5504 13.1697C12.5458 13.1697 12.5413 13.1697 12.5367 13.1697C12.5321 13.1697 12.5275 13.1697 12.5229 13.1697C12.5183 13.1697 12.5136 13.1697 12.509 13.1697C12.5043 13.1697 12.4996 13.1697 12.4949 13.1697C12.4902 13.1697 12.4855 13.1697 12.4808 13.1697C12.476 13.1697 12.4713 13.1697 12.4665 13.1697C12.4618 13.1697 12.457 13.1697 12.4522 13.1697C12.4473 13.1697 12.4425 13.1697 12.4377 13.1697C12.4328 13.1697 12.428 13.1697 12.4231 13.1697C12.4182 13.1697 12.4133 13.1697 12.4084 13.1697C12.4034 13.1697 12.3985 13.1697 12.3935 13.1697C12.3886 13.1697 12.3836 13.1697 12.3786 13.1697C12.3736 13.1697 12.3686 13.1697 12.3636 13.1697C12.3585 13.1697 12.3535 13.1697 12.3484 13.1697C12.3434 13.1697 12.3383 13.1697 12.3332 13.1697C12.3281 13.1697 12.3229 13.1697 12.3178 13.1697C12.3126 13.1697 12.3075 13.1697 12.3023 13.1697C12.2971 13.1697 12.2919 13.1697 12.2867 13.1697C12.2815 13.1697 12.2763 13.1697 12.271 13.1697C12.2658 13.1697 12.2605 13.1697 12.2552 13.1697C12.2499 13.1697 12.2446 13.1697 12.2393 13.1697C12.234 13.1697 12.2287 13.1697 12.2233 13.1697C12.2179 13.1697 12.2126 13.1697 12.2072 13.1697C12.2018 13.1697 12.1964 13.1697 12.1909 13.1697C12.1855 13.1697 12.1801 13.1697 12.1746 13.1697C12.1692 13.1697 12.1637 13.1697 12.1582 13.1697C12.1527 13.1697 12.1472 13.1697 12.1416 13.1697C12.1361 13.1697 12.1306 13.1697 12.125 13.1697C12.1194 13.1697 12.1138 13.1697 12.1082 13.1697C12.1026 13.1697 12.097 13.1697 12.0914 13.1697C12.0857 13.1697 12.0801 13.1697 12.0744 13.1697C12.0688 13.1697 12.0631 13.1697 12.0574 13.1697C12.0517 13.1697 12.0459 13.1697 12.0402 13.1697C12.0345 13.1697 12.0287 13.1697 12.0229 13.1697C12.0172 13.1697 12.0114 13.1697 12.0056 13.1697C11.9998 13.1697 11.9939 13.1697 11.9881 13.1697C11.9823 13.1697 11.9764 13.1697 11.9705 13.1697C11.9647 13.1697 11.9588 13.1697 11.9529 13.1697C11.947 13.1697 11.941 13.1697 11.9351 13.1697C11.9292 13.1697 11.9232 13.1697 11.9172 13.1697C11.9113 13.1697 11.9053 13.1697 11.8993 13.1697C11.8933 13.1697 11.8873 13.1697 11.8812 13.1697C11.8752 13.1697 11.8691 13.1697 11.8631 13.1697C11.857 13.1697 11.8509 13.1697 11.8448 13.1697C11.8387 13.1697 11.8326 13.1697 11.8264 13.1697C11.8203 13.1697 11.8142 13.1697 11.808 13.1697C11.8018 13.1697 11.7956 13.1697 11.7894 13.1697C11.7832 13.1697 11.777 13.1697 11.7708 13.1697C11.7646 13.1697 11.7583 13.1697 11.7521 13.1697C11.7458 13.1697 11.7395 13.1697 11.7332 13.1697C11.7269 13.1697 11.7206 13.1697 11.7143 13.1697C11.708 13.1697 11.7016 13.1697 11.6953 13.1697C11.6889 13.1697 11.6826 13.1697 11.6762 13.1697C11.6698 13.1697 11.6634 13.1697 11.657 13.1697C11.6505 13.1697 11.6441 13.1697 11.6377 13.1697C11.6312 13.1697 11.6247 13.1697 11.6183 13.1697C11.6118 13.1697 11.6053 13.1697 11.5988 13.1697C11.5923 13.1697 11.5857 13.1697 11.5792 13.1697C11.5726 13.1697 11.5661 13.1697 11.5595 13.1697C11.5529 13.1697 11.5464 13.1697 11.5398 13.1697C11.5332 13.1697 11.5265 13.1697 11.5199 13.1697C11.5133 13.1697 11.5066 13.1697 11.5 13.1697C11.4933 13.1697 11.4866 13.1697 11.4799 13.1697C11.4732 13.1697 11.4665 13.1697 11.4598 13.1697C11.4531 13.1697 11.4464 13.1697 11.4396 13.1697C11.4329 13.1697 11.4261 13.1697 11.4193 13.1697C11.4125 13.1697 11.4057 13.1697 11.3989 13.1697C11.3921 13.1697 11.3853 13.1697 11.3785 13.1697C11.3716 13.1697 11.3648 13.1697 11.3579 13.1697C11.351 13.1697 11.3441 13.1697 11.3372 13.1697C11.3304 13.1697 11.3234 13.1697 11.3165 13.1697C11.3096 13.1697 11.3027 13.1697 11.2957 13.1697C11.2887 13.1697 11.2818 13.1697 11.2748 13.1697C11.2678 13.1697 11.2608 13.1697 11.2538 13.1697C11.2468 13.1697 11.2398 13.1697 11.2327 13.1697C11.2257 13.1697 11.2186 13.1697 11.2116 13.1697C11.2045 13.1697 11.1974 13.1697 11.1903 13.1697C11.1832 13.1697 11.1761 13.1697 11.169 13.1697C11.1619 13.1697 11.1548 13.1697 11.1476 13.1697C11.1405 13.1697 11.1333 13.1697 11.1261 13.1697C11.1189 13.1697 11.1117 13.1697 11.1045 13.1697C11.0973 13.1697 11.0901 13.1697 11.0829 13.1697C11.0757 13.1697 11.0684 13.1697 11.0612 13.1697C11.0539 13.1697 11.0466 13.1697 11.0393 13.1697C11.0321 13.1697 11.0248 13.1697 11.0174 13.1697C11.0101 13.1697 11.0028 13.1697 10.9955 13.1697C10.9881 13.1697 10.9808 13.1697 10.9734 13.1697C10.966 13.1697 10.9587 13.1697 10.9513 13.1697C10.9439 13.1697 10.9365 13.1697 10.9291 13.1697C10.9216 13.1697 10.9142 13.1697 10.9068 13.1697C10.8993 13.1697 10.8919 13.1697 10.8844 13.1697C10.8769 13.1697 10.8694 13.1697 10.862 13.1697C10.8545 13.1697 10.847 13.1697 10.8394 13.1697C10.8319 13.1697 10.8244 13.1697 10.8168 13.1697C10.8093 13.1697 10.8017 13.1697 10.7942 13.1697C10.7866 13.1697 10.779 13.1697 10.7714 13.1697C10.7638 13.1697 10.7562 13.1697 10.7486 13.1697C10.741 13.1697 10.7333 13.1697 10.7257 13.1697C10.718 13.1697 10.7104 13.1697 10.7027 13.1697C10.695 13.1697 10.6873 13.1697 10.6796 13.1697C10.6719 13.1697 10.6642 13.1697 10.6565 13.1697C10.6488 13.1697 10.6411 13.1697 10.6333 13.1697C10.6256 13.1697 10.6178 13.1697 10.61 13.1697C10.6023 13.1697 10.5945 13.1697 10.5867 13.1697C10.5789 13.1697 10.5711 13.1697 10.5633 13.1697C10.5555 13.1697 10.5476 13.1697 10.5398 13.1697C10.532 13.1697 10.5241 13.1697 10.5162 13.1697C10.5084 13.1697 10.5005 13.1697 10.4926 13.1697C10.4847 13.1697 10.4768 13.1697 10.4689 13.1697C10.461 13.1697 10.4531 13.1697 10.4451 13.1697C10.4372 13.1697 10.4293 13.1697 10.4213 13.1697C10.4133 13.1697 10.4054 13.1697 10.3974 13.1697C10.3894 13.1697 10.3814 13.1697 10.3734 13.1697C10.3654 13.1697 10.3574 13.1697 10.3494 13.1697C10.3413 13.1697 10.3333 13.1697 10.3253 13.1697C10.3172 13.1697 10.3091 13.1697 10.3011 13.1697C10.293 13.1697 10.2849 13.1697 10.2768 13.1697C10.2687 13.1697 10.2606 13.1697 10.2525 13.1697C10.2444 13.1697 10.2363 13.1697 10.2281 13.1697C10.22 13.1697 10.2118 13.1697 10.2037 13.1697C10.1955 13.1697 10.1873 13.1697 10.1792 13.1697C10.171 13.1697 10.1628 13.1697 10.1546 13.1697C10.1464 13.1697 10.1382 13.1697 10.1299 13.1697C10.1217 13.1697 10.1135 13.1697 10.1052 13.1697C10.097 13.1697 10.0887 13.1697 10.0805 13.1697C10.0722 13.1697 10.0639 13.1697 10.0556 13.1697C10.0474 13.1697 10.0391 13.1697 10.0307 13.1697C10.0224 13.1697 10.0141 13.1697 10.0058 13.1697C9.99746 13.1697 9.98912 13.1697 9.98077 13.1697C9.97242 13.1697 9.96406 13.1697 9.95569 13.1697C9.94731 13.1697 9.93893 13.1697 9.93054 13.1697C9.92215 13.1697 9.91375 13.1697 9.90534 13.1697C9.89693 13.1697 9.88851 13.1697 9.88007 13.1697C9.87164 13.1697 9.8632 13.1697 9.85475 13.1697C9.8463 13.1697 9.83784 13.1697 9.82937 13.1697C9.8209 13.1697 9.81242 13.1697 9.80392 13.1697C9.79543 13.1697 9.78693 13.1697 9.77842 13.1697C9.76991 13.1697 9.76139 13.1697 9.75286 13.1697C9.74433 13.1697 9.73579 13.1697 9.72725 13.1697C9.7187 13.1697 9.71014 13.1697 9.70157 13.1697C9.693 13.1697 9.68443 13.1697 9.67584 13.1697C9.66725 13.1697 9.65866 13.1697 9.65005 13.1697C9.64144 13.1697 9.63283 13.1697 9.62421 13.1697C9.61558 13.1697 9.60695 13.1697 9.5983 13.1697C9.58966 13.1697 9.58101 13.1697 9.57235 13.1697C9.56369 13.1697 9.55502 13.1697 9.54634 13.1697C9.53766 13.1697 9.52897 13.1697 9.52027 13.1697C9.51157 13.1697 9.50287 13.1697 9.49415 13.1697C9.48544 13.1697 9.47671 13.1697 9.46798 13.1697C9.45925 13.1697 9.4505 13.1697 9.44175 13.1697C9.433 13.1697 9.42424 13.1697 9.41547 13.1697C9.4067 13.1697 9.39793 13.1697 9.38914 13.1697C9.38036 13.1697 9.37156 13.1697 9.36276 13.1697C9.35395 13.1697 9.34514 13.1697 9.33632 13.1697C9.3275 13.1697 9.31867 13.1697 9.30984 13.1697C9.301 13.1697 9.29215 13.1697 9.2833 13.1697C9.27444 13.1697 9.26558 13.1697 9.25671 13.1697C9.24784 13.1697 9.23896 13.1697 9.23007 13.1697C9.22119 13.1697 9.21229 13.1697 9.20339 13.1697C9.19448 13.1697 9.18557 13.1697 9.17665 13.1697C9.16773 13.1697 9.1588 13.1697 9.14986 13.1697C9.14093 13.1697 9.13198 13.1697 9.12303 13.1697C9.11408 13.1697 9.10512 13.1697 9.09615 13.1697C9.08718 13.1697 9.07821 13.1697 9.06922 13.1697C9.06024 13.1697 9.05125 13.1697 9.04225 13.1697C9.03325 13.1697 9.02424 13.1697 9.01522 13.1697C9.00621 13.1697 8.99719 13.1697 8.98816 13.1697C8.97913 13.1697 8.97009 13.1697 8.96104 13.1697C8.952 13.1697 8.94294 13.1697 8.93388 13.1697C8.92482 13.1697 8.91575 13.1697 8.90668 13.1697C8.8976 13.1697 8.88852 13.1697 8.87943 13.1697C8.87034 13.1697 8.86124 13.1697 8.85214 13.1697C8.84303 13.1697 8.83392 13.1697 8.8248 13.1697C8.81568 13.1697 8.80655 13.1697 8.79742 13.1697C8.78829 13.1697 8.77914 13.1697 8.77 13.1697C8.76085 13.1697 8.75169 13.1697 8.74253 13.1697C8.73337 13.1697 8.7242 13.1697 8.71502 13.1697C8.70585 13.1697 8.69667 13.1697 8.68748 13.1697C8.67829 13.1697 8.66909 13.1697 8.65989 13.1697C8.65068 13.1697 8.64147 13.1697 8.63226 13.1697C8.62304 13.1697 8.61381 13.1697 8.60458 13.1697C8.59535 13.1697 8.58612 13.1697 8.57687 13.1697C8.56763 13.1697 8.55838 13.1697 8.54912 13.1697C8.53987 13.1697 8.5306 13.1697 8.52133 13.1697C8.51206 13.1697 8.50279 13.1697 8.49351 13.1697C8.48422 13.1697 8.47493 13.1697 8.46564 13.1697C8.45634 13.1697 8.44704 13.1697 8.43773 13.1697C8.42843 13.1697 8.41911 13.1697 8.40979 13.1697C8.40047 13.1697 8.39115 13.1697 8.38181 13.1697C8.37248 13.1697 8.36314 13.1697 8.3538 13.1697C8.34445 13.1697 8.3351 13.1697 8.32575 13.1697C8.31639 13.1697 8.30703 13.1697 8.29766 13.1697C8.28829 13.1697 8.27892 13.1697 8.26954 13.1697C8.26016 13.1697 8.25077 13.1697 8.24138 13.1697C8.23199 13.1697 8.22259 13.1697 8.21319 13.1697C8.20378 13.1697 8.19438 13.1697 8.18496 13.1697C8.17555 13.1697 8.16613 13.1697 8.1567 13.1697C8.14728 13.1697 8.13785 13.1697 8.12841 13.1697C8.11897 13.1697 8.10953 13.1697 8.10008 13.1697C8.09064 13.1697 8.08118 13.1697 8.07172 13.1697C8.06227 13.1697 8.0528 13.1697 8.04333 13.1697C8.03387 13.1697 8.02439 13.1697 8.01491 13.1697C8.00543 13.1697 7.99595 13.1697 7.98646 13.1697C7.97697 13.1697 7.96748 13.1697 7.95798 13.1697C7.94848 13.1697 7.93897 13.1697 7.92946 13.1697C7.91995 13.1697 7.91044 13.1697 7.90092 13.1697C7.8914 13.1697 7.88187 13.1697 7.87234 13.1697C7.86282 13.1697 7.85328 13.1697 7.84374 13.1697C7.8342 13.1697 7.82466 13.1697 7.81511 13.1697C7.80556 13.1697 7.79601 13.1697 7.78645 13.1697C7.77689 13.1697 7.76733 13.1697 7.75776 13.1697C7.7482 13.1697 7.73863 13.1697 7.72905 13.1697C7.71947 13.1697 7.70989 13.1697 7.70031 13.1697C7.69072 13.1697 7.68113 13.1697 7.67154 13.1697C7.66195 13.1697 7.65235 13.1697 7.64275 13.1697C7.63314 13.1697 7.62354 13.1697 7.61393 13.1697C7.60432 13.1697 7.5947 13.1697 7.58508 13.1697C7.57546 13.1697 7.56584 13.1697 7.55621 13.1697C7.54658 13.1697 7.53695 13.1697 7.52732 13.1697C7.51768 13.1697 7.50804 13.1697 7.4984 13.1697C7.48875 13.1697 7.47911 13.1697 7.46945 13.1697C7.4598 13.1697 7.45015 13.1697 7.44049 13.1697C7.43083 13.1697 7.42117 13.1697 7.4115 13.1697C7.40183 13.1697 7.39216 13.1697 7.38249 13.1697C7.37282 13.1697 7.36314 13.1697 7.35346 13.1697C7.34378 13.1697 7.33409 13.1697 7.3244 13.1697C7.31471 13.1697 7.30502 13.1697 7.29533 13.1697C7.28563 13.1697 7.27593 13.1697 7.26623 13.1697C7.25653 13.1697 7.24682 13.1697 7.23711 13.1697C7.2274 13.1697 7.21769 13.1697 7.20798 13.1697C7.19826 13.1697 7.18854 13.1697 7.17882 13.1697C7.1691 13.1697 7.15937 13.1697 7.14965 13.1697C7.13992 13.1697 7.13019 13.1697 7.12045 13.1697C7.11072 13.1697 7.10098 13.1697 7.09124 13.1697C7.0815 13.1697 7.07176 13.1697 7.06201 13.1697C7.05226 13.1697 7.04252 13.1697 7.03276 13.1697C7.02301 13.1697 7.01326 13.1697 7.0035 13.1697C6.99374 13.1697 6.98398 13.1697 6.97422 13.1697C6.96446 13.1697 6.95469 13.1697 6.94492 13.1697C6.93515 13.1697 6.92538 13.1697 6.91561 13.1697C6.90584 13.1697 6.89606 13.1697 6.88628 13.1697C6.8765 13.1697 6.86672 13.1697 6.85694 13.1697C6.84716 13.1697 6.83737 13.1697 6.82758 13.1697C6.81779 13.1697 6.808 13.1697 6.79821 13.1697C6.78842 13.1697 6.77862 13.1697 6.76883 13.1697C6.75903 13.1697 6.74923 13.1697 6.73943 13.1697C6.72963 13.1697 6.71982 13.1697 6.71002 13.1697C6.70021 13.1697 6.6904 13.1697 6.68059 13.1697C6.67078 13.1697 6.66097 13.1697 6.65116 13.1697C6.64134 13.1697 6.63153 13.1697 6.62171 13.1697C6.61189 13.1697 6.60207 13.1697 6.59225 13.1697C6.58243 13.1697 6.57261 13.1697 6.56278 13.1697C6.55296 13.1697 6.54313 13.1697 6.53331 13.1697C6.52348 13.1697 6.51365 13.1697 6.50382 13.1697C6.49399 13.1697 6.48415 13.1697 6.47432 13.1697C6.46448 13.1697 6.45465 13.1697 6.44481 13.1697C6.43497 13.1697 6.42514 13.1697 6.4153 13.1697C6.40546 13.1697 6.39561 13.1697 6.38577 13.1697C6.37593 13.1697 6.36608 13.1697 6.35624 13.1697C6.34639 13.1697 6.33655 13.1697 6.3267 13.1697C6.31685 13.1697 6.307 13.1697 6.29715 13.1697C6.2873 13.1697 6.27745 13.1697 6.2676 13.1697C6.25775 13.1697 6.2479 13.1697 6.23804 13.1697C6.22819 13.1697 6.21833 13.1697 6.20848 13.1697C6.19862 13.1697 6.18876 13.1697 6.17891 13.1697C6.16905 13.1697 6.15919 13.1697 6.14933 13.1697C6.13947 13.1697 6.12961 13.1697 6.11975 13.1697C6.10989 13.1697 6.10003 13.1697 6.09017 13.1697C6.08031 13.1697 6.07045 13.1697 6.06058 13.1697C6.05072 13.1697 6.04086 13.1697 6.03099 13.1697C6.02113 13.1697 6.01126 13.1697 6.0014 13.1697C5.99153 13.1697 5.98167 13.1697 5.9718 13.1697C5.96194 13.1697 5.95207 13.1697 5.94221 13.1697C5.93234 13.1697 5.92247 13.1697 5.91261 13.1697C5.90274 13.1697 5.89288 13.1697 5.88301 13.1697C5.87314 13.1697 5.86327 13.1697 5.85341 13.1697C5.84354 13.1697 5.83367 13.1697 5.82381 13.1697C5.81394 13.1697 5.80407 13.1697 5.79421 13.1697C5.78434 13.1697 5.77447 13.1697 5.76461 13.1697C5.75474 13.1697 5.74487 13.1697 5.73501 13.1697C5.72514 13.1697 5.71527 13.1697 5.70541 13.1697C5.69554 13.1697 5.68568 13.1697 5.67581 13.1697C5.66595 13.1697 5.65608 13.1697 5.64622 13.1697C5.63635 13.1697 5.62649 13.1697 5.61663 13.1697C5.60676 13.1697 5.5969 13.1697 5.58704 13.1697C5.57718 13.1697 5.56732 13.1697 5.55745 13.1697C5.54759 13.1697 5.53773 13.1697 5.52787 13.1697C5.51801 13.1697 5.50816 13.1697 5.4983 13.1697C5.48844 13.1697 5.47858 13.1697 5.46873 13.1697C5.45887 13.1697 5.44901 13.1697 5.43916 13.1697C5.4293 13.1697 5.41945 13.1697 5.4096 13.1697C5.39975 13.1697 5.38989 13.1697 5.38004 13.1697C5.37019 13.1697 5.36034 13.1697 5.35049 13.1697C5.34065 13.1697 5.3308 13.1697 5.32095 13.1697C5.31111 13.1697 5.30126 13.1697 5.29142 13.1697C5.28157 13.1697 5.27173 13.1697 5.26189 13.1697C5.25205 13.1697 5.24221 13.1697 5.23237 13.1697C5.22253 13.1697 5.2127 13.1697 5.20286 13.1697C5.19303 13.1697 5.18319 13.1697 5.17336 13.1697C5.16353 13.1697 5.1537 13.1697 5.14387 13.1697C5.13404 13.1697 5.12421 13.1697 5.11439 13.1697C5.10456 13.1697 5.09474 13.1697 5.08491 13.1697C5.07509 13.1697 5.06527 13.1697 5.05545 13.1697C5.04563 13.1697 5.03582 13.1697 5.026 13.1697C5.01619 13.1697 5.00637 13.1697 4.99656 13.1697C4.98675 13.1697 4.97694 13.1697 4.96713 13.1697C4.95733 13.1697 4.94752 13.1697 4.93772 13.1697C4.92791 13.1697 4.91811 13.1697 4.90831 13.1697C4.89852 13.1697 4.88872 13.1697 4.87893 13.1697C4.86913 13.1697 4.85934 13.1697 4.84955 13.1697C4.83976 13.1697 4.82997 13.1697 4.82019 13.1697C4.8104 13.1697 4.80062 13.1697 4.79084 13.1697C4.78106 13.1697 4.77128 13.1697 4.76151 13.1697C4.75173 13.1697 4.74196 13.1697 4.73219 13.1697C4.72242 13.1697 4.71265 13.1697 4.70288 13.1697C4.69312 13.1697 4.68336 13.1697 4.6736 13.1697C4.66384 13.1697 4.65408 13.1697 4.64433 13.1697C4.63457 13.1697 4.62482 13.1697 4.61508 13.1697C4.60533 13.1697 4.59558 13.1697 4.58584 13.1697C4.5761 13.1697 4.56636 13.1697 4.55662 13.1697C4.54688 13.1697 4.53715 13.1697 4.52742 13.1697C4.51769 13.1697 4.50796 13.1697 4.49824 13.1697C4.48851 13.1697 4.47879 13.1697 4.46908 13.1697C4.45936 13.1697 4.44964 13.1697 4.43993 13.1697C4.43022 13.1697 4.42051 13.1697 4.41081 13.1697C4.4011 13.1697 4.3914 13.1697 4.3817 13.1697C4.37201 13.1697 4.36231 13.1697 4.35262 13.1697C4.34293 13.1697 4.33324 13.1697 4.32356 13.1697C4.31388 13.1697 4.3042 13.1697 4.29452 13.1697C4.28484 13.1697 4.27517 13.1697 4.2655 13.1697C4.25583 13.1697 4.24617 13.1697 4.2365 13.1697C4.22684 13.1697 4.21718 13.1697 4.20753 13.1697C4.19788 13.1697 4.18822 13.1697 4.17858 13.1697C4.16893 13.1697 4.15929 13.1697 4.14965 13.1697C4.14001 13.1697 4.13038 13.1697 4.12075 13.1697C4.11112 13.1697 4.10149 13.1697 4.09187 13.1697C4.08225 13.1697 4.07263 13.1697 4.06301 13.1697C4.0534 13.1697 4.04379 13.1697 4.03419 13.1697C4.02458 13.1697 4.01498 13.1697 4.00538 13.1697C3.99578 13.1697 3.98619 13.1697 3.9766 13.1697C3.96702 13.1697 3.95743 13.1697 3.94785 13.1697C3.93827 13.1697 3.9287 13.1697 3.91913 13.1697C3.90956 13.1697 3.89999 13.1697 3.89043 13.1697C3.88087 13.1697 3.87131 13.1697 3.86176 13.1697C3.85221 13.1697 3.84266 13.1697 3.83312 13.1697C3.82358 13.1697 3.81404 13.1697 3.80451 13.1697C3.79497 13.1697 3.78545 13.1697 3.77592 13.1697C3.7664 13.1697 3.75688 13.1697 3.74737 13.1697C3.73786 13.1697 3.72835 13.1697 3.71884 13.1697C3.70934 13.1697 3.69984 13.1697 3.69035 13.1697C3.68086 13.1697 3.67137 13.1697 3.66189 13.1697C3.6524 13.1697 3.64293 13.1697 3.63345 13.1697C3.62398 13.1697 3.61451 13.1697 3.60505 13.1697C3.59559 13.1697 3.58613 13.1697 3.57668 13.1697C3.56723 13.1697 3.55778 13.1697 3.54834 13.1697C3.5389 13.1697 3.52947 13.1697 3.52004 13.1697C3.51061 13.1697 3.50119 13.1697 3.49177 13.1697C3.48235 13.1697 3.47294 13.1697 3.46353 13.1697C3.45412 13.1697 3.44472 13.1697 3.43533 13.1697C3.42593 13.1697 3.41654 13.1697 3.40716 13.1697C3.39777 13.1697 3.38839 13.1697 3.37902 13.1697C3.36965 13.1697 3.36028 13.1697 3.35092 13.1697C3.34156 13.1697 3.3322 13.1697 3.32286 13.1697C3.31351 13.1697 3.30416 13.1697 3.29483 13.1697C3.28549 13.1697 3.27616 13.1697 3.26684 13.1697C3.25751 13.1697 3.24819 13.1697 3.23888 13.1697C3.22957 13.1697 3.22026 13.1697 3.21096 13.1697C3.20166 13.1697 3.19237 13.1697 3.18308 13.1697C3.1738 13.1697 3.16451 13.1697 3.15524 13.1697C3.14597 13.1697 3.1367 13.1697 3.12744 13.1697C3.11818 13.1697 3.10892 13.1697 3.09967 13.1697C3.09042 13.1697 3.08118 13.1697 3.07195 13.1697C3.06271 13.1697 3.05348 13.1697 3.04426 13.1697C3.03504 13.1697 3.02582 13.1697 3.01662 13.1697C3.00741 13.1697 2.99821 13.1697 2.98901 13.1697C2.97982 13.1697 2.97063 13.1697 2.96145 13.1697C2.95227 13.1697 2.94309 13.1697 2.93393 13.1697C2.92476 13.1697 2.9156 13.1697 2.90645 13.1697C2.89729 13.1697 2.88815 13.1697 2.87901 13.1697C2.86987 13.1697 2.86074 13.1697 2.85161 13.1697C2.84249 13.1697 2.83337 13.1697 2.82426 13.1697C2.81515 13.1697 2.80605 13.1697 2.79695 13.1697C2.78786 13.1697 2.77877 13.1697 2.76969 13.1697C2.76061 13.1697 2.75153 13.1697 2.74247 13.1697C2.7334 13.1697 2.72434 13.1697 2.71529 13.1697C2.70624 13.1697 2.6972 13.1697 2.68816 13.1697C2.67912 13.1697 2.6701 13.1697 2.66108 13.1697C2.65205 13.1697 2.64304 13.1697 2.63404 13.1697C2.62503 13.1697 2.61603 13.1697 2.60704 13.1697C2.59805 13.1697 2.58907 13.1697 2.5801 13.1697C2.57112 13.1697 2.56216 13.1697 2.5532 13.1697C2.54424 13.1697 2.53529 13.1697 2.52635 13.1697C2.51741 13.1697 2.50847 13.1697 2.49955 13.1697C2.49062 13.1697 2.4817 13.1697 2.47279 13.1697C2.46388 13.1697 2.45498 13.1697 2.44609 13.1697C2.4372 13.1697 2.42831 13.1697 2.41943 13.1697C2.41056 13.1697 2.40169 13.1697 2.39283 13.1697C2.38397 13.1697 2.37512 13.1697 2.36627 13.1697C2.35743 13.1697 2.34859 13.1697 2.33977 13.1697C2.33094 13.1697 2.32212 13.1697 2.31331 13.1697C2.3045 13.1697 2.2957 13.1697 2.28691 13.1697C2.27812 13.1697 2.26934 13.1697 2.26056 13.1697C2.25179 13.1697 2.24302 13.1697 2.23426 13.1697C2.22551 13.1697 2.21676 13.1697 2.20802 13.1697C2.19928 13.1697 2.19055 13.1697 2.18182 13.1697C2.1731 13.1697 2.16439 13.1697 2.15569 13.1697C2.14698 13.1697 2.13829 13.1697 2.1296 13.1697C2.12091 13.1697 2.11224 13.1697 2.10357 13.1697C2.0949 13.1697 2.08624 13.1697 2.07759 13.1697C2.06894 13.1697 2.0603 13.1697 2.05167 13.1697C2.04304 13.1697 2.03442 13.1697 2.02581 13.1697C2.0172 13.1697 2.00859 13.1697 2 13.1697V16.1697C2.00859 16.1697 2.0172 16.1697 2.02581 16.1697C2.03442 16.1697 2.04304 16.1697 2.05167 16.1697C2.0603 16.1697 2.06894 16.1697 2.07759 16.1697C2.08624 16.1697 2.0949 16.1697 2.10357 16.1697C2.11224 16.1697 2.12091 16.1697 2.1296 16.1697C2.13829 16.1697 2.14698 16.1697 2.15569 16.1697C2.16439 16.1697 2.1731 16.1697 2.18182 16.1697C2.19055 16.1697 2.19928 16.1697 2.20802 16.1697C2.21676 16.1697 2.22551 16.1697 2.23426 16.1697C2.24302 16.1697 2.25179 16.1697 2.26056 16.1697C2.26934 16.1697 2.27812 16.1697 2.28691 16.1697C2.2957 16.1697 2.3045 16.1697 2.31331 16.1697C2.32212 16.1697 2.33094 16.1697 2.33977 16.1697C2.34859 16.1697 2.35743 16.1697 2.36627 16.1697C2.37512 16.1697 2.38397 16.1697 2.39283 16.1697C2.40169 16.1697 2.41056 16.1697 2.41943 16.1697C2.42831 16.1697 2.4372 16.1697 2.44609 16.1697C2.45498 16.1697 2.46388 16.1697 2.47279 16.1697C2.4817 16.1697 2.49062 16.1697 2.49955 16.1697C2.50847 16.1697 2.51741 16.1697 2.52635 16.1697C2.53529 16.1697 2.54424 16.1697 2.5532 16.1697C2.56216 16.1697 2.57112 16.1697 2.5801 16.1697C2.58907 16.1697 2.59805 16.1697 2.60704 16.1697C2.61603 16.1697 2.62503 16.1697 2.63404 16.1697C2.64304 16.1697 2.65205 16.1697 2.66108 16.1697C2.6701 16.1697 2.67912 16.1697 2.68816 16.1697C2.6972 16.1697 2.70624 16.1697 2.71529 16.1697C2.72434 16.1697 2.7334 16.1697 2.74247 16.1697C2.75153 16.1697 2.76061 16.1697 2.76969 16.1697C2.77877 16.1697 2.78786 16.1697 2.79695 16.1697C2.80605 16.1697 2.81515 16.1697 2.82426 16.1697C2.83337 16.1697 2.84249 16.1697 2.85161 16.1697C2.86074 16.1697 2.86987 16.1697 2.87901 16.1697C2.88815 16.1697 2.89729 16.1697 2.90645 16.1697C2.9156 16.1697 2.92476 16.1697 2.93393 16.1697C2.94309 16.1697 2.95227 16.1697 2.96145 16.1697C2.97063 16.1697 2.97982 16.1697 2.98901 16.1697C2.99821 16.1697 3.00741 16.1697 3.01662 16.1697C3.02582 16.1697 3.03504 16.1697 3.04426 16.1697C3.05348 16.1697 3.06271 16.1697 3.07195 16.1697C3.08118 16.1697 3.09042 16.1697 3.09967 16.1697C3.10892 16.1697 3.11818 16.1697 3.12744 16.1697C3.1367 16.1697 3.14597 16.1697 3.15524 16.1697C3.16451 16.1697 3.1738 16.1697 3.18308 16.1697C3.19237 16.1697 3.20166 16.1697 3.21096 16.1697C3.22026 16.1697 3.22957 16.1697 3.23888 16.1697C3.24819 16.1697 3.25751 16.1697 3.26684 16.1697C3.27616 16.1697 3.28549 16.1697 3.29483 16.1697C3.30416 16.1697 3.31351 16.1697 3.32286 16.1697C3.3322 16.1697 3.34156 16.1697 3.35092 16.1697C3.36028 16.1697 3.36965 16.1697 3.37902 16.1697C3.38839 16.1697 3.39777 16.1697 3.40716 16.1697C3.41654 16.1697 3.42593 16.1697 3.43533 16.1697C3.44472 16.1697 3.45412 16.1697 3.46353 16.1697C3.47294 16.1697 3.48235 16.1697 3.49177 16.1697C3.50119 16.1697 3.51061 16.1697 3.52004 16.1697C3.52947 16.1697 3.5389 16.1697 3.54834 16.1697C3.55778 16.1697 3.56723 16.1697 3.57668 16.1697C3.58613 16.1697 3.59559 16.1697 3.60505 16.1697C3.61451 16.1697 3.62398 16.1697 3.63345 16.1697C3.64293 16.1697 3.6524 16.1697 3.66189 16.1697C3.67137 16.1697 3.68086 16.1697 3.69035 16.1697C3.69984 16.1697 3.70934 16.1697 3.71884 16.1697C3.72835 16.1697 3.73786 16.1697 3.74737 16.1697C3.75688 16.1697 3.7664 16.1697 3.77592 16.1697C3.78545 16.1697 3.79497 16.1697 3.80451 16.1697C3.81404 16.1697 3.82358 16.1697 3.83312 16.1697C3.84266 16.1697 3.85221 16.1697 3.86176 16.1697C3.87131 16.1697 3.88087 16.1697 3.89043 16.1697C3.89999 16.1697 3.90956 16.1697 3.91913 16.1697C3.9287 16.1697 3.93827 16.1697 3.94785 16.1697C3.95743 16.1697 3.96702 16.1697 3.9766 16.1697C3.98619 16.1697 3.99578 16.1697 4.00538 16.1697C4.01498 16.1697 4.02458 16.1697 4.03419 16.1697C4.04379 16.1697 4.0534 16.1697 4.06301 16.1697C4.07263 16.1697 4.08225 16.1697 4.09187 16.1697C4.10149 16.1697 4.11112 16.1697 4.12075 16.1697C4.13038 16.1697 4.14001 16.1697 4.14965 16.1697C4.15929 16.1697 4.16893 16.1697 4.17858 16.1697C4.18822 16.1697 4.19788 16.1697 4.20753 16.1697C4.21718 16.1697 4.22684 16.1697 4.2365 16.1697C4.24617 16.1697 4.25583 16.1697 4.2655 16.1697C4.27517 16.1697 4.28484 16.1697 4.29452 16.1697C4.3042 16.1697 4.31388 16.1697 4.32356 16.1697C4.33324 16.1697 4.34293 16.1697 4.35262 16.1697C4.36231 16.1697 4.37201 16.1697 4.3817 16.1697C4.3914 16.1697 4.4011 16.1697 4.41081 16.1697C4.42051 16.1697 4.43022 16.1697 4.43993 16.1697C4.44964 16.1697 4.45936 16.1697 4.46908 16.1697C4.47879 16.1697 4.48851 16.1697 4.49824 16.1697C4.50796 16.1697 4.51769 16.1697 4.52742 16.1697C4.53715 16.1697 4.54688 16.1697 4.55662 16.1697C4.56636 16.1697 4.5761 16.1697 4.58584 16.1697C4.59558 16.1697 4.60533 16.1697 4.61508 16.1697C4.62482 16.1697 4.63457 16.1697 4.64433 16.1697C4.65408 16.1697 4.66384 16.1697 4.6736 16.1697C4.68336 16.1697 4.69312 16.1697 4.70288 16.1697C4.71265 16.1697 4.72242 16.1697 4.73219 16.1697C4.74196 16.1697 4.75173 16.1697 4.76151 16.1697C4.77128 16.1697 4.78106 16.1697 4.79084 16.1697C4.80062 16.1697 4.8104 16.1697 4.82019 16.1697C4.82997 16.1697 4.83976 16.1697 4.84955 16.1697C4.85934 16.1697 4.86913 16.1697 4.87893 16.1697C4.88872 16.1697 4.89852 16.1697 4.90831 16.1697C4.91811 16.1697 4.92791 16.1697 4.93772 16.1697C4.94752 16.1697 4.95733 16.1697 4.96713 16.1697C4.97694 16.1697 4.98675 16.1697 4.99656 16.1697C5.00637 16.1697 5.01619 16.1697 5.026 16.1697C5.03582 16.1697 5.04563 16.1697 5.05545 16.1697C5.06527 16.1697 5.07509 16.1697 5.08491 16.1697C5.09474 16.1697 5.10456 16.1697 5.11439 16.1697C5.12421 16.1697 5.13404 16.1697 5.14387 16.1697C5.1537 16.1697 5.16353 16.1697 5.17336 16.1697C5.18319 16.1697 5.19303 16.1697 5.20286 16.1697C5.2127 16.1697 5.22253 16.1697 5.23237 16.1697C5.24221 16.1697 5.25205 16.1697 5.26189 16.1697C5.27173 16.1697 5.28157 16.1697 5.29142 16.1697C5.30126 16.1697 5.31111 16.1697 5.32095 16.1697C5.3308 16.1697 5.34065 16.1697 5.35049 16.1697C5.36034 16.1697 5.37019 16.1697 5.38004 16.1697C5.38989 16.1697 5.39975 16.1697 5.4096 16.1697C5.41945 16.1697 5.4293 16.1697 5.43916 16.1697C5.44901 16.1697 5.45887 16.1697 5.46873 16.1697C5.47858 16.1697 5.48844 16.1697 5.4983 16.1697C5.50816 16.1697 5.51801 16.1697 5.52787 16.1697C5.53773 16.1697 5.54759 16.1697 5.55745 16.1697C5.56732 16.1697 5.57718 16.1697 5.58704 16.1697C5.5969 16.1697 5.60676 16.1697 5.61663 16.1697C5.62649 16.1697 5.63635 16.1697 5.64622 16.1697C5.65608 16.1697 5.66595 16.1697 5.67581 16.1697C5.68568 16.1697 5.69554 16.1697 5.70541 16.1697C5.71527 16.1697 5.72514 16.1697 5.73501 16.1697C5.74487 16.1697 5.75474 16.1697 5.76461 16.1697C5.77447 16.1697 5.78434 16.1697 5.79421 16.1697C5.80407 16.1697 5.81394 16.1697 5.82381 16.1697C5.83367 16.1697 5.84354 16.1697 5.85341 16.1697C5.86327 16.1697 5.87314 16.1697 5.88301 16.1697C5.89288 16.1697 5.90274 16.1697 5.91261 16.1697C5.92247 16.1697 5.93234 16.1697 5.94221 16.1697C5.95207 16.1697 5.96194 16.1697 5.9718 16.1697C5.98167 16.1697 5.99153 16.1697 6.0014 16.1697C6.01126 16.1697 6.02113 16.1697 6.03099 16.1697C6.04086 16.1697 6.05072 16.1697 6.06058 16.1697C6.07045 16.1697 6.08031 16.1697 6.09017 16.1697C6.10003 16.1697 6.10989 16.1697 6.11975 16.1697C6.12961 16.1697 6.13947 16.1697 6.14933 16.1697C6.15919 16.1697 6.16905 16.1697 6.17891 16.1697C6.18876 16.1697 6.19862 16.1697 6.20848 16.1697C6.21833 16.1697 6.22819 16.1697 6.23804 16.1697C6.2479 16.1697 6.25775 16.1697 6.2676 16.1697C6.27745 16.1697 6.2873 16.1697 6.29715 16.1697C6.307 16.1697 6.31685 16.1697 6.3267 16.1697C6.33655 16.1697 6.34639 16.1697 6.35624 16.1697C6.36608 16.1697 6.37593 16.1697 6.38577 16.1697C6.39561 16.1697 6.40546 16.1697 6.4153 16.1697C6.42514 16.1697 6.43497 16.1697 6.44481 16.1697C6.45465 16.1697 6.46448 16.1697 6.47432 16.1697C6.48415 16.1697 6.49399 16.1697 6.50382 16.1697C6.51365 16.1697 6.52348 16.1697 6.53331 16.1697C6.54313 16.1697 6.55296 16.1697 6.56278 16.1697C6.57261 16.1697 6.58243 16.1697 6.59225 16.1697C6.60207 16.1697 6.61189 16.1697 6.62171 16.1697C6.63153 16.1697 6.64134 16.1697 6.65116 16.1697C6.66097 16.1697 6.67078 16.1697 6.68059 16.1697C6.6904 16.1697 6.70021 16.1697 6.71002 16.1697C6.71982 16.1697 6.72963 16.1697 6.73943 16.1697C6.74923 16.1697 6.75903 16.1697 6.76883 16.1697C6.77862 16.1697 6.78842 16.1697 6.79821 16.1697C6.808 16.1697 6.81779 16.1697 6.82758 16.1697C6.83737 16.1697 6.84716 16.1697 6.85694 16.1697C6.86672 16.1697 6.8765 16.1697 6.88628 16.1697C6.89606 16.1697 6.90584 16.1697 6.91561 16.1697C6.92538 16.1697 6.93515 16.1697 6.94492 16.1697C6.95469 16.1697 6.96446 16.1697 6.97422 16.1697C6.98398 16.1697 6.99374 16.1697 7.0035 16.1697C7.01326 16.1697 7.02301 16.1697 7.03276 16.1697C7.04252 16.1697 7.05226 16.1697 7.06201 16.1697C7.07176 16.1697 7.0815 16.1697 7.09124 16.1697C7.10098 16.1697 7.11072 16.1697 7.12045 16.1697C7.13019 16.1697 7.13992 16.1697 7.14965 16.1697C7.15937 16.1697 7.1691 16.1697 7.17882 16.1697C7.18854 16.1697 7.19826 16.1697 7.20798 16.1697C7.21769 16.1697 7.2274 16.1697 7.23711 16.1697C7.24682 16.1697 7.25653 16.1697 7.26623 16.1697C7.27593 16.1697 7.28563 16.1697 7.29533 16.1697C7.30502 16.1697 7.31471 16.1697 7.3244 16.1697C7.33409 16.1697 7.34378 16.1697 7.35346 16.1697C7.36314 16.1697 7.37282 16.1697 7.38249 16.1697C7.39216 16.1697 7.40183 16.1697 7.4115 16.1697C7.42117 16.1697 7.43083 16.1697 7.44049 16.1697C7.45015 16.1697 7.4598 16.1697 7.46945 16.1697C7.47911 16.1697 7.48875 16.1697 7.4984 16.1697C7.50804 16.1697 7.51768 16.1697 7.52732 16.1697C7.53695 16.1697 7.54658 16.1697 7.55621 16.1697C7.56584 16.1697 7.57546 16.1697 7.58508 16.1697C7.5947 16.1697 7.60432 16.1697 7.61393 16.1697C7.62354 16.1697 7.63314 16.1697 7.64275 16.1697C7.65235 16.1697 7.66195 16.1697 7.67154 16.1697C7.68113 16.1697 7.69072 16.1697 7.70031 16.1697C7.70989 16.1697 7.71947 16.1697 7.72905 16.1697C7.73863 16.1697 7.7482 16.1697 7.75776 16.1697C7.76733 16.1697 7.77689 16.1697 7.78645 16.1697C7.79601 16.1697 7.80556 16.1697 7.81511 16.1697C7.82466 16.1697 7.8342 16.1697 7.84374 16.1697C7.85328 16.1697 7.86282 16.1697 7.87234 16.1697C7.88187 16.1697 7.8914 16.1697 7.90092 16.1697C7.91044 16.1697 7.91995 16.1697 7.92946 16.1697C7.93897 16.1697 7.94848 16.1697 7.95798 16.1697C7.96748 16.1697 7.97697 16.1697 7.98646 16.1697C7.99595 16.1697 8.00543 16.1697 8.01491 16.1697C8.02439 16.1697 8.03387 16.1697 8.04333 16.1697C8.0528 16.1697 8.06227 16.1697 8.07172 16.1697C8.08118 16.1697 8.09064 16.1697 8.10008 16.1697C8.10953 16.1697 8.11897 16.1697 8.12841 16.1697C8.13785 16.1697 8.14728 16.1697 8.1567 16.1697C8.16613 16.1697 8.17555 16.1697 8.18496 16.1697C8.19438 16.1697 8.20378 16.1697 8.21319 16.1697C8.22259 16.1697 8.23199 16.1697 8.24138 16.1697C8.25077 16.1697 8.26016 16.1697 8.26954 16.1697C8.27892 16.1697 8.28829 16.1697 8.29766 16.1697C8.30703 16.1697 8.31639 16.1697 8.32575 16.1697C8.3351 16.1697 8.34445 16.1697 8.3538 16.1697C8.36314 16.1697 8.37248 16.1697 8.38181 16.1697C8.39115 16.1697 8.40047 16.1697 8.40979 16.1697C8.41911 16.1697 8.42843 16.1697 8.43773 16.1697C8.44704 16.1697 8.45634 16.1697 8.46564 16.1697C8.47493 16.1697 8.48422 16.1697 8.49351 16.1697C8.50279 16.1697 8.51206 16.1697 8.52133 16.1697C8.5306 16.1697 8.53987 16.1697 8.54912 16.1697C8.55838 16.1697 8.56763 16.1697 8.57687 16.1697C8.58612 16.1697 8.59535 16.1697 8.60458 16.1697C8.61381 16.1697 8.62304 16.1697 8.63226 16.1697C8.64147 16.1697 8.65068 16.1697 8.65989 16.1697C8.66909 16.1697 8.67829 16.1697 8.68748 16.1697C8.69667 16.1697 8.70585 16.1697 8.71502 16.1697C8.7242 16.1697 8.73337 16.1697 8.74253 16.1697C8.75169 16.1697 8.76085 16.1697 8.77 16.1697C8.77914 16.1697 8.78829 16.1697 8.79742 16.1697C8.80655 16.1697 8.81568 16.1697 8.8248 16.1697C8.83392 16.1697 8.84303 16.1697 8.85214 16.1697C8.86124 16.1697 8.87034 16.1697 8.87943 16.1697C8.88852 16.1697 8.8976 16.1697 8.90668 16.1697C8.91575 16.1697 8.92482 16.1697 8.93388 16.1697C8.94294 16.1697 8.952 16.1697 8.96104 16.1697C8.97009 16.1697 8.97913 16.1697 8.98816 16.1697C8.99719 16.1697 9.00621 16.1697 9.01522 16.1697C9.02424 16.1697 9.03325 16.1697 9.04225 16.1697C9.05125 16.1697 9.06024 16.1697 9.06922 16.1697C9.07821 16.1697 9.08718 16.1697 9.09615 16.1697C9.10512 16.1697 9.11408 16.1697 9.12303 16.1697C9.13198 16.1697 9.14093 16.1697 9.14986 16.1697C9.1588 16.1697 9.16773 16.1697 9.17665 16.1697C9.18557 16.1697 9.19448 16.1697 9.20339 16.1697C9.21229 16.1697 9.22119 16.1697 9.23007 16.1697C9.23896 16.1697 9.24784 16.1697 9.25671 16.1697C9.26558 16.1697 9.27444 16.1697 9.2833 16.1697C9.29215 16.1697 9.301 16.1697 9.30984 16.1697C9.31867 16.1697 9.3275 16.1697 9.33632 16.1697C9.34514 16.1697 9.35395 16.1697 9.36276 16.1697C9.37156 16.1697 9.38036 16.1697 9.38914 16.1697C9.39793 16.1697 9.4067 16.1697 9.41547 16.1697C9.42424 16.1697 9.433 16.1697 9.44175 16.1697C9.4505 16.1697 9.45925 16.1697 9.46798 16.1697C9.47671 16.1697 9.48544 16.1697 9.49415 16.1697C9.50287 16.1697 9.51157 16.1697 9.52027 16.1697C9.52897 16.1697 9.53766 16.1697 9.54634 16.1697C9.55502 16.1697 9.56369 16.1697 9.57235 16.1697C9.58101 16.1697 9.58966 16.1697 9.5983 16.1697C9.60695 16.1697 9.61558 16.1697 9.62421 16.1697C9.63283 16.1697 9.64144 16.1697 9.65005 16.1697C9.65866 16.1697 9.66725 16.1697 9.67584 16.1697C9.68443 16.1697 9.693 16.1697 9.70157 16.1697C9.71014 16.1697 9.7187 16.1697 9.72725 16.1697C9.73579 16.1697 9.74433 16.1697 9.75286 16.1697C9.76139 16.1697 9.76991 16.1697 9.77842 16.1697C9.78693 16.1697 9.79543 16.1697 9.80392 16.1697C9.81242 16.1697 9.8209 16.1697 9.82937 16.1697C9.83784 16.1697 9.8463 16.1697 9.85475 16.1697C9.8632 16.1697 9.87164 16.1697 9.88007 16.1697C9.88851 16.1697 9.89693 16.1697 9.90534 16.1697C9.91375 16.1697 9.92215 16.1697 9.93054 16.1697C9.93893 16.1697 9.94731 16.1697 9.95569 16.1697C9.96406 16.1697 9.97242 16.1697 9.98077 16.1697C9.98912 16.1697 9.99746 16.1697 10.0058 16.1697C10.0141 16.1697 10.0224 16.1697 10.0307 16.1697C10.0391 16.1697 10.0474 16.1697 10.0556 16.1697C10.0639 16.1697 10.0722 16.1697 10.0805 16.1697C10.0887 16.1697 10.097 16.1697 10.1052 16.1697C10.1135 16.1697 10.1217 16.1697 10.1299 16.1697C10.1382 16.1697 10.1464 16.1697 10.1546 16.1697C10.1628 16.1697 10.171 16.1697 10.1792 16.1697C10.1873 16.1697 10.1955 16.1697 10.2037 16.1697C10.2118 16.1697 10.22 16.1697 10.2281 16.1697C10.2363 16.1697 10.2444 16.1697 10.2525 16.1697C10.2606 16.1697 10.2687 16.1697 10.2768 16.1697C10.2849 16.1697 10.293 16.1697 10.3011 16.1697C10.3091 16.1697 10.3172 16.1697 10.3253 16.1697C10.3333 16.1697 10.3413 16.1697 10.3494 16.1697C10.3574 16.1697 10.3654 16.1697 10.3734 16.1697C10.3814 16.1697 10.3894 16.1697 10.3974 16.1697C10.4054 16.1697 10.4133 16.1697 10.4213 16.1697C10.4293 16.1697 10.4372 16.1697 10.4451 16.1697C10.4531 16.1697 10.461 16.1697 10.4689 16.1697C10.4768 16.1697 10.4847 16.1697 10.4926 16.1697C10.5005 16.1697 10.5084 16.1697 10.5162 16.1697C10.5241 16.1697 10.532 16.1697 10.5398 16.1697C10.5476 16.1697 10.5555 16.1697 10.5633 16.1697C10.5711 16.1697 10.5789 16.1697 10.5867 16.1697C10.5945 16.1697 10.6023 16.1697 10.61 16.1697C10.6178 16.1697 10.6256 16.1697 10.6333 16.1697C10.6411 16.1697 10.6488 16.1697 10.6565 16.1697C10.6642 16.1697 10.6719 16.1697 10.6796 16.1697C10.6873 16.1697 10.695 16.1697 10.7027 16.1697C10.7104 16.1697 10.718 16.1697 10.7257 16.1697C10.7333 16.1697 10.741 16.1697 10.7486 16.1697C10.7562 16.1697 10.7638 16.1697 10.7714 16.1697C10.779 16.1697 10.7866 16.1697 10.7942 16.1697C10.8017 16.1697 10.8093 16.1697 10.8168 16.1697C10.8244 16.1697 10.8319 16.1697 10.8394 16.1697C10.847 16.1697 10.8545 16.1697 10.862 16.1697C10.8694 16.1697 10.8769 16.1697 10.8844 16.1697C10.8919 16.1697 10.8993 16.1697 10.9068 16.1697C10.9142 16.1697 10.9216 16.1697 10.9291 16.1697C10.9365 16.1697 10.9439 16.1697 10.9513 16.1697C10.9587 16.1697 10.966 16.1697 10.9734 16.1697C10.9808 16.1697 10.9881 16.1697 10.9955 16.1697C11.0028 16.1697 11.0101 16.1697 11.0174 16.1697C11.0248 16.1697 11.0321 16.1697 11.0393 16.1697C11.0466 16.1697 11.0539 16.1697 11.0612 16.1697C11.0684 16.1697 11.0757 16.1697 11.0829 16.1697C11.0901 16.1697 11.0973 16.1697 11.1045 16.1697C11.1117 16.1697 11.1189 16.1697 11.1261 16.1697C11.1333 16.1697 11.1405 16.1697 11.1476 16.1697C11.1548 16.1697 11.1619 16.1697 11.169 16.1697C11.1761 16.1697 11.1832 16.1697 11.1903 16.1697C11.1974 16.1697 11.2045 16.1697 11.2116 16.1697C11.2186 16.1697 11.2257 16.1697 11.2327 16.1697C11.2398 16.1697 11.2468 16.1697 11.2538 16.1697C11.2608 16.1697 11.2678 16.1697 11.2748 16.1697C11.2818 16.1697 11.2887 16.1697 11.2957 16.1697C11.3027 16.1697 11.3096 16.1697 11.3165 16.1697C11.3234 16.1697 11.3304 16.1697 11.3372 16.1697C11.3441 16.1697 11.351 16.1697 11.3579 16.1697C11.3648 16.1697 11.3716 16.1697 11.3785 16.1697C11.3853 16.1697 11.3921 16.1697 11.3989 16.1697C11.4057 16.1697 11.4125 16.1697 11.4193 16.1697C11.4261 16.1697 11.4329 16.1697 11.4396 16.1697C11.4464 16.1697 11.4531 16.1697 11.4598 16.1697C11.4665 16.1697 11.4732 16.1697 11.4799 16.1697C11.4866 16.1697 11.4933 16.1697 11.5 16.1697C11.5066 16.1697 11.5133 16.1697 11.5199 16.1697C11.5265 16.1697 11.5332 16.1697 11.5398 16.1697C11.5464 16.1697 11.5529 16.1697 11.5595 16.1697C11.5661 16.1697 11.5726 16.1697 11.5792 16.1697C11.5857 16.1697 11.5923 16.1697 11.5988 16.1697C11.6053 16.1697 11.6118 16.1697 11.6183 16.1697C11.6247 16.1697 11.6312 16.1697 11.6377 16.1697C11.6441 16.1697 11.6505 16.1697 11.657 16.1697C11.6634 16.1697 11.6698 16.1697 11.6762 16.1697C11.6826 16.1697 11.6889 16.1697 11.6953 16.1697C11.7016 16.1697 11.708 16.1697 11.7143 16.1697C11.7206 16.1697 11.7269 16.1697 11.7332 16.1697C11.7395 16.1697 11.7458 16.1697 11.7521 16.1697C11.7583 16.1697 11.7646 16.1697 11.7708 16.1697C11.777 16.1697 11.7832 16.1697 11.7894 16.1697C11.7956 16.1697 11.8018 16.1697 11.808 16.1697C11.8142 16.1697 11.8203 16.1697 11.8264 16.1697C11.8326 16.1697 11.8387 16.1697 11.8448 16.1697C11.8509 16.1697 11.857 16.1697 11.8631 16.1697C11.8691 16.1697 11.8752 16.1697 11.8812 16.1697C11.8873 16.1697 11.8933 16.1697 11.8993 16.1697C11.9053 16.1697 11.9113 16.1697 11.9172 16.1697C11.9232 16.1697 11.9292 16.1697 11.9351 16.1697C11.941 16.1697 11.947 16.1697 11.9529 16.1697C11.9588 16.1697 11.9647 16.1697 11.9705 16.1697C11.9764 16.1697 11.9823 16.1697 11.9881 16.1697C11.9939 16.1697 11.9998 16.1697 12.0056 16.1697C12.0114 16.1697 12.0172 16.1697 12.0229 16.1697C12.0287 16.1697 12.0345 16.1697 12.0402 16.1697C12.0459 16.1697 12.0517 16.1697 12.0574 16.1697C12.0631 16.1697 12.0688 16.1697 12.0744 16.1697C12.0801 16.1697 12.0857 16.1697 12.0914 16.1697C12.097 16.1697 12.1026 16.1697 12.1082 16.1697C12.1138 16.1697 12.1194 16.1697 12.125 16.1697C12.1306 16.1697 12.1361 16.1697 12.1416 16.1697C12.1472 16.1697 12.1527 16.1697 12.1582 16.1697C12.1637 16.1697 12.1692 16.1697 12.1746 16.1697C12.1801 16.1697 12.1855 16.1697 12.1909 16.1697C12.1964 16.1697 12.2018 16.1697 12.2072 16.1697C12.2126 16.1697 12.2179 16.1697 12.2233 16.1697C12.2287 16.1697 12.234 16.1697 12.2393 16.1697C12.2446 16.1697 12.2499 16.1697 12.2552 16.1697C12.2605 16.1697 12.2658 16.1697 12.271 16.1697C12.2763 16.1697 12.2815 16.1697 12.2867 16.1697C12.2919 16.1697 12.2971 16.1697 12.3023 16.1697C12.3075 16.1697 12.3126 16.1697 12.3178 16.1697C12.3229 16.1697 12.3281 16.1697 12.3332 16.1697C12.3383 16.1697 12.3434 16.1697 12.3484 16.1697C12.3535 16.1697 12.3585 16.1697 12.3636 16.1697C12.3686 16.1697 12.3736 16.1697 12.3786 16.1697C12.3836 16.1697 12.3886 16.1697 12.3935 16.1697C12.3985 16.1697 12.4034 16.1697 12.4084 16.1697C12.4133 16.1697 12.4182 16.1697 12.4231 16.1697C12.428 16.1697 12.4328 16.1697 12.4377 16.1697C12.4425 16.1697 12.4473 16.1697 12.4522 16.1697C12.457 16.1697 12.4618 16.1697 12.4665 16.1697C12.4713 16.1697 12.476 16.1697 12.4808 16.1697C12.4855 16.1697 12.4902 16.1697 12.4949 16.1697C12.4996 16.1697 12.5043 16.1697 12.509 16.1697C12.5136 16.1697 12.5183 16.1697 12.5229 16.1697C12.5275 16.1697 12.5321 16.1697 12.5367 16.1697C12.5413 16.1697 12.5458 16.1697 12.5504 16.1697C12.5549 16.1697 12.5594 16.1697 12.5639 16.1697C12.5684 16.1697 12.5729 16.1697 12.5774 16.1697C12.5819 16.1697 12.5863 16.1697 12.5907 16.1697C12.5952 16.1697 12.5996 16.1697 12.604 16.1697C12.6084 16.1697 12.6127 16.1697 12.6171 16.1697C12.6214 16.1697 12.6257 16.1697 12.6301 16.1697C12.6344 16.1697 12.6387 16.1697 12.6429 16.1697C12.6472 16.1697 12.6515 16.1697 12.6557 16.1697C12.6599 16.1697 12.6641 16.1697 12.6683 16.1697C12.6725 16.1697 12.6767 16.1697 12.6808 16.1697C12.685 16.1697 12.6891 16.1697 12.6932 16.1697C12.6973 16.1697 12.7014 16.1697 12.7055 16.1697C12.7096 16.1697 12.7136 16.1697 12.7177 16.1697C12.7217 16.1697 12.7257 16.1697 12.7297 16.1697C12.7337 16.1697 12.7377 16.1697 12.7416 16.1697C12.7456 16.1697 12.7495 16.1697 12.7534 16.1697C12.7573 16.1697 12.7612 16.1697 12.7651 16.1697C12.7689 16.1697 12.7728 16.1697 12.7766 16.1697C12.7804 16.1697 12.7842 16.1697 12.788 16.1697C12.7918 16.1697 12.7956 16.1697 12.7993 16.1697C12.8031 16.1697 12.8068 16.1697 12.8105 16.1697C12.8142 16.1697 12.8179 16.1697 12.8216 16.1697C12.8252 16.1697 12.8289 16.1697 12.8325 16.1697C12.8361 16.1697 12.8397 16.1697 12.8433 16.1697C12.8469 16.1697 12.8504 16.1697 12.854 16.1697C12.8575 16.1697 12.861 16.1697 12.8645 16.1697C12.868 16.1697 12.8715 16.1697 12.8749 16.1697C12.8784 16.1697 12.8818 16.1697 12.8852 16.1697C12.8887 16.1697 12.892 16.1697 12.8954 16.1697C12.8988 16.1697 12.9021 16.1697 12.9055 16.1697C12.9088 16.1697 12.9121 16.1697 12.9154 16.1697C12.9187 16.1697 12.9219 16.1697 12.9252 16.1697C12.9284 16.1697 12.9316 16.1697 12.9348 16.1697C12.938 16.1697 12.9412 16.1697 12.9443 16.1697C12.9475 16.1697 12.9506 16.1697 12.9537 16.1697C12.9569 16.1697 12.9599 16.1697 12.963 16.1697C12.9661 16.1697 12.9691 16.1697 12.9722 16.1697C12.9752 16.1697 12.9782 16.1697 12.9812 16.1697C12.9841 16.1697 12.9871 16.1697 12.99 16.1697C12.993 16.1697 12.9959 16.1697 12.9988 16.1697C13.0017 16.1697 13.0045 16.1697 13.0074 16.1697C13.0102 16.1697 13.0131 16.1697 13.0159 16.1697C13.0187 16.1697 13.0215 16.1697 13.0242 16.1697C13.027 16.1697 13.0297 16.1697 13.0324 16.1697C13.0352 16.1697 13.0378 16.1697 13.0405 16.1697C13.0432 16.1697 13.0458 16.1697 13.0485 16.1697C13.0511 16.1697 13.0537 16.1697 13.0563 16.1697C13.0589 16.1697 13.0614 16.1697 13.064 16.1697C13.0665 16.1697 13.069 16.1697 13.0715 16.1697C13.074 16.1697 13.0765 16.1697 13.0789 16.1697C13.0813 16.1697 13.0838 16.1697 13.0862 16.1697C13.0886 16.1697 13.0909 16.1697 13.0933 16.1697C13.0957 16.1697 13.098 16.1697 13.1003 16.1697C13.1026 16.1697 13.1049 16.1697 13.1072 16.1697C13.1094 16.1697 13.1117 16.1697 13.1139 16.1697C13.1161 16.1697 13.1183 16.1697 13.1205 16.1697C13.1226 16.1697 13.1248 16.1697 13.1269 16.1697C13.129 16.1697 13.1311 16.1697 13.1332 16.1697C13.1353 16.1697 13.1373 16.1697 13.1394 16.1697C13.1414 16.1697 13.1434 16.1697 13.1454 16.1697C13.1474 16.1697 13.1493 16.1697 13.1513 16.1697C13.1532 16.1697 13.1551 16.1697 13.157 16.1697C13.1589 16.1697 13.1608 16.1697 13.1626 16.1697C13.1645 16.1697 13.1663 16.1697 13.1681 16.1697C13.1699 16.1697 13.1716 16.1697 13.1734 16.1697C13.1751 16.1697 13.1769 16.1697 13.1786 16.1697C13.1803 16.1697 13.1819 16.1697 13.1836 16.1697C13.1852 16.1697 13.1869 16.1697 13.1885 16.1697C13.1901 16.1697 13.1917 16.1697 13.1932 16.1697C13.1948 16.1697 13.1963 16.1697 13.1978 16.1697C13.1993 16.1697 13.2008 16.1697 13.2023 16.1697C13.2037 16.1697 13.2052 16.1697 13.2066 16.1697C13.208 16.1697 13.2094 16.1697 13.2107 16.1697C13.2121 16.1697 13.2135 16.1697 13.2148 16.1697C13.2161 16.1697 13.2174 16.1697 13.2186 16.1697C13.2199 16.1697 13.2211 16.1697 13.2224 16.1697C13.2236 16.1697 13.2248 16.1697 13.2259 16.1697C13.2271 16.1697 13.2283 16.1697 13.2294 16.1697C13.2305 16.1697 13.2316 16.1697 13.2327 16.1697C13.2337 16.1697 13.2348 16.1697 13.2358 16.1697C13.2368 16.1697 13.2378 16.1697 13.2388 16.1697C13.2397 16.1697 13.2407 16.1697 13.2416 16.1697C13.2425 16.1697 13.2434 16.1697 13.2443 16.1697C13.2452 16.1697 13.246 16.1697 13.2468 16.1697C13.2477 16.1697 13.2484 16.1697 13.2492 16.1697C13.25 16.1697 13.2507 16.1697 13.2515 16.1697C13.2522 16.1697 13.2529 16.1697 13.2535 16.1697C13.2542 16.1697 13.2549 16.1697 13.2555 16.1697C13.2561 16.1697 13.2567 16.1697 13.2573 16.1697C13.2578 16.1697 13.2584 16.1697 13.2589 16.1697C13.2594 16.1697 13.2599 16.1697 13.2604 16.1697C13.2608 16.1697 13.2613 16.1697 13.2617 16.1697C13.2621 16.1697 13.2625 16.1697 13.2628 16.1697C13.2632 16.1697 13.2635 16.1697 13.2639 16.1697C13.2642 16.1697 13.2645 16.1697 13.2647 16.1697C13.265 16.1697 13.2652 16.1697 13.2654 16.1697C13.2656 16.1697 13.2658 16.1697 13.266 16.1697C13.2661 16.1697 13.2662 16.1697 13.2664 16.1697C13.2665 16.1697 13.2665 16.1697 13.2666 16.1697C13.2666 16.1697 13.2667 16.1697 13.2667 14.6697ZM2 12.5498C2.00683 12.5498 2.01366 12.5498 2.02049 12.5498C2.02732 12.5498 2.03415 12.5498 2.04097 12.5498C2.0478 12.5498 2.05462 12.5498 2.06144 12.5498C2.06826 12.5498 2.07508 12.5498 2.08189 12.5498C2.08871 12.5498 2.09552 12.5498 2.10233 12.5498C2.10914 12.5498 2.11595 12.5498 2.12276 12.5498C2.12956 12.5498 2.13637 12.5498 2.14317 12.5498C2.14997 12.5498 2.15677 12.5498 2.16357 12.5498C2.17037 12.5498 2.17716 12.5498 2.18396 12.5498C2.19075 12.5498 2.19754 12.5498 2.20433 12.5498C2.21112 12.5498 2.2179 12.5498 2.22469 12.5498C2.23147 12.5498 2.23826 12.5498 2.24504 12.5498C2.25182 12.5498 2.25859 12.5498 2.26537 12.5498C2.27214 12.5498 2.27892 12.5498 2.28569 12.5498C2.29246 12.5498 2.29923 12.5498 2.30599 12.5498C2.31276 12.5498 2.31952 12.5498 2.32628 12.5498C2.33305 12.5498 2.33981 12.5498 2.34656 12.5498C2.35332 12.5498 2.36008 12.5498 2.36683 12.5498C2.37358 12.5498 2.38033 12.5498 2.38708 12.5498C2.39383 12.5498 2.40057 12.5498 2.40732 12.5498C2.41406 12.5498 2.4208 12.5498 2.42754 12.5498C2.43428 12.5498 2.44102 12.5498 2.44775 12.5498C2.45449 12.5498 2.46122 12.5498 2.46795 12.5498C2.47468 12.5498 2.48141 12.5498 2.48813 12.5498C2.49486 12.5498 2.50158 12.5498 2.5083 12.5498C2.51502 12.5498 2.52174 12.5498 2.52846 12.5498C2.53517 12.5498 2.54189 12.5498 2.5486 12.5498C2.55531 12.5498 2.56202 12.5498 2.56873 12.5498C2.57543 12.5498 2.58214 12.5498 2.58884 12.5498C2.59554 12.5498 2.60224 12.5498 2.60894 12.5498C2.61564 12.5498 2.62233 12.5498 2.62903 12.5498C2.63572 12.5498 2.64241 12.5498 2.6491 12.5498C2.65579 12.5498 2.66248 12.5498 2.66916 12.5498C2.67584 12.5498 2.68253 12.5498 2.6892 12.5498C2.69588 12.5498 2.70256 12.5498 2.70924 12.5498C2.71591 12.5498 2.72258 12.5498 2.72925 12.5498C2.73592 12.5498 2.74259 12.5498 2.74925 12.5498C2.75592 12.5498 2.76258 12.5498 2.76924 12.5498C2.7759 12.5498 2.78256 12.5498 2.78922 12.5498C2.79587 12.5498 2.80253 12.5498 2.80918 12.5498C2.81583 12.5498 2.82248 12.5498 2.82913 12.5498C2.83577 12.5498 2.84242 12.5498 2.84906 12.5498C2.8557 12.5498 2.86234 12.5498 2.86898 12.5498C2.87561 12.5498 2.88225 12.5498 2.88888 12.5498C2.89551 12.5498 2.90214 12.5498 2.90877 12.5498C2.9154 12.5498 2.92202 12.5498 2.92865 12.5498C2.93527 12.5498 2.94189 12.5498 2.94851 12.5498C2.95513 12.5498 2.96174 12.5498 2.96836 12.5498C2.97497 12.5498 2.98158 12.5498 2.98819 12.5498C2.9948 12.5498 3.0014 12.5498 3.00801 12.5498C3.01461 12.5498 3.02121 12.5498 3.02781 12.5498C3.03441 12.5498 3.04101 12.5498 3.0476 12.5498C3.0542 12.5498 3.06079 12.5498 3.06738 12.5498C3.07397 12.5498 3.08056 12.5498 3.08714 12.5498C3.09373 12.5498 3.10031 12.5498 3.10689 12.5498C3.11347 12.5498 3.12005 12.5498 3.12662 12.5498C3.1332 12.5498 3.13977 12.5498 3.14634 12.5498C3.15291 12.5498 3.15948 12.5498 3.16604 12.5498C3.17261 12.5498 3.17917 12.5498 3.18573 12.5498C3.19229 12.5498 3.19885 12.5498 3.20541 12.5498C3.21196 12.5498 3.21852 12.5498 3.22507 12.5498C3.23162 12.5498 3.23817 12.5498 3.24471 12.5498C3.25126 12.5498 3.2578 12.5498 3.26434 12.5498C3.27089 12.5498 3.27742 12.5498 3.28396 12.5498C3.2905 12.5498 3.29703 12.5498 3.30356 12.5498C3.31009 12.5498 3.31662 12.5498 3.32315 12.5498C3.32968 12.5498 3.3362 12.5498 3.34272 12.5498C3.34924 12.5498 3.35576 12.5498 3.36228 12.5498C3.3688 12.5498 3.37531 12.5498 3.38182 12.5498C3.38834 12.5498 3.39485 12.5498 3.40135 12.5498C3.40786 12.5498 3.41436 12.5498 3.42087 12.5498C3.42737 12.5498 3.43387 12.5498 3.44037 12.5498C3.44686 12.5498 3.45336 12.5498 3.45985 12.5498C3.46634 12.5498 3.47283 12.5498 3.47932 12.5498C3.48581 12.5498 3.49229 12.5498 3.49877 12.5498C3.50526 12.5498 3.51174 12.5498 3.51821 12.5498C3.52469 12.5498 3.53117 12.5498 3.53764 12.5498C3.54411 12.5498 3.55058 12.5498 3.55705 12.5498C3.56351 12.5498 3.56998 12.5498 3.57644 12.5498C3.5829 12.5498 3.58936 12.5498 3.59582 12.5498C3.60228 12.5498 3.60873 12.5498 3.61519 12.5498C3.62164 12.5498 3.62809 12.5498 3.63454 12.5498C3.64098 12.5498 3.64743 12.5498 3.65387 12.5498C3.66031 12.5498 3.66675 12.5498 3.67319 12.5498C3.67963 12.5498 3.68606 12.5498 3.6925 12.5498C3.69893 12.5498 3.70536 12.5498 3.71179 12.5498C3.71821 12.5498 3.72464 12.5498 3.73106 12.5498C3.73748 12.5498 3.7439 12.5498 3.75032 12.5498C3.75674 12.5498 3.76315 12.5498 3.76957 12.5498C3.77598 12.5498 3.78239 12.5498 3.78879 12.5498C3.7952 12.5498 3.80161 12.5498 3.80801 12.5498C3.81441 12.5498 3.82081 12.5498 3.82721 12.5498C3.8336 12.5498 3.84 12.5498 3.84639 12.5498C3.85278 12.5498 3.85917 12.5498 3.86556 12.5498C3.87195 12.5498 3.87833 12.5498 3.88471 12.5498C3.89109 12.5498 3.89747 12.5498 3.90385 12.5498C3.91023 12.5498 3.9166 12.5498 3.92297 12.5498C3.92934 12.5498 3.93571 12.5498 3.94208 12.5498C3.94845 12.5498 3.95481 12.5498 3.96117 12.5498C3.96753 12.5498 3.97389 12.5498 3.98025 12.5498C3.9866 12.5498 3.99296 12.5498 3.99931 12.5498C4.00566 12.5498 4.01201 12.5498 4.01835 12.5498C4.0247 12.5498 4.03104 12.5498 4.03738 12.5498C4.04372 12.5498 4.05006 12.5498 4.0564 12.5498C4.06273 12.5498 4.06907 12.5498 4.0754 12.5498C4.08173 12.5498 4.08805 12.5498 4.09438 12.5498C4.1007 12.5498 4.10703 12.5498 4.11335 12.5498C4.11967 12.5498 4.12598 12.5498 4.1323 12.5498C4.13861 12.5498 4.14493 12.5498 4.15124 12.5498C4.15755 12.5498 4.16385 12.5498 4.17016 12.5498C4.17646 12.5498 4.18276 12.5498 4.18906 12.5498C4.19536 12.5498 4.20166 12.5498 4.20795 12.5498C4.21425 12.5498 4.22054 12.5498 4.22683 12.5498C4.23311 12.5498 4.2394 12.5498 4.24568 12.5498C4.25197 12.5498 4.25825 12.5498 4.26453 12.5498C4.2708 12.5498 4.27708 12.5498 4.28335 12.5498C4.28963 12.5498 4.2959 12.5498 4.30216 12.5498C4.30843 12.5498 4.3147 12.5498 4.32096 12.5498C4.32722 12.5498 4.33348 12.5498 4.33974 12.5498C4.346 12.5498 4.35225 12.5498 4.3585 12.5498C4.36475 12.5498 4.371 12.5498 4.37725 12.5498C4.3835 12.5498 4.38974 12.5498 4.39598 12.5498C4.40222 12.5498 4.40846 12.5498 4.4147 12.5498C4.42093 12.5498 4.42717 12.5498 4.4334 12.5498C4.43963 12.5498 4.44586 12.5498 4.45208 12.5498C4.45831 12.5498 4.46453 12.5498 4.47075 12.5498C4.47697 12.5498 4.48319 12.5498 4.4894 12.5498C4.49562 12.5498 4.50183 12.5498 4.50804 12.5498C4.51425 12.5498 4.52045 12.5498 4.52666 12.5498C4.53286 12.5498 4.53906 12.5498 4.54526 12.5498C4.55146 12.5498 4.55765 12.5498 4.56385 12.5498C4.57004 12.5498 4.57623 12.5498 4.58242 12.5498C4.58861 12.5498 4.59479 12.5498 4.60097 12.5498C4.60716 12.5498 4.61334 12.5498 4.61951 12.5498C4.62569 12.5498 4.63187 12.5498 4.63804 12.5498C4.64421 12.5498 4.65038 12.5498 4.65654 12.5498C4.66271 12.5498 4.66887 12.5498 4.67503 12.5498C4.6812 12.5498 4.68735 12.5498 4.69351 12.5498C4.69966 12.5498 4.70582 12.5498 4.71197 12.5498C4.71812 12.5498 4.72426 12.5498 4.73041 12.5498C4.73655 12.5498 4.7427 12.5498 4.74883 12.5498C4.75497 12.5498 4.76111 12.5498 4.76724 12.5498C4.77338 12.5498 4.77951 12.5498 4.78564 12.5498C4.79177 12.5498 4.79789 12.5498 4.80401 12.5498C4.81014 12.5498 4.81626 12.5498 4.82237 12.5498C4.82849 12.5498 4.83461 12.5498 4.84072 12.5498C4.84683 12.5498 4.85294 12.5498 4.85904 12.5498C4.86515 12.5498 4.87125 12.5498 4.87736 12.5498C4.88346 12.5498 4.88955 12.5498 4.89565 12.5498C4.90174 12.5498 4.90784 12.5498 4.91393 12.5498C4.92002 12.5498 4.9261 12.5498 4.93219 12.5498C4.93827 12.5498 4.94435 12.5498 4.95043 12.5498C4.95651 12.5498 4.96259 12.5498 4.96866 12.5498C4.97473 12.5498 4.9808 12.5498 4.98687 12.5498C4.99294 12.5498 4.99901 12.5498 5.00507 12.5498C5.01113 12.5498 5.01719 12.5498 5.02325 12.5498C5.0293 12.5498 5.03536 12.5498 5.04141 12.5498C5.04746 12.5498 5.05351 12.5498 5.05955 12.5498C5.0656 12.5498 5.07164 12.5498 5.07768 12.5498C5.08372 12.5498 5.08976 12.5498 5.09579 12.5498C5.10183 12.5498 5.10786 12.5498 5.11389 12.5498C5.11991 12.5498 5.12594 12.5498 5.13196 12.5498C5.13799 12.5498 5.14401 12.5498 5.15002 12.5498C5.15604 12.5498 5.16206 12.5498 5.16807 12.5498C5.17408 12.5498 5.18009 12.5498 5.1861 12.5498C5.1921 12.5498 5.19811 12.5498 5.20411 12.5498C5.21011 12.5498 5.21611 12.5498 5.2221 12.5498C5.2281 12.5498 5.23409 12.5498 5.24008 12.5498C5.24607 12.5498 5.25205 12.5498 5.25804 12.5498C5.26402 12.5498 5.27 12.5498 5.27598 12.5498C5.28196 12.5498 5.28793 12.5498 5.29391 12.5498C5.29988 12.5498 5.30585 12.5498 5.31181 12.5498C5.31778 12.5498 5.32374 12.5498 5.32971 12.5498C5.33567 12.5498 5.34162 12.5498 5.34758 12.5498C5.35354 12.5498 5.35949 12.5498 5.36544 12.5498C5.37139 12.5498 5.37733 12.5498 5.38328 12.5498C5.38922 12.5498 5.39516 12.5498 5.4011 12.5498C5.40704 12.5498 5.41298 12.5498 5.41891 12.5498C5.42484 12.5498 5.43077 12.5498 5.4367 12.5498C5.44262 12.5498 5.44855 12.5498 5.45447 12.5498C5.46039 12.5498 5.46631 12.5498 5.47222 12.5498C5.47814 12.5498 5.48405 12.5498 5.48996 12.5498C5.49587 12.5498 5.50178 12.5498 5.50768 12.5498C5.51359 12.5498 5.51949 12.5498 5.52538 12.5498C5.53128 12.5498 5.53718 12.5498 5.54307 12.5498C5.54896 12.5498 5.55485 12.5498 5.56074 12.5498C5.56662 12.5498 5.57251 12.5498 5.57839 12.5498C5.58427 12.5498 5.59015 12.5498 5.59602 12.5498C5.6019 12.5498 5.60777 12.5498 5.61364 12.5498C5.61951 12.5498 5.62537 12.5498 5.63124 12.5498C5.6371 12.5498 5.64296 12.5498 5.64882 12.5498C5.65468 12.5498 5.66053 12.5498 5.66638 12.5498C5.67224 12.5498 5.67808 12.5498 5.68393 12.5498C5.68978 12.5498 5.69562 12.5498 5.70146 12.5498C5.7073 12.5498 5.71314 12.5498 5.71897 12.5498C5.7248 12.5498 5.73064 12.5498 5.73646 12.5498C5.74229 12.5498 5.74812 12.5498 5.75394 12.5498C5.75976 12.5498 5.76558 12.5498 5.7714 12.5498C5.77722 12.5498 5.78303 12.5498 5.78884 12.5498C5.79465 12.5498 5.80046 12.5498 5.80626 12.5498C5.81207 12.5498 5.81787 12.5498 5.82367 12.5498C5.82947 12.5498 5.83527 12.5498 5.84106 12.5498C5.84685 12.5498 5.85264 12.5498 5.85843 12.5498C5.86422 12.5498 5.87 12.5498 5.87578 12.5498C5.88156 12.5498 5.88734 12.5498 5.89312 12.5498C5.89889 12.5498 5.90466 12.5498 5.91043 12.5498C5.9162 12.5498 5.92197 12.5498 5.92773 12.5498C5.9335 12.5498 5.93926 12.5498 5.94502 12.5498C5.95077 12.5498 5.95653 12.5498 5.96228 12.5498C5.96803 12.5498 5.97378 12.5498 5.97953 12.5498C5.98527 12.5498 5.99101 12.5498 5.99675 12.5498C6.00249 12.5498 6.00823 12.5498 6.01396 12.5498C6.0197 12.5498 6.02543 12.5498 6.03116 12.5498C6.03688 12.5498 6.04261 12.5498 6.04833 12.5498C6.05405 12.5498 6.05977 12.5498 6.06549 12.5498C6.0712 12.5498 6.07692 12.5498 6.08263 12.5498C6.08834 12.5498 6.09404 12.5498 6.09975 12.5498C6.10545 12.5498 6.11115 12.5498 6.11685 12.5498C6.12255 12.5498 6.12824 12.5498 6.13393 12.5498C6.13962 12.5498 6.14531 12.5498 6.151 12.5498C6.15668 12.5498 6.16237 12.5498 6.16805 12.5498C6.17373 12.5498 6.1794 12.5498 6.18508 12.5498C6.19075 12.5498 6.19642 12.5498 6.20209 12.5498C6.20776 12.5498 6.21342 12.5498 6.21908 12.5498C6.22474 12.5498 6.2304 12.5498 6.23606 12.5498C6.24171 12.5498 6.24737 12.5498 6.25302 12.5498C6.25867 12.5498 6.26431 12.5498 6.26996 12.5498C6.2756 12.5498 6.28124 12.5498 6.28688 12.5498C6.29251 12.5498 6.29815 12.5498 6.30378 12.5498C6.30941 12.5498 6.31504 12.5498 6.32066 12.5498C6.32629 12.5498 6.33191 12.5498 6.33753 12.5498C6.34315 12.5498 6.34876 12.5498 6.35438 12.5498C6.35999 12.5498 6.3656 12.5498 6.37121 12.5498C6.37681 12.5498 6.38242 12.5498 6.38802 12.5498C6.39362 12.5498 6.39921 12.5498 6.40481 12.5498C6.4104 12.5498 6.41599 12.5498 6.42158 12.5498C6.42717 12.5498 6.43276 12.5498 6.43834 12.5498C6.44392 12.5498 6.4495 12.5498 6.45508 12.5498C6.46065 12.5498 6.46622 12.5498 6.47179 12.5498C6.47736 12.5498 6.48293 12.5498 6.48849 12.5498C6.49406 12.5498 6.49962 12.5498 6.50518 12.5498C6.51073 12.5498 6.51629 12.5498 6.52184 12.5498C6.52739 12.5498 6.53294 12.5498 6.53848 12.5498C6.54403 12.5498 6.54957 12.5498 6.55511 12.5498C6.56065 12.5498 6.56618 12.5498 6.57172 12.5498C6.57725 12.5498 6.58278 12.5498 6.5883 12.5498C6.59383 12.5498 6.59935 12.5498 6.60487 12.5498C6.61039 12.5498 6.61591 12.5498 6.62143 12.5498C6.62694 12.5498 6.63245 12.5498 6.63796 12.5498C6.64347 12.5498 6.64897 12.5498 6.65447 12.5498C6.65997 12.5498 6.66547 12.5498 6.67097 12.5498C6.67646 12.5498 6.68195 12.5498 6.68744 12.5498C6.69293 12.5498 6.69842 12.5498 6.7039 12.5498C6.70938 12.5498 6.71486 12.5498 6.72034 12.5498C6.72581 12.5498 6.73129 12.5498 6.73676 12.5498C6.74223 12.5498 6.74769 12.5498 6.75316 12.5498C6.75862 12.5498 6.76408 12.5498 6.76954 12.5498C6.775 12.5498 6.78045 12.5498 6.7859 12.5498C6.79135 12.5498 6.7968 12.5498 6.80225 12.5498C6.80769 12.5498 6.81313 12.5498 6.81857 12.5498C6.82401 12.5498 6.82945 12.5498 6.83488 12.5498C6.84031 12.5498 6.84574 12.5498 6.85117 12.5498C6.85659 12.5498 6.86201 12.5498 6.86743 12.5498C6.87285 12.5498 6.87827 12.5498 6.88368 12.5498C6.8891 12.5498 6.89451 12.5498 6.89991 12.5498C6.90532 12.5498 6.91072 12.5498 6.91612 12.5498C6.92152 12.5498 6.92692 12.5498 6.93231 12.5498C6.93771 12.5498 6.9431 12.5498 6.94849 12.5498C6.95387 12.5498 6.95926 12.5498 6.96464 12.5498C6.97002 12.5498 6.9754 12.5498 6.98077 12.5498C6.98615 12.5498 6.99152 12.5498 6.99689 12.5498C7.00226 12.5498 7.00762 12.5498 7.01298 12.5498C7.01835 12.5498 7.02371 12.5498 7.02906 12.5498C7.03442 12.5498 7.03977 12.5498 7.04512 12.5498C7.05047 12.5498 7.05581 12.5498 7.06116 12.5498C7.0665 12.5498 7.07184 12.5498 7.07717 12.5498C7.08251 12.5498 7.08784 12.5498 7.09317 12.5498C7.0985 12.5498 7.10383 12.5498 7.10915 12.5498C7.11448 12.5498 7.1198 12.5498 7.12511 12.5498C7.13043 12.5498 7.13574 12.5498 7.14105 12.5498C7.14637 12.5498 7.15167 12.5498 7.15698 12.5498C7.16228 12.5498 7.16758 12.5498 7.17288 12.5498C7.17818 12.5498 7.18347 12.5498 7.18876 12.5498C7.19405 12.5498 7.19934 12.5498 7.20462 12.5498C7.20991 12.5498 7.21519 12.5498 7.22047 12.5498C7.22575 12.5498 7.23102 12.5498 7.23629 12.5498C7.24156 12.5498 7.24683 12.5498 7.2521 12.5498C7.25736 12.5498 7.26262 12.5498 7.26788 12.5498C7.27314 12.5498 7.27839 12.5498 7.28365 12.5498C7.2889 12.5498 7.29415 12.5498 7.29939 12.5498C7.30464 12.5498 7.30988 12.5498 7.31512 12.5498C7.32036 12.5498 7.32559 12.5498 7.33082 12.5498C7.33606 12.5498 7.34128 12.5498 7.34651 12.5498C7.35174 12.5498 7.35696 12.5498 7.36218 12.5498C7.3674 12.5498 7.37261 12.5498 7.37782 12.5498C7.38304 12.5498 7.38825 12.5498 7.39345 12.5498C7.39866 12.5498 7.40386 12.5498 7.40906 12.5498C7.41426 12.5498 7.41945 12.5498 7.42465 12.5498C7.42984 12.5498 7.43503 12.5498 7.44021 12.5498C7.4454 12.5498 7.45058 12.5498 7.45576 12.5498C7.46094 12.5498 7.46612 12.5498 7.47129 12.5498C7.47646 12.5498 7.48163 12.5498 7.4868 12.5498C7.49197 12.5498 7.49713 12.5498 7.50229 12.5498C7.50745 12.5498 7.5126 12.5498 7.51776 12.5498C7.52291 12.5498 7.52806 12.5498 7.5332 12.5498C7.53835 12.5498 7.54349 12.5498 7.54863 12.5498C7.55377 12.5498 7.55891 12.5498 7.56404 12.5498C7.56917 12.5498 7.5743 12.5498 7.57943 12.5498C7.58456 12.5498 7.58968 12.5498 7.5948 12.5498C7.59992 12.5498 7.60503 12.5498 7.61015 12.5498C7.61526 12.5498 7.62037 12.5498 7.62547 12.5498C7.63058 12.5498 7.63568 12.5498 7.64078 12.5498C7.64588 12.5498 7.65098 12.5498 7.65607 12.5498C7.66116 12.5498 7.66625 12.5498 7.67134 12.5498C7.67642 12.5498 7.68151 12.5498 7.68658 12.5498C7.69166 12.5498 7.69674 12.5498 7.70181 12.5498C7.70688 12.5498 7.71195 12.5498 7.71702 12.5498C7.72208 12.5498 7.72715 12.5498 7.73221 12.5498C7.73726 12.5498 7.74232 12.5498 7.74737 12.5498C7.75242 12.5498 7.75747 12.5498 7.76252 12.5498C7.76756 12.5498 7.77261 12.5498 7.77764 12.5498C7.78268 12.5498 7.78772 12.5498 7.79275 12.5498C7.79778 12.5498 7.80281 12.5498 7.80784 12.5498C7.81286 12.5498 7.81788 12.5498 7.8229 12.5498C7.82792 12.5498 7.83293 12.5498 7.83794 12.5498C7.84296 12.5498 7.84796 12.5498 7.85297 12.5498C7.85797 12.5498 7.86297 12.5498 7.86797 12.5498C7.87297 12.5498 7.87796 12.5498 7.88295 12.5498C7.88795 12.5498 7.89293 12.5498 7.89792 12.5498C7.9029 12.5498 7.90788 12.5498 7.91286 12.5498C7.91784 12.5498 7.92281 12.5498 7.92778 12.5498C7.93275 12.5498 7.93772 12.5498 7.94268 12.5498C7.94764 12.5498 7.9526 12.5498 7.95756 12.5498C7.96252 12.5498 7.96747 12.5498 7.97242 12.5498C7.97737 12.5498 7.98232 12.5498 7.98726 12.5498C7.9922 12.5498 7.99714 12.5498 8.00208 12.5498C8.00701 12.5498 8.01195 12.5498 8.01688 12.5498C8.0218 12.5498 8.02673 12.5498 8.03165 12.5498C8.03657 12.5498 8.04149 12.5498 8.04641 12.5498C8.05132 12.5498 8.05624 12.5498 8.06114 12.5498C8.06605 12.5498 8.07096 12.5498 8.07586 12.5498C8.08076 12.5498 8.08566 12.5498 8.09055 12.5498C8.09545 12.5498 8.10034 12.5498 8.10523 12.5498C8.11011 12.5498 8.115 12.5498 8.11988 12.5498C8.12476 12.5498 8.12963 12.5498 8.13451 12.5498C8.13938 12.5498 8.14425 12.5498 8.14912 12.5498C8.15399 12.5498 8.15885 12.5498 8.16371 12.5498C8.16857 12.5498 8.17342 12.5498 8.17828 12.5498C8.18313 12.5498 8.18798 12.5498 8.19282 12.5498C8.19767 12.5498 8.20251 12.5498 8.20735 12.5498C8.21219 12.5498 8.21703 12.5498 8.22186 12.5498C8.22669 12.5498 8.23152 12.5498 8.23634 12.5498C8.24117 12.5498 8.24599 12.5498 8.25081 12.5498C8.25562 12.5498 8.26044 12.5498 8.26525 12.5498C8.27006 12.5498 8.27487 12.5498 8.27967 12.5498C8.28447 12.5498 8.28927 12.5498 8.29407 12.5498C8.29887 12.5498 8.30366 12.5498 8.30845 12.5498C8.31324 12.5498 8.31802 12.5498 8.32281 12.5498C8.32759 12.5498 8.33237 12.5498 8.33714 12.5498C8.34192 12.5498 8.34669 12.5498 8.35146 12.5498C8.35623 12.5498 8.36099 12.5498 8.36575 12.5498C8.37052 12.5498 8.37527 12.5498 8.38003 12.5498C8.38478 12.5498 8.38953 12.5498 8.39428 12.5498C8.39903 12.5498 8.40377 12.5498 8.40851 12.5498C8.41325 12.5498 8.41799 12.5498 8.42272 12.5498C8.42745 12.5498 8.43218 12.5498 8.43691 12.5498C8.44163 12.5498 8.44636 12.5498 8.45107 12.5498C8.45579 12.5498 8.46051 12.5498 8.46522 12.5498C8.46993 12.5498 8.47464 12.5498 8.47934 12.5498C8.48405 12.5498 8.48875 12.5498 8.49345 12.5498C8.49814 12.5498 8.50284 12.5498 8.50753 12.5498C8.51222 12.5498 8.5169 12.5498 8.52159 12.5498C8.52627 12.5498 8.53095 12.5498 8.53562 12.5498C8.5403 12.5498 8.54497 12.5498 8.54964 12.5498C8.55431 12.5498 8.55897 12.5498 8.56364 12.5498C8.5683 12.5498 8.57296 12.5498 8.57761 12.5498C8.58226 12.5498 8.58691 12.5498 8.59156 12.5498C8.59621 12.5498 8.60085 12.5498 8.60549 12.5498C8.61013 12.5498 8.61477 12.5498 8.6194 12.5498C8.62403 12.5498 8.62866 12.5498 8.63329 12.5498C8.63791 12.5498 8.64254 12.5498 8.64715 12.5498C8.65177 12.5498 8.65639 12.5498 8.661 12.5498C8.66561 12.5498 8.67022 12.5498 8.67482 12.5498C8.67942 12.5498 8.68402 12.5498 8.68862 12.5498C8.69322 12.5498 8.69781 12.5498 8.7024 12.5498C8.70699 12.5498 8.71157 12.5498 8.71616 12.5498C8.72074 12.5498 8.72532 12.5498 8.72989 12.5498C8.73446 12.5498 8.73904 12.5498 8.7436 12.5498C8.74817 12.5498 8.75273 12.5498 8.75729 12.5498C8.76185 12.5498 8.76641 12.5498 8.77096 12.5498C8.77552 12.5498 8.78007 12.5498 8.78461 12.5498C8.78916 12.5498 8.7937 12.5498 8.79824 12.5498C8.80278 12.5498 8.80731 12.5498 8.81184 12.5498C8.81637 12.5498 8.8209 12.5498 8.82542 12.5498C8.82995 12.5498 8.83447 12.5498 8.83898 12.5498C8.8435 12.5498 8.84801 12.5498 8.85252 12.5498C8.85703 12.5498 8.86153 12.5498 8.86604 12.5498C8.87054 12.5498 8.87504 12.5498 8.87953 12.5498C8.88402 12.5498 8.88851 12.5498 8.893 12.5498C8.89749 12.5498 8.90197 12.5498 8.90645 12.5498C8.91093 12.5498 8.91541 12.5498 8.91988 12.5498C8.92435 12.5498 8.92882 12.5498 8.93328 12.5498C8.93775 12.5498 8.94221 12.5498 8.94667 12.5498C8.95112 12.5498 8.95558 12.5498 8.96003 12.5498C8.96448 12.5498 8.96892 12.5498 8.97337 12.5498C8.97781 12.5498 8.98225 12.5498 8.98668 12.5498C8.99112 12.5498 8.99555 12.5498 8.99998 12.5498C9.00441 12.5498 9.00883 12.5498 9.01325 12.5498C9.01767 12.5498 9.02209 12.5498 9.0265 12.5498C9.03091 12.5498 9.03532 12.5498 9.03973 12.5498C9.04413 12.5498 9.04853 12.5498 9.05293 12.5498C9.05733 12.5498 9.06172 12.5498 9.06611 12.5498C9.07051 12.5498 9.07489 12.5498 9.07928 12.5498C9.08366 12.5498 9.08804 12.5498 9.09241 12.5498C9.09679 12.5498 9.10116 12.5498 9.10553 12.5498C9.1099 12.5498 9.11426 12.5498 9.11862 12.5498C9.12298 12.5498 9.12734 12.5498 9.13169 12.5498C9.13605 12.5498 9.1404 12.5498 9.14474 12.5498C9.14909 12.5498 9.15343 12.5498 9.15777 12.5498C9.1621 12.5498 9.16644 12.5498 9.17077 12.5498C9.1751 12.5498 9.17943 12.5498 9.18375 12.5498C9.18807 12.5498 9.19239 12.5498 9.19671 12.5498C9.20102 12.5498 9.20534 12.5498 9.20964 12.5498C9.21395 12.5498 9.21826 12.5498 9.22256 12.5498C9.22686 12.5498 9.23115 12.5498 9.23545 12.5498C9.23974 12.5498 9.24403 12.5498 9.24831 12.5498C9.2526 12.5498 9.25688 12.5498 9.26116 12.5498C9.26544 12.5498 9.26971 12.5498 9.27398 12.5498C9.27825 12.5498 9.28252 12.5498 9.28678 12.5498C9.29104 12.5498 9.2953 12.5498 9.29956 12.5498C9.30381 12.5498 9.30806 12.5498 9.31231 12.5498C9.31656 12.5498 9.3208 12.5498 9.32504 12.5498C9.32928 12.5498 9.33352 12.5498 9.33775 12.5498C9.34198 12.5498 9.34621 12.5498 9.35043 12.5498C9.35466 12.5498 9.35888 12.5498 9.3631 12.5498C9.36731 12.5498 9.37153 12.5498 9.37574 12.5498C9.37995 12.5498 9.38415 12.5498 9.38835 12.5498C9.39256 12.5498 9.39675 12.5498 9.40095 12.5498C9.40514 12.5498 9.40933 12.5498 9.41352 12.5498C9.4177 12.5498 9.42189 12.5498 9.42607 12.5498C9.43024 12.5498 9.43442 12.5498 9.43859 12.5498C9.44276 12.5498 9.44693 12.5498 9.45109 12.5498C9.45526 12.5498 9.45942 12.5498 9.46357 12.5498C9.46773 12.5498 9.47188 12.5498 9.47603 12.5498C9.48018 12.5498 9.48432 12.5498 9.48846 12.5498C9.4926 12.5498 9.49674 12.5498 9.50087 12.5498C9.505 12.5498 9.50913 12.5498 9.51326 12.5498C9.51738 12.5498 9.5215 12.5498 9.52562 12.5498C9.52974 12.5498 9.53385 12.5498 9.53796 12.5498C9.54207 12.5498 9.54617 12.5498 9.55027 12.5498C9.55438 12.5498 9.55847 12.5498 9.56257 12.5498C9.56666 12.5498 9.57075 12.5498 9.57484 12.5498C9.57893 12.5498 9.58301 12.5498 9.58709 12.5498C9.59116 12.5498 9.59524 12.5498 9.59931 12.5498C9.60338 12.5498 9.60745 12.5498 9.61151 12.5498C9.61557 12.5498 9.61963 12.5498 9.62369 12.5498C9.62774 12.5498 9.63179 12.5498 9.63584 12.5498C9.63989 12.5498 9.64393 12.5498 9.64797 12.5498C9.65201 12.5498 9.65605 12.5498 9.66008 12.5498C9.66411 12.5498 9.66814 12.5498 9.67216 12.5498C9.67619 12.5498 9.68021 12.5498 9.68422 12.5498C9.68824 12.5498 9.69225 12.5498 9.69626 12.5498C9.70027 12.5498 9.70427 12.5498 9.70827 12.5498C9.71227 12.5498 9.71627 12.5498 9.72026 12.5498C9.72425 12.5498 9.72824 12.5498 9.73223 12.5498C9.73621 12.5498 9.74019 12.5498 9.74417 12.5498C9.74815 12.5498 9.75212 12.5498 9.75609 12.5498C9.76006 12.5498 9.76402 12.5498 9.76798 12.5498C9.77194 12.5498 9.7759 12.5498 9.77986 12.5498C9.78381 12.5498 9.78776 12.5498 9.7917 12.5498C9.79565 12.5498 9.79959 12.5498 9.80353 12.5498C9.80747 12.5498 9.8114 12.5498 9.81533 12.5498C9.81926 12.5498 9.82318 12.5498 9.82711 12.5498C9.83103 12.5498 9.83494 12.5498 9.83886 12.5498C9.84277 12.5498 9.84668 12.5498 9.85059 12.5498C9.85449 12.5498 9.8584 12.5498 9.86229 12.5498C9.86619 12.5498 9.87009 12.5498 9.87398 12.5498C9.87787 12.5498 9.88175 12.5498 9.88563 12.5498C9.88952 12.5498 9.89339 12.5498 9.89727 12.5498C9.90114 12.5498 9.90501 12.5498 9.90888 12.5498C9.91274 12.5498 9.91661 12.5498 9.92046 12.5498C9.92432 12.5498 9.92818 12.5498 9.93203 12.5498C9.93588 12.5498 9.93972 12.5498 9.94357 12.5498C9.94741 12.5498 9.95125 12.5498 9.95508 12.5498C9.95891 12.5498 9.96274 12.5498 9.96657 12.5498C9.9704 12.5498 9.97422 12.5498 9.97804 12.5498C9.98186 12.5498 9.98567 12.5498 9.98948 12.5498C9.99329 12.5498 9.9971 12.5498 10.0009 12.5498C10.0047 12.5498 10.0085 12.5498 10.0123 12.5498C10.0161 12.5498 10.0199 12.5498 10.0237 12.5498C10.0274 12.5498 10.0312 12.5498 10.035 12.5498C10.0388 12.5498 10.0426 12.5498 10.0463 12.5498C10.0501 12.5498 10.0539 12.5498 10.0576 12.5498C10.0614 12.5498 10.0652 12.5498 10.0689 12.5498C10.0727 12.5498 10.0764 12.5498 10.0802 12.5498C10.0839 12.5498 10.0876 12.5498 10.0914 12.5498C10.0951 12.5498 10.0989 12.5498 10.1026 12.5498C10.1063 12.5498 10.11 12.5498 10.1138 12.5498C10.1175 12.5498 10.1212 12.5498 10.1249 12.5498C10.1286 12.5498 10.1323 12.5498 10.136 12.5498C10.1397 12.5498 10.1434 12.5498 10.1471 12.5498C10.1508 12.5498 10.1545 12.5498 10.1582 12.5498C10.1619 12.5498 10.1656 12.5498 10.1693 12.5498C10.173 12.5498 10.1766 12.5498 10.1803 12.5498C10.184 12.5498 10.1876 12.5498 10.1913 12.5498C10.195 12.5498 10.1986 12.5498 10.2023 12.5498C10.206 12.5498 10.2096 12.5498 10.2133 12.5498C10.2169 12.5498 10.2205 12.5498 10.2242 12.5498C10.2278 12.5498 10.2315 12.5498 10.2351 12.5498C10.2387 12.5498 10.2424 12.5498 10.246 12.5498C10.2496 12.5498 10.2532 12.5498 10.2568 12.5498C10.2605 12.5498 10.2641 12.5498 10.2677 12.5498V9.54977C10.2641 9.54977 10.2605 9.54977 10.2568 9.54977C10.2532 9.54977 10.2496 9.54977 10.246 9.54977C10.2424 9.54977 10.2387 9.54977 10.2351 9.54977C10.2315 9.54977 10.2278 9.54977 10.2242 9.54977C10.2205 9.54977 10.2169 9.54977 10.2133 9.54977C10.2096 9.54977 10.206 9.54977 10.2023 9.54977C10.1986 9.54977 10.195 9.54977 10.1913 9.54977C10.1876 9.54977 10.184 9.54977 10.1803 9.54977C10.1766 9.54977 10.173 9.54977 10.1693 9.54977C10.1656 9.54977 10.1619 9.54977 10.1582 9.54977C10.1545 9.54977 10.1508 9.54977 10.1471 9.54977C10.1434 9.54977 10.1397 9.54977 10.136 9.54977C10.1323 9.54977 10.1286 9.54977 10.1249 9.54977C10.1212 9.54977 10.1175 9.54977 10.1138 9.54977C10.11 9.54977 10.1063 9.54977 10.1026 9.54977C10.0989 9.54977 10.0951 9.54977 10.0914 9.54977C10.0876 9.54977 10.0839 9.54977 10.0802 9.54977C10.0764 9.54977 10.0727 9.54977 10.0689 9.54977C10.0652 9.54977 10.0614 9.54977 10.0576 9.54977C10.0539 9.54977 10.0501 9.54977 10.0463 9.54977C10.0426 9.54977 10.0388 9.54977 10.035 9.54977C10.0312 9.54977 10.0274 9.54977 10.0237 9.54977C10.0199 9.54977 10.0161 9.54977 10.0123 9.54977C10.0085 9.54977 10.0047 9.54977 10.0009 9.54977C9.9971 9.54977 9.99329 9.54977 9.98948 9.54977C9.98567 9.54977 9.98186 9.54977 9.97804 9.54977C9.97422 9.54977 9.9704 9.54977 9.96657 9.54977C9.96274 9.54977 9.95891 9.54977 9.95508 9.54977C9.95125 9.54977 9.94741 9.54977 9.94357 9.54977C9.93972 9.54977 9.93588 9.54977 9.93203 9.54977C9.92818 9.54977 9.92432 9.54977 9.92046 9.54977C9.91661 9.54977 9.91274 9.54977 9.90888 9.54977C9.90501 9.54977 9.90114 9.54977 9.89727 9.54977C9.89339 9.54977 9.88952 9.54977 9.88563 9.54977C9.88175 9.54977 9.87787 9.54977 9.87398 9.54977C9.87009 9.54977 9.86619 9.54977 9.86229 9.54977C9.8584 9.54977 9.85449 9.54977 9.85059 9.54977C9.84668 9.54977 9.84277 9.54977 9.83886 9.54977C9.83494 9.54977 9.83103 9.54977 9.82711 9.54977C9.82318 9.54977 9.81926 9.54977 9.81533 9.54977C9.8114 9.54977 9.80747 9.54977 9.80353 9.54977C9.79959 9.54977 9.79565 9.54977 9.7917 9.54977C9.78776 9.54977 9.78381 9.54977 9.77986 9.54977C9.7759 9.54977 9.77194 9.54977 9.76798 9.54977C9.76402 9.54977 9.76006 9.54977 9.75609 9.54977C9.75212 9.54977 9.74815 9.54977 9.74417 9.54977C9.74019 9.54977 9.73621 9.54977 9.73223 9.54977C9.72824 9.54977 9.72425 9.54977 9.72026 9.54977C9.71627 9.54977 9.71227 9.54977 9.70827 9.54977C9.70427 9.54977 9.70027 9.54977 9.69626 9.54977C9.69225 9.54977 9.68824 9.54977 9.68422 9.54977C9.68021 9.54977 9.67619 9.54977 9.67216 9.54977C9.66814 9.54977 9.66411 9.54977 9.66008 9.54977C9.65605 9.54977 9.65201 9.54977 9.64797 9.54977C9.64393 9.54977 9.63989 9.54977 9.63584 9.54977C9.63179 9.54977 9.62774 9.54977 9.62369 9.54977C9.61963 9.54977 9.61557 9.54977 9.61151 9.54977C9.60745 9.54977 9.60338 9.54977 9.59931 9.54977C9.59524 9.54977 9.59116 9.54977 9.58709 9.54977C9.58301 9.54977 9.57893 9.54977 9.57484 9.54977C9.57075 9.54977 9.56666 9.54977 9.56257 9.54977C9.55847 9.54977 9.55438 9.54977 9.55027 9.54977C9.54617 9.54977 9.54207 9.54977 9.53796 9.54977C9.53385 9.54977 9.52974 9.54977 9.52562 9.54977C9.5215 9.54977 9.51738 9.54977 9.51326 9.54977C9.50913 9.54977 9.505 9.54977 9.50087 9.54977C9.49674 9.54977 9.4926 9.54977 9.48846 9.54977C9.48432 9.54977 9.48018 9.54977 9.47603 9.54977C9.47188 9.54977 9.46773 9.54977 9.46357 9.54977C9.45942 9.54977 9.45526 9.54977 9.45109 9.54977C9.44693 9.54977 9.44276 9.54977 9.43859 9.54977C9.43442 9.54977 9.43024 9.54977 9.42607 9.54977C9.42189 9.54977 9.4177 9.54977 9.41352 9.54977C9.40933 9.54977 9.40514 9.54977 9.40095 9.54977C9.39675 9.54977 9.39256 9.54977 9.38835 9.54977C9.38415 9.54977 9.37995 9.54977 9.37574 9.54977C9.37153 9.54977 9.36731 9.54977 9.3631 9.54977C9.35888 9.54977 9.35466 9.54977 9.35043 9.54977C9.34621 9.54977 9.34198 9.54977 9.33775 9.54977C9.33352 9.54977 9.32928 9.54977 9.32504 9.54977C9.3208 9.54977 9.31656 9.54977 9.31231 9.54977C9.30806 9.54977 9.30381 9.54977 9.29956 9.54977C9.2953 9.54977 9.29104 9.54977 9.28678 9.54977C9.28252 9.54977 9.27825 9.54977 9.27398 9.54977C9.26971 9.54977 9.26544 9.54977 9.26116 9.54977C9.25688 9.54977 9.2526 9.54977 9.24831 9.54977C9.24403 9.54977 9.23974 9.54977 9.23545 9.54977C9.23115 9.54977 9.22686 9.54977 9.22256 9.54977C9.21826 9.54977 9.21395 9.54977 9.20964 9.54977C9.20534 9.54977 9.20102 9.54977 9.19671 9.54977C9.19239 9.54977 9.18807 9.54977 9.18375 9.54977C9.17943 9.54977 9.1751 9.54977 9.17077 9.54977C9.16644 9.54977 9.1621 9.54977 9.15777 9.54977C9.15343 9.54977 9.14909 9.54977 9.14474 9.54977C9.1404 9.54977 9.13605 9.54977 9.13169 9.54977C9.12734 9.54977 9.12298 9.54977 9.11862 9.54977C9.11426 9.54977 9.1099 9.54977 9.10553 9.54977C9.10116 9.54977 9.09679 9.54977 9.09241 9.54977C9.08804 9.54977 9.08366 9.54977 9.07928 9.54977C9.07489 9.54977 9.07051 9.54977 9.06611 9.54977C9.06172 9.54977 9.05733 9.54977 9.05293 9.54977C9.04853 9.54977 9.04413 9.54977 9.03973 9.54977C9.03532 9.54977 9.03091 9.54977 9.0265 9.54977C9.02209 9.54977 9.01767 9.54977 9.01325 9.54977C9.00883 9.54977 9.00441 9.54977 8.99998 9.54977C8.99555 9.54977 8.99112 9.54977 8.98668 9.54977C8.98225 9.54977 8.97781 9.54977 8.97337 9.54977C8.96892 9.54977 8.96448 9.54977 8.96003 9.54977C8.95558 9.54977 8.95112 9.54977 8.94667 9.54977C8.94221 9.54977 8.93775 9.54977 8.93328 9.54977C8.92882 9.54977 8.92435 9.54977 8.91988 9.54977C8.91541 9.54977 8.91093 9.54977 8.90645 9.54977C8.90197 9.54977 8.89749 9.54977 8.893 9.54977C8.88851 9.54977 8.88402 9.54977 8.87953 9.54977C8.87504 9.54977 8.87054 9.54977 8.86604 9.54977C8.86153 9.54977 8.85703 9.54977 8.85252 9.54977C8.84801 9.54977 8.8435 9.54977 8.83898 9.54977C8.83447 9.54977 8.82995 9.54977 8.82542 9.54977C8.8209 9.54977 8.81637 9.54977 8.81184 9.54977C8.80731 9.54977 8.80278 9.54977 8.79824 9.54977C8.7937 9.54977 8.78916 9.54977 8.78461 9.54977C8.78007 9.54977 8.77552 9.54977 8.77096 9.54977C8.76641 9.54977 8.76185 9.54977 8.75729 9.54977C8.75273 9.54977 8.74817 9.54977 8.7436 9.54977C8.73904 9.54977 8.73446 9.54977 8.72989 9.54977C8.72532 9.54977 8.72074 9.54977 8.71616 9.54977C8.71157 9.54977 8.70699 9.54977 8.7024 9.54977C8.69781 9.54977 8.69322 9.54977 8.68862 9.54977C8.68402 9.54977 8.67942 9.54977 8.67482 9.54977C8.67022 9.54977 8.66561 9.54977 8.661 9.54977C8.65639 9.54977 8.65177 9.54977 8.64715 9.54977C8.64254 9.54977 8.63791 9.54977 8.63329 9.54977C8.62866 9.54977 8.62403 9.54977 8.6194 9.54977C8.61477 9.54977 8.61013 9.54977 8.60549 9.54977C8.60085 9.54977 8.59621 9.54977 8.59156 9.54977C8.58691 9.54977 8.58226 9.54977 8.57761 9.54977C8.57296 9.54977 8.5683 9.54977 8.56364 9.54977C8.55897 9.54977 8.55431 9.54977 8.54964 9.54977C8.54497 9.54977 8.5403 9.54977 8.53562 9.54977C8.53095 9.54977 8.52627 9.54977 8.52159 9.54977C8.5169 9.54977 8.51222 9.54977 8.50753 9.54977C8.50284 9.54977 8.49814 9.54977 8.49345 9.54977C8.48875 9.54977 8.48405 9.54977 8.47934 9.54977C8.47464 9.54977 8.46993 9.54977 8.46522 9.54977C8.46051 9.54977 8.45579 9.54977 8.45107 9.54977C8.44636 9.54977 8.44163 9.54977 8.43691 9.54977C8.43218 9.54977 8.42745 9.54977 8.42272 9.54977C8.41799 9.54977 8.41325 9.54977 8.40851 9.54977C8.40377 9.54977 8.39903 9.54977 8.39428 9.54977C8.38953 9.54977 8.38478 9.54977 8.38003 9.54977C8.37527 9.54977 8.37052 9.54977 8.36575 9.54977C8.36099 9.54977 8.35623 9.54977 8.35146 9.54977C8.34669 9.54977 8.34192 9.54977 8.33714 9.54977C8.33237 9.54977 8.32759 9.54977 8.32281 9.54977C8.31802 9.54977 8.31324 9.54977 8.30845 9.54977C8.30366 9.54977 8.29887 9.54977 8.29407 9.54977C8.28927 9.54977 8.28447 9.54977 8.27967 9.54977C8.27487 9.54977 8.27006 9.54977 8.26525 9.54977C8.26044 9.54977 8.25562 9.54977 8.25081 9.54977C8.24599 9.54977 8.24117 9.54977 8.23634 9.54977C8.23152 9.54977 8.22669 9.54977 8.22186 9.54977C8.21703 9.54977 8.21219 9.54977 8.20735 9.54977C8.20251 9.54977 8.19767 9.54977 8.19282 9.54977C8.18798 9.54977 8.18313 9.54977 8.17828 9.54977C8.17342 9.54977 8.16857 9.54977 8.16371 9.54977C8.15885 9.54977 8.15399 9.54977 8.14912 9.54977C8.14425 9.54977 8.13938 9.54977 8.13451 9.54977C8.12963 9.54977 8.12476 9.54977 8.11988 9.54977C8.115 9.54977 8.11011 9.54977 8.10523 9.54977C8.10034 9.54977 8.09545 9.54977 8.09055 9.54977C8.08566 9.54977 8.08076 9.54977 8.07586 9.54977C8.07096 9.54977 8.06605 9.54977 8.06114 9.54977C8.05624 9.54977 8.05132 9.54977 8.04641 9.54977C8.04149 9.54977 8.03657 9.54977 8.03165 9.54977C8.02673 9.54977 8.0218 9.54977 8.01688 9.54977C8.01195 9.54977 8.00701 9.54977 8.00208 9.54977C7.99714 9.54977 7.9922 9.54977 7.98726 9.54977C7.98232 9.54977 7.97737 9.54977 7.97242 9.54977C7.96747 9.54977 7.96252 9.54977 7.95756 9.54977C7.9526 9.54977 7.94764 9.54977 7.94268 9.54977C7.93772 9.54977 7.93275 9.54977 7.92778 9.54977C7.92281 9.54977 7.91784 9.54977 7.91286 9.54977C7.90788 9.54977 7.9029 9.54977 7.89792 9.54977C7.89293 9.54977 7.88795 9.54977 7.88295 9.54977C7.87796 9.54977 7.87297 9.54977 7.86797 9.54977C7.86297 9.54977 7.85797 9.54977 7.85297 9.54977C7.84796 9.54977 7.84296 9.54977 7.83794 9.54977C7.83293 9.54977 7.82792 9.54977 7.8229 9.54977C7.81788 9.54977 7.81286 9.54977 7.80784 9.54977C7.80281 9.54977 7.79778 9.54977 7.79275 9.54977C7.78772 9.54977 7.78268 9.54977 7.77764 9.54977C7.77261 9.54977 7.76756 9.54977 7.76252 9.54977C7.75747 9.54977 7.75242 9.54977 7.74737 9.54977C7.74232 9.54977 7.73726 9.54977 7.73221 9.54977C7.72715 9.54977 7.72208 9.54977 7.71702 9.54977C7.71195 9.54977 7.70688 9.54977 7.70181 9.54977C7.69674 9.54977 7.69166 9.54977 7.68658 9.54977C7.68151 9.54977 7.67642 9.54977 7.67134 9.54977C7.66625 9.54977 7.66116 9.54977 7.65607 9.54977C7.65098 9.54977 7.64588 9.54977 7.64078 9.54977C7.63568 9.54977 7.63058 9.54977 7.62547 9.54977C7.62037 9.54977 7.61526 9.54977 7.61015 9.54977C7.60503 9.54977 7.59992 9.54977 7.5948 9.54977C7.58968 9.54977 7.58456 9.54977 7.57943 9.54977C7.5743 9.54977 7.56917 9.54977 7.56404 9.54977C7.55891 9.54977 7.55377 9.54977 7.54863 9.54977C7.54349 9.54977 7.53835 9.54977 7.5332 9.54977C7.52806 9.54977 7.52291 9.54977 7.51776 9.54977C7.5126 9.54977 7.50745 9.54977 7.50229 9.54977C7.49713 9.54977 7.49197 9.54977 7.4868 9.54977C7.48163 9.54977 7.47646 9.54977 7.47129 9.54977C7.46612 9.54977 7.46094 9.54977 7.45576 9.54977C7.45058 9.54977 7.4454 9.54977 7.44021 9.54977C7.43503 9.54977 7.42984 9.54977 7.42465 9.54977C7.41945 9.54977 7.41426 9.54977 7.40906 9.54977C7.40386 9.54977 7.39866 9.54977 7.39345 9.54977C7.38825 9.54977 7.38304 9.54977 7.37782 9.54977C7.37261 9.54977 7.3674 9.54977 7.36218 9.54977C7.35696 9.54977 7.35174 9.54977 7.34651 9.54977C7.34128 9.54977 7.33606 9.54977 7.33082 9.54977C7.32559 9.54977 7.32036 9.54977 7.31512 9.54977C7.30988 9.54977 7.30464 9.54977 7.29939 9.54977C7.29415 9.54977 7.2889 9.54977 7.28365 9.54977C7.27839 9.54977 7.27314 9.54977 7.26788 9.54977C7.26262 9.54977 7.25736 9.54977 7.2521 9.54977C7.24683 9.54977 7.24156 9.54977 7.23629 9.54977C7.23102 9.54977 7.22575 9.54977 7.22047 9.54977C7.21519 9.54977 7.20991 9.54977 7.20462 9.54977C7.19934 9.54977 7.19405 9.54977 7.18876 9.54977C7.18347 9.54977 7.17818 9.54977 7.17288 9.54977C7.16758 9.54977 7.16228 9.54977 7.15698 9.54977C7.15167 9.54977 7.14637 9.54977 7.14105 9.54977C7.13574 9.54977 7.13043 9.54977 7.12511 9.54977C7.1198 9.54977 7.11448 9.54977 7.10915 9.54977C7.10383 9.54977 7.0985 9.54977 7.09317 9.54977C7.08784 9.54977 7.08251 9.54977 7.07717 9.54977C7.07184 9.54977 7.0665 9.54977 7.06116 9.54977C7.05581 9.54977 7.05047 9.54977 7.04512 9.54977C7.03977 9.54977 7.03442 9.54977 7.02906 9.54977C7.02371 9.54977 7.01835 9.54977 7.01298 9.54977C7.00762 9.54977 7.00226 9.54977 6.99689 9.54977C6.99152 9.54977 6.98615 9.54977 6.98077 9.54977C6.9754 9.54977 6.97002 9.54977 6.96464 9.54977C6.95926 9.54977 6.95387 9.54977 6.94849 9.54977C6.9431 9.54977 6.93771 9.54977 6.93231 9.54977C6.92692 9.54977 6.92152 9.54977 6.91612 9.54977C6.91072 9.54977 6.90532 9.54977 6.89991 9.54977C6.89451 9.54977 6.8891 9.54977 6.88368 9.54977C6.87827 9.54977 6.87285 9.54977 6.86743 9.54977C6.86201 9.54977 6.85659 9.54977 6.85117 9.54977C6.84574 9.54977 6.84031 9.54977 6.83488 9.54977C6.82945 9.54977 6.82401 9.54977 6.81857 9.54977C6.81313 9.54977 6.80769 9.54977 6.80225 9.54977C6.7968 9.54977 6.79135 9.54977 6.7859 9.54977C6.78045 9.54977 6.775 9.54977 6.76954 9.54977C6.76408 9.54977 6.75862 9.54977 6.75316 9.54977C6.74769 9.54977 6.74223 9.54977 6.73676 9.54977C6.73129 9.54977 6.72581 9.54977 6.72034 9.54977C6.71486 9.54977 6.70938 9.54977 6.7039 9.54977C6.69842 9.54977 6.69293 9.54977 6.68744 9.54977C6.68195 9.54977 6.67646 9.54977 6.67097 9.54977C6.66547 9.54977 6.65997 9.54977 6.65447 9.54977C6.64897 9.54977 6.64347 9.54977 6.63796 9.54977C6.63245 9.54977 6.62694 9.54977 6.62143 9.54977C6.61591 9.54977 6.61039 9.54977 6.60487 9.54977C6.59935 9.54977 6.59383 9.54977 6.5883 9.54977C6.58278 9.54977 6.57725 9.54977 6.57172 9.54977C6.56618 9.54977 6.56065 9.54977 6.55511 9.54977C6.54957 9.54977 6.54403 9.54977 6.53848 9.54977C6.53294 9.54977 6.52739 9.54977 6.52184 9.54977C6.51629 9.54977 6.51073 9.54977 6.50518 9.54977C6.49962 9.54977 6.49406 9.54977 6.48849 9.54977C6.48293 9.54977 6.47736 9.54977 6.47179 9.54977C6.46622 9.54977 6.46065 9.54977 6.45508 9.54977C6.4495 9.54977 6.44392 9.54977 6.43834 9.54977C6.43276 9.54977 6.42717 9.54977 6.42158 9.54977C6.41599 9.54977 6.4104 9.54977 6.40481 9.54977C6.39921 9.54977 6.39362 9.54977 6.38802 9.54977C6.38242 9.54977 6.37681 9.54977 6.37121 9.54977C6.3656 9.54977 6.35999 9.54977 6.35438 9.54977C6.34876 9.54977 6.34315 9.54977 6.33753 9.54977C6.33191 9.54977 6.32629 9.54977 6.32066 9.54977C6.31504 9.54977 6.30941 9.54977 6.30378 9.54977C6.29815 9.54977 6.29251 9.54977 6.28688 9.54977C6.28124 9.54977 6.2756 9.54977 6.26996 9.54977C6.26431 9.54977 6.25867 9.54977 6.25302 9.54977C6.24737 9.54977 6.24171 9.54977 6.23606 9.54977C6.2304 9.54977 6.22474 9.54977 6.21908 9.54977C6.21342 9.54977 6.20776 9.54977 6.20209 9.54977C6.19642 9.54977 6.19075 9.54977 6.18508 9.54977C6.1794 9.54977 6.17373 9.54977 6.16805 9.54977C6.16237 9.54977 6.15668 9.54977 6.151 9.54977C6.14531 9.54977 6.13962 9.54977 6.13393 9.54977C6.12824 9.54977 6.12255 9.54977 6.11685 9.54977C6.11115 9.54977 6.10545 9.54977 6.09975 9.54977C6.09404 9.54977 6.08834 9.54977 6.08263 9.54977C6.07692 9.54977 6.0712 9.54977 6.06549 9.54977C6.05977 9.54977 6.05405 9.54977 6.04833 9.54977C6.04261 9.54977 6.03688 9.54977 6.03116 9.54977C6.02543 9.54977 6.0197 9.54977 6.01396 9.54977C6.00823 9.54977 6.00249 9.54977 5.99675 9.54977C5.99101 9.54977 5.98527 9.54977 5.97953 9.54977C5.97378 9.54977 5.96803 9.54977 5.96228 9.54977C5.95653 9.54977 5.95077 9.54977 5.94502 9.54977C5.93926 9.54977 5.9335 9.54977 5.92773 9.54977C5.92197 9.54977 5.9162 9.54977 5.91043 9.54977C5.90466 9.54977 5.89889 9.54977 5.89312 9.54977C5.88734 9.54977 5.88156 9.54977 5.87578 9.54977C5.87 9.54977 5.86422 9.54977 5.85843 9.54977C5.85264 9.54977 5.84685 9.54977 5.84106 9.54977C5.83527 9.54977 5.82947 9.54977 5.82367 9.54977C5.81787 9.54977 5.81207 9.54977 5.80626 9.54977C5.80046 9.54977 5.79465 9.54977 5.78884 9.54977C5.78303 9.54977 5.77722 9.54977 5.7714 9.54977C5.76558 9.54977 5.75976 9.54977 5.75394 9.54977C5.74812 9.54977 5.74229 9.54977 5.73646 9.54977C5.73064 9.54977 5.7248 9.54977 5.71897 9.54977C5.71314 9.54977 5.7073 9.54977 5.70146 9.54977C5.69562 9.54977 5.68978 9.54977 5.68393 9.54977C5.67808 9.54977 5.67224 9.54977 5.66638 9.54977C5.66053 9.54977 5.65468 9.54977 5.64882 9.54977C5.64296 9.54977 5.6371 9.54977 5.63124 9.54977C5.62537 9.54977 5.61951 9.54977 5.61364 9.54977C5.60777 9.54977 5.6019 9.54977 5.59602 9.54977C5.59015 9.54977 5.58427 9.54977 5.57839 9.54977C5.57251 9.54977 5.56662 9.54977 5.56074 9.54977C5.55485 9.54977 5.54896 9.54977 5.54307 9.54977C5.53718 9.54977 5.53128 9.54977 5.52538 9.54977C5.51949 9.54977 5.51359 9.54977 5.50768 9.54977C5.50178 9.54977 5.49587 9.54977 5.48996 9.54977C5.48405 9.54977 5.47814 9.54977 5.47222 9.54977C5.46631 9.54977 5.46039 9.54977 5.45447 9.54977C5.44855 9.54977 5.44262 9.54977 5.4367 9.54977C5.43077 9.54977 5.42484 9.54977 5.41891 9.54977C5.41298 9.54977 5.40704 9.54977 5.4011 9.54977C5.39516 9.54977 5.38922 9.54977 5.38328 9.54977C5.37733 9.54977 5.37139 9.54977 5.36544 9.54977C5.35949 9.54977 5.35354 9.54977 5.34758 9.54977C5.34162 9.54977 5.33567 9.54977 5.32971 9.54977C5.32374 9.54977 5.31778 9.54977 5.31181 9.54977C5.30585 9.54977 5.29988 9.54977 5.29391 9.54977C5.28793 9.54977 5.28196 9.54977 5.27598 9.54977C5.27 9.54977 5.26402 9.54977 5.25804 9.54977C5.25205 9.54977 5.24607 9.54977 5.24008 9.54977C5.23409 9.54977 5.2281 9.54977 5.2221 9.54977C5.21611 9.54977 5.21011 9.54977 5.20411 9.54977C5.19811 9.54977 5.1921 9.54977 5.1861 9.54977C5.18009 9.54977 5.17408 9.54977 5.16807 9.54977C5.16206 9.54977 5.15604 9.54977 5.15002 9.54977C5.14401 9.54977 5.13799 9.54977 5.13196 9.54977C5.12594 9.54977 5.11991 9.54977 5.11389 9.54977C5.10786 9.54977 5.10183 9.54977 5.09579 9.54977C5.08976 9.54977 5.08372 9.54977 5.07768 9.54977C5.07164 9.54977 5.0656 9.54977 5.05955 9.54977C5.05351 9.54977 5.04746 9.54977 5.04141 9.54977C5.03536 9.54977 5.0293 9.54977 5.02325 9.54977C5.01719 9.54977 5.01113 9.54977 5.00507 9.54977C4.99901 9.54977 4.99294 9.54977 4.98687 9.54977C4.9808 9.54977 4.97473 9.54977 4.96866 9.54977C4.96259 9.54977 4.95651 9.54977 4.95043 9.54977C4.94435 9.54977 4.93827 9.54977 4.93219 9.54977C4.9261 9.54977 4.92002 9.54977 4.91393 9.54977C4.90784 9.54977 4.90174 9.54977 4.89565 9.54977C4.88955 9.54977 4.88346 9.54977 4.87736 9.54977C4.87125 9.54977 4.86515 9.54977 4.85904 9.54977C4.85294 9.54977 4.84683 9.54977 4.84072 9.54977C4.83461 9.54977 4.82849 9.54977 4.82237 9.54977C4.81626 9.54977 4.81014 9.54977 4.80401 9.54977C4.79789 9.54977 4.79177 9.54977 4.78564 9.54977C4.77951 9.54977 4.77338 9.54977 4.76724 9.54977C4.76111 9.54977 4.75497 9.54977 4.74883 9.54977C4.7427 9.54977 4.73655 9.54977 4.73041 9.54977C4.72426 9.54977 4.71812 9.54977 4.71197 9.54977C4.70582 9.54977 4.69966 9.54977 4.69351 9.54977C4.68735 9.54977 4.6812 9.54977 4.67503 9.54977C4.66887 9.54977 4.66271 9.54977 4.65654 9.54977C4.65038 9.54977 4.64421 9.54977 4.63804 9.54977C4.63187 9.54977 4.62569 9.54977 4.61951 9.54977C4.61334 9.54977 4.60716 9.54977 4.60097 9.54977C4.59479 9.54977 4.58861 9.54977 4.58242 9.54977C4.57623 9.54977 4.57004 9.54977 4.56385 9.54977C4.55765 9.54977 4.55146 9.54977 4.54526 9.54977C4.53906 9.54977 4.53286 9.54977 4.52666 9.54977C4.52045 9.54977 4.51425 9.54977 4.50804 9.54977C4.50183 9.54977 4.49562 9.54977 4.4894 9.54977C4.48319 9.54977 4.47697 9.54977 4.47075 9.54977C4.46453 9.54977 4.45831 9.54977 4.45208 9.54977C4.44586 9.54977 4.43963 9.54977 4.4334 9.54977C4.42717 9.54977 4.42093 9.54977 4.4147 9.54977C4.40846 9.54977 4.40222 9.54977 4.39598 9.54977C4.38974 9.54977 4.3835 9.54977 4.37725 9.54977C4.371 9.54977 4.36475 9.54977 4.3585 9.54977C4.35225 9.54977 4.346 9.54977 4.33974 9.54977C4.33348 9.54977 4.32722 9.54977 4.32096 9.54977C4.3147 9.54977 4.30843 9.54977 4.30216 9.54977C4.2959 9.54977 4.28963 9.54977 4.28335 9.54977C4.27708 9.54977 4.2708 9.54977 4.26453 9.54977C4.25825 9.54977 4.25197 9.54977 4.24568 9.54977C4.2394 9.54977 4.23311 9.54977 4.22683 9.54977C4.22054 9.54977 4.21425 9.54977 4.20795 9.54977C4.20166 9.54977 4.19536 9.54977 4.18906 9.54977C4.18276 9.54977 4.17646 9.54977 4.17016 9.54977C4.16385 9.54977 4.15755 9.54977 4.15124 9.54977C4.14493 9.54977 4.13861 9.54977 4.1323 9.54977C4.12598 9.54977 4.11967 9.54977 4.11335 9.54977C4.10703 9.54977 4.1007 9.54977 4.09438 9.54977C4.08805 9.54977 4.08173 9.54977 4.0754 9.54977C4.06907 9.54977 4.06273 9.54977 4.0564 9.54977C4.05006 9.54977 4.04372 9.54977 4.03738 9.54977C4.03104 9.54977 4.0247 9.54977 4.01835 9.54977C4.01201 9.54977 4.00566 9.54977 3.99931 9.54977C3.99296 9.54977 3.9866 9.54977 3.98025 9.54977C3.97389 9.54977 3.96753 9.54977 3.96117 9.54977C3.95481 9.54977 3.94845 9.54977 3.94208 9.54977C3.93571 9.54977 3.92934 9.54977 3.92297 9.54977C3.9166 9.54977 3.91023 9.54977 3.90385 9.54977C3.89747 9.54977 3.89109 9.54977 3.88471 9.54977C3.87833 9.54977 3.87195 9.54977 3.86556 9.54977C3.85917 9.54977 3.85278 9.54977 3.84639 9.54977C3.84 9.54977 3.8336 9.54977 3.82721 9.54977C3.82081 9.54977 3.81441 9.54977 3.80801 9.54977C3.80161 9.54977 3.7952 9.54977 3.78879 9.54977C3.78239 9.54977 3.77598 9.54977 3.76957 9.54977C3.76315 9.54977 3.75674 9.54977 3.75032 9.54977C3.7439 9.54977 3.73748 9.54977 3.73106 9.54977C3.72464 9.54977 3.71821 9.54977 3.71179 9.54977C3.70536 9.54977 3.69893 9.54977 3.6925 9.54977C3.68606 9.54977 3.67963 9.54977 3.67319 9.54977C3.66675 9.54977 3.66031 9.54977 3.65387 9.54977C3.64743 9.54977 3.64098 9.54977 3.63454 9.54977C3.62809 9.54977 3.62164 9.54977 3.61519 9.54977C3.60873 9.54977 3.60228 9.54977 3.59582 9.54977C3.58936 9.54977 3.5829 9.54977 3.57644 9.54977C3.56998 9.54977 3.56351 9.54977 3.55705 9.54977C3.55058 9.54977 3.54411 9.54977 3.53764 9.54977C3.53117 9.54977 3.52469 9.54977 3.51821 9.54977C3.51174 9.54977 3.50526 9.54977 3.49877 9.54977C3.49229 9.54977 3.48581 9.54977 3.47932 9.54977C3.47283 9.54977 3.46634 9.54977 3.45985 9.54977C3.45336 9.54977 3.44686 9.54977 3.44037 9.54977C3.43387 9.54977 3.42737 9.54977 3.42087 9.54977C3.41436 9.54977 3.40786 9.54977 3.40135 9.54977C3.39485 9.54977 3.38834 9.54977 3.38182 9.54977C3.37531 9.54977 3.3688 9.54977 3.36228 9.54977C3.35576 9.54977 3.34924 9.54977 3.34272 9.54977C3.3362 9.54977 3.32968 9.54977 3.32315 9.54977C3.31662 9.54977 3.31009 9.54977 3.30356 9.54977C3.29703 9.54977 3.2905 9.54977 3.28396 9.54977C3.27742 9.54977 3.27089 9.54977 3.26434 9.54977C3.2578 9.54977 3.25126 9.54977 3.24471 9.54977C3.23817 9.54977 3.23162 9.54977 3.22507 9.54977C3.21852 9.54977 3.21196 9.54977 3.20541 9.54977C3.19885 9.54977 3.19229 9.54977 3.18573 9.54977C3.17917 9.54977 3.17261 9.54977 3.16604 9.54977C3.15948 9.54977 3.15291 9.54977 3.14634 9.54977C3.13977 9.54977 3.1332 9.54977 3.12662 9.54977C3.12005 9.54977 3.11347 9.54977 3.10689 9.54977C3.10031 9.54977 3.09373 9.54977 3.08714 9.54977C3.08056 9.54977 3.07397 9.54977 3.06738 9.54977C3.06079 9.54977 3.0542 9.54977 3.0476 9.54977C3.04101 9.54977 3.03441 9.54977 3.02781 9.54977C3.02121 9.54977 3.01461 9.54977 3.00801 9.54977C3.0014 9.54977 2.9948 9.54977 2.98819 9.54977C2.98158 9.54977 2.97497 9.54977 2.96836 9.54977C2.96174 9.54977 2.95513 9.54977 2.94851 9.54977C2.94189 9.54977 2.93527 9.54977 2.92865 9.54977C2.92202 9.54977 2.9154 9.54977 2.90877 9.54977C2.90214 9.54977 2.89551 9.54977 2.88888 9.54977C2.88225 9.54977 2.87561 9.54977 2.86898 9.54977C2.86234 9.54977 2.8557 9.54977 2.84906 9.54977C2.84242 9.54977 2.83577 9.54977 2.82913 9.54977C2.82248 9.54977 2.81583 9.54977 2.80918 9.54977C2.80253 9.54977 2.79587 9.54977 2.78922 9.54977C2.78256 9.54977 2.7759 9.54977 2.76924 9.54977C2.76258 9.54977 2.75592 9.54977 2.74925 9.54977C2.74259 9.54977 2.73592 9.54977 2.72925 9.54977C2.72258 9.54977 2.71591 9.54977 2.70924 9.54977C2.70256 9.54977 2.69588 9.54977 2.6892 9.54977C2.68253 9.54977 2.67584 9.54977 2.66916 9.54977C2.66248 9.54977 2.65579 9.54977 2.6491 9.54977C2.64241 9.54977 2.63572 9.54977 2.62903 9.54977C2.62233 9.54977 2.61564 9.54977 2.60894 9.54977C2.60224 9.54977 2.59554 9.54977 2.58884 9.54977C2.58214 9.54977 2.57543 9.54977 2.56873 9.54977C2.56202 9.54977 2.55531 9.54977 2.5486 9.54977C2.54189 9.54977 2.53517 9.54977 2.52846 9.54977C2.52174 9.54977 2.51502 9.54977 2.5083 9.54977C2.50158 9.54977 2.49486 9.54977 2.48813 9.54977C2.48141 9.54977 2.47468 9.54977 2.46795 9.54977C2.46122 9.54977 2.45449 9.54977 2.44775 9.54977C2.44102 9.54977 2.43428 9.54977 2.42754 9.54977C2.4208 9.54977 2.41406 9.54977 2.40732 9.54977C2.40057 9.54977 2.39383 9.54977 2.38708 9.54977C2.38033 9.54977 2.37358 9.54977 2.36683 9.54977C2.36008 9.54977 2.35332 9.54977 2.34656 9.54977C2.33981 9.54977 2.33305 9.54977 2.32628 9.54977C2.31952 9.54977 2.31276 9.54977 2.30599 9.54977C2.29923 9.54977 2.29246 9.54977 2.28569 9.54977C2.27892 9.54977 2.27214 9.54977 2.26537 9.54977C2.25859 9.54977 2.25182 9.54977 2.24504 9.54977C2.23826 9.54977 2.23147 9.54977 2.22469 9.54977C2.2179 9.54977 2.21112 9.54977 2.20433 9.54977C2.19754 9.54977 2.19075 9.54977 2.18396 9.54977C2.17716 9.54977 2.17037 9.54977 2.16357 9.54977C2.15677 9.54977 2.14997 9.54977 2.14317 9.54977C2.13637 9.54977 2.12956 9.54977 2.12276 9.54977C2.11595 9.54977 2.10914 9.54977 2.10233 9.54977C2.09552 9.54977 2.08871 9.54977 2.08189 9.54977C2.07508 9.54977 2.06826 9.54977 2.06144 9.54977C2.05462 9.54977 2.0478 9.54977 2.04097 9.54977C2.03415 9.54977 2.02732 9.54977 2.02049 9.54977C2.01366 9.54977 2.00683 9.54977 2 9.54977V12.5498ZM16.5 7.08181V6.52489H13.5V7.08181H16.5ZM16.5 6.52489V5.42299H13.5V6.52489H16.5ZM13.3999 1.06143L12.7771 0.844648L11.7909 3.67793L12.4137 3.8947L13.3999 1.06143ZM10.7385 0.5H5.46667V3.5H10.7385V0.5ZM14.9598 10.5455L15.2167 10.2773L13.05 8.20234L12.7931 8.47056L14.9598 10.5455ZM5.46667 16.1697H9.36667V13.1697H5.46667V16.1697ZM9.36667 16.1697H13.2667V13.1697H9.36667V16.1697ZM16.0471 3.4285C15.5155 2.31819 14.5625 1.4661 13.3999 1.06143L12.4137 3.8947C12.8211 4.0365 13.155 4.33507 13.3413 4.72412L16.0471 3.4285ZM16.5 5.42299C16.5 4.73267 16.3452 4.05112 16.0471 3.4285L13.3413 4.72412C13.4458 4.94229 13.5 5.1811 13.5 5.42299H16.5ZM13.5 7.08181C13.5 7.49935 13.3388 7.90078 13.05 8.20234L15.2167 10.2773C16.0403 9.41731 16.5 8.27255 16.5 7.08181H13.5ZM12.7771 0.844648C12.1216 0.616501 11.4325 0.5 10.7385 0.5V3.5C11.0968 3.5 11.4525 3.56014 11.7909 3.67793L12.7771 0.844648ZM10.2677 12.5498C12.0411 12.5498 13.7343 11.8252 14.9598 10.5455L12.7931 8.47056C12.1324 9.16048 11.2214 9.54977 10.2677 9.54977V12.5498Z" fill="#EF9A41"/>
</svg>
