<svg width="21" height="21" viewBox="0 0 21 21" fill="none" xmlns="http://www.w3.org/2000/svg">
<path d="M20.9959 5.17923C20.9714 4.95336 20.831 4.75345 20.6212 4.65555L10.7775 0.0617983C10.6016 -0.0202739 10.3984 -0.0202739 10.2224 0.0617983L0.378697 4.65555C0.168943 4.75345 0.0285879 4.95332 0.00401953 5.17923C0.00348633 5.18395 0 5.24679 0 5.25023V16.4065C0 16.6748 0.163365 16.9161 0.412535 17.0158L10.2563 20.9533C10.3345 20.9846 10.4173 21.0002 10.5 21.0002C10.5827 21.0002 10.6655 20.9846 10.7437 20.9533L20.5875 17.0158C20.8366 16.9161 21 16.6748 21 16.4065V5.25023C21 5.24679 20.9964 5.18391 20.9959 5.17923ZM10.5 1.38066L18.6926 5.20389L15.5379 6.46577L7.19115 2.92481L10.5 1.38066ZM5.59084 3.67162L13.8082 7.15766L10.5 8.48091L2.30737 5.20389L5.59084 3.67162ZM1.3125 6.21951L9.84375 9.63201V19.3747L1.3125 15.9622V6.21951ZM11.1562 19.3747V9.63201L19.6875 6.21951V15.9622L11.1562 19.3747Z" fill="#231F20"/>
</svg>
