<svg width="21" height="21" viewBox="0 0 21 21" fill="none" xmlns="http://www.w3.org/2000/svg">
<path d="M19.1422 2.71412C17.9278 1.49969 16.303 0.830933 14.5665 0.830933C13.0716 0.830933 11.6595 1.32673 10.5206 2.23949C9.36538 1.32673 7.95154 0.830933 6.4712 0.830933C4.72672 0.830933 3.09758 1.49998 1.88319 2.71412C0.66876 3.92831 0 5.55343 0 7.28958C0 9.02598 0.66876 10.6509 1.88319 11.865L9.96594 19.9477C10.1132 20.0953 10.3066 20.1691 10.5 20.1691C10.6929 20.1691 10.8858 20.0955 11.0333 19.9487L19.1226 11.8841C20.3335 10.6461 21 9.01892 21 7.30217C21 5.56955 20.3423 3.94242 19.1422 2.71412ZM18.0492 10.8208L10.5007 18.346L2.95132 10.7969C2.02244 9.86774 1.51077 8.6221 1.51077 7.28958C1.51077 5.95707 2.02244 4.71142 2.95132 3.78229C3.88045 2.85341 5.1304 2.34174 6.4712 2.34174C7.79063 2.34174 9.04308 2.85567 9.99715 3.78832C10.2927 4.07765 10.7669 4.0751 11.0592 3.78229C11.9884 2.85341 13.2338 2.34174 14.5665 2.34174C15.8993 2.34174 17.1447 2.85341 18.0675 3.77622C18.9843 4.71417 19.4892 5.96638 19.4892 7.30217C19.4892 8.62185 18.9756 9.87402 18.0492 10.8208Z" fill="#231F20"/>
</svg>
