<svg width="145" height="37" viewBox="0 0 145 37" fill="none" xmlns="http://www.w3.org/2000/svg">
<path d="M77.6795 29.7359L79.0521 27.1507C80.6749 28.2067 82.7613 29.3415 85.2504 29.3415C89.0755 29.3415 90.8202 25.9613 91.1314 21.5798L82.8223 21.7254V19.6257L91.1314 19.7714C90.7592 14.9165 88.7643 12.0946 84.9331 12.0946C81.59 12.0946 80.0526 13.7149 79.2229 15.9906C78.8331 16.021 78.4414 16.021 78.0516 15.9906V11.3846C80.3694 10.4243 82.8619 9.95115 85.3724 9.99491C91.7414 9.99491 96.2559 12.4223 96.2559 19.7714C96.2559 26.5924 91.3449 31.6172 85.1161 31.6172C82.5356 31.6172 79.7049 31.0528 77.6795 29.7359ZM105.084 30.5066L106.914 29.9362C107.658 29.7117 107.89 29.0866 107.914 27.7758L108 23.2304V12.04L103.857 12.2403C102.344 12.3252 101.631 13.8606 101.289 15.5901C100.991 15.6133 100.692 15.5845 100.404 15.5052V10.3165H120.536V15.487C120.249 15.5663 119.949 15.5951 119.652 15.5719C119.28 13.7513 118.481 12.3313 116.766 12.2221L112.862 12.04V23.2365L112.947 27.8668C113.002 29.3475 113.319 29.7723 113.948 29.9726L115.693 30.5127C115.691 30.7699 115.663 31.0262 115.607 31.2773H105.169C105.099 31.0288 105.07 30.7705 105.084 30.5127V30.5066ZM145 16.3851C145 12.0704 141.858 10.3165 137.679 10.3165H125.478C125.404 10.5855 125.365 10.8629 125.362 11.1419L127.076 11.682C127.65 11.8519 127.991 12.3313 127.991 13.187V23.2365L127.906 28.1824C127.94 28.5836 127.834 28.9842 127.605 29.3161C127.376 29.6481 127.038 29.8908 126.649 30.0029L125.362 30.4277C125.359 30.7071 125.398 30.9854 125.478 31.2531H136.532C136.613 30.9562 136.654 30.6502 136.654 30.3428L133.824 29.7723C133.552 29.7178 133.312 29.5613 133.153 29.3354C132.994 29.1094 132.928 28.8313 132.97 28.5586L132.86 23.5035H136.484C141.632 23.5217 145 20.6331 145 16.3851ZM132.86 21.956V12.1796L134.885 12.2403C138.289 12.3495 139.601 14.6677 139.601 17.0951C139.601 19.6561 138.515 21.7861 135.172 21.95L132.86 21.956ZM72.2438 29.7359C71.9784 29.6693 71.7389 29.5259 71.5554 29.3239C71.3719 29.122 71.2527 28.8704 71.2128 28.6011L68.4126 13.8545C68.1564 12.4891 68.7847 11.7487 69.5839 11.5788L70.926 11.2693C70.9488 10.9547 70.9303 10.6385 70.8711 10.3287H63.2148L60.0181 20.536L58.6455 25.3908H58.3892L57.1325 20.6331L54.2164 10.3165H45.7548C45.6841 10.6043 45.6554 10.9006 45.6694 11.1965L47.4996 11.7669C47.8085 11.8538 48.0722 12.0551 48.2367 12.3293C48.4012 12.6035 48.454 12.9299 48.3842 13.2416L45.8158 27.4966C45.741 28.0094 45.5569 28.5005 45.276 28.9369C44.9951 29.3733 44.6238 29.745 44.1869 30.0272L43.1864 30.543C43.1864 30.7372 43.1864 30.9921 43.2474 31.2773H50.8183C50.8935 30.9715 50.9304 30.6576 50.9281 30.3428L48.4879 29.5478C48.0913 29.4022 47.9754 28.9409 48.0608 28.3826L49.6043 18.1207L50.0069 15.0257H50.1473L54.6312 30.6401H59.1762L63.7212 15.135H63.892L64.3496 18.3756L65.5209 26.647C65.5792 26.9756 65.6078 27.3087 65.6063 27.6423C65.6063 28.6375 65.3501 29.742 64.3496 30.1122L63.4589 30.4277C63.462 30.7132 63.4926 30.9977 63.5504 31.2773H73.7201C73.7787 30.9691 73.8114 30.6565 73.8177 30.3428L72.2438 29.7359Z" fill="#231F20"/>
<path d="M17.2587 35.137L17.1733 35.3676L17.0818 35.137H15.8617L15.9044 35.1734L16.0142 35.2826L16.124 35.404L16.2094 35.5011L16.307 35.6406L16.3924 35.7499L16.4839 35.8712L16.5571 36.0169L16.6181 36.1443L16.6914 36.2778L16.7524 36.4114L16.789 36.557L16.8378 36.6966L16.8744 36.8544L16.911 37L18.3568 35.4647L18.2958 35.3676L18.2348 35.2826L18.1982 35.1976V35.1612L17.2587 35.137ZM16.4717 10.092L16.185 10.5472L15.9044 10.9902L15.6298 11.4332L15.3431 11.8762L15.0747 12.2949L14.788 12.7379L14.6293 12.9685V14.8376L15.1235 14.9833L15.6176 15.0925L16.0996 15.2017L16.5693 15.2746H16.6791V14.8437L16.3802 14.783L15.9776 14.692L15.5566 14.5949L15.1235 14.4735L14.7025 14.3521L14.849 14.0669L15.0137 13.7756L15.1845 13.4419L15.3736 13.1081L15.5688 12.744L15.7885 12.3374L16.0264 11.9308L16.2948 11.4878L16.5815 11.0448L16.6791 10.9113V9.80072L16.4717 10.092ZM11.1459 7.83451L10.5358 8.19255L9.92574 8.56274L9.31568 8.92685L8.70561 9.32131L8.09555 9.74004L7.48549 10.1709L6.87542 10.6078L6.26536 11.0751L5.83221 11.421L5.41127 11.7548L5.02083 12.0825L4.62428 12.4284L4.27045 12.7743L3.92881 13.102L3.60548 13.4479L3.28214 13.7817L3.00151 14.1215L2.71478 14.4674L2.44026 14.8134L2.17183 15.1714L1.9522 15.5173L1.73868 15.8632L1.53126 16.2031L1.34824 16.5368L1.17132 16.8949L1.01271 17.2347L0.85409 17.5988L0.725976 17.9447L0.603963 18.2846L0.481951 18.6426L0.396542 18.9946L0.311133 19.3405L0.231824 19.6985L0.170818 20.0262L0.109812 20.3661V20.7363L0.0732077 21.0943L0 21.4524V22.1806L0.0732077 22.6964L0.146415 23.2244L0.262328 23.7281L0.359938 24.2318L0.494152 24.7233L0.652768 25.2027L0.817486 25.6761L1.0005 26.1433L1.19573 26.5985L1.42145 27.0536L1.66547 27.4966L1.9522 27.9154L2.23283 28.3341L2.54397 28.7346L2.8795 29.1291L3.24554 29.5114L3.62988 29.8816L4.06303 30.2457L4.50837 30.5916L4.97812 30.9254L5.47837 31.2409L6.02743 31.5504L6.58259 31.8417L7.19265 32.1391L7.6502 32.3211L7.32077 32.0905L6.97303 31.781L6.6436 31.4533L6.30806 31.1074L6.00303 30.7615L5.6797 30.3853L5.39297 29.9908L5.11234 29.7906L4.71579 29.4871L4.33145 29.1655L3.96542 28.8074L3.59328 28.4433L3.24554 28.061L2.91611 27.6423L2.59277 27.1871L2.28164 26.7381L1.97661 26.2465L1.68988 25.7185L1.56786 25.3605L1.48246 25.0025L1.38485 24.6444L1.31164 24.3046L1.23233 23.9587L1.22013 23.6188L1.15912 23.2729L1.12252 22.927L1.08591 22.5811L1.04931 22.2655V21.9318V21.2824V20.9729V20.6574L1.08591 20.3479L1.12252 20.0444L1.18352 19.735L1.22013 19.4194L1.29944 19.116L1.37264 18.8125L1.44585 18.5334L1.54346 18.236L1.64107 17.9569L1.76308 17.6838L1.879 17.4046L2.00101 17.1315L2.13522 16.8645L2.29384 16.6036L2.44026 16.3851L2.61107 16.1424L2.78189 15.8875V16.464L2.849 17.0284L2.93441 17.5928L3.04422 18.145L3.17843 18.6851L3.32485 19.2252L3.50177 19.741L3.53837 19.826L3.66038 19.4558L3.7946 19.0795L3.8434 18.9521L3.73359 18.6001L3.58718 17.9933L3.45296 17.4168L3.32485 16.8099V16.6036V16.4094V16.2091V16.0028L3.42246 15.7783L3.45906 15.5719L3.54447 15.3777L3.61768 15.1714L3.72749 14.9651L3.8251 14.7527L3.96542 14.5645L4.08743 14.3582L4.23384 14.1458L4.38026 13.9395L4.54498 13.7392L4.728 13.545L4.88051 13.3144L5.08183 13.1142L5.26485 12.92L5.49058 12.744L5.6919 12.5437L5.91152 12.3617L6.13724 12.1735L6.34467 12.0036L6.58259 11.8337L6.79001 11.6577L7.00963 11.4999L7.24756 11.33L7.47938 11.1661L7.69291 11.0205L7.92473 10.887L8.15045 10.7535L8.37008 11.069L8.5653 11.3664L8.77882 11.6577L8.97404 11.9065L9.15096 12.1371L9.30958 12.3252L9.4926 12.1493L9.69392 11.9065L9.61461 11.8458L9.48039 11.688L9.35838 11.5303L9.24857 11.3603L9.15096 11.1904L9.05335 11.0266L8.98014 10.8688L8.89473 10.711L8.82152 10.5472L8.78492 10.3894L9.16926 10.0556L9.5597 9.74004L9.98065 9.43054L10.426 9.11497L10.8713 8.80548L11.3411 8.49598L11.8108 8.19255L11.884 8.144L11.9817 7.77382L12.0915 7.3915V7.29441L11.1459 7.83451ZM16.5571 4.71527L16.0508 5.02477L15.5566 5.31606L14.6415 5.83188V6.5237L14.7269 6.46908L15.2333 6.2142L15.7396 5.97753L16.2216 5.74692L16.3802 5.85616L16.5571 5.97753L16.6914 6.05642V5.34033L16.5815 5.24323L16.6914 5.15827V4.64245L16.5571 4.71527ZM21.8403 1.52321L21.9379 2.0269L22.0599 2.54273L22.188 3.04642L22.3344 3.55011L22.4076 3.79285L22.4931 4.04166L22.5785 4.2844L22.6639 4.53321L22.7676 4.77596L22.8652 5.02477L22.975 5.25537L23.0848 5.50418L22.9018 5.62555L22.7188 5.75906L22.5724 5.85616L22.3771 5.97753L22.188 6.06856L22.005 6.16566L21.8098 6.25062L21.5963 6.32344L21.401 6.38412L21.1753 6.45695L20.9679 6.51156L20.7361 6.54797L20.4981 6.58439H20.2663H20.004H19.7478L21.8403 1.52321ZM22.0843 0L21.7793 0.41873L21.4682 0.813187L21.1387 1.21371L20.8032 1.58389L20.431 1.9298L20.0589 2.26964L19.6685 2.60341L19.2719 2.92505L18.8388 3.24061L18.4422 3.52583V3.65934L18.4788 3.94456L21.1265 2.124L19.0523 6.15352H18.973L19.1011 6.53584L19.2353 6.91209L19.3695 7.28227L19.4183 7.3915L19.5403 7.258H19.8271H20.1016H20.37H20.6324L20.8886 7.22158L21.1509 7.17304L21.3827 7.11235L21.6329 7.03346L21.8525 6.97277L22.0721 6.87568L22.2978 6.77858L22.4931 6.66935L22.6883 6.54191L22.8774 6.4084L23.0604 6.26275L23.2251 6.10497L23.3594 6.42053L23.4936 6.73003L23.64 7.03346L23.7925 7.28227L23.9633 7.59177L24.1219 7.88306L24.2866 8.19255L24.4697 8.49598L24.6405 8.79334L24.8418 9.09677L25.0248 9.38199L25.22 9.69149L25.6288 10.2983L26.0497 10.9052L25.7508 11.3118L25.458 11.7002L25.1346 12.0582L24.8418 12.392L24.5307 12.7076L24.2195 13.0049L23.9145 13.2719L23.5912 13.5329L23.518 13.5814L23.6644 13.7149L23.9511 13.9759H23.9877L24.2988 13.7392L24.6039 13.4722L24.9028 13.2113L25.2078 12.9321L25.4946 12.6226L25.7874 12.307L26.0497 11.9611L26.3182 11.6152L26.5927 11.2511L26.8428 11.5303L27.0929 11.8762L27.3248 12.2342L27.5505 12.5862L27.7823 12.9442L27.9958 13.3144L28.2033 13.6785L28.3863 14.0487L28.5754 14.4189L28.7462 14.783L28.9048 15.1653L29.0573 15.5355L29.1916 15.9057L29.3136 16.2819L29.4112 16.6643L29.5149 17.0344L28.9048 17.8173L28.246 18.6669L27.7762 19.2737L27.8494 19.4558L27.9531 19.8017L28.0629 20.1476L28.2338 19.8988L28.5449 19.4558L29.155 18.5759L29.6857 17.7869L29.8321 18.4363L29.8931 19.0735L29.9846 19.6803L30.0334 20.3175V20.9244V21.5312L29.9663 22.1381L29.8931 22.745L29.7589 23.3518L29.6003 23.9283L29.4234 24.4927L29.1916 25.0449L28.9536 25.585L28.673 26.0948L28.3619 26.6106L28.0446 27.0658L27.9043 27.4481L27.7335 27.9032L27.5383 28.3462L27.3248 28.7953L27.1173 29.214L26.855 29.6449L26.5988 30.0636L26.3243 30.4702L26.0314 30.8343L25.7081 31.2167L25.6471 31.3016L25.7203 31.2531L26.19 30.9496L26.611 30.6402L27.0319 30.2942L27.4285 29.9544L27.7823 29.6085L28.1301 29.2505L28.4229 28.8742L28.734 28.4919L29.0085 28.0974L29.2648 27.7151L29.5088 27.3024L29.7223 26.8716L29.9175 26.4407L30.0945 26.022L30.2653 25.5668L30.3995 25.1238L30.5215 24.6626L30.6618 24.2075L30.7472 23.7281L30.8326 23.2608L30.9058 22.7692L30.9668 22.2777V21.9318V21.5798V21.2096V20.8516L30.9302 20.5117L30.8936 20.1415V19.7835L30.7899 19.4194L30.7289 19.0553L30.6679 18.6972L30.6191 18.3392L30.5032 18.0054L30.43 17.6474L30.3446 17.2893L30.2592 16.9495L30.1494 16.5914L30.0396 16.2334L29.9114 15.8936L29.7894 15.5355L29.6796 15.1714L29.5332 14.8316L29.3685 14.4735L29.1977 14.1276L29.0268 13.7878L28.8377 13.4419L28.673 13.102L28.4595 12.7743L28.2643 12.4284L28.0324 12.0825L27.7823 11.7427L27.5383 11.4089L27.276 11.0751L27.0075 10.7717L26.7452 10.4379L26.489 10.1163L26.2388 9.81286L25.9948 9.47909L25.7569 9.15139L25.5373 8.82975L25.281 8.49598L25.0858 8.16828L24.8784 7.83451L24.6893 7.4886L24.4941 7.1609L24.311 6.82713L24.1341 6.48122L23.9755 6.14138L23.7925 5.79547L23.64 5.4617L23.4936 5.12186L23.3716 4.76382L23.2373 4.40577L23.097 4.06593L22.975 3.69575L22.8652 3.33771L22.7554 2.98573L22.6517 2.62769L22.5724 2.23323L22.487 1.86912L22.4016 1.49893L22.3283 1.12875L22.2429 0.75857L22.1331 0.382319L22.0843 0Z" fill="#439539"/>
<path d="M14.6415 16.4337L14.5195 16.4944L14.4097 16.555L14.2938 16.6279L14.1962 16.7007L14.0864 16.7735L13.9888 16.8645L13.9033 16.9495L13.8179 17.0345L13.7264 17.1194L13.6532 17.2165L13.58 17.3257L13.519 17.4289L13.458 17.526L13.397 17.6352L13.3482 17.7566L13.2994 17.8658L13.3482 17.6231L13.4092 17.3743L13.4702 17.1316L13.5312 16.9009L13.6044 16.6764L13.6654 16.4701L13.7386 16.2455L13.8179 16.0513L13.9033 15.8511L13.9766 15.669L14.062 15.487L14.1596 15.3231L14.2572 15.1653L14.3487 15.0197L14.4463 14.8862L14.5439 14.7587V14.8316V14.9287V15.1593V15.4445L14.6415 15.7783V16.0513V16.2698V16.4337ZM11.9023 7.93769L11.8169 8.23505L11.7193 8.50206L11.6278 8.77515L11.518 9.0543L11.4204 9.31525L11.3106 9.55799L11.1947 9.81894L11.0605 10.0617L10.9262 10.2984L10.7798 10.5411L10.6273 10.7899L10.4687 11.0205L10.2857 11.2693L10.0843 11.4999L9.88913 11.7487L9.6695 11.9915L9.88913 12.21L10.121 12.4345L10.3833 12.653L10.6395 12.8532L10.9262 13.0596L11.213 13.2537L11.5058 13.4297L11.8047 13.5875L12.122 13.7332L12.4331 13.8727L12.5795 13.9334L12.7381 13.982L12.8906 14.0305L13.0371 14.0791L13.1957 14.1155L13.3482 14.1519L13.4946 14.1883H13.6532H13.7996H13.9522H14.0864H14.2328L14.3304 13.9334L14.4341 13.6239L14.5439 13.3205L14.6415 12.9746V6.38414L14.306 6.60867L13.9766 6.80287L13.6532 6.98492L13.3482 7.16091L13.0127 7.33083L12.6649 7.51289L12.2989 7.70101L11.9023 7.93769ZM3.82509 19.0492L3.98981 18.6669L4.16063 18.2846L4.34365 17.9144L4.54497 17.5381L4.76459 17.1558L5.01472 16.7735L5.27094 16.3851L5.54547 16.0028L5.8505 15.6205L6.16164 15.2382L6.33245 15.0561L6.50327 14.874L6.71069 14.6859L6.89371 14.516L7.08283 14.3218L7.27805 14.1337L7.47327 13.9516L7.6868 13.7817L7.88202 13.5814L8.10774 13.4115L8.32736 13.2355L8.54699 13.0535L8.73611 12.8714L8.94353 12.6954L9.15095 12.5012L9.33397 12.3313L9.49259 12.5012L9.639 12.6469L9.80372 12.7986L9.95013 12.9442L10.0965 13.0656L10.2491 13.1991L10.3711 13.3508L10.5175 13.4601L10.6639 13.5693L10.8164 13.6543L10.9628 13.7514L11.0971 13.8545L11.3838 14.0002L11.6644 14.1458L11.9389 14.2672L12.2196 14.3704L12.5063 14.4675L12.7869 14.5403L13.0615 14.6252L13.3482 14.6738L13.6288 14.7345L13.9155 14.783L13.7386 14.9833L13.5922 15.2139L13.4336 15.4748L13.2933 15.7661L13.1591 16.0999L13.0493 16.4458L12.9394 16.8099L12.8418 17.2044L12.7503 17.5988L12.6771 18.0418L12.6039 18.497L12.5429 18.9643L12.4941 19.4497L12.4575 19.9413L12.4209 20.4571V20.9729V21.5009V22.5568V23.103V23.6249V24.1589L12.4697 24.6869L12.5185 25.2027L12.5795 25.7186L12.6405 26.2162L12.7137 26.6956L12.8052 27.175L12.8906 27.6423L13.0005 28.0732L13.1103 28.4919L13.2201 28.8985L12.4087 28.4312L11.6278 27.9639L11.2496 27.7273L10.8652 27.4967L10.4931 27.2539L10.121 27.0172L9.77932 26.7624L9.41938 26.5135L9.07164 26.2708L8.74221 25.9977L8.40667 25.7428L8.12604 25.488L7.80271 25.2209L7.50378 24.9357L7.19875 24.6384L6.91202 24.3349L6.63139 24.0254L6.35686 23.7099L6.10063 23.3822L5.8383 23.0605L5.59428 22.7207L5.35635 22.3626L5.13673 21.9803L4.91101 21.6162L4.71578 21.24L4.50836 20.8334L4.31924 20.4146L4.14843 19.9838L3.98981 19.5347L3.82509 19.0492ZM5.22214 29.8027L5.05132 29.5357L4.8805 29.2505L4.72189 28.9592L4.56327 28.6618L4.39855 28.3462L4.23993 28.0246L4.10572 27.703L3.97151 27.3631L3.84339 27.0051L3.72138 26.6471L3.61157 26.2829L3.50176 25.9006L3.37974 25.488L3.28213 25.0814L3.20893 24.6808L3.13572 24.2742L3.08691 24.0497V23.8191V23.5703V23.3154V22.7874V22.5022V22.2231V21.9257L3.12352 21.6344L3.17232 21.3249L3.23333 21.0154L3.29434 20.6999L3.38585 20.3782L3.45905 20.0263L3.55666 19.7046L3.69088 20.1234L3.84949 20.5421L4.01421 20.9426L4.19723 21.3371L4.39245 21.7315L4.59377 22.126L4.8134 22.4901L5.03912 22.8603L5.27094 23.2183L5.52107 23.5703L5.76509 23.9162L6.03962 24.2742L6.30805 24.5898L6.59478 24.8993L6.87541 25.2209L7.16214 25.5122L7.46717 25.8096L7.77831 26.0766L8.08334 26.3497L8.40667 26.6167L8.73001 26.8655L9.04724 27.1083L9.38277 27.3449L9.70611 27.5755L10.0477 27.7819L10.3833 27.9943L10.731 28.1763L11.0605 28.3645L11.4082 28.5344L11.7376 28.7043L12.0854 28.856L12.4209 29.0017L12.6405 29.1352L12.854 29.2808L13.0493 29.4204L13.2079 29.566L13.3848 29.7238L13.519 29.8695L13.641 30.0212L13.763 30.179L13.8789 30.3367L13.9644 30.5006L14.0498 30.6584L14.123 30.804L14.1962 30.98L14.2694 31.1378L14.3182 31.2956L14.3853 31.4594L14.5683 32.1209L14.7757 32.7702L14.8367 32.9159L14.9039 33.0797L14.9893 33.2254L15.0625 33.3832L15.1601 33.5349L15.2577 33.6805L15.3675 33.814L15.4956 33.9597L15.0991 33.8019L14.7269 33.6441L14.3609 33.5045L13.9888 33.3832L13.6288 33.2739L13.2689 33.1647L12.9272 33.0676L12.5917 32.9644L11.9267 32.7702L11.2862 32.6246L10.6761 32.4668L10.066 32.3029L9.76101 32.218L9.44378 32.1634L9.15095 32.0541L8.85812 31.957L8.54089 31.8417L8.24806 31.7204L7.94912 31.599L7.65629 31.4534L7.35736 31.3138L7.05233 31.1439L6.7534 30.9618L6.45447 30.7737L6.14944 30.5552L5.8505 30.3428L5.54547 30.1001L5.22214 29.8027ZM27.9897 19.9898L28.1117 20.445L28.2093 20.9244L28.2948 21.416L28.368 21.9196L28.4473 22.4476L28.5083 22.9998L28.5571 23.5521L28.5937 24.1286L28.5571 24.4745L28.5205 24.8083L28.4717 25.1238L28.4046 25.4576L28.3558 25.7792L28.2826 26.107L28.2093 26.4286L28.1239 26.7502L27.9409 27.0536L27.7396 27.3631L27.5444 27.6544L27.3309 27.9154L27.1112 28.1945L26.8733 28.4676L26.6415 28.7225L26.3975 28.9834L26.1473 29.2141L25.8789 29.4629L25.6227 29.7359L25.342 29.9605L25.0553 30.1668L24.7564 30.3731L24.4514 30.5734L24.1402 30.7555L23.823 30.9436L23.4997 31.1135L23.1519 31.2834L22.8103 31.4351L22.4503 31.5929L22.0904 31.7386L21.7244 31.8721L21.34 31.9995L20.9557 32.133L20.5591 32.2544L20.1687 32.3515L19.7478 32.4607L19.3268 32.5639L18.8937 32.6489L18.4605 32.7338L17.9969 32.7702L17.0269 35.1977H16.9903L14.4707 30.0151V29.918V29.8027V29.7177V29.6206L14.5073 29.5357L14.5439 29.4629L14.5927 29.3779L14.6415 29.3111L14.6903 29.2383L14.7513 29.1776L14.8123 29.117L14.8795 29.0684L15.0137 28.9834L15.1479 28.8985L15.2943 28.8378L15.4224 28.7832L15.5566 28.7346H15.6664L15.8373 28.6982H15.8922L16.2948 28.7953L16.6913 28.856H17.1001H17.4966L17.9115 28.8075L18.3202 28.7225L18.7168 28.6133L19.1377 28.4676L19.5464 28.2795L19.9491 28.0853L20.3578 27.8547L20.7666 27.6059L21.1753 27.3328L21.5658 27.0415L21.9745 26.732L22.371 26.4043L22.7554 26.0584L23.1519 25.7004L23.5302 25.3362L23.9755 24.8811L24.3476 24.4866L24.7137 24.0801L25.0736 23.6674L25.4336 23.2608L25.7752 22.8421L26.1107 22.4537L26.4585 22.0471L26.7757 21.6344L27.3858 20.8091L27.9897 19.9898ZM16.6547 5.25538V5.38889L17.0391 5.57702L17.3807 5.74694L17.6674 5.88045L17.9359 6.00789L18.186 6.11712L18.4422 6.21422L18.6924 6.29918L18.973 6.38414L18.912 6.06857L18.8266 5.77121L18.729 5.46172L18.6679 5.15222L18.5947 4.85486L18.5337 4.56357L18.4666 4.248L18.4178 3.98099L18.3019 4.10236L18.2043 4.21159L18.1067 4.30869L17.9969 4.40579L17.7712 4.59391L17.5515 4.76383L17.3258 4.91555L17.094 5.04905L16.9842 5.10974L16.8561 5.15829L16.7462 5.20684L16.6547 5.25538ZM16.7035 5.98361L16.6547 9.86142L16.8988 9.49124L17.1611 9.12712L17.4539 8.73267L17.7651 8.35035L18.0884 7.96803L18.4178 7.59178L18.7656 7.2216L19.1255 6.87569L18.851 6.79073L18.5703 6.67543L18.2592 6.57833L17.9359 6.4691L17.6186 6.34166L17.2953 6.22029L16.9903 6.09891L16.7035 5.98361ZM16.6547 10.8385V14.8437L17.0879 14.9044L17.5332 14.9651H17.9603H18.4056H18.6191H18.8388H19.0645H19.2719H19.4915H19.7051H19.9247L20.1504 14.9287L20.3578 14.8923L20.5774 14.8558L20.791 14.8073L21.0106 14.7405L21.2241 14.692L21.4315 14.6313L21.6451 14.5585L21.8647 14.4857L22.0721 14.4007L22.2856 14.2975L22.493 14.2004L22.7005 14.1033L22.914 13.9941L23.1214 13.8849L23.3227 13.7453L23.5302 13.6239L23.3837 13.4783L23.219 13.3205L23.0482 13.1566L22.8774 12.9867L22.5724 12.5862L22.2673 12.216L21.9806 11.8519L21.7 11.4817L21.4376 11.1115L21.1936 10.7596L20.9557 10.4015L20.7422 10.0313L20.5164 9.70971L20.3212 9.35166L20.1321 8.96327L19.9552 8.6113L19.7844 8.26539L19.6379 7.91948L19.4854 7.57964L19.3634 7.24587L18.9303 7.72529L18.5215 8.21684L18.1555 8.69626L17.82 9.16354L17.4905 9.61868L17.1916 10.0435L16.9049 10.4501L16.6547 10.8385ZM16.6547 15.2928V16.3244L16.8378 16.4276L17.0269 16.5247L17.1977 16.6339L17.3563 16.7553L17.521 16.8949L17.6674 17.0284L17.7895 17.174L17.9237 17.3318L18.0396 17.5078L18.125 17.6656L18.2104 17.8476L18.2836 18.0236L18.3446 18.2178L18.3812 18.412V18.6123V18.8065V18.9278V19.0674V19.1888V19.298V19.4194L18.3446 19.5468L18.308 19.6682L18.2592 19.7774L18.1982 19.8867L18.1494 20.002L18.0884 20.0991L18.0091 20.2083L17.9359 20.3054L17.8627 20.4025L17.7773 20.4935L17.6918 20.5785L17.5942 20.6635L17.4905 20.7484L17.3929 20.8212L17.2831 20.8941L17.1855 20.9547L17.0757 21.0215L16.9476 21.0822L16.8378 21.1307L16.7157 21.1793L16.6059 21.2157L16.4656 21.2521L16.3436 21.2885H16.2216H16.0874H15.9471H15.8128H15.6908H15.5566H15.4163H15.2943H15.1723L15.0503 21.2521L14.9222 21.2157L14.8001 21.1671L14.6415 21.1004L14.5317 21.0518L14.4341 20.9851L14.3365 20.9244L14.2206 20.8637L14.123 20.7909L14.0315 20.7181L13.9522 20.6331L13.8667 20.5482L13.7874 20.4571L13.702 20.36L13.6288 20.2629L13.5556 20.178L13.5068 20.0687L13.4458 19.9656L13.3848 19.8563L13.3482 19.7471L13.2933 19.65V19.5286L13.2323 19.4194V19.298V19.1888V19.0674V18.9461L13.1835 19.298L13.1469 19.6682L13.1103 20.0384L13.0737 20.4146V20.797V21.1793V21.5434V23.0605V23.4307V23.7888V24.1407V24.4866V24.8326L13.1103 25.1481L13.1469 25.4819L13.1835 25.7914L13.2201 26.0827L13.2811 26.3679L13.336 26.6471L13.3848 26.908L13.4458 27.1507L13.5068 27.3874L13.5678 27.5937L13.6288 27.794L13.7142 27.9761L13.7752 28.1338L13.8484 28.2674L13.94 28.3827L14.0254 28.4798L14.2694 28.4191L14.4951 28.3341L14.7147 28.2552L14.9771 28.1824H15.1113H15.2821L15.4834 28.146H15.6908H15.941H16.2216H16.5449H16.8988H17.2221L17.5698 28.0974L17.8993 28.0368L18.247 27.9336L18.5947 27.8244L18.9486 27.6908L19.3085 27.5452L19.6685 27.3692L20.0223 27.175L20.3944 26.9687L20.7666 26.732L21.1265 26.5014L21.4925 26.2405L21.8525 25.9734L22.2246 25.6761L22.5907 25.3969L22.9384 25.0874L23.3105 24.7658L23.6644 24.4381L24.0121 24.0922L24.3598 23.7463L24.7015 23.3943L25.0492 23.0241L25.3848 22.6539L25.7142 22.2898L26.0375 21.9075L26.3609 21.5373L26.6659 21.1429L26.9648 20.7666L27.2576 20.3722L27.5444 19.9898L27.8128 19.6136L27.6786 19.2434L27.5322 18.8732L27.3675 18.5152L27.1844 18.1632L27.0014 17.8173L26.7879 17.4835L26.5561 16.992L26.3181 16.6461L26.0619 16.3002L25.7996 15.9603L25.5068 15.6023L25.1956 15.2564L24.8662 14.9165L24.5185 14.5646L24.1463 14.2065L23.7681 13.8424L23.5546 14.0002L23.3593 14.1458L23.1458 14.2793L22.9506 14.4189L22.7554 14.5403L22.5724 14.6252L22.3649 14.7345L22.1514 14.8376L21.9562 14.9347L21.7366 15.0076L21.523 15.0804L21.3156 15.1653L21.0899 15.226L20.8825 15.2746L20.6751 15.3231L20.4493 15.3656L20.2297 15.4142H20.004H19.7844H19.5464H19.3268H19.095H18.6069H18.3568H18.125H17.8871H17.643L17.1611 15.3535L16.6547 15.2928ZM25.9887 30.9497L25.6654 31.156L25.3481 31.3502L25.0126 31.5565L24.6527 31.7507L24.2988 31.9449L23.9145 32.1209L23.5302 32.2908L23.1214 32.4668L22.7066 32.6367L22.2734 32.7945L21.8403 32.9401L21.3522 33.0737L20.8703 33.2193L20.3883 33.3407L19.8942 33.462L19.3756 33.5895H19.1316H18.9059L18.6985 33.6259L18.5154 33.6744H18.4239L18.3507 33.7109L18.2775 33.7473L18.2165 33.7958L18.1555 33.8322L18.1067 33.8808L18.0579 33.9233L18.0213 33.9718L17.9725 34.0204L17.9298 34.081V34.1296V34.1903V34.251V34.3238V34.4634V34.5362V34.609V34.6818V34.7546L17.9969 34.9246L18.0823 35.1006H18.912L19.1743 35.052L19.4549 34.9913L19.7173 34.9246L19.9735 34.8639L20.248 34.7911L20.5042 34.7061L20.7544 34.6211L20.9862 34.5908L21.2363 34.4876L21.4803 34.3905L21.7183 34.2692L21.9623 34.1599L22.2124 34.0507L22.432 33.9233L22.6639 33.7897L22.8896 33.6562L23.1092 33.5227L23.3349 33.371L23.5424 33.2254L23.7498 33.0797L23.9633 32.9159L24.1707 32.7581L24.372 32.6003L24.5673 32.4304L24.7503 32.2544L24.9516 32.0723L25.1346 31.8842L25.3237 31.7022L25.4946 31.508L25.6532 31.3198L25.824 31.1256L25.9887 30.9497ZM18.4178 3.55012L18.2104 3.68363L17.9969 3.81714L17.7895 3.96885L17.582 4.10236L17.3563 4.248L17.1489 4.39365L16.9232 4.53323L16.7035 4.66673L16.6547 1.0256H18.3019V1.3351V1.63852V2.24538V2.55488V2.87651L18.3385 3.20421L18.4178 3.55012ZM14.6415 5.84404L14.3243 6.02002L14.001 6.17781L13.6898 6.34772L13.3604 6.52371L13.0371 6.70577L12.7015 6.87569L12.3721 7.05168L12.0366 7.24587L12.1342 6.88783L12.2074 6.53585L12.2989 6.17781L12.3599 5.81976L12.4209 5.44958L12.4819 5.08547L12.5307 4.70315L12.5795 4.32083L12.6161 3.93244L12.6527 3.53798L12.6893 3.13139V2.7248V2.30607L12.8113 1.88127V1.46254V1.01953H14.6415V5.84404ZM15.9105 35.1977L15.7884 35.0702L15.642 34.9488L15.5078 34.8396L15.3553 34.7304L15.1967 34.5908L15.0381 34.4876L14.8611 34.3905L14.6781 34.3177L14.5073 34.2327L14.306 34.1599L14.1108 34.0992L13.9155 34.0386L13.7142 33.9779L13.5068 33.9233L13.2933 33.8747H13.0737L12.6771 33.7897L12.2745 33.7169L11.8779 33.632L11.5058 33.547L11.1215 33.4438L10.7554 33.3589L10.3711 33.2557L10.0111 33.1586L9.6695 33.0494L9.33397 32.9462L8.99843 32.837L8.669 32.7277L8.34567 32.6064L8.03453 32.4971L7.7295 32.3576L7.41837 32.2483L7.7661 32.5093L8.11384 32.7642L8.45548 32.9887L8.82762 33.2193L9.18755 33.4378L9.56579 33.638L9.93793 33.8322L10.3711 33.9839L10.7676 34.1599L11.1703 34.3298L11.5668 34.4755L11.9877 34.6393L12.4087 34.7729L12.8296 34.8942L13.2567 35.0277L13.6898 35.1552L15.9105 35.1977Z" fill="#EF9A40"/>
</svg>
